<svg xmlns="http://www.w3.org/2000/svg" viewBox="0 0 1000 100" preserveAspectRatio="none">
<path class="elementor-shape-fill" d="M1007.3,41.5l-4-47.9H-7.3l-4,47.9c0.6,0,4.8-0.8,11-2c0.1,4.8,0.1,9.7,0.1,10.2c1.8,0.1,3.7-1.1,5.4-0.8
	c2,0.4,3.7,1.9,5.4,2.8c0.8,0.4,1.1,0.7,1.8,0.2c0.5-0.5,0.6-1.1,1.3-1.5c0.4-0.2,0.7-0.2,1.1-0.3c0.7-0.2,1.4-0.6,2.1-0.7
	c0.4-0.1,0.8,0.1,1.2,0c0.3-0.1,0.6-0.3,0.9-0.3c1.7-0.4,3.8,0.6,5.2-0.6c1.1-0.9,2-1.8,3.5-2c1.3-0.1,2.7,0.1,4.1,0
	c2.2-0.2,4.1,0.2,6.3,0.4c1.4,0.1,4.8,0.8,4.7-1.3c1.4-0.5,3.1,0.2,4.6,0c0.8-0.1,1.4-0.5,2.3-0.4c0.5,0,1,0.1,1.5,0
	c0.6-0.2,1-0.7,1.5-1.1c0.6-0.3,1.2-0.1,1.8-0.3c0.4-0.1,0.7-0.3,1.1-0.4c0.6-0.1,1.1-0.1,1.6-0.5c0.6-0.5,0.6-0.8,1.3-0.9
	c1.7-0.3,3.3,0.8,5.1,0.8c0.3,0,0.6,0,0.9-0.2c0.8-0.5,1.5-1,2.2-1.7c0.3-0.3,0.6-0.6,0.9-0.9c0.6-0.1,0.6,0.8,0.9,1.1
	c0.2,0.2,0.3,0.2,0.6,0.2c1.5,0.1,2.7-0.3,3.9-1.1c0.6-0.4,1-1,1.7-1.2c0.4-0.1,0.7-0.2,1.1-0.4c0.4-0.2,0.5-0.4,1-0.3
	c0.5,0.1,1.1,0.9,1.6,1.2c1.1,0.6,3.4,1.6,4.5,0.5c0.3-0.2,0.4-0.7,0.6-1.1c0.1-0.2,0.1-0.6,0.2-0.8c0.3-0.5,1.1-0.9,1.4-1.4
	c1.3-1.5,3.6-0.2,4.8,0.9c0.6,0.5,1.1,1,1.9,1.2c0.4,0.1,1.3,0.3,1.8,0.1c0.3-0.2,0.5-0.8,0.7-1.1c0.4-0.9,0.4-2,0.6-2.9
	c0.4-0.1,1.1,0.7,1.3,1c0.5,0.5,0.7,0.6,1.3-0.1c0.3-0.3,0.5-1.3,0.9-1.4c0.2,0,0.5,0.3,0.8,0.4c0.4,0.2,0.9,0,1.3,0.1
	c0.6,0.1,0.4,0.2,0.7,0.6c0.3,0.4,0.8,0.5,1.2,0.6c1.3,0.2,2.5,0.4,3.9,0.6c1,0.2,2.4,0.3,3.4,0.1c0.8-0.1,0.9-0.9,1.3-1.6
	c0.4-0.7,0.8-2,1.7-1.7c0.3,0.1,0.6,0.3,0.9,0.4c0.2,0.1,0.5,0,0.7,0c0.5,0.1,0.3,0.4,0.7,0.6c0.4,0.3,0.8,0,1.3-0.1
	c1-0.3,1.8-0.6,2.7-1c0.3-0.2,0.8-0.4,1.2-0.4c0.1,0,1.5,1,1.1,0.8c0.7,0.4,1.6,0.7,2.3,1.1c0.5,0.2,1,0.5,1.5,0.6
	c0.3,0,0.9,0,1.2-0.2c0.4-0.2,0.3-0.6,0.7-0.9c0.3-0.2,0.4-0.2,0.8-0.2c0.7,0.1,1.5,0.2,2.3,0.3c0.5,0.1,1.1,0.1,1.6,0.2
	c0.7,0.1,1.3,0.3,2,0.3c0.7,0,1.4,0,2.2,0c0.7,0,1.3,0,2,0.3c0.7,0.3,1.2,1,1.8,1.2c1,0.3,2-0.5,3-0.5c0.6,0,0.8,0.4,1.3,0.5
	c0.9,0.2,1.1-0.6,1.8-0.9c0.6-0.2,1.5,0.8,2,1.1c0.7,0.4,1.4,0.9,2.1,1.2c0.7,0.3,1.2,0.2,1.9-0.1c1-0.4,2.2-0.9,3.1-1.5
	c0.6-0.4,0.9-1,1.6-0.9c0.7,0.1,0.2,0.5,0.7,0.9c0.3,0.2,0.8,0.1,1.1,0.1c0.6,0,1.8,0.2,2.3,0c0.5-0.2,0.5-0.5,1.1-0.5
	c1.7-0.2,2.8,1.1,4.3,1.5c0.6,0.2,1.3,0.2,1.9,0.2c1.4,0,2.6-1,3.9-1.3c0.6,0.8,0.9,0.6,1.8,0.8c0,0.5,0.6,1.3,1,1.5
	c0.6,0.4,1.1,0,1.6-0.2c0.5-0.2,1-0.1,1.5,0c1,0.2,2,0.1,2.9,0.1c0.6,0,1.3,0.1,1.9,0c0.7,0,1.4-0.4,2-0.7c0.3-0.2,0.6-0.5,0.9-0.5
	c0.8-0.1,1.4,0.8,2,1.1c0.4,0.3,1.7,0.6,2.2,0.3c0.2-0.2,0.2-0.5,0.4-0.7c0.3-0.2,0.5,0.1,0.7,0.2c0.6,0.3,1.2,0.5,1.9,0.6
	c0.5,0.1,1,0.4,1.4,0.4c0.9,0,0.5-0.7,1.1-1c0.5-0.2,1.3,0.2,1.9,0.2c0.7,0,1.6-0.2,2.2,0.1c0.5,0.4,0.2,0.8,0.9,0.8
	c1.5,0,1.1-2,2.2-2.8c0.4,0.1,0.6,0.8,0.8,1.1c0.4,0.5,0.8,1,1.2,1.4c0.4,0.4,0.7,0.9,1.2,1.1c1.1,0.4,1.7-0.9,2-1.8
	c0.6-0.1,1.2,0.7,1.9,0.7c0.4,0,0.8-0.1,1.2,0c0.3,0,0.4,0.2,0.7,0.3c0.3,0.1,0.6,0,0.9,0c0.7,0.1,1.7,0.5,2.5,0.2
	c0-0.1,0-0.3,0.1-0.4c0.7,0.3,0.9,1.1,1.4,1.4c0.4,0.2,0.9,0.2,1.4,0.2c0.3,0,0.9-0.1,1.2,0c0.3,0.1,0.3,0.2,0.5,0.3
	c0.3,0.2,0.2,0.3,0.7,0.4c0.8,0.1,1.5-0.1,2.4,0.3c0.9,0.5,0.2,0.8,1.7,0.9c1.2,0,2.1,0.2,3.2,0.4c0.7,0.1,1.7,0.1,2.4,0.1
	c1.7-0.1,1.5-1.6,3-2.3c0.6-0.3,0.7,0,1.3-0.1c0.9-0.2,1.7-0.9,2.7-1c3-0.4,6,0.2,8.9,0.7c2.2,0.3,4.1,0.6,6.1,1.3
	c2.3,0.8,4.1,2.2,6.6,2.1c2.2-0.1,4.4-0.7,6.4-1.6c2-0.9,3.9-0.3,5.9,0.2c1.3,0.3,2.4,1,3.6,1.2c3,0.6,6.1-0.9,9.1-0.5
	c2.4,0.3,4,1.7,6.5,0.7c2.6-1,4.5-3.1,7.3-2.5c0.3,1.1,1.4,1.2,2.3,1.6c0.8,0.4,1.5,0.9,2.4,1.1c1.3,0.3,3.1,0.2,4.4,0
	c1.9-0.4,3.7-0.4,5.7-0.4c2.1,0,4.2,0.2,5.8-1.4c0.3,0.1,0.6,0.3,0.7,0.7c0.6,0.4,1.2,0.6,1.9,0.8c1,0.4,1.6,0.5,2.6,0.5
	c0.7,0,1.5,0,2.2,0.1c0.4,0.1,0.7,0.4,1.3,0.4c1.7,0.1,2.9-1.6,4.5-1.5c1.1,0.1,1.6,1.2,2.6,1.7c1.4,0.7,3,1,4.4,1.8
	c0.1,0.3,0.3,0.5,0.5,0.7c0.4,0,0.8,0.1,1.2,0.3c1.5,0.6,2,1.7,3.7,1.8c2,0.1,5.3,0.4,7.3-0.1c1.1-0.3,1.7-1.2,2.7-1.4
	c0.8-0.1,1.6,0,2.4-0.2c1.8-0.4,3.4-0.6,5.2-0.8c1.6-0.2,3.2-0.8,4.8-0.9c0.8-0.1,1.6,0.1,2.3,0c1.4-0.1,2.4-0.9,3.6-1.6
	c3.6-2.1,8.1,0.4,11.8-1.2c1.3-0.6,2.4-1.5,3.8-1.9c2.8-0.7,5.7,0.6,8.1,1.7c1.8,0.8,3.7,1.9,5.6,2.4c1.6,0.4,3.1,0,4.6,0.3
	c1.1,0.2,2.2,0.7,2.9,1.5c0.8,0.9,2.3,2.7,3.5,3.1c1.3,0.4,3.1,0.2,4.4,0.5c0.8,0.3,1.6,0.7,2.4,1.1c1.5,0.5,3,0.8,4.5,0.9
	c3.4,0.4,8.2,1.3,11.4-0.2c2.1-1,4.7-0.6,7.1-0.6c0.6,0,1.1-0.6,1.4-1c0.2-0.2,0.3-0.4,0.6-0.6c0.2-0.1,0.3-0.2,0.4-0.4
	c0.2-0.2,0.5-0.3,0.7-0.4c0.3-0.1,0.7-0.1,1-0.1c0.4,0,0.7,0,1.1,0.1c0.5,0.1,0.9,0.1,1.4,0.1c0.3,0,0.8-0.1,1.1,0.1
	c0.2,0.2,0.4,0.4,0.6,0.6c0.4,0.4,0.8,0.7,1.3,0.9c0.3,0.1,0.6,0.1,1,0.1c0.8,0,1.7,0.1,2.5,0.1c0.1,0,0.3,0,0.5,0
	c0.1,0,0.2,0.1,0.2,0.2c0.2,0.2,0.3,0.1,0.6,0.3c1.6,0,3.5,0.5,4.6-0.9c0.2-0.2,0.4-0.5,0.6-0.8c0.1-0.2,0.1-0.5,0.2-0.8
	c0.3-0.6,0.8-0.4,1.6-0.4c1.5-0.1,2-0.8,3.2-1.6c0.9-0.5,1.6-0.9,2.7-0.8c1.1,0.1,1.7,0.6,2.4,1.3c0.5,0.5,0.9,1.1,1.6,1.3
	c0.4,0.1,0.8,0,1.2,0c1.4,0,2.8,0.1,4.2,0c1,0,2.1-0.2,3.1-0.2c1.1,0,2.1,0.1,3.2-0.3c0.4-0.1,0.7-0.2,1-0.2
	c0.7-0.1,0.7-0.1,1.2-0.7c0.2-0.3,0.7-0.9,1.1-1c0.3-0.1,1.1,0,1.4,0c2.1,0,4.1,0.3,6.2,0.2c0.7,0,1.2-0.1,1.7,0.5
	c0.5,0.6,0.4,1.2,0.7,1.7c0.6,0.9,2.8,0.5,3.7,0.4c3-0.4,6.2-0.4,9.3,0.1c0.4,0.1,0.7,0.2,1.1,0.2c0.9,0,1.9-0.5,2.8-0.6
	c1.8-0.2,4.1-1.3,5.5-0.1c0.3,0.3,0,0.9,0.4,1.1c0.2,0.1,1,0.1,1.2,0.1c0.3,0,0.5,0.1,0.8,0.2c0.8,0.1,1.4,0.2,2.3,0.2
	c3,0,6-0.3,8.8,0.8c2.5,1,6.1,1.2,7.9,3.3c0.4,0.4,0.6,0.8,1.1,1.1c0.2,0.1,0.6,0.1,0.9,0.2c0.9,0.5,1.5,1.5,2,2.4
	c0.2,0.4,0.3,1.3,0.7,1.4c0.8,0.2,1.5-1,1.7-1.5c0.1-0.3,0.2-0.7,0.5-0.9c0.3-0.4,0.7-0.3,1.1-0.6c0.4-0.3,0.6-0.9,1-1.3
	c0.6,0,1.1,0.3,1.5,0.8c0.8,0.6,1.8,1.1,2.8,1.4c1.6,0.6,3.2,1.1,4.7,1.8c1.1,0.5,2.1,1.6,3.3,2c0.6,0.2,2-0.1,2.1,0.8
	c1.2,0.3,2.2,0.5,3.3,1c0.8,0.4,1.6,0.6,2.4,0.5c0.6-0.1,1-0.5,1.6-0.6c0.7-0.2,1.6-0.3,2.3-0.4c0.6-0.1,1.3-0.2,2-0.1
	c0.6,0,1.1,0.2,1.5,0.7c0.2,0.2,0.2,0.5,0.4,0.7c0.6,0.5,1.9,0.8,2.7,0.8c1.6,0.1,3.4,0,5,0c1.7-0.1,2.9,0.8,4.4,1.6
	c0.3,0.2,1.9,0.7,2.3,1.2c0.1,0.2,0,0.6,0.2,0.8c0.8,1.6,4.9,2.8,6.4,2.9c3.1,0.3,6.4-0.1,9.4,0.7c1.2,0.3,2,0.2,2.9,1
	c1.4,1.1,2.3,1.2,4.1,1.2c1.7,0,3.8,0,5.2-0.9c0.7-0.4,0.9-1.2,1.7-1.3c0.9-0.2,2,0,2.9,0.1c1,0.2,2.2,0.1,3.1,0.3
	c0.7,0.2,1.3,0.8,1.9,1.3c2.9,2.2,6.2,4.1,10,3.2c1.9-0.5,3.6-1.3,5.6-1.2c1.6,0,3.3,0.1,4.8-0.3c1.3-0.3,2.3,0,3.4,0.6
	c1.5,0.9,3.9,1.6,5.6,1c1-0.4,1.7-1.5,2.7-1.9c0.8-0.4,1.9,0,2.7,0.2c0.7,0.2,1.7,0.3,2.4,0.7c0.2,0.1,0.4,0.1,0.6,0.2
	c0,0.1,0.1,0.2,0.1,0.3c0.5,0.3,1.3,0.7,1.9,0.2c0.5-0.5,0.2-1.4,0.7-2c0.5-0.6,0.9-0.4,1.5-0.2c2.2,0.6,4.6,0.8,6.9,0.6
	c0.6-0.1,1.4-0.2,1.9-0.5c0.7-0.5,0.6-1.7,1.5-1.9c0.6,0.5,1.3,1.5,2,1.8c0.2,0.1,2-0.1,1.8-0.1c1.6,0,3,0.6,4.6,0.4
	c1-0.1,1.9-0.6,2.7-1.1c0.5-0.3,1-0.8,1.4-1c0.9-0.4,2.7-0.1,3.6-0.1c2.7,0,5.4,0,8.1,0c0.8,0,1.6-0.1,2.3,0c2,0.1,3.4,1.8,5.4,1.9
	c2.2,0,4.4,0,6.6-0.3c1.9-0.3,3.8-0.5,5.6-1.2c0.9-0.3,1.5-1,2.5-1.1c1-0.1,1.7,0.3,2.6,0.7c1.9,0.8,4.2,0.4,6.3,0.4
	c2.3,0,5.4,0.6,7.1-1.1c0.7-0.7,0.9-1.7,1.7-2.3c0.6-0.4,1.6-0.7,2.2-0.9c1.2-0.3,2-0.6,3.1-1.1c0.7-0.3,0.9-0.4,1.6-0.4
	c1.8,0,3.6,0,5.3,0c1.2,0,2.5-0.2,3.6,0c0.9,0.1,1.8,1.2,2.6,1.6c0.6,0.3,1.3,0.5,1.9,0.6c1.3,0.2,2.6,0.5,3.9,0.4
	c1.6-0.1,3.1-0.8,4.8-0.8c2.1,0.1,3.9-0.4,5.9-1c0.6,0,1.1-0.3,1.5-0.7c0.2-0.4,0.5-0.5,0.8-0.4c0.4,0.1,0.7,0.8,1,1.1
	c1,1,2.4,1.6,3.8,1.3c1.3-0.3,2.1-1,3.1-1.8c0.7-0.6,0.7-0.9,1.7-0.5c1.1,0.4,2.2,1.2,3.4,1.6c1.3,0.5,2.7,0.5,4,0.9
	c0.9,0.3,2,0.8,3,0.7c0.8-0.1,1.7-0.5,2.5-0.8c0.9-0.3,1.7-0.8,2.6-1c1.4-0.4,2.6-0.3,4-0.4c0.9-0.1,1.6-0.6,2.4-0.7
	c1.8-0.2,3.5,0.1,5.3-0.4c1.6-0.4,3-0.4,4.6-1c1.3-0.5,2.4-1.2,3.8-1.2c3,0,6.1,0,9.1,0c2.5,0,4.5,0.1,6.8-0.9
	c0.7-0.3,1.4-0.6,2.2-0.9c1-0.4,2.3-1.2,3-1.9c2.9-2.7,6.7-5.3,10.8-5.2c3.7,0.1,7.5,0.3,11.1-0.8c1.2-0.4,2.3-0.9,3.5-1.4
	c0,0,0.1-0.3,0.3-0.4c0.6-0.2,1.4,0.1,2.1,0c0.3-0.1,0.5-0.2,0.8-0.4c1-0.5,1.8-0.8,2.9-1c0.9-0.2,1.1-0.5,1.9-0.8
	c0.9-0.4,1.8-0.5,2.8-0.9c0.6-0.3,1.3-0.6,2-0.8c2.1-0.4,3.1,0.6,5,1.3c0.9,0.4,1.3,0.3,2.2,0.4c1.3,0.1,2.2,0.8,3.4,1
	c0.9,0.2,2,0,2.9,0c1.3,0,2.6,0,3.9-0.1c1-0.1,3.1-0.7,4.1-0.3c0.4,0.1,0.3,0.2,0.6,0.4c0.4,0.3,0.8,0.4,1.2,0.7
	c0.6,0.3,1,1,1.5,1.3c0.8,0.5,1.7,0.3,2.5,0.2c3.6-0.3,7-1.1,10.6-1.1c1.2,0,2.5,0.2,3.7,0c0.8-0.1,1.5-0.3,2.4-0.3
	c2.4,0,5.4-0.5,7.6,0.4c0.9,0.3,1.5,0.3,2.5,0.3c1.1,0.1,2,0.4,3.1,0.4c1.9,0,3.1,0.1,4.7-0.8c0.9-0.5,1.6-0.7,2.6-0.6
	c1.4,0.1,3,0.8,4.1,1.8c0.7,0.6,0.4,0.6,1.2,0.7c0.5,0.1,1.2,0,1.7-0.1c1-0.2,2.4-0.5,3.2-0.9c0.8-0.4,1.2-1.1,1.9-1.4
	c1.1-0.5,2.4,1.1,3.5,1.5c0.9,0.3,1.7,0.5,2.5,0.9c1.4,0.6,2.6,1.4,4.1,1.8c0.3,0.1,0.6,0.3,0.9,0.3c0.3,0,0.3-0.3,0.5-0.3
	c1-0.1,1.8,0,2.7-0.5c0.9-0.5,1.6-1.4,2.5-2c0.9-0.6,1.8-0.5,2.9-0.5c0.7,0,1,0,1.7,0.4c0.9,0.6,0.8,1,1.4,1.7
	c0.5,0.6,1.2,0.6,1.9,0.5c1.5-0.2,2.1-2,3.3-2.7c0.6-0.3,1.2-0.4,1.8-0.5c1.5-0.3,1.8-0.5,2.8-1.7c0.6-0.7,1.3-1.3,2.1-1.9v-8.3
	L1007.3,41.5z"/>
</svg>
