<svg xmlns="http://www.w3.org/2000/svg" viewBox="0 0 1000 100" preserveAspectRatio="none">
<g>
	<path class="elementor-shape-fill" d="M-15.8-2.6c2.1,0.2,4.3,0,6.4,0.3c-0.4,0.3-1.1,0.1-1.5,0.6c3,0.3,6.2,0.1,9.2,0.7c-1.4,0.6-2.6,1-4.2,0.9
		c-1.2-0.1-2.3,0.3-3.4,0.4c-0.3,0-0.5,0.1-0.6,0.3c0,0.2,0.2,0.3,0.5,0.3c1.3,0.3,1.5,0.8,1.1,1.5c-0.4,0.7,0.1,1,1.4,1
		c0.5,0,0.9,0,1.4,0C-6,3.7-6.6,3.6-7.1,3.8C-7.5,3.9-8,3.9-8,4.2c0,0.3,0.5,0.3,0.9,0.4C-5.1,4.9-3,5.2-1,5.5
		c0.5,0.1,0.9,0.1,1.5,0.3C-2.1,6.3-4.8,6-7.6,6.6c1.9,0.5,3.5,0.2,5.1,0.2c1.9-0.1,3.8-0.2,5.7-0.2c1,0,2.3-0.2,3.1,0.4
		c0.2,0.1,0.8,0.1,1.1,0.1c1,0,1.9,0.1,2.6,0.6C9.4,8.3,9.2,10,9.2,10.6c0.5,2.5,3.2,0.7,3.4-0.5c0.8,2.1,2.8,3,5,3
		c1-0.2,1.4-2.5,3.2-2.1c1.6,0.7,2.4-0.8,3.9-0.3c0.8,0.5-0.4,2,0.8,2.3c1.4-0.6,3.1-1.6,4.7-1.6c0.2,1,0.9,1.4,1.5,1.4
		c0-1.4,0.6-1.9,1.4-2.1c1.2,0.1,2.4,0.2,3.6,0.3c0.6,0,1,0.1,1.5,0.2c-0.6,0.7-0.9,1.4-1.1,2.2c1.4,0.2-0.6,3.6,3.7,4.3
		c1-1.3,2.7-0.5,4.5-2c0.2-1.4,1.9-2,0.7-3.4c0.1-0.1,0.1-0.2,0.2-0.3c0.9,0.1,1.9,0.2,2.9,0.3c1.7,0.2,3.4,0.4,5.2,0.6
		c0.6,0.6,1.3,0.6,1.9,0.2c0.9,0.1,1.8,0.1,2.8,0.2c0,1.8,1.1,3.3,4.1,2.7c0.6,2.1,2.4,2.5,3.8,2.7c1-0.4,3.9-0.4,3.8-3.5
		c-1-0.6-0.6-1-0.4-1.4c0.8,0,1.6,0,2.4,0.1c0,0.2,0,0.5,0,0.7c2.7-0.5,0.1,1.3,0.2,1.7c0.2,0.7,0.9,1.4,1,2c0.1,3.2,3.2,0.9,4,2
		c0.2,1.3,0.8,2.8,2.1,3.1c1,0.2,1.5-0.9,2.3-0.5c3-2.1,0.2-3.8-0.2-4.4c0.3-1.3,0.3-2.5,1.7-3.5c0-0.4-0.4-0.7-0.8-1.1
		c1.1,0,2.4-0.1,3.5-0.2c2.1-0.1,4.2,0.1,6.3,0.1c5-0.2,10-0.8,15.1-0.6c2,0.1,4,0.5,6.1,0.3c3.3-0.3,6.6-0.2,9.9-0.1
		c1.7,0,3.4,0,5.1,0c0.1,0.5,0,0.9-0.5,0.9c1.1,2.8,2.8,3.6,4.2,3.9c1-0.1,1.7-0.7,2.9-0.6c-0.2-1.5,1.5-1.1,2.4-2.7
		c0.2-0.5-0.3-1-0.3-1.4c0.8,0,1.4,0,2.2,0.1c2.8,0.1,5.7,0.1,8.5,0c-0.5,0.9-0.3,2.2,1,3.9c3.1,0.8,5-1.6,4.4-4c0.9,0,1.7,0,2.6,0
		c0.1,0.1,0.2,0.1,0.2,0.3c-0.7,1.4-1.7,1.1-2.7,1.5c-0.1,0.3,1.1,0.2,0.8,0.9c-0.9-0.1-1.1,0.7-0.9,1c0.3-0.6,1.2-0.3,1.9-0.4
		c1.1,0.5,0.3,2,0.5,3.1c-0.4,0.1-1.6,0.8-1,1.3c0.8-0.1,0.9-1.2,1.6-1.3c-0.5,1.8,0.2,0.5,1.1,0.9c-0.5,1.2,1.1,1.1,1.1,2
		c0,1.1,1.2-0.7,2,0.1c0.3,1.5,1.1,4.2,4.2,3.7c1.6-0.3,2.5-2,2.8-4.1c-0.1-1.1-1.4-1.1-0.9-2.2c-0.9-0.7-2,0.1-2.1-1
		c0.4-0.9,3,0.7,3.4-0.1c-1.4-0.3-1.5-1.5-1.6-2.7c2.9,1.5,5.9-0.1,7.1-2.8c0-0.1-0.1-0.1-0.1-0.2c1,0,2.2-0.1,3.2-0.1
		c0,0.3,0.1,0.6,0.2,0.9c1.2,4.6,3.8,3.2,3.4,5.1c4.7,1.3,6.7-2.6,7.3-4.7c0.1-0.4,0.2-0.8,0.2-1.3c5.9,0,11.7,0,17.6,0.1
		c4.1,0.1,8.3-0.1,12.3,0.2c1.9,0.1,3.9,0.1,5.8-0.2c0.5-0.1,1-0.1,1.5-0.1c1.1,0,2.4-0.2,2.9,0.6c0.4,0.5,1,0.5,1.8,0.5
		c2.5-0.1,4.9-0.1,7.4,0.3c0.4,0.1,1.4-0.2,0.9,0.5c-0.1,0.2,0.7,0.2,1.1,0.2c2,0,4,0.2,6,0.4c0.8,0.1,1.6,0.1,1.8,0.8
		c0.1,0.5,1,0.6,1.8,0.6c1.5,0,3-0.1,4.6-0.1c0.9,0,1.8,0.1,2.5,0.5c0.2,0.1,0.4,0.2,0.6,0.2c-0.1,2,0.6,3.8,1.7,5.5
		c0.7,0.4,1.5,0.4,2.2,1.1c2.8,3.4,2.3,0.4,4.4,0c0.7-0.1,3.2,1.9,4.6-1.6c0.5-1.3,2.8-1.6,2.8-2.6c-0.1-0.4,0.1-0.7,0.4-1.1
		c3.1,0.2,6.3,0.4,9.4,0.5c2.6,0.1,5.1,0.4,7.7,0.5c2.3,0.1,4.6,0.1,6.7,0.2c1,0,1.9-0.4,2.9-0.5c3.5-0.2,6.9-0.3,10.4-0.3
		c1,0,2.1,0,3-0.5c0.4-0.2,1.1-0.2,1.8-0.2s1.4,0,2.1,0c7.5,0,15-0.2,22.4-0.1c4.9,0,9.8,0,14.7-0.4c1.2-0.1,2.3,0.2,3.4,0.3
		c3.5,0.3,7,0,10.5,0c0.4,0.6,0.9,1,0.9,1c0.9,0.1,0.9,1.2,2,1.6c0.8,0,2.1,0.7,3.7-1.1c1.2,0.1,1.6,2.3,2,3.3
		c0.3,0.5,1.7,0.1,1.3,1.1c1.1-0.2,1.6-0.3,2.9-0.8c0.3,0.2,1,0.8,1.2,1.2c0.6-0.3-0.5-1.5,0.2-1.4c1.7,0.3,1.1-0.8,1.8-1.6
		c0.4-0.3,0.9-0.1,1.3-0.6c-0.1-0.2-1.2-0.3-0.8-0.8c1.5-0.2,0.4-1.2,1.5-1.6c-0.4-0.4-0.9-0.4-1.2-1c0.3,0,0.5,0,0.8,0
		c-0.1,0-0.1,0.1-0.2,0.1c1.4,0.8,3.5,1.2,4.1,2.9c-0.6,0.6-0.6-0.5-1.2-0.5c0.6,1.4-0.3,0.6-0.6,1.1c0.4,0.2,0.7,0.5,0.7,1
		c-0.7,0.1-1.1,0.4-1.7,0.7c1.8,0.5-0.4,1.6-0.1,2.8c1.2-0.4,1.9,1.5,2.9,2.3c0,0.4-1,1.2-0.4,1.3c0.8-1.3,1.3-0.6,2-0.3
		c0.4-0.8,0.9-0.6,1.7-0.3c0.1-0.6,0-1.2,0.4-1.4c0.9-0.5,1.4,1.3,1.6,0.5c-1.8-1.9,1-2.7,1.4-4.2c-0.8,0.1-1.4-0.1-1.3-0.8
		c0.6,0,1.1-0.2,1.3-0.6c-1,0-1.6-0.5-2.3-0.9c-0.1-0.7-0.6-1.2,0-1.8c-0.9,0-0.9,1-2,0.9c-0.4-0.9,1.3-1.8,0-1.8
		c-0.6,0.2-0.1,1.7-1.1,1.4c-0.7-0.3-0.2-1.4-0.9-1.4c0,0.3,0.1,0.9-0.3,0.9c-0.9,0.1-2.3-1.6-3.4-1.9c0.6,0,1.1,0,1.6-0.1
		c0.7,0,1.3,0,2,0c2.7,0,5.4,0,8.1,0c-0.1,1.3,2.5,2.1,2.6,3.2c1.2,0.3,2,1,3.1,0.9c1.5-0.1,2.5-1.7,3.7-2.1c-0.2-0.7,0.5-1.4,0.9-2
		c4.3,0,8.5,0,12.8,0c-0.3,0.3-0.5,0.6-0.6,0.8c-2,3.4,0.7,4.6,1.6,5.7c4,0.8,6.2-1,6.1-4.5c0-1.1-0.5-1.6-0.7-2c3.8,0,7.5,0,11.3,0
		c0.8,0,1.4-0.1,2.2-0.1c-0.2,1.7,0.9,2.2,1,2.7c0.4,2.2,4.7,1.6,5.8-0.1c0.5-0.8,0-1.7,0.4-2.7c0.1,0,0.2,0,0.3,0
		c1.7,0,3.4,0.1,5.1,0.2c0.4,0.8,0.9,1.6,1,2.4c-0.3,0.7-2.7,0.6-3.6,2.3c-0.9,3.1,0.1,4.8,2.8,5.6c0.9,0.2,1.3-0.9,2.5-0.3
		c1.5,0.7,1.3,1.7,2.3,2.9c0.6,0.4,2.3,1.6,4,0.8c0.9-0.5,0.6-2.3,1.8-1c0.9-1.2,1.8-4.3,0.5-6.2c-1.6-0.6-3.2-2.3-4.7-1.4
		c-0.5-0.6-1.5-1-1.4-1.9c0.8-0.9,1.9-1.5,2.3-3.1c0.9,0,1.9,0,2.9,0c-0.3,0.8-0.3,1.7,0.7,2.6c2.5,1.9,4.1-0.4,4.3-2.4
		c0-0.1-0.1-0.1-0.1-0.2c5.1,0,10.3,0,15.4,0c0.5,0.9,1.1,1.7,1.7,2.3c1.1,1.1,0.8,2.6,1.1,3.4c1,0.9,2.8,1.3,4.6,1.7
		c0.4-2.3,5.6-0.8,7.2-2.9c-1-1.3,1.1-1.7,1.4-2.7c0.3-0.7,0.3-1.4,0.3-2.2c1.5,0,3-0.1,4.6,0c3.6,0.2,7.1,0,10.6,0
		c5.1,0,10.3-0.3,15.3-1c0.9-0.1,1.7-0.1,2.6,0c1.9,0.2,3.8,0,5.7-0.1c1.5,0,3,0,4.7,0c-0.1,0.6-0.2,1.2-0.4,1.6
		c-0.9,0.5-2.5-0.5-3.9-1.3c-2.7-0.3-2,3.2-3.3,3.7c-2.8-4.3-3.6,0.1-3.5,1.4c0.5,2.5,3.2,0.7,3.4-0.5c0.8,2.1,2.8,3,5,3
		c1-0.2,1.4-2.5,3.2-2.1c1.6,0.7,2.4-0.8,3.9-0.3c0.8,0.5-0.4,2,0.8,2.3c1.4-0.6,3.1-1.6,4.7-1.6c0.2,1,0.9,1.4,1.5,1.4
		c0-2.7,2.1-2.1,3.6-2.4c0.8-1.8,1.3-2.4,1.1-4.3c0.3-0.5,1.4,0.1,1.7-0.4c0-0.1-0.1-0.2-0.1-0.3c0.2,0,0.5,0,0.7,0
		c8.3,0,16.5,0,24.8-0.2c1.2,0,2.6,0,3.8,0c0.1,0.7-0.6,1.6,1.1,2.2c2.4,0.2,1.2-1.3,2-1.8c-0.1-0.1-0.2-0.2-0.4-0.3
		c4.1,0,8.1,0.1,12.1-0.1c1.2-0.1,2.5-0.1,3.7-0.1c-0.3,4,2.2,8.7,7,4.2c0.9-0.1,2.1,1.3,3.1,0.7c3.5-2.2-0.6-3.1-0.9-4.1
		c-0.1-0.2-0.1-0.5-0.2-0.8c2.4,0,4.8,0,7.2-0.1c3.8-0.1,7.6-0.4,11.4-0.4c0.1,0,0.2,0,0.3,0c0.1,0.3,0,0.6,0,0.8
		c-0.9,1.2-1.6-0.2-2.6,0.7c0.4,1.7,2.8-0.2,3,1.3c-0.1,1.1-1,2.3,0.3,3.3c0.7-0.8,1.4,0.2,2-1.2c0.8,0.1,1.4,1.2,2.2,1.5
		c0.4-1.2,0.9-2,2.1-2c0.2-0.7-1.5-0.9-1.2-1.3c0.4-1,2.5,0.7,2.8-0.5c-1.1-0.9-0.7-1.6-0.9-2.3c1.5,0.1,3.1,0.2,4.7,0.3
		c0.3,0,0.7,0,0.9,0.1c0.3,2.6,4.6,2.3,5.8,0.6c0-0.3,0-0.5,0-0.7c1.3,0,2.6,0,3.9,0c-0.5,0.2-1,0.8-1.5,2.1
		c0.9,3.6,3.2,0.1,3.9,0.3c5.2,5.5,5.4,0,6.4-1.1c1.9,1.5,3.6,1,4.7-0.4c5.3,0,10.6,0,16,0c2.8,0,5.6,0.1,8.4,0.1
		c4.8,0,9.7-0.1,14.4-0.2c2.5-0.1,4.9,0,7.4,0.1c4.2,0.1,8.4,0,12.5,0.1c4,0.1,8,0.1,11.9,0.1c0.1,1.8,1.1,3.2,2.5,4.2
		c0.8-1.2,1.8,0.6,3.4-0.2c1.8-0.9,2-2.5,1.7-3.9c6.7,0.1,13.5,0.1,20.2,0.1c4.2,0,8.4,0.3,12.4,0.4c0.7,0,1.3,0,2.2,0
		c-0.9-0.5-1.9-0.4-2.8-0.5c-3-0.1-6-0.1-9-0.1c-7.8-0.2-15.6-0.4-23.4-0.5c0-0.1,0-0.1,0-0.2c0.5,0,1,0.1,1.5,0c4-0.4,8-0.1,12,0.1
		c8.2,0.3,16.3,0.1,24.4,0.9c-0.2,0.1-0.6,0-0.6,0.2s0.3,0.2,0.5,0.2c0.9,0.1,1.7,0.1,2.6,0.2c1.7,0,3.3,0,5,0
		c-0.1,0.1-0.2,0.2-0.3,0.3c0.3,1.7,2.1,1.8,2.7,3.3c0.7,0.1,1-0.5,1.5,0c0.7-1.2,1.6-0.5,2.2-0.9c0.7-0.4,0.6-1.8,1.1-2.6
		c-0.1-0.2-0.1-0.3-0.2-0.4c0.2,0,0.4,0,0.6,0.1c2.7,0.4,5.4,0.4,8.2,0.3c1.4-0.1,2.8-0.1,4.3-0.1c0.1,0.7,0.2,1.5-0.9,2.3
		c0,2.9,4.1,5,5.8,1.2c0.2-1.1-0.2-2.5-0.6-3.4c0.1,0,0.3,0,0.4,0c0.4,0,0.7,0,1,0c4-0.1,8,0.1,12,0.2c-0.4,0.5-0.7,1.1-1.3,1.4
		c0,1.5,1.7,1.9,2.2,3.4c1.5-0.4,3.7,1,4.4-3c0.1-0.6-0.1-1.2-0.5-1.6c3.4,0.1,6.7,0.3,10.2,0c1.3-0.1,2.7,0.3,4,0.3
		c2.6,0,5.2-0.2,7.8-0.4c0.1,0.2,0.2,0.5,0.2,0.7c1.3-0.7,0.7,1,1.8,1.4c1,0.2,5.1,0.8,7.5-3l0,0c0.9,0,1.6,0,2.5,0
		c0.1,0,0.3,0,0.4,0c-0.1,1.1-0.4,2-0.5,3.1c-1.4,0.4-1.7,2.7-0.5,3.5c1.2,0.3,2.1-0.6,3.3-0.3c1.6,3.3,5.6,1.5,6.9-0.4
		c-0.8-1.6,0-4.7-1.2-6.4c0.2,0,0.4,0,0.5-0.1c2.2-0.4,4.5-0.6,6.6-0.6c6.2-0.1,12.4-0.4,18.6-0.4c4.6,0.1,9.2-0.1,13.8-0.3
		c-0.6,0.3-1,1.1-1.3,1c-0.4,0-0.2-1.2-0.9-0.9c-0.7,0.5-1.1,1.6,0.7,1.6c-0.4,0.7-0.6,1.7-0.7,2.8c1,1.5,2.8,2.5,5.1,1.9
		c0.9-1,2.6-3.6,0.9-5.4c0.4-0.2,0.4-0.7,0.5-1.3c1,0,2.2-0.1,3.2-0.1c2-0.1,4-0.2,6-0.3c0.4,0.3,0.9,0.5,1.6,0.5
		c0.3,1.7,0.8,2.3,1,4c1.5,2.6,3.1,0.9,4.2,1.1c0.6,0.1,0.5,1.2,0.5,1.2c1.8,0.3,2.3-1,1.8-2.6c0.9,0,1.6,1.2,1.7,1.1
		c0.9-0.7-0.1-1.5,0.3-2.2c0.1-0.2,2.5-0.5,1.5-2.6c-0.3-0.7,0.5-1,0.6-1.6c2.5-0.3,5-0.6,7.5-0.9c4-0.6,8-0.6,12.1-0.6
		c1.1,0,2.2,0,2.4-0.9c0.1-0.4,0.7-0.3,1.1-0.4c4.9-0.5,10-0.8,15-1.2c2.6-0.2,4.9-0.9,7.6-1c1.3-0.1,2.8-0.1,4.3-0.4
		c-0.9-0.5-1.7-0.3-2.8-0.4c1.3-0.2,2.3-0.3,3.3-0.5c2.8-0.4,5.4-0.7,8.1-1.2c0.7-0.1,1.3-0.3,1.2-0.8s0.6-0.5,1.1-0.6
		c0.9-0.1,1.8-0.1,2.8-0.2c1.4-0.1,2.8-0.1,3.7-1c0.9-0.7,2.3-1.1,3.9-0.9c0.5,0,1.1,0.1,1.3-0.3c0.2-0.4-0.5-0.5-1-0.7
		c-1-0.3-2-0.6-2.9-0.9c-0.8-0.2-1.2-0.7-1.4-1.2c-0.3-0.5-0.1-0.8,0.9-0.9c0.4,0,0.7-0.1,1-0.1c0.4-0.1,1,0,0.9-0.4
		c0-0.3-0.7-0.3-1-0.4c-0.8-0.1-1.5,0-2,0.3c-0.9,0.6-1.8,0.2-2.8,0.2c-0.1,0-0.3-0.1-0.3-0.1c0.2-1-1.2-0.7-2-0.8
		c-1.1-0.2-2.7-0.3-3.1-0.8c-0.8-0.8-2.3-0.4-3.1-1.1c-0.6-0.5-2.2-0.5-3.4-0.5c-0.9,0-1.8,0-2.7-0.2c0-0.4,0.9-0.3,0.8-0.7
		c-0.3-0.3-0.9-0.3-1.5-0.3c-3.1-0.1-6.3,0.2-9.4,0.3c-4.4,0.2-8.7,0-13,0.1c0.7-0.1,1.4,0,2-0.3c-0.1-0.2-0.5-0.2-0.7-0.2
		c-4.5,0.1-8.9-0.2-13.5-0.2c-1.9,0-3.8-0.1-5.7-0.4c-2.3-0.4-4.7-0.1-7-0.3c-1.2-0.1-2.4-0.4-3.5-0.5c-2.7-0.2-5.3-0.3-7.9-0.7
		c-4.7-0.7-9.6-0.3-14.4-0.4c-2.1,0-4.2-0.3-6.4-0.2c-3.4,0.1-6.7,0.1-10.2,0.1c0.4-0.3,0.7-0.6,0.9-0.9c-0.9-1.9,0.8-6.2-3.3-6.5
		c0.1-1.1-0.7-1.5-1.7-1.6c-1.3,0.5-1.6,2.6-3.6,1.9c-0.1,1.4-0.4,2.4-0.6,3.8c-1.3,0.4-1.6,2.3-0.4,3c1.1,0.2,2-0.5,3.1-0.2
		c0.1,0.2,0.3,0.4,0.4,0.6c-3.1,0.1-6.2,0.2-9.2-0.3c0.2-0.1,0.8,0,0.9-0.3c-1.5-0.5-10.2-0.5-16,0.1c1.1,0,2.4,0,3.5,0
		c-1.1,0-2.3,0.1-3.4,0.1c-0.3-0.2-0.5-0.4-0.8-0.7c-0.8,0.5-1.5,0.5-2.2-0.5c-0.3,0.5-0.8,0.8-1.3,1.1c-0.5,0-0.9,0-1.4,0
		c-0.9-0.1-2-0.1-3,0c-3.4,0-6.7,0-10.2-0.3c-1.4-0.1-2.8,0.1-4.2,0.1c-3.9,0-7.8,0.1-11.6-0.4l0,0c-0.1-0.2-0.2-0.4-0.3-0.5
		c-0.7-0.6-1.3-0.2-1.8,0.5c-10.4-0.1-20.7-0.4-31-0.3c-0.4,0-0.7,0-1,0c3.4-0.6,6.9-0.4,10.4-0.5c2.5-0.1,4.9-0.2,7.4-0.5
		c0.9-0.1,1.9-0.2,1.1-1c0,0,0-0.1,0-0.2c0,0,0,0,0-0.1c0.5,0.3,0.9,0.6,1.1,1.2c0.7,0.1,1-0.5,1.4,0c0.6-1.1,1.5-0.5,2.1-0.8
		c0.6-0.4,0.6-1.6,1-2.2c-0.2-0.5-0.8-0.8-0.9-1.4c0-0.4,0.6-0.3,0.4-0.8c-1,0-1.2-0.9-2.4-0.2c-0.1-0.7-0.7-1.2-1-1.6
		c-0.3,0.5-0.7,1.4-1.2,1.2c-0.9-0.3-1.1,1.2-1.9,0.8c0.2,1.1,0.5,1.5-0.2,2.2c0,0.2,0.1,0.3,0.2,0.5c-0.3,0-0.6,0-0.9,0
		c-3.6,0-7.3-0.1-10.9,0.1c-0.8,0-1.5,0-2.3,0c0.9-0.7-0.1-0.7-0.8-0.7c-1.5-0.1-3-0.2-4.7-0.2c0.1-2.7-1.3-4.2-3.1-5.2
		c-1.6,1.3-5-1.3-7.3,3.8c0,0.5,0.1,0.9,0.2,1.3c-3.9,0-7.8,0.1-11.6,0.3c-8.9,0.3-17.9,0.4-26.7,0.1c-6.4-0.2-12.7-0.2-19-0.2
		c-1.7,0-3.5,0.1-5.2,0.2c0-0.1,0-0.1-0.1-0.2c-0.9-0.6-1.3-0.7-1-1.8c-1.3-0.3-2.2-0.9-3.5-0.2c-0.1-0.4-0.5-1.2-0.5-1.7
		c-1.4-0.1-2.5-0.1-3.4-1.7c-2.1,0.5-4.9-0.9-5.4,0.4c-0.3,0.9-0.2,2.2-0.8,2.9c-1.6-1.5-2.5,0.1-3.7,0c-0.4,0.8-0.4,1.4-0.2,2.2
		c-2.4,0-4.8,0-7.2,0c1.1-0.5,2-1.7,2.3-3.1c0.5-2.5-2.8-1.7-3.4-3.6c-1.8-0.2-1.9,2.5-3.1,3.1c-1.7-1-3.2-2.1-4.7-0.9
		c-1.7,1.6-0.1,2.5-0.9,3c-0.7-0.4-2-1-2.9,1.5c-1.4,0-2.9,0-4.4,0c0.9-0.2,1.7-0.5,2.1-1.1c0.5-4.8-3-2-4.7-2.9
		c-1.5,2.5-0.5,3.7,1,4c-1.1,0-2.4,0-3.5,0c-0.9,0-2,0-2.9,0c-1.2-1.1,0.5-2-1.8-2.8c0.6-0.3,0.1-0.9,0.6-1.3
		c-0.5-0.4-1.3,0.3-1.8,0c-0.1-0.5-0.3-1.2-0.9-1.7c-0.8,1.1-1.4,0.9-1.9,0.1c-0.9,0.1-0.2,1.1-0.9,1.2c-0.7,0.2-1.5-1.2-2.2-0.7
		c0.2,0.5,0.1,1.3-0.4,1.8c1.4,0.9,1.1,1.5,1,1.9c-0.9,1.1-1.5-0.2-2.5,0.6c0.3,1.2,1.9,0.3,2.6,0.7c-0.1,0-0.2,0-0.3,0
		c-3.2,0-6.5,0.1-9.8,0.4c-4.1,0.4-8.3,0-12.3-0.1c-5.8-0.2-11.7-0.4-17.5,0c-0.6,0-1.1,0.1-1.6,0.1c0.3-0.4,0-1,0.5-1.2
		c-1.2-1.2-2.6-1.6-3.1-0.7c0.5,0.6-0.3,1.3,0.5,1.9c-1.2,0-2.5-0.1-3.7-0.2c-3.1-0.2-6.2-0.1-9.2,0c-0.3,0-0.5,0-0.8,0
		c-0.6-2-2.1-5.7-7.3-2.7c-0.7,0.7-0.9,1.7-1,2.8c-2.2,0-4.3,0-6.5-0.1c-2,0-3.9,0-5.9,0c-0.1-0.3-0.2-0.5-0.2-0.7
		c-1.5-0.2-4.2-3.1-6.6,0.2c-0.1,0.2-0.1,0.4-0.1,0.6c-2.4,0-4.8,0-7.2,0c0-0.2,0-0.4,0-0.6c0.3-0.4,1.4,0.1,1.6-0.3
		c-0.3-1.2-1-2.1-0.9-3.5c-1.2,0-1.8-1-2.7-1.6c1-0.5,0.6-1.3,0.5-1.7c-1.5,0.3-1.9-0.9-3-1.4c-0.5,0.2-1.4,0.4-0.8,1.7
		c-1.2-0.5-2.6,0.6-3.7,0.4c-0.5-0.6,0.4-2.5-1.5-2.3c-1.8,1.3,1.6,3.6-1.4,4c-0.2-0.6-0.7-1.6-1.7-1.5c-1.4,1.4,1.7,1.9,0.6,2.9
		c-2.8-0.1-2.1,2.3-2.8,3.8c-0.7,0-1.2,0-1.9,0c-0.6-0.2-1.2-0.6-1.9-0.9c-1-0.1-1.5,0.3-1.8,0.9c-1.3,0-2.6,0-3.9,0
		c-0.9-1.3-3.1-1.8-4.2-3.1c-1.9-0.8-3.8,0.3-5.1-0.3c-0.7,0.6-2.1,1.3-1.8,2.5c-0.7,0.3-2.3,0.7-2.8,1.3c-4.8-0.3-9.8-0.5-14.7-0.3
		c-3.8,0.1-7.6,0.6-11.4,0.7c-0.8,0-1.5,0-2.2,0c0-0.2,0.1-0.3,0.1-0.5c-0.7-0.6-0.8-1.5-1.6-1.8c-1-0.3-1.8,0.5-2.7,0.8
		c-0.2,0.5-0.5,1-0.5,1.5c-0.9,0-2,0-2.9,0c0.3-0.4,0.5-0.9,0.5-1.6c-0.7-2.5-3.3-3.4-4.8-3.1c-0.7,0.4-1.1,1.2-1.8,1.6
		c0.5,0.9-0.6,1-0.6,1.7c0.1,0.5,0.4,0.9,0.7,1.3c-0.2,0-0.3,0-0.5,0c-1.7,0-3.4-0.1-5.2-0.1c0-0.3,0.1-0.7,0.4-1.1
		c-1.1-2.8-5.9-3.2-6.8-0.3c-0.2,0.6-0.2,1-0.1,1.4c-0.3,0-0.6,0-0.9,0c0.1-0.4,0.1-0.8,0.1-1.2c-0.5-0.8-1.4-1.1-1.2-2.4
		c-0.3,0-0.9,0.1-0.9-0.1c0-1.1-0.6-1.4-0.8-2.3c0.1-0.5,0.8-0.4,0.7-1.1c-0.9-0.2-0.8,0.5-1.2,0.7c-0.6-0.8-1.3-1.6-1.9-1.6
		c-0.5,0.3,0.2,0.8-0.2,1.3c-0.8-0.2-0.7,0.5-1,0.7c-0.3-0.5-0.5-0.3-1-0.2c0.1,1.5,1,0,1.2,0.9c-0.5,0.5-0.6,1.3-0.9,2
		c-0.4,0.3-1,0.3-0.9,1.1c1,0,1.9,0.1,1.7,1.3c0.6,0,1.2-0.1,1.2,0.4c0,0.2,0,0.4,0,0.6c-0.3,0-0.6,0-0.8,0c-1.8,0-3.6,0-5.5,0
		c-0.3-0.6-0.8-0.9-0.6-1.5c1.1-0.2,1.4-0.6,2.4-1.3c-0.6-0.5-1,0.5-2.8,1.3c-2.4-2.4-5.3,0.7-5.9,1.5c-1.4,0-2.8,0-4.3,0
		c-2.6,0-5.1,0-7.6,0c-1.1-1-2.8-1.4-4.2-1.3c-1.6,0.2-2,0.7-2.1,1.2c-4.4,0-8.7,0-13,0c-0.7-0.4-1.3-0.7-1.8-0.4
		c0.3,0.1,0.6,0.3,0.9,0.4c-14.3,0-28.7,0-43,0c-2.9,0-5.8,0-8.7,0c-0.2-0.1-0.4-0.2-0.6-0.5c-0.5-0.9,0.9-1.2,0.7-1.6
		c-0.5,0-1,0.2-1.4-0.2c-0.1-0.5,0.2-2.4-1.9-2.1c-0.9,0.3-2.1,0.9-2.7-0.1c-1.9,0.9-2.7,2.2-4,2.9c-0.3-3.1-2.8-0.9-3.3-2.3
		c-0.7,0.4-1.6,0.5-1.6-0.3c-0.3-0.6-2.2,0.9-2.1,2.3c0.1,0.6,1.1,0.8,0.1,1.1c-0.1,0.3,0,0.6,0.2,0.9c-0.2,0-0.3,0-0.5,0
		c-2.8,0.2-5.5,0.1-8.3,0.1c-0.1-0.4-0.1-0.9,0-1.4c-2.3,0.5-0.7-1-0.8-1.4c-0.9-3.4-4.5-1.6-5.7-4.1c-0.7,0.6-2.2,0-1.2,1.3
		c-3.5-0.1-8.5,3-8.9,5.5c-2.5-0.1-4.9-0.2-7.4-0.1c-3.2,0.1-6.6-0.3-9.8,0.2c-1,0.1-2.2-0.1-3.2-0.1c-4.8,0.2-9.7-0.3-14.6-0.2
		c-4.3,0.1-8.5,0.2-12.9-0.1c-1.1-0.1-2.3,0-3.3,0.2c-0.4-1.3-1.9-0.6-2.7-1.7c-1.7,0.6-2.7-1.3-3.7,1c0.1,0.4,0.1,0.7,0.1,1.1
		c-0.5,0-0.9,0-1.5,0c-0.5,0-1,0-1.5,0c0.2-0.4,0.4-0.8,0.5-1.2c0.5-1.5,0.5-4.6-2.7-4.7c-0.7,0-0.9-0.6-0.9-0.6
		c-3.5-1.1-7.7,1.4-6.6,5.1c0.2,0.5,0.3,0.9,0.5,1.3c-1.1,0-2.4,0-3.5,0.1c-2.7,0.1-5.4,0.2-8.1-0.1c-2.5-0.2-4.8,0.2-7.2,0.3
		c-3.5,0.1-7,0.5-10.6,0.4c-3.5-0.1-6.9,0.3-10.4,0.5c-1.5,0.1-2.9,0.1-4.4,0.1c0,0,0,0,0-0.1c-0.9-0.6-1.9,0.1-1.9-0.8
		c0.4-0.8,2.8,0.6,3.2-0.1c-1.3-0.2-1.4-1.3-1.5-2.3c2.8,1.3,5.6-0.1,6.7-2.4c-0.6-0.9,0.3-2,0.1-2.9c-0.2-0.6-2.3-0.2-0.8-1.5
		c-1.7-0.6-2.6-1.6-4.3-1.4c-0.3,0-0.1,0.8-0.5,1c-0.6,0.2-1.5-0.3-1.7-0.2c-0.9,0.6-1.2,1.9-1.9,2.8c-0.8-0.1,0.2-1.2-0.8-1.1
		c-0.9-0.1,0.4,1-0.5,0.9c-1-0.3-1.6-0.9-2.7-0.6c0.2-0.7-0.5-0.9-0.4-1.6c-0.5-0.3,0.1-1.2-0.7-1.4c-0.1,1.2,0.7,2,0.8,3
		c-0.3,0.7-1,0.7-1.7,0.8c0.9,0.5-0.2,0.8,0,1.2c-0.9-0.5-1.3,0.2-1.6,0.2c-0.4,0.1-1.3-0.3-1.4,0.4c0.4,0.2,1.6,0,1.5,0.5
		c-0.7,1.2-1.6,0.9-2.5,1.3c-0.1,0.3,1,0.2,0.8,0.8c-0.9-0.1-1.1,0.6-0.9,0.9c0.3-0.5,1.1-0.3,1.8-0.3c1,0.4,0.2,1.7,0.4,2.7
		c-0.2,0.1-0.6,0.2-0.9,0.5c-1.1,0-2.3,0-3.4,0c-7.7-0.1-15.5,0-23.2-0.2c2.2,0,4.4,0,6.9,0c-0.8-0.4-1.4-0.4-2-0.4
		c-7.7,0-15.3,0-23,0c-0.8,0-1.5,0.1-2.1,0.4c-0.3,0.1-0.6,0.2-0.9,0.2c-2.6,0-5,0.1-7.5-0.3c-1-0.1-2.1-0.2-3.2-0.2
		c-3.1-0.1-6.3-0.1-9.4-0.1c-0.4-0.4-0.9-0.8-0.9-1c0.3-1.1,0.3-2.2,1.6-3c0-0.6-1-1-1-1.7c0.8-0.8,1.1-1.6,1-2.3
		c-1.2-1.3-2.7,2.2-3.4-0.2c-1.4,0.9-2.6,0.1-4,0.2c-0.8,1.2-3.2,0.7-3.1,3.7c2.6-0.4,0.1,1.1,0.2,1.5c0.2,0.6,0.9,1.2,0.9,1.7
		s0.1,0.9,0.3,1.1c-1.6,0-3.2,0-4.8,0c-0.9,0-1.9,0-2.8,0.1c-0.3,0-0.7,0-0.8,0.1c-0.9,0.9-2.3,0.5-3.4,0.5c-4.6-0.3-9-0.3-13.6,0
		c-0.2-0.4-0.5-0.8-1.1-1.2c-0.8,0.2-1,0.7-0.9,1.2c-1.5,0-2.9-0.1-4.5-0.1c-5.2-0.1-10.4-0.1-15.7,0.3c-1.7,0.1-3.5-0.1-5.2-0.1
		c-6.6,0-13.3,0-19.9,0c-1.1,0-2.2,0.1-3.3,0.3c-0.8,0.1-1.8,0.5-2.5-0.2c-0.1-0.1-0.6-0.1-0.9-0.1c-3.6,0.1-7.2,0.1-10.8,0.2
		c-2.9,0.1-5.9,0.1-8.8,0.1c-3.2,0-6.4,0.2-9.5,0.4c0.5-0.6,0.9-1.1,0.1-1.9c0.3-0.4,0.9-0.9,0.9-1.3c-0.4-0.9-1.5-0.2-2.3-0.6
		c0.2-1.3-1-1-2-1.5c-1.8,0.6-4.2,2-4.8,4.4c0.6,0.1,0.6,0.7,0.7,1.4c-1.1,0-2.2,0.1-3.3,0.1C20-9.4,15.7-9.4,11.5-8.9
		C8-8.5,4.4-8.4,1-7.8c-1.3,0.3-2.8,0.4-4,1C-3.3-6.6-4-6.6-4.6-6.5c0.9,0.4,1.8,0.1,2.6,0.3C-3.3-5.5-5.2-6-6.5-5.3
		c1.3,0.5,2.8,0,4,0.6C-4.3-4.6-6-4.5-7.7-4.5c-2,0-4,0-6,0.3c-1.2,0.1-2.2,0.4-2.5,1.3c0,0.1-0.2,0.3-0.3,0.4
		C-17.3-2.7-17.3-2.7-15.8-2.6z M721-14.1c0.3,0.1,0.5,0.2,0.7,0.4c-0.5,0-0.9,0-1.3,0C720.6-13.9,720.8-14,721-14.1z M707.4-13.8
		c-0.5,0-1,0-1.5,0c0.1-0.3,0.2-0.5,0.4-0.6C706.6-14.2,707-14,707.4-13.8z M682.8,15.8c1.6-0.3,3.5-0.1,5.3,0
		c1.9,0.1,3.8,0,5.6-0.1c3.4-0.2,6.8,0.1,10.3,0.1c1.1,0,2.4,0.1,3.5,0.1c2.9,0,5.9-0.1,8.8,0.3c1.3,0.2,2.8,0.1,4.2-0.1
		c2.4-0.3,4.7-0.1,7,0c4.9,0.2,9.9,0.2,14.7,0.1c0.8,0,1.6,0,2.4,0c0,0.2,0,0.3-0.1,0.5c-0.6,0-1-0.1-1.6-0.1
		c-4.3-0.4-8.5-0.1-12.9-0.1c-2.4,0-4.7-0.1-7-0.1c-5.2,0-10.4,0.1-15.7,0.4c-2.5,0.1-4.9,0.1-7.4-0.1c-4.3-0.4-8.5-0.2-12.7-0.1
		c-0.9,0-1.8,0-2.8,0c-3.4-0.2-6.8-0.2-10.3-0.1c0.1-0.1,0.2-0.3,0.2-0.4c0.4,0,0.8,0,1,0C678.1,16.2,680.4,16.2,682.8,15.8z
		 M662.5,16.2c0,0.1-0.1,0.2-0.3,0.3c-0.2-0.1-0.4-0.2-0.7-0.3C661.9,16.2,662.2,16.2,662.5,16.2z M221.5-12.3
		c-0.1,0.2-0.1,0.3-0.1,0.4c-0.2,0-0.4,0-0.6,0C221-12.1,221.2-12.3,221.5-12.3z M13.6,8.3c-0.2,0.5-0.4,0.9-0.8,1.1
		c-0.3-0.5-0.6-0.8-0.9-1.1c0.2,0,0.4,0,0.6,0C12.9,8.3,13.3,8.3,13.6,8.3z"/>
	<path class="elementor-shape-fill" d="M492.9-22.3c-0.9,0.6-0.9,2.7,0,3.3C495.5-18.5,495.1-22.7,492.9-22.3z"/>
	<path class="elementor-shape-fill" d="M385.2,27.4c0.2,0,1.1-0.2,1.2-0.4C385.9,27,385,26.8,385.2,27.4z"/>
	<path class="elementor-shape-fill" d="M388.8,30.8c0,0.4-0.9,1.1-0.8,1.6C388.4,32.1,389.5,31,388.8,30.8z"/>
	<path class="elementor-shape-fill" d="M42.2,28.4c-1.2,1.4-0.5,2.7,1,2.8C44.3,30.5,45.1,28.4,42.2,28.4z"/>
	<path class="elementor-shape-fill" d="M276.4,24.2c2,1.3,4.6,0.4,3.7-3.1C278.9,20.4,275.4,20,276.4,24.2z"/>
	<path class="elementor-shape-fill" d="M395.4,29.4c0.4,0.4,0.1,1.5,0.9,1.5C396.6,30.4,395.8,29.3,395.4,29.4z"/>
	<path class="elementor-shape-fill" d="M392.6,40.2c0.6-1.6-0.4-1.8-1.1-3.3C391.5,38.3,391.4,39.8,392.6,40.2z"/>
	<path class="elementor-shape-fill" d="M503.4-22.8c-0.7-1.2-1.8-1.8-3.8-1.6c-1.1,1-1.9,2.7-1,4.2C500.3-18.2,504-19.2,503.4-22.8z"/>
	<path class="elementor-shape-fill" d="M637.9,24.9c1.5,0.6,0.8-1.2,0.9-2C637.5,22.6,637.4,24.2,637.9,24.9z"/>
	<path class="elementor-shape-fill" d="M812.3,24.1c1.2,2.4,3.4,0.1,2.2-1.3C813.6,22,812.7,23,812.3,24.1z"/>
	<path class="elementor-shape-fill" d="M524.9,21.3c0.4,1-0.7,4.2,2.7,4.3c2.9-0.8,3.1-3.4,2.1-4.7C527.6,18.6,526.4,21.7,524.9,21.3z"/>
	<path class="elementor-shape-fill" d="M46.3,19.1c-1.2,0.4-1.3,1.9-0.1,2.5c0.3,0.2,0.6-0.5,0.9-0.1c-0.7,1.8,0.9,0.9,1.1,0.2C47.4,20.9,47.5,19.9,46.3,19.1z"/>
	<path class="elementor-shape-fill" d="M42.7,23.4c-1.2,1.3-2.2,3.8,1.7,4.8c0.4-1.4,3-1.9,1.1-3.9C44.6,23.6,43.5,22.9,42.7,23.4z"/>
	<path class="elementor-shape-fill" d="M492.8,33.9c-1.6,1-0.7,3.1,1.2,2.4C494.7,35.4,493.8,33.6,492.8,33.9z"/>
	<path class="elementor-shape-fill" d="M909.1,20.5c1.5,0.9,3.4-0.3,2.5-2.1C909.1,16.9,908.6,19.1,909.1,20.5z"/>
	<path class="elementor-shape-fill" d="M891.8,18c-1.9,0.9-2.5,5.7,0.5,4.7c1.4-0.5,1.8-0.7,2.8-0.9c1.8-0.4,1.8-1.9,1.8-2.8C896,17.6,893.1,18.5,891.8,18z"/>
	<path class="elementor-shape-fill" d="M335.8,31.6c-1.8-1.2-2.1,1.7-3.7,0.4c-1.2,2.2,0,4,1.3,4.5C336.5,36.8,337.8,33.3,335.8,31.6z"/>
	<path class="elementor-shape-fill" d="M325.7,25.8c0.3,0.9,3.1,3.2,4-1.3C328.4,22.6,325.2,23.7,325.7,25.8z"/>
	<path class="elementor-shape-fill" d="M339.1,21.5c0.4,1.2,2.5,1.5,3.3,0.5C341.9,17.2,339.1,19.9,339.1,21.5z"/>
	<path class="elementor-shape-fill" d="M233.4,19c-0.3-2-2-1-2.9-2.3c-1.8,0.7-2.8-1.5-3.9,1.1c0.4,1.9-0.6,3.4,1.2,5.5c0.6,0.4,2.2,0.5,4.2-0.2
		C234.5,22.4,231.7,19.5,233.4,19z"/>
	<path class="elementor-shape-fill" d="M475.5,24.8c-0.9-0.5-1.9,0.2-1.3,1.5c0.7,1.3,2.5,1,2.4-0.8C476.3,25.4,475.2,25.7,475.5,24.8z"/>
	<path class="elementor-shape-fill" d="M401.7,32.7c0.2-0.1,0.7,0.2,0.7-0.3C402.1,32.3,401.7,32.4,401.7,32.7z"/>
	<path class="elementor-shape-fill" d="M407.5,22.3c0,0.3,0.7,0.3,0.8,0C407.9,22.3,407.6,21.8,407.5,22.3z"/>
	<path class="elementor-shape-fill" d="M409.1,23.4c0.6,0.3,1,0,0.9-0.2C409.9,23.1,409.4,23.1,409.1,23.4z"/>
	<path class="elementor-shape-fill" d="M854.5,27.2c-0.9-0.4-1.4-1.2-1-2.1c-0.9-0.2-1.9-0.4-2.8-1.6c-0.9,0.6-1.5,0.5-2.3-0.5c-0.9,1.6-3.7,2.5-5.1,2.3
		c0.1,1.1,1.6,0.1,2.1,1c0.1,1.1,0.3,2.1-1.2,2.5c1.3,1.3-0.3,1.8,0.2,2.4c0.7-0.4,3.1-1.2,3,1.8c0.7-0.2,1.3-0.6,1.9,0.5
		c0.6-0.9,0.9-1.8,2.2-0.9c0.8,0.6-0.6,1.1,0.3,1.6c1-0.5,0.6-1.4,0.6-1.9c0.3-1.2,1.3-2.3,2.3-2.8
		C853.7,28.7,853.6,27.7,854.5,27.2z"/>
	<path class="elementor-shape-fill" d="M408,23.4c-0.9,0.2-2.9-0.4-2.8,0.3c0.8-0.2,0.8,0.4,1.4,0.3C406.4,23.3,409,24.1,408,23.4z"/>
	<path class="elementor-shape-fill" d="M410.7,23.1c0.5,0.2,0.9,0.3,0.9-0.1C411.8,22.8,411,22.8,410.7,23.1z"/>
	<path class="elementor-shape-fill" d="M127.4-19.4c-0.1-0.8-1.3-0.7-1.6-1.2c-0.9,0.1-1.2,1-1.3,1.7C125.2-17.3,127.3-17.8,127.4-19.4z"/>
	<path class="elementor-shape-fill" d="M686.8-17.5c1.7-1.4-0.2-1.6-0.8-1.8C685.2-18.4,685.7-17.6,686.8-17.5z"/>
	<path class="elementor-shape-fill" d="M674.3-20.5c0.8-0.8-0.4-1.7-1-1.7C672.5-21.5,673.5-20.7,674.3-20.5z"/>
	<path class="elementor-shape-fill" d="M851.2-10.8c0.3-1.3-0.6-3.3-1-3.6c-1.2-0.8-2.9-0.6-3.7,0.3c0.1,0.7,0.4,1.5-0.8,2.2C845.7-9.4,849.5-7.6,851.2-10.8z"/>
	<path class="elementor-shape-fill" d="M195-17.2c1,2.4,2.7,3.1,4,3.4c0.9-0.1,1.6-0.6,2.8-0.5c-0.2-1.3,1.4-0.9,2.3-2.3c0.2-0.7-0.8-1.3,0-1.6
		c1-2.3-3.1-3.1-5.3-2.9c-0.4,1-2.2,0.3-3.1,1.4C194.9-18.7,196.1-17.2,195-17.2z"/>
	<path class="elementor-shape-fill" d="M943.7-14.3c-0.4,0.6-0.6,1.5-0.7,2.4c0.9,1.3,2.7,2.1,4.8,1.6c0.9-0.8,2.4-3.1,0.9-4.6c0.6-0.3,0.4-1.3,0.7-1.8
		c-0.5-1.6-4.1-1.9-3.3,0.8c-0.9-0.3-1.6,1-2.1,1c-0.4,0-0.2-1-0.9-0.8C942.4-15.2,942-14.3,943.7-14.3z"/>
	<path class="elementor-shape-fill" d="M932.9-11.8c1.4,0.7,3.2-0.3,2.3-1.8C932.9-15,932.6-13.1,932.9-11.8z"/>
	<path class="elementor-shape-fill" d="M920.8-21.1c-0.8-0.8-2.1-0.2-2.1,0.2C919.7-19.5,920.9-19.7,920.8-21.1z"/>
	<path class="elementor-shape-fill" d="M933.4-21.7c0.1-1.1-0.9-1-0.9-1.6c-1.4-0.2-2.1,0.8-1.7,1.8C931.3-20.9,933.1-21,933.4-21.7z"/>
	<path class="elementor-shape-fill" d="M917.1-10c1.3-0.4,1.7-0.6,2.8-0.8c1.7-0.3,1.7-1.7,1.7-2.4c-0.9-1.1-3.6-0.3-4.8-0.8C914.9-13.3,914.3-9.2,917.1-10z"/>
	<path class="elementor-shape-fill" d="M931-16.9c0.5-0.7,1.2-0.9,1.1-2.1c-0.6,0-0.3-0.5-0.3-0.8c-2.7-2.1-4.8,0.1-4,1.8C928.5-17,929.6-16.8,931-16.9z"/>
	<path class="elementor-shape-fill" d="M218.3-18.9c-2.4-0.8-7,0.5-3.6,4.4C218.2-13.6,220-16.6,218.3-18.9z"/>
	<path class="elementor-shape-fill" d="M343.1-17.3c1.2-0.4,3.2-2.1,2.2-2.8c-1.1-0.2-1.2-1.4-1.9-1.8c-2.4-0.7-4.2,1.2-3.1,3.6C340.8-17.1,341.7-18,343.1-17.3z"
		/>
	<path class="elementor-shape-fill" d="M864.1-9.4c1.4-0.3,3.5,0.8,4.2-2.6c0.4-2-3.2-2.8-4.5-2c-0.5,0.3-0.9,1.3-1.7,1.7C862.1-11,863.6-10.7,864.1-9.4z"/>
	<path class="elementor-shape-fill" d="M862.1-15.7c-1.4-1.6-2.6-1.2-3.7,0.3C858.9-14.5,860.2-12.3,862.1-15.7z"/>
	<path class="elementor-shape-fill" d="M133.1-15.7c0.6,1.8,2.3,2.2,3.6,2.4c0.9-0.4,3.7-0.4,3.6-3.1c-1.2-0.6-0.3-1-0.3-1.4c-1.1-1.5-1.6-1.9-3.4-2.5
		c-1.6-0.3-1.3,0.8-2.2,0.5c-0.9-0.7-1.2-1.4-2.2-1.7C128.6-20.9,127.7-14.5,133.1-15.7z"/>
</g>
</svg>
