<svg xmlns="http://www.w3.org/2000/svg" viewBox="0 0 1000 100" preserveAspectRatio="none">
<style type="text/css">
	.st0{opacity:0.4;}
</style>
<g>
<path class="elementor-shape-fill st0" d="M4.9,55.3c0.4-0.2,0.8-0.7,0.6-0.9c-0.4-0.5-1.2-0.4-1.8-0.1c-1.3,0.5-2.5,1-3.7,1.5c0,0.5,0,0.9,0,1.4
	c0.3,0,0.7,0,0.9-0.1C2.3,56.5,3.6,55.9,4.9,55.3z"/>
<path class="elementor-shape-fill st0" d="M6.4,70.6c-2.1-0.5-4.2-0.9-6.4-1.4c0,0.4,0,0.8,0,1.1c1.9,0.4,3.7,0.9,5.6,1.3c0.3,0.1,0.8-0.1,1.3-0.2
	C6.7,71.2,6.6,70.7,6.4,70.6z"/>
<path class="elementor-shape-fill st0" d="M314.7,0c-0.8,0-1.7,0-2.5,0c0.4,0.3,0.9,0.7,1.2,0.7C313.8,0.6,314.2,0.3,314.7,0z"/>
<path class="elementor-shape-fill" d="M60.5,0c-0.8,0-1.7,0-2.5,0c0.4,0.3,0.9,0.7,1.2,0.7C59.7,0.6,60.1,0.3,60.5,0z"/>
<path class="elementor-shape-fill st0" d="M245,0.6c0.1,0,0.5-0.4,0.8-0.6c-0.8,0-1.5,0-2.3,0C244,0.2,244.5,0.5,245,0.6z"/>
<path class="elementor-shape-fill" d="M497.7,0c0.5,0.2,0.9,0.5,1.5,0.6c0.1,0,0.5-0.4,0.8-0.6C499.2,0,498.5,0,497.7,0z"/>
<path class="elementor-shape-fill" d="M464.9,0c-0.6,0-1.2,0-1.8,0c0.4,0.2,0.8,0.4,1.2,0.5C464.5,0.4,464.7,0.2,464.9,0z"/>
<path class="elementor-shape-fill" d="M210.7,0c-0.6,0-1.2,0-1.8,0c0.4,0.2,0.8,0.4,1.2,0.5C210.3,0.4,210.5,0.2,210.7,0z"/>
<path class="elementor-shape-fill" d="M147.4,19.2c0-0.9-0.8-1.1-2.1-0.6c-3,1.2-6,2.4-9,3.6c-0.4,0.2-0.7,0.4-1,0.6c-0.6,0.5-0.6,0.8,0.4,0.9
	c0.4,0.1,1.1,0,1.5-0.1c3.2-1.2,6.3-2.5,9.4-3.8C147,19.7,147.2,19.3,147.4,19.2z"/>
<path class="elementor-shape-fill" d="M139.5,78.3c-0.1-0.1-0.3-0.3-0.5-0.4c-0.5-0.1-1.1-0.2-1.6-0.1c-0.2,0-0.3,0.5-0.3,0.8c0.1,0.3,0.4,0.6,0.7,0.9
	c1,1,2.1,1.9,3.1,2.9c1,0.9,2.1,1.8,3.3,2.7c0.2,0.2,0.9,0.3,1.1,0.2c0.4-0.2,0.5-0.5,0.8-0.7c-0.2-0.3-0.3-0.5-0.5-0.7
	C143.6,82,141.6,80.2,139.5,78.3z"/>
<path class="elementor-shape-fill" d="M393.5,78.1c-0.3-0.2-0.7-0.3-0.9-0.4c-1.1,0-1.5,0.2-1.3,0.7c0.1,0.3,0.3,0.6,0.6,0.9c1.3,1.2,2.6,2.4,3.9,3.6
	c0.9,0.8,1.7,1.5,2.8,2.2c0.7,0.5,1.4,0.3,1.6-0.4c0.1-0.2,0-0.5-0.2-0.7C397.8,82,395.6,80.1,393.5,78.1z"/>
<path class="elementor-shape-fill" d="M401.6,19.2c0-0.7-0.5-1-1.4-0.8c-0.3,0.1-0.6,0.2-0.9,0.3c-2.9,1.2-5.8,2.3-8.7,3.5c-0.4,0.2-0.8,0.4-1.1,0.6
	c-0.7,0.5-0.6,0.8,0.4,1c0.3,0.1,0.9,0.1,1.2-0.1c3.3-1.3,6.6-2.6,9.9-4C401.3,19.6,401.5,19.3,401.6,19.2z"/>
<path class="elementor-shape-fill st0" d="M12.8,2.3c-0.6-0.5-1.1-1-1.7-1.5c-0.3-0.2-1-0.3-1.4-0.2c-0.3,0-0.5,0.5-0.5,0.7c0,0.3,0.3,0.5,0.6,0.7
	c0.5,0.5,1,0.9,1.5,1.4c1.5,1.4,3.1,2.7,4.7,4.1C16.2,7.8,16.8,8,17.3,8c0.3,0,0.6-0.4,0.9-0.7c-0.3-0.4-0.6-0.7-0.9-1
	C15.8,5,14.3,3.6,12.8,2.3z"/>
<path class="elementor-shape-fill st0" d="M269.9,5c-1.5-1.4-3-2.8-4.6-4.1c-0.3-0.2-1-0.4-1.5-0.4c-0.8,0.1-0.7,0.6-0.4,0.9c0.2,0.2,0.4,0.5,0.6,0.7
	c1.1,1,2.1,2,3.2,3c0.9,0.9,1.9,1.7,2.9,2.5c0.3,0.2,0.9,0.4,1.2,0.4c0.3,0,0.6-0.4,0.9-0.7c-0.3-0.3-0.5-0.6-0.7-0.9
	C271,6,270.4,5.5,269.9,5z"/>
<path class="elementor-shape-fill" d="M351.8,55.7c-2.8-1-5.6-1.9-8.5-2.9c-0.7-0.2-1.5-0.3-2,0.2c-0.4,0.4-0.1,0.8,0.6,1.1c0.3,0.1,0.5,0.2,0.8,0.3
	c0.8,0.2,1.6,0.4,2.4,0.7c1.8,0.6,3.6,1.3,5.4,2c0.5,0.2,1,0.2,1.8,0.4c0.2-0.3,0.7-0.5,0.6-0.7C352.8,56.3,352.4,55.9,351.8,55.7z"
	/>
<path class="elementor-shape-fill st0" d="M89.1,52.8c-0.4-0.1-1.4,0-1.7,0.2c-0.5,0.3-0.2,0.8,0.5,1.1c0.3,0.1,0.6,0.2,0.9,0.3c0.7,0.2,1.5,0.4,2.2,0.6
	c1.5,0.5,2.9,1.1,4.4,1.6c0.8,0.3,1.7,0.5,2.5,0.7c0.7,0.1,1.1-0.1,1.3-0.6c-0.3-0.3-0.6-0.7-1.1-0.8C95.1,54.7,92.1,53.7,89.1,52.8
	z"/>
<path class="elementor-shape-fill" d="M326.8,29.4c-0.6,0-1.1,0-1.7,0.1c-0.2,0-0.4,0.2-0.5,0.3c-1.7,1.9-3.3,3.7-5,5.6c-0.1,0.1-0.1,0.3-0.2,0.5
	c0.2,0.1,0.5,0.5,0.7,0.5c0.5,0,1.3-0.2,1.5-0.4c0.8-0.8,1.5-1.6,2.2-2.5c1-1.1,2-2.2,3-3.3C327.1,30,326.8,29.7,326.8,29.4z"/>
<path class="elementor-shape-fill" d="M72.7,29.4c-0.3-0.1-0.9-0.1-1.3-0.1c-0.4,0.1-0.7,0.3-0.9,0.5c-1.5,1.7-3,3.3-4.5,5c-0.3,0.3-0.5,0.6-0.8,1
	c0.3,0.2,0.5,0.5,0.8,0.5c0.4,0,1.1-0.1,1.3-0.3c0.6-0.6,1.1-1.2,1.7-1.8c1.3-1.4,2.6-2.7,3.8-4.1C72.9,30,72.9,29.6,72.7,29.4z"/>
<path class="elementor-shape-fill" d="M369.8,2.5c-0.4-0.2-1-0.3-1.5-0.4c-0.4,0-0.9,0.2-1.3,0.3c-1.4,0.5-2.7,0.9-4.1,1.4c-1,0.3-2,0.6-2.8,1.1
	c-0.4,0.2-0.5,0.6-0.5,1c0,0.2,0.6,0.4,0.9,0.5c0.8-0.2,1.4-0.3,2-0.5c2-0.6,4-1.3,5.9-2c0.4-0.2,0.9-0.4,1.2-0.6
	C369.8,3,370,2.6,369.8,2.5z"/>
<path class="elementor-shape-fill st0" d="M115.7,2.6c-0.2-0.2-0.8-0.4-1.2-0.5c-0.5,0.1-1,0.2-1.3,0.3c-1.5,0.5-3,1-4.5,1.5c-0.9,0.3-1.9,0.6-2.8,1
	c-0.6,0.2-0.8,0.6-0.5,1s0.9,0.5,1.5,0.3c0.3-0.1,0.7-0.1,1-0.2c1.7-0.5,3.4-1.1,5.1-1.7c0.8-0.3,1.7-0.7,2.4-1.1
	C115.6,3.1,115.9,2.7,115.7,2.6z"/>
<path class="elementor-shape-fill st0" d="M293.2,46.1c-0.5-0.4-1.2-0.4-1.8-0.1c-2.1,0.9-4.3,1.8-6.4,2.8c-0.7,0.4-1.2,0.9-1.8,1.4
	c0.1,0.5,0.4,0.7,1.1,0.5c0.3-0.1,0.5-0.1,0.7-0.2c2.6-1.1,5.3-2.2,7.9-3.3C293.5,47,293.7,46.5,293.2,46.1z"/>
<path class="elementor-shape-fill" d="M37.3,46c-2.2,0.9-4.5,1.8-6.6,2.8c-0.7,0.3-1.1,0.9-1.5,1.4c-0.1,0.1,0.2,0.4,0.3,0.6c0.5-0.1,0.7-0.1,0.8-0.2
	c2.9-1.2,5.7-2.3,8.5-3.6c0.3-0.1,0.3-0.8,0.1-1C38.6,45.9,37.7,45.8,37.3,46z"/>
<path class="elementor-shape-fill" d="M496.6,79.4c-0.4,0-0.9,0.1-1.3,0.2c-0.7,0.2-1.3,0.5-2,0.7c-1.7,0.6-3.4,1.1-5,1.7c-0.4,0.2-0.8,0.6-0.8,0.9
	c0,0.2,0.7,0.4,1,0.6c0.6-0.1,1-0.2,1.4-0.3c2.3-0.8,4.5-1.5,6.8-2.3c0.3-0.1,0.6-0.2,0.8-0.4c0.2-0.2,0.5-0.6,0.4-0.7
	C497.7,79.6,497.1,79.4,496.6,79.4z"/>
<path class="elementor-shape-fill" d="M314.1,69.1c-1.2-1-2.4-2.1-3.6-3.1c-0.5-0.4-1-0.5-1.7-0.2s-0.7,0.7-0.3,1c0.2,0.3,0.5,0.6,0.9,0.8c1.2,1,2.5,2,3.7,3.1
	c0.8,0.7,1.8,1.1,3.4,1c-0.1-0.3-0.1-0.5-0.3-0.6C315.5,70.4,314.8,69.7,314.1,69.1z"/>
<path class="elementor-shape-fill" d="M57.9,67.2c-0.5-0.4-1-0.9-1.7-1.3c-0.3-0.2-1.2-0.3-1.5-0.1c-0.4,0.1-0.5,0.6-0.5,0.9c0,0.2,0.3,0.4,0.5,0.6
	c1.5,1.2,2.9,2.5,4.4,3.7c0.7,0.6,1.7,0.8,3.2,0.7c-0.3-0.4-0.4-0.8-0.7-1.1C60.4,69.5,59.2,68.3,57.9,67.2z"/>
<path class="elementor-shape-fill" d="M241.3,21.4c-0.7-0.7-1.5-1.5-2.3-2.2c-0.2-0.2-0.9-0.3-1.2-0.2c-0.4,0.1-0.5,0.5-0.8,0.8c0.5,0.5,0.9,1.1,1.4,1.6
	c1.1,1.2,2.2,2.4,3.4,3.6c0.4,0.4,0.9,0.6,1.6,0.3c0.7-0.3,0.7-0.6,0.3-1C242.9,23.3,242.1,22.3,241.3,21.4z"/>
<path class="elementor-shape-fill" d="M495.5,21.5c-0.7-0.8-1.6-1.5-2.5-2.3c-0.2-0.2-0.9-0.3-1.2-0.2c-0.4,0.1-0.5,0.5-0.8,0.8c0.5,0.6,1,1.2,1.6,1.7
	c1,1.1,2.1,2.2,3.2,3.3c0.3,0.3,0.8,0.7,1.6,0.4c0.7-0.3,0.9-0.6,0.4-1.1C497,23.3,496.3,22.4,495.5,21.5z"/>
<path class="elementor-shape-fill st0" d="M455.1,53.9c2.1,0.5,4.2,1.1,6.3,1.7c1.1,0.3,2.1,0.5,3.3,0.8c0.4-0.1,0.9-0.2,1-0.4s0-0.5-0.2-0.7
	s-0.7-0.4-1.1-0.5c-2.8-0.7-5.7-1.4-8.5-2.1c-0.6-0.2-1.1-0.2-1.4,0.3C454.3,53.4,454.4,53.7,455.1,53.9z"/>
<path class="elementor-shape-fill st0" d="M201.2,53.9c1.8,0.5,3.5,1,5.2,1.4c1.3,0.4,2.7,0.7,4.2,1c0.4-0.2,0.9-0.3,1-0.5s0-0.5-0.3-0.7
	c-0.4-0.3-1-0.5-1.5-0.6c-2.6-0.7-5.2-1.3-7.8-1.9c-0.6-0.1-1.2-0.3-1.6,0.2C200,53.4,200.5,53.7,201.2,53.9z"/>
<path class="elementor-shape-fill st0" d="M440,27.3c-0.8-1-1.6-2.1-2.4-3.1c-0.4-0.5-0.7-1-1.3-1.4c-0.3-0.2-1.1-0.3-1.6-0.2c-0.3,0.1-0.8,0.6-0.7,0.8
	c1,1.4,2.1,2.8,3.3,4.2c0.3,0.3,1.1,0.5,1.7,0.7C440.3,28.1,440.4,28,440,27.3z"/>
<path class="elementor-shape-fill" d="M185.8,27.4c-0.8-1.1-1.6-2.1-2.4-3.2c-0.4-0.5-0.7-1-1.3-1.4c-0.3-0.2-1.2-0.3-1.6-0.2c-0.3,0.1-0.7,0.6-0.6,0.8
	c0.9,1.4,2,2.7,3.1,4c0.3,0.4,1.1,0.6,1.7,0.9C186.1,28.2,186.3,28,185.8,27.4z"/>
<path class="elementor-shape-fill" d="M276.7,40.8c1,0,1.2-0.6,1.3-1.1c0.1-0.6,0.2-1.3,0.4-1.9c0.4-1.3,0.8-2.6,1.2-3.9c0.1-0.3-0.2-0.5-0.3-0.8
	c-0.5,0.2-1,0.4-1.4,0.6c-0.1,0.1-0.1,0.2-0.2,0.3c-0.5,1.4-1,2.7-1.5,4.1c-0.2,0.5-0.3,1-0.5,1.4C275.8,40.1,275.6,40.8,276.7,40.8
	z"/>
<path class="elementor-shape-fill st0" d="M452.8,38.7c-0.4-0.1-0.9,0-1.3,0.1c-0.2,0.1-0.4,0.3-0.5,0.5c-1.2,1.8-2.4,3.6-3.6,5.5
	c-0.1,0.2,0.2,0.5,0.5,0.6c0.8,0.3,1.3,0,1.6-0.5c0.9-1.4,1.9-2.8,2.9-4.2c0.3-0.5,0.7-0.9,1-1.5C453.2,39,453.1,38.7,452.8,38.7z"
	/>
<path class="elementor-shape-fill st0" d="M22.5,40.7c1.1,0.1,1.2-0.5,1.3-1c0.1-0.6,0.2-1.3,0.4-1.9c0.4-1.3,0.8-2.7,1.2-4c0.1-0.2-0.2-0.4-0.4-0.7
	c-0.4,0.1-0.8,0.2-1.1,0.3c-0.3,0.2-0.4,0.4-0.5,0.7c-0.5,1.3-1,2.7-1.5,4c-0.2,0.5-0.3,1-0.6,1.7C21.6,40.1,22,40.7,22.5,40.7z"/>
<path class="elementor-shape-fill" d="M198.7,38.7c-0.4-0.1-0.9,0-1.3,0.1c-0.3,0.1-0.5,0.4-0.6,0.6c-1.2,1.7-2.3,3.5-3.4,5.2c-0.3,0.4-0.1,0.7,0.6,0.9
	c0.7,0.2,1.1-0.1,1.3-0.4c1.2-1.7,2.4-3.4,3.6-5.2c0.1-0.2,0.2-0.4,0.3-0.7C199.1,39,198.9,38.7,198.7,38.7z"/>
<path class="elementor-shape-fill" d="M483.2,48.4c2.8-0.8,5.5-1.6,8.2-2.4c0.8-0.2,1.1-0.6,0.7-1.1s-1.1-0.5-1.9-0.3c-1.9,0.6-3.9,1.1-5.8,1.7
	C482.9,46.7,482.6,47.2,483.2,48.4z"/>
<path class="elementor-shape-fill st0" d="M236.2,44.6c-2.1,0.6-4.2,1.2-6.2,1.8c-1.3,0.4-1.5,1-0.8,2c2.8-0.8,5.6-1.6,8.4-2.5c0.7-0.2,0.8-0.6,0.4-1
	C237.5,44.4,236.8,44.4,236.2,44.6z"/>
<path class="elementor-shape-fill st0" d="M344.1,28.2c0.8,0.1,1.7,0,2.7,0c-0.1-0.7-0.6-1-1.5-1.1c-2.4-0.3-4.8-0.7-7.2-0.9c-1-0.1-2-0.1-3-0.1
	c-0.3,0-0.8,0.3-0.9,0.4c-0.1,0.2,0.2,0.5,0.5,0.6c0.2,0.1,0.6,0.1,1,0.2C338.5,27.6,341.3,28,344.1,28.2z"/>
<path class="elementor-shape-fill st0" d="M81.4,27.3c2.9,0.3,5.7,0.6,8.6,0.9c0.8,0.1,1.7,0,2.6,0c-0.1-0.7-0.6-1-1.5-1.1c-2.4-0.3-4.8-0.7-7.2-0.9
	c-1-0.1-2-0.1-3-0.1c-0.3,0-0.9,0.3-0.9,0.4c0,0.2,0.4,0.5,0.7,0.7C80.9,27.3,81.2,27.3,81.4,27.3z"/>
<path class="elementor-shape-fill st0" d="M326.9,49.4c-0.2-0.4-0.5-1-1.6-0.8c-1,0.2-0.7,0.7-0.6,1.1c0.7,1.7,1.3,3.3,2,5c0.2,0.5,0.5,1,0.8,1.5
	c0.2,0,0.4,0,0.6,0c0.2-0.3,0.5-0.7,0.5-1c0-0.5-0.3-1.1-0.4-1.6C327.9,52.2,327.5,50.8,326.9,49.4z"/>
<path class="elementor-shape-fill st0" d="M73.4,50.9c-0.2-0.7-0.6-1.3-1.1-2c-0.1-0.2-0.8-0.4-1.1-0.3c-0.3,0.1-0.6,0.4-0.7,0.7
	c-0.1,0.2,0.1,0.4,0.2,0.6c0.6,1.6,1.2,3.1,1.9,4.7c0.2,0.5,0.5,1,0.9,1.7c1.2-0.5,1.3-0.8,1-1.6C74.2,53.4,73.9,52.2,73.4,50.9z"/>
<path class="elementor-shape-fill" d="M305.5,79.2c-0.6-0.3-1.4-0.4-2.1-0.5c-1.6-0.3-3.2-0.6-5-0.9c-0.5,0.3-0.9,0.6-1.4,0.9c0.5,0.2,1,0.6,1.6,0.7
	c1.6,0.4,3.2,0.6,4.8,0.9c0.6,0.1,1.2,0.3,1.8,0.3c0.5,0,1-0.3,1.5-0.5C306.2,79.8,306,79.4,305.5,79.2z"/>
<path class="elementor-shape-fill" d="M51.4,79.2c-2.1-0.5-4.3-0.9-6.5-1.3c-1-0.2-2.3,0.3-2.1,0.7c0.2,0.3,1,0.6,1.6,0.8c1.4,0.3,2.8,0.5,4.2,0.8
	c0.7,0.1,1.4,0.3,2.4,0.5c0.4-0.2,1.2-0.4,1.3-0.6C52.3,79.8,51.9,79.3,51.4,79.2z"/>
<path class="elementor-shape-fill st0" d="M125.8,17.2c-2.2-1-4.5-2-6.7-2.9c-0.7-0.3-1.4,0-1.4,0.7c0.2,0.1,0.4,0.5,0.8,0.6c2,0.9,3.9,1.8,5.9,2.7
	c0.6,0.3,1.2,0.4,1.7,0C126.6,17.9,126.3,17.5,125.8,17.2z"/>
<path class="elementor-shape-fill st0" d="M375,14.9c-0.6-0.2-1.1-0.5-1.8-0.6c-0.3-0.1-1,0-1.2,0.2s-0.1,0.5,0,0.8c0.2,0.2,0.6,0.4,0.9,0.5
	c0.8,0.4,1.5,0.7,2.3,1c1.2,0.5,2.3,1.1,3.6,1.6c0.3,0.1,0.8,0.1,1.1,0c0.3-0.1,0.4-0.3,0.7-0.6c-0.4-0.3-0.6-0.6-1-0.8
	C378.1,16.3,376.5,15.6,375,14.9z"/>
<path class="elementor-shape-fill" d="M110.5,44.4c-0.5-0.1-1-0.4-1.4-0.4c-1.9,0.2-3.7,0.4-5.5,0.7c-1,0.2-1.9,0.5-2.7,0.9c-0.3,0.1-0.4,0.5-0.4,0.7
	c0,0.1,0.4,0.3,0.6,0.3c0.3,0,0.3,0,0.4-0.1c2.7-0.4,5.4-0.9,8.1-1.4C110,45.2,110.2,44.7,110.5,44.4z"/>
<path class="elementor-shape-fill st0" d="M364.7,44.5c-0.5-0.1-1-0.4-1.5-0.4c-0.6,0-1.2,0.1-1.8,0.2c-2,0.3-4.1,0.4-5.8,1.2c-0.4,0.2-0.7,0.4-1.3,0.8
	c0.6,0.2,0.9,0.5,1.2,0.4c2.8-0.4,5.5-0.9,8.2-1.4C364.1,45.2,364.4,44.7,364.7,44.5z"/>
<path class="elementor-shape-fill st0" d="M8.8,12.7c-0.6-0.3-1.2-0.2-1.7,0.2c-0.4,0.3-0.8,0.6-1.2,0.9c-1.2,1-2.4,2-3.5,3c-0.6,0.6-0.3,1,1,1.1
	c0.2-0.1,0.6-0.2,0.9-0.4c0.9-0.7,1.7-1.3,2.5-2c0.7-0.5,1.4-1.1,2-1.6C9.2,13.5,9.5,13.1,8.8,12.7z"/>
<path class="elementor-shape-fill st0" d="M261.5,12.9c-0.5,0.2-0.9,0.6-1.3,0.9c-1.2,1-2.4,2-3.6,3.1c-0.6,0.6-0.2,1,0.9,1.1c0.2-0.1,0.6-0.1,0.8-0.3
	c1.6-1.3,3.2-2.6,4.8-3.9c0.2-0.2,0-0.6-0.1-0.9C262.5,12.8,261.9,12.7,261.5,12.9z"/>
<path class="elementor-shape-fill st0" d="M171.6,69.6c0.3-0.6,0.4-1.1,0.6-1.7c0.2-0.8,0.4-1.6,0.7-2.7c-0.2-0.2-0.5-0.6-1-0.7c-0.9-0.1-1.3,0.3-1.5,0.8
	c-0.2,0.6-0.5,1.2-0.7,1.8c-0.2,0.8-0.4,1.7-0.3,2.5c0,0.2,0.8,0.5,1.3,0.6C170.9,70.2,171.4,69.8,171.6,69.6z"/>
<path class="elementor-shape-fill st0" d="M425.7,69.6c0.3-0.5,0.4-1.1,0.6-1.7c0.2-0.8,0.4-1.6,0.7-2.7c-0.2-0.2-0.5-0.6-1-0.7c-0.9-0.1-1.3,0.3-1.5,0.8
	c-0.2,0.6-0.5,1.2-0.7,1.8c-0.2,0.8-0.3,1.7-0.3,2.5c0,0.2,0.7,0.5,1.2,0.6C425,70.2,425.6,69.8,425.7,69.6z"/>
<path class="elementor-shape-fill st0" d="M55.5,27.8c-0.8-1.8-1.6-3.5-2.4-5.2c-0.1-0.2-0.8-0.3-1.2-0.5c-0.2,0.3-0.7,0.6-0.6,0.8
	c0.1,0.8,0.4,1.7,0.8,2.5c0.4,0.8,1,1.6,1.7,2.4c0.2,0.2,0.9,0.3,1.3,0.4C55.1,28.2,55.3,27.9,55.5,27.8z"/>
<path class="elementor-shape-fill st0" d="M309.2,28.2c0.2,0,0.3-0.4,0.3-0.5c-0.7-1.6-1.4-3.3-2.3-4.9c-0.1-0.2-0.8-0.5-1.3-0.5c-0.3,0-0.6,0.4-0.9,0.8
	c0.7,1.5,1.5,2.9,2.2,4.3c0.2,0.3,0.5,0.6,0.9,0.8C308.3,28.2,308.9,28.2,309.2,28.2z"/>
<path class="elementor-shape-fill" d="M422.1,38.8c-1.8-0.2-3.6-0.5-5.4-0.7c-0.6-0.1-1.3-0.1-1.9,0c-0.4,0.1-0.8,0.4-0.9,0.7c0,0.2,0.5,0.5,0.9,0.6
	c2.2,0.3,4.4,0.5,6.4,0.7c0.4,0,0.6,0,0.7,0c0.7,0,1.2-0.1,1.3-0.6S422.8,38.9,422.1,38.8z"/>
<path class="elementor-shape-fill" d="M167.7,38.8c-1.7-0.2-3.4-0.5-5.1-0.7c-0.7-0.1-1.4-0.1-2,0.1c-0.4,0.1-0.7,0.5-0.8,0.7c0,0.2,0.5,0.5,0.9,0.5
	c2.2,0.3,4.5,0.5,7.1,0.8c0.3-0.1,1.1-0.3,1.2-0.6C169.3,39,168.4,38.9,167.7,38.8z"/>
<path class="elementor-shape-fill" d="M363.1,58.3c-0.7,1-1.2,2-1.7,3c-0.2,0.4-0.5,0.8-0.4,1.2c0.1,0.3,0.7,0.5,1,0.8c0.4-0.2,0.8-0.4,1-0.6
	c0.3-0.3,0.4-0.7,0.6-1.1c0.5-1,1.1-2,1.6-3.1c-0.3-0.3-0.5-0.6-0.8-0.9C364,57.9,363.3,58,363.1,58.3z"/>
<path class="elementor-shape-fill" d="M108.9,58.4c-0.7,0.9-1.1,1.9-1.7,2.8c-0.2,0.4-0.4,0.7-0.4,1.1c-0.1,0.5,0.2,0.9,1,1s1-0.3,1.2-0.7
	c0.2-0.3,0.3-0.5,0.4-0.8c0.6-1,1.1-2.1,1.7-3.2c-0.3-0.3-0.6-0.6-0.9-0.9C109.8,57.9,109.1,58.1,108.9,58.4z"/>
<path class="elementor-shape-fill st0" d="M172.1,2c1.2,0.3,2.5,0.5,3.8,0.8c1,0.2,2,0.4,3.1,0.5c0.4,0,1-0.3,1.2-0.5c0.1-0.2-0.3-0.5-0.6-0.7
	c-0.4-0.2-1-0.3-1.6-0.4c-1.8-0.4-3.7-0.7-5.7-1.1c-0.4,0.2-0.9,0.4-1.1,0.7C171.1,1.5,171.7,1.9,172.1,2z"/>
<path class="elementor-shape-fill st0" d="M426.3,2c1.9,0.5,3.8,0.8,5.8,1.2c0.4,0.1,0.9,0.2,1.3,0.1c0.4-0.1,0.8-0.3,0.9-0.5s-0.2-0.5-0.5-0.6
	c-2.4-0.6-4.7-1.1-7.3-1.6c-0.5,0.3-1.1,0.5-1.2,0.8C425.3,1.5,425.9,1.9,426.3,2z"/>
<path class="elementor-shape-fill st0" d="M472.8,92.3c-0.6,0.2-1.3,0.3-1.9,0.5c-1.4,0.5-2.7,1-4,1.6c-0.3,0.1-0.5,0.5-0.4,0.7c0.2,0.2,0.7,0.3,1,0.4
	c0.4-0.1,0.6-0.1,0.9-0.1c1.7-0.5,3.4-1,5.1-1.5c0.3-0.1,0.7-0.3,0.8-0.5c0.1-0.3,0.2-0.6,0-0.9C473.9,92.1,473.4,92.1,472.8,92.3z"
	/>
<path class="elementor-shape-fill st0" d="M219,92.2c-2.2,0.6-4.6,1-6.3,2.1c-0.3,0.2-0.5,0.5-0.4,0.6c0.2,0.2,0.7,0.3,0.9,0.4c0.4-0.1,0.6-0.1,0.7-0.1
	c1.7-0.5,3.5-1,5.2-1.5c0.4-0.1,0.8-0.4,0.9-0.6c0.1-0.2,0.1-0.5-0.1-0.7C219.9,92.3,219.3,92.1,219,92.2z"/>
<path class="elementor-shape-fill" d="M371.9,73.1c-0.3,0.2-0.5,0.5-0.6,0.8c-0.5,1-0.9,1.9-1.4,2.9c-0.2,0.5,0,0.9,0.7,1c0.4,0.1,1.1-0.2,1.4-0.5
	c0.4-0.4,0.7-0.9,0.9-1.4c0.4-0.8,0.8-1.6,1.2-2.5c-0.2-0.2-0.5-0.5-0.9-0.6C372.9,72.8,372.2,73,371.9,73.1z"/>
<path class="elementor-shape-fill st0" d="M117.6,73.3c-0.7,1.2-1.4,2.5-1.9,3.7c-0.1,0.2,0.4,0.6,0.8,0.7c0.3,0.1,1.1-0.1,1.2-0.2c0.8-1.3,1.6-2.6,2.4-4
	c-0.4-0.2-0.6-0.6-1-0.7C118.4,72.7,117.8,72.9,117.6,73.3z"/>
<path class="elementor-shape-fill st0" d="M26.9,84.7c-2.2-0.5-4.4-0.9-6.6-1.3c-0.3,0-0.9,0.3-1,0.5s0.1,0.6,0.4,0.7c2.1,0.5,4.3,0.9,6.6,1.4
	c0.3-0.2,0.8-0.3,1-0.5C27.4,85.2,27.2,84.8,26.9,84.7z"/>
<path class="elementor-shape-fill" d="M281.1,84.7c-2.1-0.5-4.3-1-6.6-1.5c-0.4,0.2-1,0.4-1,0.7c-0.1,0.2,0.3,0.7,0.6,0.8c2,0.5,4.1,0.9,6.1,1.2
	c0.3,0.1,1-0.2,1.2-0.4C281.6,85.3,281.4,84.8,281.1,84.7z"/>
<path class="elementor-shape-fill" d="M113.7,30.5c-1.2,0.2-2.4,0.5-3.6,0.8c-1.1,0.3-2.3,0.5-3.4,0.9c-0.3,0.1-0.6,0.5-0.6,0.7c0,0.1,0.5,0.3,1,0.5
	c2.5-0.6,5-1.2,7.4-1.8c0.3-0.1,0.5-0.5,0.4-0.7C114.7,30.7,114,30.5,113.7,30.5z"/>
<path class="elementor-shape-fill" d="M367.9,30.5c-0.9,0.1-1.8,0.4-2.7,0.6c-1.4,0.3-2.8,0.6-4.2,1c-0.4,0.1-0.6,0.5-0.7,0.8c0,0.1,0.5,0.3,1,0.6
	c2.5-0.6,5-1.2,7.5-1.9c0.2-0.1,0.4-0.5,0.2-0.7C368.8,30.6,368.2,30.5,367.9,30.5z"/>
<path class="elementor-shape-fill st0" d="M285.7,24.3c0.2,0.3,0.9,0.4,1.4,0.5c0.1-0.3,0.5-0.5,0.4-0.8c-0.5-1.1-1-2.1-1.6-3.2c-0.2-0.4-0.6-0.8-1.1-1.2
	c-0.2-0.1-0.8-0.2-1.1-0.2c-0.3,0.1-0.5,0.4-0.7,0.6c0.4,0.5,0.7,1,1,1.5C284.5,22.5,285,23.5,285.7,24.3z"/>
<path class="elementor-shape-fill" d="M31.7,24.5c0.2,0.2,0.8,0.3,1.3,0.3c0.2,0,0.4-0.2,0.8-0.5c-0.9-1.4-1.7-2.9-2.6-4.3c-0.3-0.4-0.7-0.8-1.6-0.5
	c-0.8,0.3-0.6,0.7-0.3,1.1c0.6,0.9,1.2,1.8,1.7,2.7C31.1,23.7,31.3,24.2,31.7,24.5z"/>
<path class="elementor-shape-fill st0" d="M220.4,25.2c-0.2-0.2-0.8-0.3-1-0.4c-1.1,0-1.5,0.7-1,1.3c0.5,0.6,1,1.1,1.6,1.6s1.3,1.1,2.1,1.6
	c0.2,0.1,0.7,0.2,0.9,0.1c0.3-0.1,0.5-0.4,0.6-0.6c0.1-0.1-0.1-0.3-0.2-0.5C222.4,27.3,221.5,26.2,220.4,25.2z"/>
<path class="elementor-shape-fill st0" d="M85.4,17.4c0.9-0.2,1.9-0.4,2.8-0.7c1.1-0.3,2.2-0.7,3.3-1c0.7-0.2,1-0.6,0.6-1.1c-0.4-0.4-1.1-0.4-1.7-0.2
	c-0.7,0.2-1.4,0.3-2,0.6c-1.2,0.5-2.4,1-3.6,1.5c-0.2,0.1-0.3,0.4-0.2,0.6C84.6,17.2,85.1,17.3,85.4,17.4z"/>
<path class="elementor-shape-fill st0" d="M476.6,27.2c-0.7-0.7-1.3-1.4-2-2c-0.3-0.2-0.9-0.4-1.4-0.3c-0.3,0-0.6,0.4-0.8,0.6c0.1,0.2,0.1,0.4,0.2,0.5
	c1.2,1.1,2.3,2.2,3.6,3.2c0.2,0.2,0.8,0.2,1.2,0.2c0.1-0.3,0.5-0.6,0.4-0.9C477.4,28.1,477,27.6,476.6,27.2z"/>
<path class="elementor-shape-fill st0" d="M4.6,33.8c-0.2-0.2-0.7-0.4-1-0.5c-1,0.1-1.5,0.4-1.2,0.8c1,1.2,2,2.4,3.1,3.6c0.2,0.2,0.9,0.2,1.4,0.3
	c0.1-0.3,0.4-0.6,0.2-0.8C6.4,36.1,5.5,34.9,4.6,33.8z"/>
<path class="elementor-shape-fill st0" d="M258.8,33.9c-0.4-0.4-1-0.6-1.8-0.4c-0.7,0.2-0.6,0.6-0.3,1c0.2,0.4,0.4,0.7,0.7,1c0.8,0.8,1.6,1.6,2.5,2.4
	c0.2,0.2,0.8,0.2,1.1,0.2c0.3,0,0.4-0.3,0.6-0.5c-0.3-0.5-0.5-1-0.9-1.4C260.1,35.4,259.5,34.6,258.8,33.9z"/>
<path class="elementor-shape-fill" d="M339.6,17.4c0.8-0.2,1.4-0.3,2.1-0.5c1.3-0.4,2.6-0.7,3.9-1.2c0.7-0.2,1-0.7,0.6-1.1c-0.4-0.4-1.1-0.3-1.7-0.1
	s-1.2,0.3-1.8,0.5c-1.3,0.5-2.5,1-3.7,1.5c-0.2,0.1-0.4,0.4-0.3,0.6C338.8,17.2,339.2,17.3,339.6,17.4z"/>
<path class="elementor-shape-fill st0" d="M154.4,7.3c-2-0.4-4-0.7-6.1-1.1c-0.3,0.2-0.9,0.4-0.9,0.6c0,0.3,0.3,0.7,0.7,0.8c1.8,0.4,3.6,0.8,5.4,1.2
	c0.6,0.1,1.3,0.3,1.7-0.2C155.5,7.8,155.1,7.4,154.4,7.3z"/>
<path class="elementor-shape-fill" d="M277.9,62C277.9,62,277.9,62.1,277.9,62c-1,0.1-1.9,0-2.9,0.1c-0.7,0-1.4,0.1-1.4,0.6c0,0.6,0.7,0.6,1.4,0.6
	c1.9,0.1,3.8,0.1,5.7,0.1c0.4,0,0.8,0,1.1-0.1c0.4-0.2,0.7-0.4,1-0.7c-0.4-0.2-0.7-0.5-1.1-0.5C280.5,62.1,279.2,62.1,277.9,62z"/>
<path class="elementor-shape-fill st0" d="M408.5,7.3c-2-0.4-4-0.7-6.1-1.1c-0.3,0.2-0.9,0.4-0.9,0.6c0,0.3,0.3,0.7,0.7,0.8c1.8,0.4,3.6,0.8,5.4,1.1
	c0.6,0.1,1.3,0.3,1.7-0.2C409.7,7.8,409.3,7.4,408.5,7.3z"/>
<path class="elementor-shape-fill st0" d="M23.7,62C23.7,62.1,23.7,62.1,23.7,62c-1.1,0.1-2.2,0-3.2,0.1c-0.4,0-0.8,0.3-1,0.6c-0.1,0.1,0.3,0.5,0.5,0.5
	c2.6,0.1,5.2,0.1,7.8,0.1c0.3,0,0.6-0.4,0.9-0.6c-0.4-0.2-0.7-0.5-1.1-0.5C26.3,62.1,25,62.1,23.7,62z"/>
<path class="elementor-shape-fill st0" d="M335,73.1c0,1,0,2,0,2.9c0,0.4-0.2,0.8,0,1.1c0.1,0.2,0.7,0.4,1.1,0.5c0.3-0.2,0.7-0.4,0.8-0.6
	c0.2-1.3,0.3-2.6,0.4-4.2c-0.2-0.1-0.6-0.7-1-0.7C335.3,72.1,335,72.6,335,73.1z"/>
<path class="elementor-shape-fill" d="M82.9,72.7c-0.1-0.2-0.6-0.5-1-0.5s-0.7,0.3-1,0.5c-0.1,0.1-0.1,0.3-0.1,0.4c-0.1,1.2-0.1,2.5-0.1,3.7c0,0.2,0,0.4,0.2,0.5
	c0.3,0.2,0.8,0.3,1.1,0.3c0.2,0,0.6-0.3,0.7-0.5c0.2-0.9,0.2-1.9,0.3-2.8c0,0,0,0-0.1,0C83,73.8,83.1,73.2,82.9,72.7z"/>
<path class="elementor-shape-fill" d="M482,42.1c0.1,0.2,0.9,0.3,1,0.2c0.3-0.2,0.8-0.6,0.7-0.8c-0.8-1.2-1.6-2.4-2.6-3.6c-0.2-0.2-0.9-0.3-1.4-0.3
	c-0.2,0-0.4,0.4-0.7,0.5c0.3,0.5,0.5,1,0.8,1.4C480.5,40.5,481.2,41.3,482,42.1z"/>
<path class="elementor-shape-fill" d="M226.9,41.4c0.2,0.3,0.6,0.6,1,0.8c0.3,0.1,1,0.2,1,0.2c0.3-0.3,0.6-0.7,0.5-0.9c-0.6-1.1-1.4-2.2-2.2-3.2
	c-0.2-0.3-0.8-0.5-1-0.6c-1.1,0-1.4,0.6-1,1.2C225.8,39.7,226.3,40.5,226.9,41.4z"/>
<path class="elementor-shape-fill" d="M231.4,59.9c-0.7,0-1.4,0.1-2,0.3c-1.2,0.4-2.3,0.9-3.4,1.4c-0.4,0.2-0.7,0.4-1,0.6c-0.2,0.1-0.2,0.4-0.1,0.6
	c0.1,0.2,0.5,0.2,0.7,0.3c0.3,0,0.3,0,0.4,0c2-0.7,4-1.4,5.9-2.1C232.5,60.6,232.2,60,231.4,59.9z"/>
<path class="elementor-shape-fill" d="M485.3,59.8c-0.4,0-0.5,0-0.6,0c-1.8,0.7-3.6,1.4-5.4,2.2c-0.2,0.1-0.1,0.5-0.1,0.8c0.5,0,1,0.1,1.4,0
	c1.7-0.6,3.4-1.2,5-1.8c0.3-0.1,0.7-0.5,0.6-0.7C486.1,60.1,485.5,59.9,485.3,59.8z"/>
<path class="elementor-shape-fill" d="M320,17.8c0-1.1,0.1-2.3,0.1-3.4c0-0.5-0.1-1-1-1c-0.8,0-1.1,0.4-1.1,0.9c0,0.6,0,1.2,0,1.8c0,0.6-0.1,1.3,0,1.9
	s0.9,0.6,1.6,0.6C320.3,18.5,320,18.1,320,17.8z"/>
<path class="elementor-shape-fill st0" d="M65.9,18.1c0.1-1.3,0.1-2.6,0-3.9c0-0.3-0.6-0.6-1-0.9c-0.4,0.3-1,0.5-1.1,0.8c-0.2,0.6-0.1,1.3-0.1,1.9l0,0
	c0,0.6,0,1.2,0,1.8c0,0.5,0.8,0.6,1.4,0.6C65.4,18.5,65.9,18.3,65.9,18.1z"/>
<path class="elementor-shape-fill st0" d="M467.2,72.4c-0.2-0.2-0.9-0.4-1.2-0.3c-1.1,0.2-2.3,0.4-3.4,0.7c-0.9,0.2-1.8,0.6-2.6,0.9
	c-0.2,0.1-0.4,0.5-0.3,0.6c0.2,0.2,0.7,0.3,1.1,0.4c2-0.5,4-1.1,6-1.7C467.1,73.1,467.3,72.6,467.2,72.4z"/>
<path class="elementor-shape-fill st0" d="M213,72.5c0-0.1-0.6-0.3-1-0.5c-1.9,0.5-3.7,0.9-5.5,1.4c-0.3,0.1-0.5,0.2-0.7,0.4c-0.2,0.2-0.4,0.6-0.4,0.6
	c0.4,0.2,0.9,0.3,1.3,0.3c0.6,0,1.2-0.2,1.7-0.4c1.3-0.3,2.6-0.6,3.8-1C212.7,73.2,213,72.8,213,72.5z"/>
<path class="elementor-shape-fill" d="M171.5,24.6c1.2,0.5,2.5,1,3.9,1.5c0.5,0.2,1.2,0.1,1.9,0.1c-0.1-0.4,0-0.8-0.2-1.2c-0.1-0.2-0.7-0.4-1.1-0.5
	c-1-0.3-2.1-0.6-3.1-0.9c-0.3-0.1-0.7-0.2-1.2-0.3c-0.3,0.1-0.9,0.3-0.8,0.4C170.9,24,171.1,24.4,171.5,24.6z"/>
<path class="elementor-shape-fill st0" d="M425.3,24.4c1.6,0.7,3.2,1.3,4.9,1.8c0.8,0.3,1.5-0.1,1.4-0.8c-0.2-0.1-0.4-0.6-0.8-0.7c-1.5-0.5-3-0.9-4.6-1.3
	c-0.3-0.1-1,0.1-1.2,0.3C424.8,23.8,425,24.3,425.3,24.4z"/>
<path class="elementor-shape-fill st0" d="M451.6,11.7c0.5,0.4,1.3,0.7,1.8,0.9c1.3,0,1.6-0.4,1.1-0.9c-0.9-0.9-1.9-1.7-2.8-2.6c-0.4-0.3-0.8-0.6-1.6-0.3
	c-0.8,0.2-0.7,0.7-0.4,1C450.4,10.6,450.9,11.2,451.6,11.7z"/>
<path class="elementor-shape-fill st0" d="M298,54.1c-0.1,0.2,0.3,0.5,0.6,0.7c0.2,0.1,0.7,0.2,1.1,0.2c1.5,0.1,2.9,0.1,4.4,0.1c0.1,0.1,0.1,0.1,0.2,0.2
	c0.5-0.2,1.4-0.4,1.5-0.7c0.2-0.4-0.4-0.8-1.3-0.8c-1.8-0.1-3.6-0.2-5.4-0.2C298.7,53.7,298,53.9,298,54.1z"/>
<path class="elementor-shape-fill st0" d="M199.1,12.6c0.1,0.1,0.4,0.1,0.5,0.1c0.9,0,1.4-0.3,1.1-0.7c-1-1-2.2-2-3.3-2.9c-0.2-0.1-0.9-0.2-1.2-0.1
	c-0.3,0.1-0.6,0.5-0.5,0.7C196.2,10.8,197.3,11.8,199.1,12.6z"/>
<path class="elementor-shape-fill st0" d="M374.8,51.8L374.8,51.8c-0.8,0-1.7,0-2.5,0c-0.7,0-1.5,0-1.5,0.6s0.7,0.7,1.4,0.7c1.8,0,3.7-0.1,5.5-0.2
	c0.5,0,0.9-0.3,1.3-0.5c-0.5-0.2-0.9-0.5-1.4-0.6C376.8,51.7,375.8,51.8,374.8,51.8z"/>
<path class="elementor-shape-fill st0" d="M117.6,51.8c-0.3,0-0.8,0.4-0.9,0.6c0,0.2,0.5,0.5,0.9,0.5c0.6,0.1,1.3,0,2,0l0,0c1.4-0.1,2.8-0.1,4.2-0.2
	c0.4,0,0.7-0.3,1.1-0.5c-0.4-0.2-0.7-0.6-1.1-0.6C121.7,51.8,119.6,51.8,117.6,51.8z"/>
<path class="elementor-shape-fill st0" d="M43.8,54.1c-0.1,0.2,0.3,0.6,0.6,0.7c0.3,0.2,0.8,0.2,1.2,0.2c1.4,0.1,2.8,0.1,4.3,0.1c0.1,0.1,0.1,0.1,0.2,0.2
	c0.5-0.2,1.4-0.4,1.5-0.7c0.2-0.5-0.5-0.8-1.3-0.8c-1.8-0.1-3.5-0.1-5.3-0.1C44.6,53.7,43.9,53.9,43.8,54.1z"/>
<path class="elementor-shape-fill" d="M476.9,8.5c-0.8,1-1.4,2.1-2,3.2c-0.1,0.2,0.2,0.6,0.3,0.9c0.5-0.1,1.1-0.2,1.4-0.4c0.5-0.4,0.7-0.9,1-1.3
	c0.5-0.7,0.9-1.4,1.4-2.2c-0.3-0.2-0.6-0.5-0.9-0.5C477.7,8.1,477,8.3,476.9,8.5z"/>
<path class="elementor-shape-fill st0" d="M222.8,8.4c-0.7,1.1-1.4,2.2-2,3.3c-0.1,0.3,0.2,0.6,0.3,0.9c0.5-0.2,1.2-0.3,1.4-0.6c0.7-0.8,1.2-1.7,1.8-2.6
	c0.2-0.3,0.3-0.5,0.5-0.9c-0.3-0.1-0.6-0.4-0.9-0.5C223.6,8.1,222.9,8.2,222.8,8.4z"/>
<path class="elementor-shape-fill st0" d="M148.9,59.4c-0.5,0.1-1.1,0.2-1.3,0.5c-0.8,0.9-1.5,1.9-2.3,2.9c0.2,0.2,0.2,0.5,0.4,0.5c0.3,0.1,0.8,0,0.9-0.1
	c1.1-1.1,2.2-2.1,3.2-3.2C150.1,59.7,149.6,59.4,148.9,59.4z"/>
<path class="elementor-shape-fill" d="M402.8,59.5c-0.4,0.1-0.9,0.2-1.1,0.4c-0.8,1-1.6,2-2.4,3c0.2,0.2,0.4,0.5,0.5,0.5c0.4,0,1-0.1,1.2-0.3
	c0.7-0.6,1.3-1.2,1.9-1.8c0.4-0.4,0.8-0.8,1-1.2C404.2,59.6,403.6,59.3,402.8,59.5z"/>
<path class="elementor-shape-fill" d="M389.5,40.4c-1.5-0.8-3.3-1.3-5.5-1.6c-0.3,0.2-0.9,0.4-1,0.6c-0.1,0.2,0.4,0.6,0.8,0.7c1.5,0.4,3.1,0.8,4.7,1.1
	c0.4,0.1,0.8,0,1.3,0C389.8,40.9,389.8,40.5,389.5,40.4z"/>
<path class="elementor-shape-fill" d="M135.3,40.4c-1.6-0.6-3.3-1.1-5.1-1.7c-0.6,0.3-1.2,0.5-1.3,0.7c-0.2,0.4,0.3,0.6,0.9,0.7c1.6,0.3,3.1,0.7,4.6,1.1
	c0.4,0.1,0.8,0,1.3,0C135.6,40.9,135.6,40.5,135.3,40.4z"/>
<path class="elementor-shape-fill" d="M254.6,57.1c0.2,0.1,0.7-0.1,1-0.2c0.5-0.2,1-0.4,1.4-0.6c0.8-0.4,1.7-0.7,2.4-1.1c0.3-0.2,0.3-0.5,0.4-0.8
	c-0.5-0.1-1.1-0.3-1.4-0.2c-1.2,0.4-2.4,0.8-3.5,1.3c-0.4,0.2-0.5,0.6-0.8,0.9C254.2,56.6,254.3,56.9,254.6,57.1z"/>
<path class="elementor-shape-fill st0" d="M44.7,11.2c0.7-1,1.4-2,2-3.1c0.1-0.1,0.1-0.4-0.1-0.4c-0.2-0.1-0.6-0.1-0.8-0.1c-0.3,0.1-0.7,0.2-0.9,0.3
	c-0.8,0.9-1.6,1.9-2.5,2.9c0.4,0.4,0.7,0.6,1,0.9C43.9,11.6,44.5,11.4,44.7,11.2z"/>
<path class="elementor-shape-fill" d="M260.3,70.6c-1.7-0.5-3.4-0.8-5.2-1.2c-0.6-0.1-0.9,0-1,0.4c-0.1,0.5,0.3,0.7,1,0.9c1.2,0.3,2.4,0.6,3.7,0.9
	c0.4,0.1,0.9,0.2,1.5,0.3c0.2-0.1,0.7-0.3,0.7-0.5C260.9,71.1,260.7,70.7,260.3,70.6z"/>
<path class="elementor-shape-fill st0" d="M427.1,85.2c-0.9,0.9-1.8,1.9-2.7,3c0.5,0.3,0.8,0.7,1.1,0.7c0.4,0,1-0.2,1.2-0.4c0.7-0.9,1.2-1.8,1.8-2.7
	c0.1-0.3,0-0.6,0-0.9C428.1,85,427.4,85,427.1,85.2z"/>
<path class="elementor-shape-fill" d="M298.8,11.2c0.7-1,1.4-2,2-3.1c0.3-0.4-0.2-0.6-0.8-0.5c-0.4,0-0.8,0.2-1,0.3c-0.9,0.9-1.6,1.9-2.5,2.9
	c0.4,0.4,0.7,0.6,1,0.9C298,11.6,298.7,11.4,298.8,11.2z"/>
<path class="elementor-shape-fill st0" d="M173.2,85.1c-1.5,0.8-1.9,2-2.7,3.2c0.3,0.2,0.6,0.6,0.9,0.6c0.4,0,1-0.2,1.2-0.4c0.7-0.9,1.3-1.9,1.8-2.9
	c0.1-0.2,0-0.5,0-0.7C174,85,173.5,84.9,173.2,85.1z"/>
<path class="elementor-shape-fill st0" d="M435.1,57.1c-1.7-0.7-3.6-0.9-5.6-1c-0.3,0-0.8,0.1-1,0.3s-0.3,0.5-0.3,0.8c0,0.1,0.6,0.2,0.9,0.2
	c0.6,0,1.2,0,1.8,0.1c1.1,0.1,2.2,0.3,3.4,0.5c0.3-0.1,0.7-0.2,1.1-0.3C435.5,57.4,435.4,57.2,435.1,57.1z"/>
<path class="elementor-shape-fill" d="M180.7,57c-1.5-0.4-3-0.7-4.4-1l-0.1,0.1c-0.5,0-1.1,0-1.4,0.2c-0.3,0.2-0.5,0.5-0.7,0.8c0.4,0.1,0.7,0.3,1.1,0.3
	c0.5,0.1,1.1,0,1.6,0c1.2,0.1,2.4,0.3,3.6,0.4c0.3,0,0.7-0.2,1.1-0.2C181.2,57.4,181,57.1,180.7,57z"/>
<path class="elementor-shape-fill st0" d="M200.5,57.3c-1,0.9-1.5,2-1.5,3.1c0,0.2,0,0.5,0.3,0.7c0.4,0.2,0.9,0.3,1.4,0.3c0.1,0,0.4-0.4,0.5-0.6
	c0.2-0.7,0.2-1.4,0.4-2.1c0.1-0.6,0.2-1.1,0.4-1.7c-0.1,0-0.3-0.1-0.4-0.1C201,57.1,200.7,57.2,200.5,57.3z"/>
<path class="elementor-shape-fill" d="M455.4,57.1c-0.3,0.1-0.7,0.2-0.8,0.3c-0.6,0.9-1.2,1.9-1.8,2.8c0.1,0,0.2,0,0.2,0.1c0,0.2,0.1,0.4,0.2,0.6
	c0.2,0.4,0.7,0.7,1.5,0.6c0.8-0.1,0.5-0.5,0.5-0.8c0.1-0.6,0.2-1.3,0.3-1.9c0.1-0.4,0.3-0.8,0.3-1.2
	C455.8,57.4,455.6,57.3,455.4,57.1z"/>
<path class="elementor-shape-fill st0" d="M440,74.6c-0.2,0.3-0.6,0.6-0.5,0.9c0.1,0.6,0.4,1.2,0.8,1.7c0.2,0.3,0.9,0.5,1.4,0.7c0.3-0.3,0.7-0.6,1-0.9
	c-0.4-0.7-0.7-1.4-1.2-2C441.2,74.8,440.5,74.7,440,74.6z"/>
<path class="elementor-shape-fill" d="M185.8,74.6c-0.2,0.3-0.5,0.5-0.5,0.8c0.2,0.6,0.4,1.3,0.8,1.9c0.2,0.3,0.8,0.4,1.3,0.7c0.4-0.3,0.7-0.5,1.1-0.8
	c-0.4-0.8-0.8-1.5-1.3-2.1C187,74.8,186.3,74.7,185.8,74.6z"/>
<path class="elementor-shape-fill st0" d="M405.2,47.8c-0.9,0.1-1.8,0.2-2.6,0.4c-0.5,0.1-0.9,0.5-1.3,0.8c0.5,0.2,1,0.5,1.5,0.7c1.3-0.3,2.4-0.5,3.3-0.8
	c0.3-0.1,0.4-0.6,0.4-0.9C406.4,47.9,405.6,47.8,405.2,47.8z"/>
<path class="elementor-shape-fill" d="M151.1,47.8c-0.9,0.1-1.9,0.2-2.7,0.5c-0.5,0.1-0.8,0.5-1.2,0.8c0.5,0.2,1,0.4,1.5,0.7c1.2-0.3,2.3-0.5,3.3-0.8
	c0.3-0.1,0.4-0.6,0.4-0.9C152.3,47.9,151.5,47.8,151.1,47.8z"/>
<path class="elementor-shape-fill st0" d="M500.9,57c1.4-0.6,2.8-1.1,4-1.7c0.4-0.2,0.8-0.7,0.6-0.9c-0.4-0.5-1.2-0.4-1.8-0.1c-1.3,0.5-2.5,1-3.7,1.5
	c0,0.5,0,0.9,0,1.4C500.3,57.1,500.7,57.1,500.9,57z"/>
<path class="elementor-shape-fill st0" d="M506.4,70.6c-2.1-0.5-4.2-0.9-6.4-1.4c0,0.4,0,0.8,0,1.1c1.9,0.4,3.7,0.9,5.6,1.3c0.3,0.1,0.8-0.1,1.3-0.2
	C506.7,71.2,506.6,70.7,506.4,70.6z"/>
<path class="elementor-shape-fill st0" d="M814.7,0c-0.8,0-1.7,0-2.5,0c0.4,0.3,0.9,0.7,1.2,0.7C813.8,0.6,814.2,0.3,814.7,0z"/>
<path class="elementor-shape-fill" d="M560.5,0c-0.8,0-1.7,0-2.5,0c0.4,0.3,0.9,0.7,1.2,0.7C559.7,0.6,560.1,0.3,560.5,0z"/>
<path class="elementor-shape-fill" d="M745,0.6c0.1,0,0.5-0.4,0.8-0.6c-0.8,0-1.5,0-2.3,0C744,0.2,744.5,0.5,745,0.6z"/>
<path class="elementor-shape-fill" d="M997.7,0c0.5,0.2,0.9,0.5,1.5,0.6c0.1,0,0.5-0.4,0.8-0.6C999.2,0,998.5,0,997.7,0z"/>
<path class="elementor-shape-fill" d="M964.9,0c-0.6,0-1.2,0-1.8,0c0.4,0.2,0.8,0.4,1.2,0.5C964.5,0.4,964.7,0.2,964.9,0z"/>
<path class="elementor-shape-fill" d="M710.7,0c-0.6,0-1.2,0-1.8,0c0.4,0.2,0.8,0.4,1.2,0.5C710.3,0.4,710.5,0.2,710.7,0z"/>
<path class="elementor-shape-fill" d="M635.7,23.8c0.4,0.1,1.1,0,1.5-0.1c3.2-1.2,6.3-2.5,9.4-3.8c0.4-0.2,0.7-0.5,0.9-0.6c0-0.9-0.8-1.1-2.1-0.6
	c-3,1.2-6,2.4-9,3.6c-0.4,0.2-0.7,0.4-1,0.6C634.6,23.3,634.7,23.6,635.7,23.8z"/>
<path class="elementor-shape-fill st0" d="M639.5,78.3c-0.1-0.1-0.3-0.3-0.5-0.4c-0.5-0.1-1.1-0.2-1.6-0.1c-0.2,0-0.3,0.5-0.3,0.8
	c0.1,0.3,0.4,0.6,0.7,0.9c1,1,2.1,1.9,3.1,2.9c1,0.9,2.1,1.8,3.3,2.7c0.2,0.2,0.9,0.3,1.1,0.2c0.4-0.2,0.5-0.5,0.8-0.7
	c-0.2-0.3-0.3-0.5-0.5-0.7C643.6,82,641.6,80.2,639.5,78.3z"/>
<path class="elementor-shape-fill" d="M889.9,23.8c0.3,0.1,0.9,0.1,1.2-0.1c3.3-1.3,6.6-2.6,9.9-4c0.3-0.1,0.5-0.4,0.6-0.5c0-0.7-0.5-1-1.4-0.8
	c-0.3,0.1-0.6,0.2-0.9,0.3c-2.9,1.2-5.8,2.3-8.7,3.5c-0.4,0.2-0.8,0.4-1.1,0.6C888.8,23.3,888.9,23.6,889.9,23.8z"/>
<path class="elementor-shape-fill" d="M512.8,2.3c-0.6-0.5-1.1-1-1.7-1.5c-0.3-0.2-1-0.3-1.4-0.2c-0.3,0.1-0.5,0.5-0.4,0.8c0,0.3,0.3,0.5,0.6,0.7
	c0.5,0.5,1,0.9,1.5,1.4c1.5,1.4,3.1,2.7,4.7,4.1c0.3,0.2,0.9,0.4,1.3,0.4c0.3,0,0.6-0.4,0.9-0.7c-0.3-0.4-0.6-0.7-0.9-1
	C515.8,5,514.3,3.6,512.8,2.3z"/>
<path class="elementor-shape-fill" d="M769.9,5c-1.5-1.4-3-2.8-4.6-4.1c-0.3-0.2-1-0.4-1.5-0.4c-0.8,0.1-0.7,0.6-0.4,0.9c0.2,0.2,0.4,0.5,0.6,0.7
	c1.1,1,2.1,2,3.2,3c0.9,0.9,1.9,1.7,2.9,2.5c0.3,0.2,0.9,0.4,1.2,0.4s0.6-0.4,0.9-0.7c-0.3-0.3-0.5-0.6-0.7-0.9
	C771,6,770.4,5.5,769.9,5z"/>
<path class="elementor-shape-fill st0" d="M851.8,55.7c-2.8-1-5.6-1.9-8.5-2.9c-0.7-0.2-1.5-0.3-2,0.2c-0.4,0.4-0.1,0.8,0.6,1.1c0.3,0.1,0.5,0.2,0.8,0.3
	c0.8,0.2,1.6,0.4,2.4,0.7c1.8,0.6,3.6,1.3,5.4,2c0.5,0.2,1,0.2,1.8,0.4c0.2-0.3,0.7-0.5,0.6-0.7C852.8,56.3,852.4,55.9,851.8,55.7z"
	/>
<path class="elementor-shape-fill" d="M589.1,52.8c-0.4-0.1-1.4,0-1.7,0.2c-0.5,0.3-0.2,0.8,0.5,1.1c0.3,0.1,0.6,0.2,0.9,0.3c0.7,0.2,1.5,0.4,2.2,0.6
	c1.5,0.5,2.9,1.1,4.4,1.6c0.8,0.3,1.7,0.5,2.5,0.7c0.7,0.1,1.1-0.1,1.3-0.6c-0.3-0.3-0.6-0.7-1.1-0.8
	C595.1,54.7,592.1,53.7,589.1,52.8z"/>
<path class="elementor-shape-fill" d="M826.8,29.4c-0.6,0-1.1,0-1.7,0.1c-0.2,0-0.4,0.2-0.5,0.3c-1.7,1.9-3.3,3.7-5,5.6c-0.1,0.1-0.1,0.3-0.2,0.5
	c0.2,0.1,0.5,0.5,0.7,0.5c0.5,0,1.3-0.2,1.5-0.4c0.8-0.8,1.5-1.6,2.2-2.5c1-1.1,2-2.2,3-3.3C827.1,30,826.8,29.7,826.8,29.4z"/>
<path class="elementor-shape-fill st0" d="M572.7,29.4c-0.3-0.1-0.9-0.1-1.3-0.1c-0.4,0.1-0.7,0.3-0.9,0.5c-1.5,1.7-3,3.3-4.5,5c-0.3,0.3-0.5,0.6-0.8,1
	c0.3,0.2,0.5,0.5,0.8,0.5c0.4,0,1.1-0.1,1.3-0.3c0.6-0.6,1.1-1.2,1.7-1.8c1.3-1.4,2.6-2.7,3.8-4.1C572.9,30,572.9,29.6,572.7,29.4z"
	/>
<path class="elementor-shape-fill st0" d="M869.8,2.5c-0.4-0.2-1-0.3-1.5-0.4c-0.4,0-0.9,0.2-1.3,0.3c-1.4,0.5-2.7,0.9-4.1,1.4c-1,0.3-2,0.6-2.8,1.1
	c-0.4,0.2-0.5,0.6-0.5,1c0,0.2,0.6,0.4,0.9,0.5c0.8-0.2,1.4-0.3,2-0.5c2-0.6,4-1.3,5.9-2c0.4-0.2,0.9-0.4,1.2-0.6
	C869.8,3,870,2.6,869.8,2.5z"/>
<path class="elementor-shape-fill" d="M615.7,2.6c-0.2-0.2-0.8-0.4-1.2-0.5c-0.5,0.1-1,0.2-1.3,0.3c-1.5,0.5-3,1-4.5,1.5c-0.9,0.3-1.9,0.6-2.8,1
	c-0.6,0.2-0.8,0.6-0.5,1s0.9,0.5,1.5,0.3c0.3-0.1,0.7-0.1,1-0.2c1.7-0.5,3.4-1.1,5.1-1.7c0.8-0.3,1.7-0.7,2.4-1.1
	C615.6,3.1,615.9,2.7,615.7,2.6z"/>
<path class="elementor-shape-fill" d="M793.2,46.1c-0.5-0.4-1.2-0.4-1.8-0.1c-2.1,0.9-4.3,1.8-6.4,2.8c-0.7,0.4-1.2,0.9-1.8,1.4c0.1,0.5,0.4,0.7,1.1,0.5
	c0.3-0.1,0.5-0.1,0.7-0.2c2.6-1.1,5.3-2.2,7.9-3.3C793.5,47,793.7,46.5,793.2,46.1z"/>
<path class="elementor-shape-fill st0" d="M537.3,46c-2.2,0.9-4.5,1.8-6.6,2.8c-0.7,0.3-1.1,0.9-1.5,1.4c-0.1,0.1,0.2,0.4,0.3,0.6
	c0.5-0.1,0.7-0.1,0.8-0.2c2.9-1.2,5.7-2.3,8.5-3.6c0.3-0.1,0.3-0.8,0.1-1C538.6,45.9,537.7,45.8,537.3,46z"/>
<path class="elementor-shape-fill st0" d="M996.6,79.4c-0.4,0-0.9,0.1-1.3,0.2c-0.7,0.2-1.3,0.5-2,0.7c-1.7,0.6-3.4,1.1-5,1.7c-0.4,0.2-0.8,0.6-0.8,0.9
	c0,0.2,0.7,0.4,1,0.6c0.6-0.1,1-0.2,1.4-0.3c2.3-0.8,4.5-1.5,6.8-2.3c0.3-0.1,0.6-0.2,0.8-0.4c0.2-0.2,0.5-0.6,0.4-0.7
	C997.7,79.6,997.1,79.4,996.6,79.4z"/>
<path class="elementor-shape-fill" d="M741,79.6c-1.6,0.5-3.2,1.1-4.7,1.6c-0.9,0.3-1.8,0.6-2.5,1c-0.3,0.1-0.5,0.6-0.4,0.8c0.1,0.2,0.7,0.4,1,0.5
	c0.6-0.1,1-0.2,1.4-0.3c1.5-0.5,3.1-1,4.6-1.5c0.9-0.3,1.9-0.6,2.6-1c0.4-0.2,0.5-0.6,0.8-1c-0.7-0.1-1.3-0.3-2-0.3
	C741.5,79.4,741.3,79.6,741,79.6z"/>
<path class="elementor-shape-fill st0" d="M814.1,69.1c-1.2-1-2.4-2.1-3.6-3.1c-0.5-0.4-1-0.5-1.7-0.2s-0.7,0.7-0.3,1c0.2,0.3,0.5,0.6,0.9,0.8
	c1.2,1,2.5,2,3.7,3.1c0.8,0.7,1.8,1.1,3.4,1c-0.1-0.3-0.1-0.5-0.3-0.6C815.5,70.4,814.8,69.7,814.1,69.1z"/>
<path class="elementor-shape-fill st0" d="M557.9,67.2c-0.5-0.4-1-0.9-1.7-1.3c-0.3-0.2-1.2-0.3-1.5-0.1c-0.4,0.1-0.5,0.6-0.5,0.9c0,0.2,0.3,0.4,0.5,0.6
	c1.5,1.2,2.9,2.5,4.4,3.7c0.7,0.6,1.7,0.8,3.2,0.7c-0.3-0.4-0.4-0.8-0.7-1.1C560.4,69.5,559.2,68.3,557.9,67.2z"/>
<path class="elementor-shape-fill st0" d="M741.3,21.4c-0.7-0.7-1.5-1.5-2.3-2.2c-0.2-0.2-0.9-0.3-1.2-0.2c-0.4,0.1-0.5,0.5-0.8,0.8
	c0.5,0.5,0.9,1.1,1.4,1.6c1.1,1.2,2.2,2.4,3.4,3.6c0.4,0.4,0.9,0.6,1.6,0.3c0.7-0.3,0.7-0.6,0.3-1C742.9,23.3,742.1,22.3,741.3,21.4
	z"/>
<path class="elementor-shape-fill" d="M995.5,21.5c-0.7-0.8-1.6-1.5-2.5-2.3c-0.2-0.2-0.9-0.3-1.2-0.2c-0.4,0.1-0.5,0.5-0.8,0.8c0.5,0.6,1,1.2,1.6,1.7
	c1,1.1,2.1,2.2,3.2,3.3c0.3,0.3,0.8,0.7,1.6,0.4c0.7-0.3,0.9-0.6,0.4-1.1C997,23.3,996.3,22.4,995.5,21.5z"/>
<path class="elementor-shape-fill st0" d="M955.1,53.9c2.1,0.5,4.2,1.1,6.3,1.7c1.1,0.3,2.1,0.5,3.3,0.8c0.4-0.1,0.9-0.2,1-0.4s0-0.5-0.2-0.7
	s-0.7-0.4-1.1-0.5c-2.8-0.7-5.7-1.4-8.5-2.1c-0.6-0.2-1.1-0.2-1.4,0.3C954.3,53.4,954.4,53.7,955.1,53.9z"/>
<path class="elementor-shape-fill" d="M701.2,53.9c1.8,0.5,3.5,1,5.2,1.4c1.3,0.4,2.7,0.7,4.2,1c0.4-0.2,0.9-0.3,1-0.5s0-0.5-0.3-0.7c-0.4-0.3-1-0.5-1.5-0.6
	c-2.6-0.7-5.2-1.3-7.8-1.9c-0.6-0.1-1.2-0.3-1.6,0.2C700,53.4,700.5,53.7,701.2,53.9z"/>
<path class="elementor-shape-fill" d="M940,27.3c-0.8-1-1.6-2.1-2.4-3.1c-0.4-0.5-0.7-1-1.3-1.4c-0.3-0.2-1.1-0.3-1.6-0.2c-0.3,0.1-0.8,0.6-0.7,0.8
	c1,1.4,2.1,2.8,3.3,4.2c0.3,0.3,1.1,0.5,1.7,0.7C940.3,28.1,940.4,28,940,27.3z"/>
<path class="elementor-shape-fill st0" d="M685.8,27.4c-0.8-1.1-1.6-2.1-2.4-3.2c-0.4-0.5-0.7-1-1.3-1.4c-0.3-0.2-1.2-0.3-1.6-0.2
	c-0.3,0.1-0.7,0.6-0.6,0.8c0.9,1.4,2,2.7,3.1,4c0.3,0.4,1.1,0.6,1.7,0.9C686.1,28.2,686.3,28,685.8,27.4z"/>
<path class="elementor-shape-fill" d="M776.7,40.8c1,0,1.2-0.6,1.3-1.1c0.1-0.6,0.2-1.3,0.4-1.9c0.4-1.3,0.8-2.6,1.2-3.9c0.1-0.3-0.2-0.5-0.3-0.8
	c-0.5,0.2-1,0.4-1.4,0.6c-0.1,0.1-0.1,0.2-0.2,0.3c-0.5,1.4-1,2.7-1.5,4.1c-0.2,0.5-0.3,1-0.5,1.4C775.8,40.1,775.6,40.8,776.7,40.8
	z"/>
<path class="elementor-shape-fill st0" d="M952.8,38.7c-0.4-0.1-0.9,0-1.3,0.1c-0.2,0.1-0.4,0.3-0.5,0.5c-1.2,1.8-2.4,3.6-3.6,5.5
	c-0.1,0.2,0.2,0.5,0.5,0.6c0.8,0.3,1.3,0,1.6-0.5c0.9-1.4,1.9-2.8,2.9-4.2c0.3-0.5,0.7-0.9,1-1.5C953.2,39,953.1,38.7,952.8,38.7z"
	/>
<path class="elementor-shape-fill" d="M522.5,40.7c1.1,0.1,1.2-0.5,1.3-1c0.1-0.6,0.2-1.3,0.4-1.9c0.4-1.3,0.8-2.7,1.2-4c0.1-0.2-0.2-0.4-0.4-0.7
	c-0.4,0.1-0.8,0.2-1.1,0.3c-0.3,0.2-0.4,0.4-0.5,0.7c-0.5,1.3-1,2.7-1.5,4c-0.2,0.5-0.3,1-0.6,1.7C521.6,40.1,522,40.7,522.5,40.7z"
	/>
<path class="elementor-shape-fill st0" d="M698.7,38.7c-0.4-0.1-0.9,0-1.3,0.1c-0.3,0.1-0.5,0.4-0.6,0.6c-1.2,1.7-2.3,3.5-3.4,5.2
	c-0.3,0.4-0.1,0.7,0.6,0.9c0.7,0.2,1.1-0.1,1.3-0.4c1.2-1.7,2.4-3.4,3.6-5.2c0.1-0.2,0.2-0.4,0.3-0.7
	C699.1,39,698.9,38.7,698.7,38.7z"/>
<path class="elementor-shape-fill" d="M983.2,48.4c2.8-0.8,5.5-1.6,8.2-2.4c0.8-0.2,1.1-0.6,0.7-1.1c-0.4-0.5-1.1-0.5-1.9-0.3c-1.9,0.6-3.9,1.1-5.8,1.7
	C982.9,46.7,982.6,47.2,983.2,48.4z"/>
<path class="elementor-shape-fill" d="M729.1,48.3c2.8-0.8,5.6-1.6,8.4-2.5c0.7-0.2,0.8-0.6,0.4-1c-0.4-0.4-1-0.5-1.7-0.3c-2.1,0.6-4.2,1.2-6.2,1.8
	C728.7,46.8,728.4,47.4,729.1,48.3z"/>
<path class="elementor-shape-fill st0" d="M844.1,28.2c0.8,0.1,1.7,0,2.7,0c-0.1-0.7-0.6-1-1.5-1.1c-2.4-0.3-4.8-0.7-7.2-0.9c-1-0.1-2-0.1-3-0.1
	c-0.3,0-0.8,0.3-0.9,0.4c-0.1,0.2,0.2,0.5,0.5,0.6c0.2,0.1,0.6,0.1,1,0.2C838.5,27.6,841.3,28,844.1,28.2z"/>
<path class="elementor-shape-fill" d="M581.4,27.3c2.9,0.3,5.7,0.6,8.6,0.9c0.8,0.1,1.7,0,2.6,0c-0.1-0.7-0.6-1-1.5-1.1c-2.4-0.3-4.8-0.7-7.2-0.9
	c-1-0.1-2-0.1-3-0.1c-0.3,0-0.9,0.3-0.9,0.4c0,0.2,0.4,0.5,0.7,0.7C580.9,27.3,581.2,27.3,581.4,27.3z"/>
<path class="elementor-shape-fill" d="M826.9,49.4c-0.2-0.4-0.5-1-1.6-0.8c-1,0.2-0.7,0.7-0.6,1.1c0.7,1.7,1.3,3.3,2,5c0.2,0.5,0.5,1,0.8,1.5c0.2,0,0.4,0,0.6,0
	c0.2-0.3,0.5-0.7,0.5-1c0-0.5-0.3-1.1-0.4-1.6C827.9,52.2,827.5,50.8,826.9,49.4z"/>
<path class="elementor-shape-fill st0" d="M573.4,50.9c-0.2-0.7-0.6-1.3-1.1-2c-0.1-0.2-0.8-0.4-1.1-0.3c-0.3,0.1-0.6,0.4-0.7,0.7
	c-0.1,0.2,0.1,0.4,0.2,0.6c0.6,1.6,1.2,3.1,1.9,4.7c0.2,0.5,0.5,1,0.9,1.7c1.2-0.5,1.3-0.8,1-1.6C574.2,53.4,573.9,52.2,573.4,50.9z
	"/>
<path class="elementor-shape-fill" d="M805.5,79.2c-0.6-0.3-1.4-0.4-2.1-0.5c-1.6-0.3-3.2-0.6-5-0.9c-0.5,0.3-0.9,0.6-1.4,0.9c0.5,0.2,1,0.6,1.6,0.7
	c1.6,0.4,3.2,0.6,4.8,0.9c0.6,0.1,1.2,0.3,1.8,0.3c0.5,0,1-0.3,1.5-0.5C806.2,79.8,806,79.4,805.5,79.2z"/>
<path class="elementor-shape-fill" d="M551.4,79.2c-2.1-0.5-4.3-0.9-6.5-1.3c-1-0.2-2.3,0.3-2.1,0.7c0.2,0.3,1,0.6,1.6,0.8c1.4,0.3,2.8,0.5,4.2,0.8
	c0.7,0.1,1.4,0.3,2.4,0.5c0.4-0.2,1.2-0.4,1.3-0.6C552.3,79.8,551.9,79.3,551.4,79.2z"/>
<path class="elementor-shape-fill st0" d="M635.8,90.6c-0.5,0.1-0.9,0.3-1.2,0.6c-0.9,0.7-1.7,1.5-2.6,2.2c-0.5,0.5-1.1,0.9-1.5,1.4
	c-0.2,0.2,0.1,0.6,0.1,0.9c0.5-0.1,1-0.1,1.5-0.2c0.2,0,0.3-0.2,0.4-0.3c1.5-1.2,2.9-2.3,4.4-3.5c0.2-0.2,0.3-0.4,0.4-0.5
	C637.3,90.8,636.5,90.4,635.8,90.6z"/>
<path class="elementor-shape-fill" d="M625.8,17.2c-2.2-1-4.5-2-6.7-2.9c-0.7-0.3-1.4,0-1.4,0.7c0.2,0.1,0.4,0.5,0.8,0.6c2,0.9,3.9,1.8,5.9,2.7
	c0.6,0.3,1.2,0.4,1.7,0C626.6,17.9,626.3,17.5,625.8,17.2z"/>
<path class="elementor-shape-fill st0" d="M875,14.9c-0.6-0.2-1.1-0.5-1.8-0.6c-0.3-0.1-1,0-1.2,0.2s-0.1,0.5,0,0.8c0.2,0.2,0.6,0.4,0.9,0.5
	c0.8,0.4,1.5,0.7,2.3,1c1.2,0.5,2.3,1.1,3.6,1.6c0.3,0.1,0.8,0.1,1.1,0s0.4-0.3,0.7-0.6c-0.4-0.3-0.6-0.6-1-0.8
	C878.1,16.3,876.5,15.6,875,14.9z"/>
<path class="elementor-shape-fill" d="M889,91c-1.4,1.1-2.7,2.3-4.1,3.5c-0.4,0.4-1.2,0.8-0.2,1.3c0.9,0.4,1.4-0.1,2-0.5c0.1,0,0.1-0.1,0.1-0.1
	c1.4-1.1,2.8-2.2,4.2-3.3c0.2-0.2,0.3-0.4,0.6-0.6c-0.3-0.2-0.6-0.5-0.9-0.5C890.1,90.6,889.3,90.7,889,91z"/>
<path class="elementor-shape-fill st0" d="M610.5,44.4c-0.5-0.1-1-0.4-1.4-0.4c-1.9,0.2-3.7,0.4-5.5,0.7c-1,0.2-1.9,0.5-2.7,0.9c-0.3,0.1-0.4,0.5-0.4,0.7
	c0,0.1,0.4,0.3,0.6,0.3c0.3,0,0.3,0,0.4-0.1c2.7-0.4,5.4-0.9,8.1-1.4C610,45.2,610.2,44.7,610.5,44.4z"/>
<path class="elementor-shape-fill st0" d="M864.7,44.5c-0.5-0.1-1-0.4-1.5-0.4c-0.6,0-1.2,0.1-1.8,0.2c-2,0.3-4.1,0.4-5.8,1.2c-0.4,0.2-0.7,0.4-1.3,0.8
	c0.6,0.2,0.9,0.5,1.2,0.4c2.8-0.4,5.5-0.9,8.2-1.4C864.1,45.2,864.4,44.7,864.7,44.5z"/>
<path class="elementor-shape-fill" d="M508.8,12.7c-0.6-0.3-1.2-0.2-1.7,0.2c-0.4,0.3-0.8,0.6-1.2,0.9c-1.2,1-2.4,2-3.5,3c-0.6,0.6-0.3,1,1,1.1
	c0.2-0.1,0.6-0.2,0.9-0.4c0.9-0.7,1.7-1.3,2.5-2c0.7-0.5,1.4-1.1,2-1.6C509.2,13.5,509.5,13.1,508.8,12.7z"/>
<path class="elementor-shape-fill st0" d="M761.5,12.9c-0.5,0.2-0.9,0.6-1.3,0.9c-1.2,1-2.4,2-3.6,3.1c-0.6,0.6-0.2,1,0.9,1.1c0.2-0.1,0.6-0.1,0.8-0.3
	c1.6-1.3,3.2-2.6,4.8-3.9c0.2-0.2,0-0.6-0.1-0.9C762.5,12.8,761.9,12.7,761.5,12.9z"/>
<path class="elementor-shape-fill st0" d="M671.6,69.6c0.3-0.6,0.4-1.1,0.6-1.7c0.2-0.8,0.4-1.6,0.7-2.7c-0.2-0.2-0.5-0.6-1-0.7c-0.9-0.1-1.3,0.3-1.5,0.8
	c-0.2,0.6-0.5,1.2-0.7,1.8c-0.2,0.8-0.4,1.7-0.3,2.5c0,0.2,0.8,0.5,1.3,0.6C670.9,70.2,671.4,69.8,671.6,69.6z"/>
<path class="elementor-shape-fill" d="M925.7,69.6c0.3-0.5,0.4-1.1,0.6-1.7c0.2-0.8,0.4-1.6,0.7-2.7c-0.2-0.2-0.5-0.6-1-0.7c-0.9-0.1-1.3,0.3-1.5,0.8
	c-0.2,0.6-0.5,1.2-0.7,1.8c-0.2,0.8-0.3,1.7-0.3,2.5c0,0.2,0.7,0.5,1.2,0.6C925,70.2,925.6,69.8,925.7,69.6z"/>
<path class="elementor-shape-fill st0" d="M555.5,27.8c-0.8-1.8-1.6-3.5-2.4-5.2c-0.1-0.2-0.8-0.3-1.2-0.5c-0.2,0.3-0.7,0.6-0.6,0.8
	c0.1,0.8,0.4,1.7,0.8,2.5c0.4,0.8,1,1.6,1.7,2.4c0.2,0.2,0.9,0.3,1.3,0.4C555.1,28.2,555.3,27.9,555.5,27.8z"/>
<path class="elementor-shape-fill" d="M809.2,28.2c0.2,0,0.3-0.4,0.3-0.5c-0.7-1.6-1.4-3.3-2.3-4.9c-0.1-0.2-0.8-0.5-1.3-0.5c-0.3,0-0.6,0.4-0.9,0.8
	c0.7,1.5,1.5,2.9,2.2,4.3c0.2,0.3,0.5,0.6,0.9,0.8C808.3,28.2,808.9,28.2,809.2,28.2z"/>
<path class="elementor-shape-fill" d="M922.1,38.8c-1.8-0.2-3.6-0.5-5.4-0.7c-0.6-0.1-1.3-0.1-1.9,0c-0.4,0.1-0.8,0.4-0.9,0.7c0,0.2,0.5,0.5,0.9,0.6
	c2.2,0.3,4.4,0.5,6.4,0.7c0.4,0,0.6,0,0.7,0c0.7,0,1.2-0.1,1.3-0.6C923.3,39,922.8,38.9,922.1,38.8z"/>
<path class="elementor-shape-fill" d="M667.7,38.8c-1.7-0.2-3.4-0.5-5.1-0.7c-0.7-0.1-1.4-0.1-2,0.1c-0.4,0.1-0.7,0.5-0.8,0.7c0,0.2,0.5,0.5,0.9,0.5
	c2.2,0.3,4.5,0.5,7.1,0.8c0.3-0.1,1.1-0.3,1.2-0.6C669.3,39,668.4,38.9,667.7,38.8z"/>
<path class="elementor-shape-fill" d="M863.1,58.3c-0.7,1-1.2,2-1.7,3c-0.2,0.4-0.5,0.8-0.4,1.2c0.1,0.3,0.7,0.5,1,0.8c0.4-0.2,0.8-0.4,1-0.6
	c0.3-0.3,0.4-0.7,0.6-1.1c0.5-1,1.1-2,1.6-3.1c-0.3-0.3-0.5-0.6-0.8-0.9C864,57.9,863.3,58,863.1,58.3z"/>
<path class="elementor-shape-fill st0" d="M608.9,58.4c-0.7,0.9-1.1,1.9-1.7,2.8c-0.2,0.4-0.4,0.7-0.4,1.1c-0.1,0.5,0.2,0.9,1,1s1-0.3,1.2-0.7
	c0.2-0.3,0.3-0.5,0.4-0.8c0.6-1,1.1-2.1,1.7-3.2c-0.3-0.3-0.6-0.6-0.9-0.9C609.8,57.9,609.1,58.1,608.9,58.4z"/>
<path class="elementor-shape-fill" d="M672.1,2c1.2,0.3,2.5,0.5,3.8,0.8c1,0.2,2,0.4,3.1,0.5c0.4,0,1-0.3,1.2-0.5c0.1-0.2-0.3-0.5-0.6-0.7c-0.4-0.2-1-0.3-1.6-0.4
	c-1.8-0.4-3.7-0.7-5.7-1.1c-0.4,0.2-0.9,0.4-1.1,0.7C671.1,1.5,671.7,1.9,672.1,2z"/>
<path class="elementor-shape-fill" d="M926.3,2c1.9,0.5,3.8,0.8,5.8,1.2c0.4,0.1,0.9,0.2,1.3,0.1c0.4-0.1,0.8-0.3,0.9-0.5c0.1-0.2-0.2-0.5-0.5-0.6
	c-2.4-0.6-4.7-1.1-7.3-1.6c-0.5,0.3-1.1,0.5-1.2,0.8C925.3,1.5,925.9,1.9,926.3,2z"/>
<path class="elementor-shape-fill" d="M972.8,92.3c-0.6,0.2-1.3,0.3-1.9,0.5c-1.4,0.5-2.7,1-4,1.6c-0.3,0.1-0.5,0.5-0.4,0.7c0.2,0.2,0.7,0.3,1,0.4
	c0.4-0.1,0.6-0.1,0.9-0.1c1.7-0.5,3.4-1,5.1-1.5c0.3-0.1,0.7-0.3,0.8-0.5c0.1-0.3,0.2-0.6,0-0.9C973.9,92.1,973.4,92.1,972.8,92.3z"
	/>
<path class="elementor-shape-fill st0" d="M719,92.2c-2.2,0.6-4.6,1-6.3,2.1c-0.3,0.2-0.5,0.5-0.4,0.6c0.2,0.2,0.7,0.3,0.9,0.4c0.4-0.1,0.6-0.1,0.7-0.1
	c1.7-0.5,3.5-1,5.2-1.5c0.4-0.1,0.8-0.4,0.9-0.6c0.1-0.2,0.1-0.5-0.1-0.7C719.9,92.3,719.3,92.1,719,92.2z"/>
<path class="elementor-shape-fill st0" d="M871.9,73.1c-0.3,0.2-0.5,0.5-0.6,0.8c-0.5,1-0.9,1.9-1.4,2.9c-0.2,0.5,0,0.9,0.7,1c0.4,0.1,1.1-0.2,1.4-0.5
	c0.4-0.4,0.7-0.9,0.9-1.4c0.4-0.8,0.8-1.6,1.2-2.5c-0.2-0.2-0.5-0.5-0.9-0.6C872.9,72.8,872.2,73,871.9,73.1z"/>
<path class="elementor-shape-fill st0" d="M617.6,73.3c-0.7,1.2-1.4,2.5-1.9,3.7c-0.1,0.2,0.4,0.6,0.8,0.7c0.3,0.1,1.1-0.1,1.2-0.2c0.8-1.3,1.6-2.6,2.4-4
	c-0.4-0.2-0.6-0.6-1-0.7C618.4,72.7,617.8,72.9,617.6,73.3z"/>
<path class="elementor-shape-fill st0" d="M526.9,84.7c-2.2-0.5-4.4-0.9-6.6-1.3c-0.3,0-0.9,0.3-1,0.5s0.1,0.6,0.4,0.7c2.1,0.5,4.3,0.9,6.6,1.4
	c0.3-0.2,0.8-0.3,1-0.5C527.4,85.2,527.2,84.8,526.9,84.7z"/>
<path class="elementor-shape-fill" d="M781.1,84.7c-2.1-0.5-4.3-1-6.6-1.5c-0.4,0.2-1,0.4-1,0.7c-0.1,0.2,0.3,0.7,0.6,0.8c2,0.5,4.1,0.9,6.1,1.2
	c0.3,0.1,1-0.2,1.2-0.4C781.6,85.3,781.4,84.8,781.1,84.7z"/>
<path class="elementor-shape-fill st0" d="M613.7,30.5c-1.2,0.2-2.4,0.5-3.6,0.8c-1.1,0.3-2.3,0.5-3.4,0.9c-0.3,0.1-0.6,0.5-0.6,0.7c0,0.1,0.5,0.3,1,0.5
	c2.5-0.6,5-1.2,7.4-1.8c0.3-0.1,0.5-0.5,0.4-0.7C614.7,30.7,614,30.5,613.7,30.5z"/>
<path class="elementor-shape-fill st0" d="M867.9,30.5c-0.9,0.1-1.8,0.4-2.7,0.6c-1.4,0.3-2.8,0.6-4.2,1c-0.4,0.1-0.6,0.5-0.7,0.8c0,0.1,0.5,0.3,1,0.6
	c2.5-0.6,5-1.2,7.5-1.9c0.2-0.1,0.4-0.5,0.2-0.7C868.8,30.6,868.2,30.5,867.9,30.5z"/>
<path class="elementor-shape-fill st0" d="M785.7,24.3c0.2,0.3,0.9,0.4,1.4,0.5c0.1-0.3,0.5-0.5,0.4-0.8c-0.5-1.1-1-2.1-1.6-3.2c-0.2-0.4-0.6-0.8-1.1-1.2
	c-0.2-0.1-0.8-0.2-1.1-0.2c-0.3,0.1-0.5,0.4-0.7,0.6c0.4,0.5,0.7,1,1,1.5C784.5,22.5,785,23.5,785.7,24.3z"/>
<path class="elementor-shape-fill" d="M531.7,24.5c0.2,0.2,0.8,0.3,1.3,0.3c0.2,0,0.4-0.2,0.8-0.5c-0.9-1.4-1.7-2.9-2.6-4.3c-0.3-0.4-0.7-0.8-1.6-0.5
	c-0.8,0.3-0.6,0.7-0.3,1.1c0.6,0.9,1.2,1.8,1.7,2.7C531.1,23.7,531.3,24.2,531.7,24.5z"/>
<path class="elementor-shape-fill" d="M720.4,25.2c-0.2-0.2-0.8-0.3-1-0.4c-1.1,0-1.5,0.7-1,1.3c0.5,0.6,1,1.1,1.6,1.6s1.3,1.1,2.1,1.6c0.2,0.1,0.7,0.2,0.9,0.1
	c0.3-0.1,0.5-0.4,0.6-0.6c0.1-0.1-0.1-0.3-0.2-0.5C722.4,27.3,721.5,26.2,720.4,25.2z"/>
<path class="elementor-shape-fill st0" d="M585.4,17.4c0.9-0.2,1.9-0.4,2.8-0.7c1.1-0.3,2.2-0.7,3.3-1c0.7-0.2,1-0.6,0.6-1.1c-0.4-0.4-1.1-0.4-1.7-0.2
	c-0.7,0.2-1.4,0.3-2,0.6c-1.2,0.5-2.4,1-3.6,1.5c-0.2,0.1-0.3,0.4-0.2,0.6C584.6,17.2,585.1,17.3,585.4,17.4z"/>
<path class="elementor-shape-fill" d="M976.6,27.2c-0.7-0.7-1.3-1.4-2-2c-0.3-0.2-0.9-0.4-1.4-0.3c-0.3,0-0.6,0.4-0.8,0.6c0.1,0.2,0.1,0.4,0.2,0.5
	c1.2,1.1,2.3,2.2,3.6,3.2c0.2,0.2,0.8,0.2,1.2,0.2c0.1-0.3,0.5-0.6,0.4-0.9C977.4,28.1,977,27.6,976.6,27.2z"/>
<path class="elementor-shape-fill st0" d="M504.6,33.8c-0.2-0.2-0.7-0.4-1-0.5c-1,0.1-1.5,0.4-1.2,0.8c1,1.2,2,2.4,3.1,3.6c0.2,0.2,0.9,0.2,1.4,0.3
	c0.1-0.3,0.4-0.6,0.2-0.8C506.4,36.1,505.5,34.9,504.6,33.8z"/>
<path class="elementor-shape-fill" d="M758.8,33.9c-0.4-0.4-1-0.6-1.8-0.4c-0.7,0.2-0.6,0.6-0.3,1c0.2,0.4,0.4,0.7,0.7,1c0.8,0.8,1.6,1.6,2.5,2.4
	c0.2,0.2,0.8,0.2,1.1,0.2s0.4-0.3,0.6-0.5c-0.3-0.5-0.5-1-0.9-1.4C760.1,35.4,759.5,34.6,758.8,33.9z"/>
<path class="elementor-shape-fill st0" d="M839.6,17.4c0.8-0.2,1.4-0.3,2.1-0.5c1.3-0.4,2.6-0.7,3.9-1.2c0.7-0.2,1-0.7,0.6-1.1c-0.4-0.4-1.1-0.3-1.7-0.1
	c-0.6,0.2-1.2,0.3-1.8,0.5c-1.3,0.5-2.5,1-3.7,1.5c-0.2,0.1-0.4,0.4-0.3,0.6C838.8,17.2,839.2,17.3,839.6,17.4z"/>
<path class="elementor-shape-fill" d="M654.4,7.3c-2-0.4-4-0.7-6.1-1.1c-0.3,0.2-0.9,0.4-0.9,0.6c0,0.3,0.3,0.7,0.7,0.8c1.8,0.4,3.6,0.8,5.4,1.2
	c0.6,0.1,1.3,0.3,1.7-0.2C655.5,7.8,655.1,7.4,654.4,7.3z"/>
<path class="elementor-shape-fill st0" d="M777.9,62C777.9,62,777.9,62.1,777.9,62c-1,0.1-1.9,0-2.9,0.1c-0.7,0-1.4,0.1-1.4,0.6c0,0.6,0.7,0.6,1.4,0.6
	c1.9,0.1,3.8,0.1,5.7,0.1c0.4,0,0.8,0,1.1-0.1c0.4-0.2,0.7-0.4,1-0.7c-0.4-0.2-0.7-0.5-1.1-0.5C780.5,62.1,779.2,62.1,777.9,62z"/>
<path class="elementor-shape-fill" d="M908.5,7.3c-2-0.4-4-0.7-6.1-1.1c-0.3,0.2-0.9,0.4-0.9,0.6c0,0.3,0.3,0.7,0.7,0.8c1.8,0.4,3.6,0.8,5.4,1.1
	c0.6,0.1,1.3,0.3,1.7-0.2C909.7,7.8,909.3,7.4,908.5,7.3z"/>
<path class="elementor-shape-fill" d="M523.7,62C523.7,62.1,523.7,62.1,523.7,62c-1.1,0.1-2.2,0-3.2,0.1c-0.4,0-0.8,0.3-1,0.6c-0.1,0.1,0.3,0.5,0.5,0.5
	c2.6,0.1,5.2,0.1,7.8,0.1c0.3,0,0.6-0.4,0.9-0.6c-0.4-0.2-0.7-0.5-1.1-0.5C526.3,62.1,525,62.1,523.7,62z"/>
<path class="elementor-shape-fill st0" d="M835,73.1c0,1,0,2,0,2.9c0,0.4-0.2,0.8,0,1.1c0.1,0.2,0.7,0.4,1.1,0.5c0.3-0.2,0.7-0.4,0.8-0.6
	c0.2-1.3,0.3-2.6,0.4-4.2c-0.2-0.1-0.6-0.7-1-0.7C835.3,72.1,835,72.6,835,73.1z"/>
<path class="elementor-shape-fill st0" d="M582.9,72.7c-0.1-0.2-0.6-0.5-1-0.5s-0.7,0.3-1,0.5c-0.1,0.1-0.1,0.3-0.1,0.4c-0.1,1.2-0.1,2.5-0.1,3.7
	c0,0.2,0,0.4,0.2,0.5c0.3,0.2,0.8,0.3,1.1,0.3c0.2,0,0.6-0.3,0.7-0.5c0.2-0.9,0.2-1.9,0.3-2.8c0,0,0,0-0.1,0
	C583,73.8,583.1,73.2,582.9,72.7z"/>
<path class="elementor-shape-fill" d="M982,42.1c0.1,0.2,0.9,0.3,1,0.2c0.3-0.2,0.8-0.6,0.7-0.8c-0.8-1.2-1.6-2.4-2.6-3.6c-0.2-0.2-0.9-0.3-1.4-0.3
	c-0.2,0-0.4,0.4-0.7,0.5c0.3,0.5,0.5,1,0.8,1.4C980.5,40.5,981.2,41.3,982,42.1z"/>
<path class="elementor-shape-fill" d="M726.9,41.4c0.2,0.3,0.6,0.6,1,0.8c0.3,0.1,1,0.2,1,0.2c0.3-0.3,0.6-0.7,0.5-0.9c-0.6-1.1-1.4-2.2-2.2-3.2
	c-0.2-0.3-0.8-0.5-1-0.6c-1.1,0-1.4,0.6-1,1.2C725.8,39.7,726.3,40.5,726.9,41.4z"/>
<path class="elementor-shape-fill st0" d="M731.4,59.9c-0.7,0-1.4,0.1-2,0.3c-1.2,0.4-2.3,0.9-3.4,1.4c-0.4,0.2-0.7,0.4-1,0.6c-0.2,0.1-0.2,0.4-0.1,0.6
	c0.1,0.2,0.5,0.2,0.7,0.3c0.3,0,0.3,0,0.4,0c2-0.7,4-1.4,5.9-2.1C732.5,60.6,732.2,60,731.4,59.9z"/>
<path class="elementor-shape-fill" d="M985.3,59.8c-0.4,0-0.5,0-0.6,0c-1.8,0.7-3.6,1.4-5.4,2.2c-0.2,0.1-0.1,0.5-0.1,0.8c0.5,0,1,0.1,1.4,0
	c1.7-0.6,3.4-1.2,5-1.8c0.3-0.1,0.7-0.5,0.6-0.7S985.5,59.9,985.3,59.8z"/>
<path class="elementor-shape-fill st0" d="M820,17.8c0-1.1,0.1-2.3,0.1-3.4c0-0.5-0.1-1-1-1c-0.8,0-1.1,0.4-1.1,0.9c0,0.6,0,1.2,0,1.8
	c0,0.6-0.1,1.3,0,1.9s0.9,0.6,1.6,0.6C820.3,18.5,820,18.1,820,17.8z"/>
<path class="elementor-shape-fill st0" d="M565.9,18.1c0.1-1.3,0.1-2.6,0-3.9c0-0.3-0.6-0.6-1-0.9c-0.4,0.3-1,0.5-1.1,0.8c-0.2,0.6-0.1,1.3-0.1,1.9l0,0
	c0,0.6,0,1.2,0,1.8c0,0.5,0.8,0.6,1.4,0.6C565.4,18.5,565.9,18.3,565.9,18.1z"/>
<path class="elementor-shape-fill st0" d="M967.2,72.4c-0.2-0.2-0.9-0.4-1.2-0.3c-1.1,0.2-2.3,0.4-3.4,0.7c-0.9,0.2-1.8,0.6-2.6,0.9
	c-0.2,0.1-0.4,0.5-0.3,0.6c0.2,0.2,0.7,0.3,1.1,0.4c2-0.5,4-1.1,6-1.7C967.1,73.1,967.3,72.6,967.2,72.4z"/>
<path class="elementor-shape-fill" d="M713,72.5c0-0.1-0.6-0.3-1-0.5c-1.9,0.5-3.7,0.9-5.5,1.4c-0.3,0.1-0.5,0.2-0.7,0.4c-0.2,0.2-0.4,0.6-0.4,0.6
	c0.4,0.2,0.9,0.3,1.3,0.3c0.6,0,1.2-0.2,1.7-0.4c1.3-0.3,2.6-0.6,3.8-1C712.7,73.2,713,72.8,713,72.5z"/>
<path class="elementor-shape-fill" d="M671.5,24.6c1.2,0.5,2.5,1,3.9,1.5c0.5,0.2,1.2,0.1,1.9,0.1c-0.1-0.4,0-0.8-0.2-1.2c-0.1-0.2-0.7-0.4-1.1-0.5
	c-1-0.3-2.1-0.6-3.1-0.9c-0.3-0.1-0.7-0.2-1.2-0.3c-0.3,0.1-0.9,0.3-0.8,0.4C670.9,24,671.1,24.4,671.5,24.6z"/>
<path class="elementor-shape-fill" d="M925.3,24.4c1.6,0.7,3.2,1.3,4.9,1.8c0.8,0.3,1.5-0.1,1.4-0.8c-0.2-0.1-0.4-0.6-0.8-0.7c-1.5-0.5-3-0.9-4.6-1.3
	c-0.3-0.1-1,0.1-1.2,0.3C924.8,23.8,925,24.3,925.3,24.4z"/>
<path class="elementor-shape-fill st0" d="M951.6,11.7c0.5,0.4,1.3,0.7,1.8,0.9c1.3,0,1.6-0.4,1.1-0.9c-0.9-0.9-1.9-1.7-2.8-2.6c-0.4-0.3-0.8-0.6-1.6-0.3
	c-0.8,0.2-0.7,0.7-0.4,1C950.4,10.6,950.9,11.2,951.6,11.7z"/>
<path class="elementor-shape-fill st0" d="M798,54.1c-0.1,0.2,0.3,0.5,0.6,0.7c0.2,0.1,0.7,0.2,1.1,0.2c1.5,0.1,2.9,0.1,4.4,0.1c0.1,0.1,0.1,0.1,0.2,0.2
	c0.5-0.2,1.4-0.4,1.5-0.7c0.2-0.4-0.4-0.8-1.3-0.8c-1.8-0.1-3.6-0.2-5.4-0.2C798.7,53.7,798,53.9,798,54.1z"/>
<path class="elementor-shape-fill" d="M699.1,12.6c0.1,0.1,0.4,0.1,0.5,0.1c0.9,0,1.4-0.3,1.1-0.7c-1-1-2.2-2-3.3-2.9c-0.2-0.1-0.9-0.2-1.2-0.1
	c-0.3,0.1-0.6,0.5-0.5,0.7C696.2,10.8,697.3,11.8,699.1,12.6z"/>
<path class="elementor-shape-fill" d="M874.8,51.8L874.8,51.8c-0.8,0-1.7,0-2.5,0c-0.7,0-1.5,0-1.5,0.6s0.7,0.7,1.4,0.7c1.8,0,3.7-0.1,5.5-0.2
	c0.5,0,0.9-0.3,1.3-0.5c-0.5-0.2-0.9-0.5-1.4-0.6C876.8,51.7,875.8,51.8,874.8,51.8z"/>
<path class="elementor-shape-fill" d="M617.6,51.8c-0.3,0-0.8,0.4-0.9,0.6c0,0.2,0.5,0.5,0.9,0.5c0.6,0.1,1.3,0,2,0l0,0c1.4-0.1,2.8-0.1,4.2-0.2
	c0.4,0,0.7-0.3,1.1-0.5c-0.4-0.2-0.7-0.6-1.1-0.6C621.7,51.8,619.6,51.8,617.6,51.8z"/>
<path class="elementor-shape-fill" d="M543.8,54.1c-0.1,0.2,0.3,0.6,0.6,0.7c0.3,0.2,0.8,0.2,1.2,0.2c1.4,0.1,2.8,0.1,4.3,0.1c0.1,0.1,0.1,0.1,0.2,0.2
	c0.5-0.2,1.4-0.4,1.5-0.7c0.2-0.5-0.5-0.8-1.3-0.8c-1.8-0.1-3.5-0.1-5.3-0.1C544.6,53.7,543.9,53.9,543.8,54.1z"/>
<path class="elementor-shape-fill st0" d="M976.9,8.5c-0.8,1-1.4,2.1-2,3.2c-0.1,0.2,0.2,0.6,0.3,0.9c0.5-0.1,1.1-0.2,1.4-0.4c0.5-0.4,0.7-0.9,1-1.3
	c0.5-0.7,0.9-1.4,1.4-2.2c-0.3-0.2-0.6-0.5-0.9-0.5C977.7,8.1,977,8.3,976.9,8.5z"/>
<path class="elementor-shape-fill st0" d="M722.8,8.4c-0.7,1.1-1.4,2.2-2,3.3c-0.1,0.3,0.2,0.6,0.3,0.9c0.5-0.2,1.2-0.3,1.4-0.6c0.7-0.8,1.2-1.7,1.8-2.6
	c0.2-0.3,0.3-0.5,0.5-0.9c-0.3-0.1-0.6-0.4-0.9-0.5C723.6,8.1,722.9,8.2,722.8,8.4z"/>
<path class="elementor-shape-fill st0" d="M648.9,59.4c-0.5,0.1-1.1,0.2-1.3,0.5c-0.8,0.9-1.5,1.9-2.3,2.9c0.2,0.2,0.2,0.5,0.4,0.5c0.3,0.1,0.8,0,0.9-0.1
	c1.1-1.1,2.2-2.1,3.2-3.2C650.1,59.7,649.6,59.4,648.9,59.4z"/>
<path class="elementor-shape-fill st0" d="M902.8,59.5c-0.4,0.1-0.9,0.2-1.1,0.4c-0.8,1-1.6,2-2.4,3c0.2,0.2,0.4,0.5,0.5,0.5c0.4,0,1-0.1,1.2-0.3
	c0.7-0.6,1.3-1.2,1.9-1.8c0.4-0.4,0.8-0.8,1-1.2C904.2,59.6,903.6,59.3,902.8,59.5z"/>
<path class="elementor-shape-fill st0" d="M889.8,41.2c-0.1-0.3,0-0.6-0.3-0.8c-1.5-0.8-3.3-1.3-5.5-1.6c-0.3,0.2-0.9,0.4-1,0.6c-0.1,0.2,0.4,0.6,0.8,0.7
	c1.5,0.4,3.1,0.8,4.7,1.1C889,41.3,889.4,41.2,889.8,41.2z"/>
<path class="elementor-shape-fill" d="M635.7,41.2c-0.1-0.3-0.1-0.7-0.4-0.8c-1.6-0.6-3.3-1.1-5.1-1.7c-0.6,0.3-1.2,0.5-1.3,0.7c-0.2,0.4,0.3,0.6,0.9,0.7
	c1.6,0.3,3.1,0.7,4.6,1.1C634.8,41.3,635.3,41.2,635.7,41.2z"/>
<path class="elementor-shape-fill st0" d="M754.6,57.1c0.2,0.1,0.7-0.1,1-0.2c0.5-0.2,1-0.4,1.4-0.6c0.8-0.4,1.7-0.7,2.4-1.1c0.3-0.2,0.3-0.5,0.4-0.8
	c-0.5-0.1-1.1-0.3-1.4-0.2c-1.2,0.4-2.4,0.8-3.5,1.3c-0.4,0.2-0.5,0.6-0.8,0.9C754.2,56.6,754.3,56.9,754.6,57.1z"/>
<path class="elementor-shape-fill" d="M544.7,11.2c0.7-1,1.4-2,2-3.1c0.1-0.1,0.1-0.4-0.1-0.4c-0.2-0.1-0.6-0.1-0.8-0.1c-0.3,0.1-0.7,0.2-0.9,0.3
	c-0.8,0.9-1.6,1.9-2.5,2.9c0.4,0.4,0.7,0.6,1,0.9C543.9,11.6,544.5,11.4,544.7,11.2z"/>
<path class="elementor-shape-fill" d="M760.3,70.6c-1.7-0.5-3.4-0.8-5.2-1.2c-0.6-0.1-0.9,0-1,0.4c-0.1,0.5,0.3,0.7,1,0.9c1.2,0.3,2.4,0.6,3.7,0.9
	c0.4,0.1,0.9,0.2,1.5,0.3c0.2-0.1,0.7-0.3,0.7-0.5C760.9,71.1,760.7,70.7,760.3,70.6z"/>
<path class="elementor-shape-fill" d="M927.1,85.2c-0.9,0.9-1.8,1.9-2.7,3c0.5,0.3,0.8,0.7,1.1,0.7c0.4,0,1-0.2,1.2-0.4c0.7-0.9,1.2-1.8,1.8-2.7
	c0.1-0.3,0-0.6,0-0.9C928.1,85,927.4,85,927.1,85.2z"/>
<path class="elementor-shape-fill st0" d="M798.8,11.2c0.7-1,1.4-2,2-3.1c0.3-0.4-0.2-0.6-0.8-0.5c-0.4,0-0.8,0.2-1,0.3c-0.9,0.9-1.6,1.9-2.5,2.9
	c0.4,0.4,0.7,0.6,1,0.9C798,11.6,798.7,11.4,798.8,11.2z"/>
<path class="elementor-shape-fill" d="M673.2,85.1c-1.5,0.8-1.9,2-2.7,3.2c0.3,0.2,0.6,0.6,0.9,0.6c0.4,0,1-0.2,1.2-0.4c0.7-0.9,1.3-1.9,1.8-2.9
	c0.1-0.2,0-0.5,0-0.7C674,85,673.5,84.9,673.2,85.1z"/>
<path class="elementor-shape-fill" d="M935.1,57.1c-1.7-0.7-3.6-0.9-5.6-1c-0.3,0-0.8,0.1-1,0.3s-0.3,0.5-0.3,0.8c0,0.1,0.6,0.2,0.9,0.2c0.6,0,1.2,0,1.8,0.1
	c1.1,0.1,2.2,0.3,3.4,0.5c0.3-0.1,0.7-0.2,1.1-0.3C935.5,57.4,935.4,57.2,935.1,57.1z"/>
<path class="elementor-shape-fill" d="M680.7,57c-1.5-0.4-3-0.7-4.4-1l-0.1,0.1c-0.5,0-1.1,0-1.4,0.2c-0.3,0.2-0.5,0.5-0.7,0.8c0.4,0.1,0.7,0.3,1.1,0.3
	c0.5,0.1,1.1,0,1.6,0c1.2,0.1,2.4,0.3,3.6,0.4c0.3,0,0.7-0.2,1.1-0.2C681.2,57.4,681,57.1,680.7,57z"/>
<path class="elementor-shape-fill st0" d="M700.5,57.3c-1,0.9-1.5,2-1.5,3.1c0,0.2,0,0.5,0.3,0.7c0.4,0.2,0.9,0.3,1.4,0.3c0.1,0,0.4-0.4,0.5-0.6
	c0.2-0.7,0.2-1.4,0.4-2.1c0.1-0.6,0.2-1.1,0.4-1.7c-0.1,0-0.3-0.1-0.4-0.1C701,57.1,700.7,57.2,700.5,57.3z"/>
<path class="elementor-shape-fill st0" d="M955.4,57.1c-0.3,0.1-0.7,0.2-0.8,0.3c-0.6,0.9-1.2,1.9-1.8,2.8c0.1,0,0.2,0,0.2,0.1c0,0.2,0.1,0.4,0.2,0.6
	c0.2,0.4,0.7,0.7,1.5,0.6c0.8-0.1,0.5-0.5,0.5-0.8c0.1-0.6,0.2-1.3,0.3-1.9c0.1-0.4,0.3-0.8,0.3-1.2
	C955.8,57.4,955.6,57.3,955.4,57.1z"/>
<path class="elementor-shape-fill" d="M940,74.6c-0.2,0.3-0.6,0.6-0.5,0.9c0.1,0.6,0.4,1.2,0.8,1.7c0.2,0.3,0.9,0.5,1.4,0.7c0.3-0.3,0.7-0.6,1-0.9
	c-0.4-0.7-0.7-1.4-1.2-2C941.2,74.8,940.5,74.7,940,74.6z"/>
<path class="elementor-shape-fill st0" d="M685.8,74.6c-0.2,0.3-0.5,0.5-0.5,0.8c0.2,0.6,0.4,1.3,0.8,1.9c0.2,0.3,0.8,0.4,1.3,0.7
	c0.4-0.3,0.7-0.5,1.1-0.8c-0.4-0.8-0.8-1.5-1.3-2.1C687,74.8,686.3,74.7,685.8,74.6z"/>
<path class="elementor-shape-fill" d="M905.2,47.8c-0.9,0.1-1.8,0.2-2.6,0.4c-0.5,0.1-0.9,0.5-1.3,0.8c0.5,0.2,1,0.5,1.5,0.7c1.3-0.3,2.4-0.5,3.3-0.8
	c0.3-0.1,0.4-0.6,0.4-0.9C906.4,47.9,905.6,47.8,905.2,47.8z"/>
<path class="elementor-shape-fill" d="M651.1,47.8c-0.9,0.1-1.9,0.2-2.7,0.5c-0.5,0.1-0.8,0.5-1.2,0.8c0.5,0.2,1,0.4,1.5,0.7c1.2-0.3,2.3-0.5,3.3-0.8
	c0.3-0.1,0.4-0.6,0.4-0.9C652.3,47.9,651.5,47.8,651.1,47.8z"/>
</g>
</svg>
