<svg xmlns="http://www.w3.org/2000/svg" viewBox="0 0 1000 100" preserveAspectRatio="none">
<path class="elementor-shape-fill" d="M1005-5H-5V5c0,0,5.2,0.2,15.2,0.5c0,0,0,0,0,0l0.3,3.4c0,1.1,0.2,2.1,0.5,3c0.3-0.2-0.8,0.5-0.4,0.4
	C7,14.6,4.9,18.7,5,25.8c0.2,9,5.9,17.9,10.2,18.1c4,0.2,10.1-9,9.9-18C25,19.4,22.2,14.3,18.9,12c0.3-1,0.5-2.1,0.5-3.3l0.3-2.8
	c0,0,0-0.1,0-0.1c4.7,0.1,10,0.3,16,0.5c-0.1,0.3-0.1,0.7-0.1,1.1l0.2,1.8c0,0.8,0.1,1.5,0.3,2.1c-2.2,1.5-3.9,4.8-4,9
	c-0.1,5.8,3.8,11.8,6.4,11.7c2.8-0.1,6.5-5.9,6.6-11.7c0.1-4.6-1.3-7.2-3.6-8.8c0.2,0.1-0.5-0.3-0.3-0.2c0.2-0.6,0.3-1.2,0.3-1.9
	l0.2-2.2c0-0.3,0-0.5,0-0.7c4.6,0.1,9.5,0.3,14.7,0.4l0.3,2.8c0,1.1,0.2,2.1,0.5,3c0.3-0.2-0.8,0.5-0.4,0.4
	c-3.6,2.4-5.7,6.4-5.6,13.5c0.2,9,5.9,17.9,10.2,18.1c4,0.2,10.1-9,9.9-18c-0.1-6.5-2.9-11.6-6.2-13.9c0.3-1,0.5-2.1,0.5-3.3
	l0.2-2.4c5.1,0.1,10.4,0.3,15.9,0.4c0,0.1,0,0.3,0,0.4l0.2,1.8c0,0.8,0.1,1.5,0.3,2.1c-2.2,1.5-3.9,4.8-4,9
	c-0.1,5.8,3.8,11.8,6.4,11.7c2.8-0.1,6.5-5.9,6.6-11.7c0.1-4.6-1.3-7.2-3.6-8.8c0.2,0.1-0.5-0.3-0.3-0.2c0.2-0.6,0.3-1.2,0.3-1.9
	l0.2-2.2c0,0,0,0,0,0c4.7,0.1,9.7,0.2,14.7,0.3l0.2,2.4c0,1.1,0.2,2.1,0.5,3c0.3-0.2-0.8,0.5-0.4,0.4c-3.6,2.4-5.7,6.4-5.6,13.5
	c0.2,9,5.9,17.9,10.2,18.1c4,0.2,10.1-9,9.9-18c-0.1-6.5-2.9-11.6-6.2-13.9c0.3-1,0.5-2.1,0.5-3.3l0.2-2c5.1,0.1,10.5,0.2,15.9,0.3
	l0.2,1.7c0,0.8,0.1,1.5,0.3,2.1c-2.2,1.5-3.9,4.8-4,9c-0.1,5.8,3.8,11.8,6.4,11.7c2.8-0.1,6.5-5.9,6.6-11.7c0.1-4.6-1.3-7.2-3.6-8.8
	c0.2,0.1-0.5-0.3-0.3-0.2c0.2-0.6,0.3-1.2,0.3-1.9l0.2-1.7c4.8,0.1,9.8,0.2,14.8,0.3l0.2,2.2c0,1.1,0.2,2.1,0.5,3
	c0.3-0.2-0.8,0.5-0.4,0.4c-3.6,2.4-5.7,6.4-5.6,13.5c0.2,9,5.9,17.9,10.2,18.1c4,0.2,10.1-9,9.9-18c-0.1-6.5-2.9-11.6-6.2-13.9
	c0.3-1,0.5-2.1,0.5-3.3l0.2-1.8c5.2,0.1,10.5,0.2,16,0.3l0.1,1.4c0,0.8,0.1,1.5,0.3,2.1c-2.2,1.5-3.9,4.8-4,9
	c-0.1,5.8,3.8,11.8,6.4,11.7c2.8-0.1,6.5-5.9,6.6-11.7c0.1-4.6-1.3-7.2-3.6-8.8c0.2,0.1-0.5-0.3-0.3-0.2c0.2-0.6,0.3-1.2,0.3-1.9
	l0.1-1.4C185,9.6,190,9.7,195,9.8l0.2,2.1c0,1.1,0.2,2.1,0.5,3c0.3-0.2-0.8,0.5-0.4,0.4c-3.6,2.4-5.7,6.4-5.6,13.5
	c0.2,9,5.9,17.9,10.2,18.1c4,0.2,10.1-9,9.9-18c-0.1-6.5-2.9-11.6-6.2-13.9c0.3-1,0.5-2.1,0.5-3.3l0.2-1.8c5.2,0.1,10.6,0.2,16,0.2
	l0.1,1.1c0,0.8,0.1,1.5,0.3,2.1c-2.2,1.5-3.9,4.8-4,9c-0.1,5.8,3.8,11.8,6.4,11.7c2.8-0.1,6.5-5.9,6.6-11.7c0.1-4.6-1.3-7.2-3.6-8.8
	c0.2,0.1-0.5-0.3-0.3-0.2c0.2-0.6,0.3-1.2,0.3-1.9l0.1-1.2c4.9,0.1,9.8,0.1,14.9,0.2l0.2,2.2c0,1.1,0.2,2.1,0.5,3
	c0.3-0.2-0.8,0.5-0.4,0.4c-3.6,2.4-5.7,6.4-5.6,13.5c0.2,9,5.9,17.9,10.2,18.1c4,0.2,10.1-9,9.9-18c-0.1-6.5-2.9-11.6-6.2-13.9
	c0.3-1,0.5-2.1,0.5-3.3l0.2-1.9c5.3,0.1,10.6,0.1,16,0.2l0.1,1c0,0.8,0.1,1.5,0.3,2.1c-2.2,1.5-3.9,4.8-4,9
	c-0.1,5.8,3.8,11.8,6.4,11.7c2.8-0.1,6.5-5.9,6.6-11.7c0.1-4.6-1.3-7.2-3.6-8.8c0.2,0.1-0.5-0.3-0.3-0.2c0.2-0.6,0.3-1.2,0.3-1.9
	l0.1-1.1c4.9,0.1,9.9,0.1,14.9,0.2l0.2,2.4c0,1.1,0.2,2.1,0.5,3c0.3-0.2-0.8,0.5-0.4,0.4c-3.6,2.4-5.7,6.4-5.6,13.5
	c0.2,9,5.9,17.9,10.2,18.1c4,0.2,10.1-9,9.9-18c-0.1-6.5-2.9-11.6-6.2-13.9c0.3-1,0.5-2.1,0.5-3.3l0.2-2.1c5.3,0.1,10.6,0.1,16,0.2
	l0.1,1.1c0,0.8,0.1,1.5,0.3,2.1c-2.2,1.5-3.9,4.8-4,9c-0.1,5.8,3.8,11.8,6.4,11.7c2.8-0.1,6.5-5.9,6.6-11.7c0.1-4.6-1.3-7.2-3.6-8.8
	c0.2,0.1-0.5-0.3-0.3-0.2c0.2-0.6,0.3-1.2,0.3-1.9l0.1-1.1c4.9,0,9.9,0.1,14.9,0.1l0.2,2.7c0,1.1,0.2,2.1,0.5,3
	c0.3-0.2-0.8,0.5-0.4,0.4c-3.6,2.4-5.7,6.4-5.6,13.5c0.2,9,5.9,17.9,10.2,18.1c4,0.2,10.1-9,9.9-18c-0.1-6.5-2.9-11.6-6.2-13.9
	c0.3-1,0.5-2.1,0.5-3.3l0.2-2.4c5.2,0,10.6,0.1,15.9,0.1l0.1,1.2c0,0.8,0.1,1.5,0.3,2.1c-2.2,1.5-3.9,4.8-4,9
	c-0.1,5.8,3.8,11.8,6.4,11.7c2.8-0.1,6.5-5.9,6.6-11.7c0.1-4.6-1.3-7.2-3.6-8.8c0.2,0.1-0.5-0.3-0.3-0.2c0.2-0.6,0.3-1.2,0.3-1.9
	l0.1-1.3c4.9,0,9.8,0.1,14.8,0.1l0.3,3.1c0,1.1,0.2,2.1,0.5,3c0.3-0.2-0.8,0.5-0.4,0.4c-3.6,2.4-5.7,6.4-5.6,13.5
	c0.2,9,5.9,17.9,10.2,18.1c4,0.2,10.1-9,9.9-18c-0.1-6.5-2.9-11.6-6.2-13.9c0.3-1,0.5-2.1,0.5-3.3l0.3-2.8c0,0,0,0,0,0
	c5.2,0,10.5,0.1,15.8,0.1l0.1,1.4c0,0.8,0.1,1.5,0.3,2.1c-2.2,1.5-3.9,4.8-4,9c-0.1,5.8,3.8,11.8,6.4,11.7c2.8-0.1,6.5-5.9,6.6-11.7
	c0.1-4.6-1.3-7.2-3.6-8.8c0.2,0.1-0.5-0.3-0.3-0.2c0.2-0.6,0.3-1.2,0.3-1.9l0.1-1.5c4.9,0,9.8,0,14.8,0.1c0,0.1,0,0.2,0,0.2l0.3,3.4
	c0,1.1,0.2,2.1,0.5,3c0.3-0.2-0.8,0.5-0.4,0.4c-3.6,2.4-5.7,6.4-5.6,13.5c0.2,9,5.9,17.9,10.2,18.1c4,0.2,10.1-9,9.9-18
	c-0.1-6.5-2.9-11.6-6.2-13.9c0.3-1,0.5-2.1,0.5-3.3l0.3-2.8c0-0.2,0-0.4-0.1-0.6c5.2,0,10.5,0,15.8,0l0.2,1.8c0,0.8,0.1,1.5,0.3,2.1
	c-2.2,1.5-3.9,4.8-4,9c-0.1,5.8,3.8,11.8,6.4,11.7c2.8-0.1,6.5-5.9,6.6-11.7c0.1-4.6-1.3-7.2-3.6-8.8c0.2,0.1-0.5-0.3-0.3-0.2
	c0.2-0.6,0.3-1.2,0.3-1.9l0.2-1.9c4.9,0,9.8,0,14.8,0c0,0.3,0,0.6,0,0.9l0.3,3.4c0,1.1,0.2,2.1,0.5,3c0.3-0.2-0.8,0.5-0.4,0.4
	c-3.6,2.4-5.7,6.4-5.6,13.5c0.2,9,5.9,17.9,10.2,18.1c4,0.2,10.1-9,9.9-18c-0.1-6.5-2.9-11.6-6.2-13.9c0.3-1,0.5-2.1,0.5-3.3
	l0.3-2.8c0-0.4-0.1-0.8-0.1-1.2c5.3,0,10.6,0,15.9,0c0,0.1,0,0.3,0,0.4l0.2,1.8c0,0.8,0.1,1.5,0.3,2.1c-2.2,1.5-3.9,4.8-4,9
	c-0.1,5.8,3.8,11.8,6.4,11.7c2.8-0.1,6.5-5.9,6.6-11.7c0.1-4.6-1.3-7.2-3.6-8.8c0.2,0.1-0.5-0.3-0.3-0.2c0.2-0.6,0.3-1.2,0.3-1.9
	l0.2-2.2c0-0.1,0-0.1,0-0.2c5,0,9.9,0,14.8,0c0,0.3,0,0.6,0,0.9l0.3,3.4c0,1.1,0.2,2.1,0.5,3c0.3-0.2-0.8,0.5-0.4,0.4
	c-3.6,2.4-5.7,6.4-5.6,13.5c0.2,9,5.9,17.9,10.2,18.1c4,0.2,10.1-9,9.9-18c-0.1-6.5-2.9-11.6-6.2-13.9c0.3-1,0.5-2.1,0.5-3.3
	l0.3-2.8c0-0.4-0.1-0.8-0.1-1.2c5.3,0,10.6,0,15.9,0l0.2,1.8c0,0.8,0.1,1.5,0.3,2.1c-2.2,1.5-3.9,4.8-4,9
	c-0.1,5.8,3.8,11.8,6.4,11.7c2.8-0.1,6.5-5.9,6.6-11.7c0.1-4.6-1.3-7.2-3.6-8.8c0.2,0.1-0.5-0.3-0.3-0.2c0.2-0.6,0.3-1.2,0.3-1.9
	l0.2-1.9c5,0,9.9,0,14.8,0c0,0.1,0,0.1,0,0.2l0.3,3.4c0,1.1,0.2,2.1,0.5,3c0.3-0.2-0.8,0.5-0.4,0.4c-3.6,2.4-5.7,6.4-5.6,13.5
	c0.2,9,5.9,17.9,10.2,18.1c4,0.2,10.1-9,9.9-18c-0.1-6.5-2.9-11.6-6.2-13.9c0.3-1,0.5-2.1,0.5-3.3l0.3-2.8c0-0.2,0-0.4-0.1-0.6
	c5.3,0,10.6,0,15.9-0.1l0.1,1.4c0,0.8,0.1,1.5,0.3,2.1c-2.2,1.5-3.9,4.8-4,9c-0.1,5.8,3.8,11.8,6.4,11.7c2.8-0.1,6.5-5.9,6.6-11.7
	c0.1-4.6-1.3-7.2-3.6-8.8c0.2,0.1-0.5-0.3-0.3-0.2c0.2-0.6,0.3-1.2,0.3-1.9l0.1-1.6c5,0,9.9-0.1,14.8-0.1l0.3,3.1
	c0,1.1,0.2,2.1,0.5,3c0.3-0.2-0.8,0.5-0.4,0.4c-3.6,2.4-5.7,6.4-5.6,13.5c0.2,9,5.9,17.9,10.2,18.1c4,0.2,10.1-9,9.9-18
	c-0.1-6.5-2.9-11.6-6.2-13.9c0.3-1,0.5-2.1,0.5-3.3l0.3-2.8c0,0,0-0.1,0-0.1c5.3,0,10.6-0.1,15.8-0.1l0.1,1.2c0,0.8,0.1,1.5,0.3,2.1
	c-2.2,1.5-3.9,4.8-4,9c-0.1,5.8,3.8,11.8,6.4,11.7c2.8-0.1,6.5-5.9,6.6-11.7c0.1-4.6-1.3-7.2-3.6-8.8c0.2,0.1-0.5-0.3-0.3-0.2
	c0.2-0.6,0.3-1.2,0.3-1.9l0.1-1.3c5,0,10-0.1,14.9-0.1l0.2,2.6c0,1.1,0.2,2.1,0.5,3c0.3-0.2-0.8,0.5-0.4,0.4
	c-3.6,2.4-5.7,6.4-5.6,13.5c0.2,9,5.9,17.9,10.2,18.1c4,0.2,10.1-9,9.9-18c-0.1-6.5-2.9-11.6-6.2-13.9c0.3-1,0.5-2.1,0.5-3.3
	l0.3-2.5c5.3,0,10.6-0.1,15.9-0.1l0.1,1c0,0.8,0.1,1.5,0.3,2.1c-2.2,1.5-3.9,4.8-4,9c-0.1,5.8,3.8,11.8,6.4,11.7
	c2.8-0.1,6.5-5.9,6.6-11.7c0.1-4.6-1.3-7.2-3.6-8.8c0.2,0.1-0.5-0.3-0.3-0.2c0.2-0.6,0.3-1.2,0.3-1.9l0.1-1.2c5,0,10-0.1,14.9-0.2
	l0.2,2.3c0,1.1,0.2,2.1,0.5,3c0.3-0.2-0.8,0.5-0.4,0.4c-3.6,2.4-5.7,6.4-5.6,13.5c0.2,9,5.9,17.9,10.2,18.1c4,0.2,10.1-9,9.9-18
	c-0.1-6.5-2.9-11.6-6.2-13.9c0.3-1,0.5-2.1,0.5-3.3l0.2-2.2c5.4-0.1,10.6-0.1,15.9-0.2l0.1,1c0,0.8,0.1,1.5,0.3,2.1
	c-2.2,1.5-3.9,4.8-4,9c-0.1,5.8,3.8,11.8,6.4,11.7c2.8-0.1,6.5-5.9,6.6-11.7c0.1-4.6-1.3-7.2-3.6-8.8c0.2,0.1-0.5-0.3-0.3-0.2
	c0.2-0.6,0.3-1.2,0.3-1.9l0.1-1.2c5-0.1,10-0.1,15-0.2l0.2,2.1c0,1.1,0.2,2.1,0.5,3c0.3-0.2-0.8,0.5-0.4,0.4
	c-3.6,2.4-5.7,6.4-5.6,13.5c0.2,9,5.9,17.9,10.2,18.1c4,0.2,10.1-9,9.9-18c-0.1-6.5-2.9-11.6-6.2-13.9c0.3-1,0.5-2.1,0.5-3.3
	l0.2-2.1c5.4-0.1,10.7-0.1,15.9-0.2l0.1,1.1c0,0.8,0.1,1.5,0.3,2.1c-2.2,1.5-3.9,4.8-4,9c-0.1,5.8,3.8,11.8,6.4,11.7
	c2.8-0.1,6.5-5.9,6.6-11.7c0.1-4.6-1.3-7.2-3.6-8.8c0.2,0.1-0.5-0.3-0.3-0.2c0.2-0.6,0.3-1.2,0.3-1.9l0.1-1.3
	c5.1-0.1,10.1-0.2,15-0.2l0.2,2.1c0,1.1,0.2,2.1,0.5,3c0.3-0.2-0.8,0.5-0.4,0.4c-3.6,2.4-5.7,6.4-5.6,13.5c0.2,9,5.9,17.9,10.2,18.1
	c4,0.2,10.1-9,9.9-18c-0.1-6.5-2.9-11.6-6.2-13.9c0.3-1,0.5-2.1,0.5-3.3l0.2-2c5.4-0.1,10.7-0.2,15.8-0.3l0.1,1.4
	c0,0.8,0.1,1.5,0.3,2.1c-2.2,1.5-3.9,4.8-4,9c-0.1,5.8,3.8,11.8,6.4,11.7c2.8-0.1,6.5-5.9,6.6-11.7c0.1-4.6-1.3-7.2-3.6-8.8
	c0.2,0.1-0.5-0.3-0.3-0.2c0.2-0.6,0.3-1.2,0.3-1.9l0.1-1.6c5.1-0.1,10.1-0.2,14.9-0.3l0.2,2.1c0,1.1,0.2,2.1,0.5,3
	c0.3-0.2-0.8,0.5-0.4,0.4c-3.6,2.4-5.7,6.4-5.6,13.5c0.2,9,5.9,17.9,10.2,18.1c4,0.2,10.1-9,9.9-18c-0.1-6.5-2.9-11.6-6.2-13.9
	c0.3-1,0.5-2.1,0.5-3.3l0.2-2.1c5.4-0.1,10.7-0.2,15.8-0.3l0.2,1.7c0,0.8,0.1,1.5,0.3,2.1c-2.2,1.5-3.9,4.8-4,9
	c-0.1,5.8,3.8,11.8,6.4,11.7c2.8-0.1,6.5-5.9,6.6-11.7c0.1-4.6-1.3-7.2-3.6-8.8c0.2,0.1-0.5-0.3-0.3-0.2c0.2-0.6,0.3-1.2,0.3-1.9
	l0.2-2c5.1-0.1,10.1-0.2,14.9-0.3l0.2,2.3c0,1.1,0.2,2.1,0.5,3c0.3-0.2-0.8,0.5-0.4,0.4c-3.6,2.4-5.7,6.4-5.6,13.5
	c0.2,9,5.9,17.9,10.2,18.1c4,0.2,10.1-9,9.9-18c-0.1-6.5-2.9-11.6-6.2-13.9c0.3-1,0.5-2.1,0.5-3.3l0.2-2.3
	c5.5-0.1,10.7-0.2,15.8-0.4c0,0.1,0,0.2,0,0.4l0.2,1.8c0,0.8,0.1,1.5,0.3,2.1c-2.2,1.5-3.9,4.8-4,9c-0.1,5.8,3.8,11.8,6.4,11.7
	c2.8-0.1,6.5-5.9,6.6-11.7c0.1-4.6-1.3-7.2-3.6-8.8c0.2,0.1-0.5-0.3-0.3-0.2c0.2-0.6,0.3-1.2,0.3-1.9l0.2-2.2c0-0.1,0-0.2,0-0.3
	c5.2-0.1,10.1-0.2,14.9-0.4l0.2,2.6c0,1.1,0.2,2.1,0.5,3c0.3-0.2-0.8,0.5-0.4,0.4c-3.6,2.4-5.7,6.4-5.6,13.5
	c0.2,9,5.9,17.9,10.2,18.1c4,0.2,10.1-9,9.9-18c-0.1-6.5-2.9-11.6-6.2-13.9c0.3-1,0.5-2.1,0.5-3.3l0.3-2.7
	c5.6-0.1,10.9-0.3,15.8-0.4c-0.1,0.3-0.1,0.7-0.1,1l0.2,1.8c0,0.8,0.1,1.5,0.3,2.1c-2.2,1.5-3.9,4.8-4,9c-0.1,5.8,3.8,11.8,6.4,11.7
	c2.8-0.1,6.5-5.9,6.6-11.7c0.1-4.6-1.3-7.2-3.6-8.8c0.2,0.1-0.5-0.3-0.3-0.2c0.2-0.6,0.3-1.2,0.3-1.9l0.2-2.2c0-0.3,0-0.7-0.1-0.9
	c5.5-0.2,10.5-0.3,14.9-0.4l0.3,3.1c0,1.1,0.2,2.1,0.5,3c0.3-0.2-0.8,0.5-0.4,0.4c-3.6,2.4-5.7,6.4-5.6,13.5
	c0.2,9,5.9,17.9,10.2,18.1c4,0.2,10.1-9,9.9-18c-0.1-6.5-2.9-11.6-6.2-13.9c0.3-1,0.5-2.1,0.5-3.3l0.3-2.8c0-0.1,0-0.3,0-0.4
	C999.6,5.2,1005,5,1005,5V-5z"/>
</svg>
