<svg xmlns="http://www.w3.org/2000/svg" viewBox="0 0 1000 100" preserveAspectRatio="none">
<path class="elementor-shape-fill" d="M32.4,24H32c-0.4,0-0.8-0.3-0.8-0.8V0h2v23.3C33.2,23.7,32.9,24,32.4,24z"/>
<path class="elementor-shape-fill" d="M1.2,24H0.8C0.3,24,0,23.7,0,23.3V0h2v23.3C2,23.7,1.7,24,1.2,24z"/>
<path class="elementor-shape-fill" d="M16.8,17.3h-0.5c-0.4,0-0.8-0.3-0.8-0.8V0h2v16.5C17.6,17,17.3,17.3,16.8,17.3z"/>
<path class="elementor-shape-fill" d="M9,12.2H8.6c-0.4,0-0.8-0.3-0.8-0.8V0h2v11.4C9.8,11.9,9.5,12.2,9,12.2z"/>
<path class="elementor-shape-fill" d="M24.6,12.2h-0.5c-0.4,0-0.8-0.3-0.8-0.8V0h2v11.4C25.4,11.9,25.1,12.2,24.6,12.2z"/>
<path class="elementor-shape-fill" d="M63.6,24h-0.5c-0.4,0-0.8-0.3-0.8-0.8V0h2v23.3C64.4,23.7,64,24,63.6,24z"/>
<path class="elementor-shape-fill" d="M48,17.3h-0.5c-0.4,0-0.8-0.3-0.8-0.8V0h2v16.5C48.8,17,48.4,17.3,48,17.3z"/>
<path class="elementor-shape-fill" d="M40.2,12.2h-0.5c-0.4,0-0.8-0.3-0.8-0.8V0h2v11.4C41,11.9,40.6,12.2,40.2,12.2z"/>
<path class="elementor-shape-fill" d="M55.8,12.2h-0.5c-0.4,0-0.8-0.3-0.8-0.8V0h2v11.4C56.6,11.9,56.2,12.2,55.8,12.2z"/>
<path class="elementor-shape-fill" d="M94.8,24h-0.5c-0.4,0-0.8-0.3-0.8-0.8V0h2v23.3C95.6,23.7,95.2,24,94.8,24z"/>
<path class="elementor-shape-fill" d="M79.2,17.3h-0.5c-0.4,0-0.8-0.3-0.8-0.8V0h2v16.5C80,17,79.6,17.3,79.2,17.3z"/>
<path class="elementor-shape-fill" d="M71.4,12.2h-0.5c-0.4,0-0.8-0.3-0.8-0.8V0h2v11.4C72.2,11.9,71.8,12.2,71.4,12.2z"/>
<path class="elementor-shape-fill" d="M87,12.2h-0.5c-0.4,0-0.8-0.3-0.8-0.8V0h2v11.4C87.8,11.9,87.4,12.2,87,12.2z"/>
<path class="elementor-shape-fill" d="M126,24h-0.5c-0.4,0-0.8-0.3-0.8-0.8V0h2v23.3C126.8,23.7,126.4,24,126,24z"/>
<path class="elementor-shape-fill" d="M110.4,17.3h-0.5c-0.4,0-0.8-0.3-0.8-0.8V0h2v16.5C111.2,17,110.8,17.3,110.4,17.3z"/>
<path class="elementor-shape-fill" d="M102.6,12.2h-0.5c-0.4,0-0.8-0.3-0.8-0.8V0h2v11.4C103.4,11.9,103,12.2,102.6,12.2z"/>
<path class="elementor-shape-fill" d="M118.2,12.2h-0.5c-0.4,0-0.8-0.3-0.8-0.8V0h2v11.4C119,11.9,118.6,12.2,118.2,12.2z"/>
<path class="elementor-shape-fill" d="M157.2,24h-0.5c-0.4,0-0.8-0.3-0.8-0.8V0h2v23.3C157.9,23.7,157.6,24,157.2,24z"/>
<path class="elementor-shape-fill" d="M141.6,17.3h-0.5c-0.4,0-0.8-0.3-0.8-0.8V0h2v16.5C142.4,17,142,17.3,141.6,17.3z"/>
<path class="elementor-shape-fill" d="M133.8,12.2h-0.5c-0.4,0-0.8-0.3-0.8-0.8V0h2v11.4C134.6,11.9,134.2,12.2,133.8,12.2z"/>
<path class="elementor-shape-fill" d="M149.4,12.2h-0.5c-0.4,0-0.8-0.3-0.8-0.8V0h2v11.4C150.2,11.9,149.8,12.2,149.4,12.2z"/>
<path class="elementor-shape-fill" d="M188.4,24h-0.5c-0.4,0-0.8-0.3-0.8-0.8V0h2v23.3C189.1,23.7,188.8,24,188.4,24z"/>
<path class="elementor-shape-fill" d="M172.8,17.3h-0.5c-0.4,0-0.8-0.3-0.8-0.8V0h2v16.5C173.5,17,173.2,17.3,172.8,17.3z"/>
<path class="elementor-shape-fill" d="M165,12.2h-0.5c-0.4,0-0.8-0.3-0.8-0.8V0h2v11.4C165.7,11.9,165.4,12.2,165,12.2z"/>
<path class="elementor-shape-fill" d="M180.6,12.2h-0.5c-0.4,0-0.8-0.3-0.8-0.8V0h2v11.4C181.3,11.9,181,12.2,180.6,12.2z"/>
<path class="elementor-shape-fill" d="M219.5,24h-0.5c-0.4,0-0.8-0.3-0.8-0.8V0h2v23.3C220.3,23.7,220,24,219.5,24z"/>
<path class="elementor-shape-fill" d="M204,17.3h-0.5c-0.4,0-0.8-0.3-0.8-0.8V0h2v16.5C204.7,17,204.4,17.3,204,17.3z"/>
<path class="elementor-shape-fill" d="M196.2,12.2h-0.5c-0.4,0-0.8-0.3-0.8-0.8V0h2v11.4C196.9,11.9,196.6,12.2,196.2,12.2z"/>
<path class="elementor-shape-fill" d="M211.8,12.2h-0.5c-0.4,0-0.8-0.3-0.8-0.8V0h2v11.4C212.5,11.9,212.2,12.2,211.8,12.2z"/>
<path class="elementor-shape-fill" d="M250.7,24h-0.5c-0.4,0-0.8-0.3-0.8-0.8V0h2v23.3C251.5,23.7,251.2,24,250.7,24z"/>
<path class="elementor-shape-fill" d="M235.1,17.3h-0.5c-0.4,0-0.8-0.3-0.8-0.8V0h2v16.5C235.9,17,235.6,17.3,235.1,17.3z"/>
<path class="elementor-shape-fill" d="M227.3,12.2h-0.5c-0.4,0-0.8-0.3-0.8-0.8V0h2v11.4C228.1,11.9,227.8,12.2,227.3,12.2z"/>
<path class="elementor-shape-fill" d="M242.9,12.2h-0.5c-0.4,0-0.8-0.3-0.8-0.8V0h2v11.4C243.7,11.9,243.4,12.2,242.9,12.2z"/>
<path class="elementor-shape-fill" d="M281.9,24h-0.5c-0.4,0-0.8-0.3-0.8-0.8V0h2v23.3C282.7,23.7,282.3,24,281.9,24z"/>
<path class="elementor-shape-fill" d="M266.3,17.3h-0.5c-0.4,0-0.8-0.3-0.8-0.8V0h2v16.5C267.1,17,266.8,17.3,266.3,17.3z"/>
<path class="elementor-shape-fill" d="M258.5,12.2h-0.5c-0.4,0-0.8-0.3-0.8-0.8V0h2v11.4C259.3,11.9,259,12.2,258.5,12.2z"/>
<path class="elementor-shape-fill" d="M274.1,12.2h-0.5c-0.4,0-0.8-0.3-0.8-0.8V0h2v11.4C274.9,11.9,274.6,12.2,274.1,12.2z"/>
<path class="elementor-shape-fill" d="M313.1,24h-0.5c-0.4,0-0.8-0.3-0.8-0.8V0h2v23.3C313.9,23.7,313.5,24,313.1,24z"/>
<path class="elementor-shape-fill" d="M297.5,17.3h-0.5c-0.4,0-0.8-0.3-0.8-0.8V0h2v16.5C298.3,17,297.9,17.3,297.5,17.3z"/>
<path class="elementor-shape-fill" d="M289.7,12.2h-0.5c-0.4,0-0.8-0.3-0.8-0.8V0h2v11.4C290.5,11.9,290.1,12.2,289.7,12.2z"/>
<path class="elementor-shape-fill" d="M305.3,12.2h-0.5c-0.4,0-0.8-0.3-0.8-0.8V0h2v11.4C306.1,11.9,305.7,12.2,305.3,12.2z"/>
<path class="elementor-shape-fill" d="M344.3,24h-0.5c-0.4,0-0.8-0.3-0.8-0.8V0h2v23.3C345.1,23.7,344.7,24,344.3,24z"/>
<path class="elementor-shape-fill" d="M328.7,17.3h-0.5c-0.4,0-0.8-0.3-0.8-0.8V0h2v16.5C329.5,17,329.1,17.3,328.7,17.3z"/>
<path class="elementor-shape-fill" d="M320.9,12.2h-0.5c-0.4,0-0.8-0.3-0.8-0.8V0h2v11.4C321.7,11.9,321.3,12.2,320.9,12.2z"/>
<path class="elementor-shape-fill" d="M336.5,12.2H336c-0.4,0-0.8-0.3-0.8-0.8V0h2v11.4C337.3,11.9,336.9,12.2,336.5,12.2z"/>
<path class="elementor-shape-fill" d="M375.5,24H375c-0.4,0-0.8-0.3-0.8-0.8V0h2v23.3C376.3,23.7,375.9,24,375.5,24z"/>
<path class="elementor-shape-fill" d="M359.9,17.3h-0.5c-0.4,0-0.8-0.3-0.8-0.8V0h2v16.5C360.7,17,360.3,17.3,359.9,17.3z"/>
<path class="elementor-shape-fill" d="M352.1,12.2h-0.5c-0.4,0-0.8-0.3-0.8-0.8V0h2v11.4C352.9,11.9,352.5,12.2,352.1,12.2z"/>
<path class="elementor-shape-fill" d="M367.7,12.2h-0.5c-0.4,0-0.8-0.3-0.8-0.8V0h2v11.4C368.5,11.9,368.1,12.2,367.7,12.2z"/>
<path class="elementor-shape-fill" d="M406.7,24h-0.5c-0.4,0-0.8-0.3-0.8-0.8V0h2v23.3C407.4,23.7,407.1,24,406.7,24z"/>
<path class="elementor-shape-fill" d="M391.1,17.3h-0.5c-0.4,0-0.8-0.3-0.8-0.8V0h2v16.5C391.9,17,391.5,17.3,391.1,17.3z"/>
<path class="elementor-shape-fill" d="M383.3,12.2h-0.5c-0.4,0-0.8-0.3-0.8-0.8V0h2v11.4C384.1,11.9,383.7,12.2,383.3,12.2z"/>
<path class="elementor-shape-fill" d="M398.9,12.2h-0.5c-0.4,0-0.8-0.3-0.8-0.8V0h2v11.4C399.6,11.9,399.3,12.2,398.9,12.2z"/>
<path class="elementor-shape-fill" d="M437.9,24h-0.5c-0.4,0-0.8-0.3-0.8-0.8V0h2v23.3C438.6,23.7,438.3,24,437.9,24z"/>
<path class="elementor-shape-fill" d="M422.3,17.3h-0.5c-0.4,0-0.8-0.3-0.8-0.8V0h2v16.5C423,17,422.7,17.3,422.3,17.3z"/>
<path class="elementor-shape-fill" d="M414.5,12.2H414c-0.4,0-0.8-0.3-0.8-0.8V0h2v11.4C415.2,11.9,414.9,12.2,414.5,12.2z"/>
<path class="elementor-shape-fill" d="M430.1,12.2h-0.5c-0.4,0-0.8-0.3-0.8-0.8V0h2v11.4C430.8,11.9,430.5,12.2,430.1,12.2z"/>
<path class="elementor-shape-fill" d="M469,24h-0.5c-0.4,0-0.8-0.3-0.8-0.8V0h2v23.3C469.8,23.7,469.5,24,469,24z"/>
<path class="elementor-shape-fill" d="M453.4,17.3H453c-0.4,0-0.8-0.3-0.8-0.8V0h2v16.5C454.2,17,453.9,17.3,453.4,17.3z"/>
<path class="elementor-shape-fill" d="M445.7,12.2h-0.5c-0.4,0-0.8-0.3-0.8-0.8V0h2v11.4C446.4,11.9,446.1,12.2,445.7,12.2z"/>
<path class="elementor-shape-fill" d="M461.2,12.2h-0.5c-0.4,0-0.8-0.3-0.8-0.8V0h2v11.4C462,11.9,461.7,12.2,461.2,12.2z"/>
<path class="elementor-shape-fill" d="M500.2,24h-0.5c-0.4,0-0.8-0.3-0.8-0.8V0h2v23.3C501,23.7,500.7,24,500.2,24z"/>
<path class="elementor-shape-fill" d="M484.6,17.3h-0.5c-0.4,0-0.8-0.3-0.8-0.8V0h2v16.5C485.4,17,485.1,17.3,484.6,17.3z"/>
<path class="elementor-shape-fill" d="M476.8,12.2h-0.5c-0.4,0-0.8-0.3-0.8-0.8V0h2v11.4C477.6,11.9,477.3,12.2,476.8,12.2z"/>
<path class="elementor-shape-fill" d="M492.4,12.2H492c-0.4,0-0.8-0.3-0.8-0.8V0h2v11.4C493.2,11.9,492.9,12.2,492.4,12.2z"/>
<path class="elementor-shape-fill" d="M531.4,24H531c-0.4,0-0.8-0.3-0.8-0.8V0h2v23.3C532.2,23.7,531.8,24,531.4,24z"/>
<path class="elementor-shape-fill" d="M515.8,17.3h-0.5c-0.4,0-0.8-0.3-0.8-0.8V0h2v16.5C516.6,17,516.3,17.3,515.8,17.3z"/>
<path class="elementor-shape-fill" d="M508,12.2h-0.5c-0.4,0-0.8-0.3-0.8-0.8V0h2v11.4C508.8,11.9,508.5,12.2,508,12.2z"/>
<path class="elementor-shape-fill" d="M523.6,12.2h-0.5c-0.4,0-0.8-0.3-0.8-0.8V0h2v11.4C524.4,11.9,524,12.2,523.6,12.2z"/>
<path class="elementor-shape-fill" d="M562.6,24h-0.5c-0.4,0-0.8-0.3-0.8-0.8V0h2v23.3C563.4,23.7,563,24,562.6,24z"/>
<path class="elementor-shape-fill" d="M547,17.3h-0.5c-0.4,0-0.8-0.3-0.8-0.8V0h2v16.5C547.8,17,547.4,17.3,547,17.3z"/>
<path class="elementor-shape-fill" d="M539.2,12.2h-0.5c-0.4,0-0.8-0.3-0.8-0.8V0h2v11.4C540,11.9,539.6,12.2,539.2,12.2z"/>
<path class="elementor-shape-fill" d="M554.8,12.2h-0.5c-0.4,0-0.8-0.3-0.8-0.8V0h2v11.4C555.6,11.9,555.2,12.2,554.8,12.2z"/>
<path class="elementor-shape-fill" d="M593.8,24h-0.5c-0.4,0-0.8-0.3-0.8-0.8V0h2v23.3C594.6,23.7,594.2,24,593.8,24z"/>
<path class="elementor-shape-fill" d="M578.2,17.3h-0.5c-0.4,0-0.8-0.3-0.8-0.8V0h2v16.5C579,17,578.6,17.3,578.2,17.3z"/>
<path class="elementor-shape-fill" d="M570.4,12.2h-0.5c-0.4,0-0.8-0.3-0.8-0.8V0h2v11.4C571.2,11.9,570.8,12.2,570.4,12.2z"/>
<path class="elementor-shape-fill" d="M586,12.2h-0.5c-0.4,0-0.8-0.3-0.8-0.8V0h2v11.4C586.8,11.9,586.4,12.2,586,12.2z"/>
<path class="elementor-shape-fill" d="M625,24h-0.5c-0.4,0-0.8-0.3-0.8-0.8V0h2v23.3C625.8,23.7,625.4,24,625,24z"/>
<path class="elementor-shape-fill" d="M609.4,17.3h-0.5c-0.4,0-0.8-0.3-0.8-0.8V0h2v16.5C610.2,17,609.8,17.3,609.4,17.3z"/>
<path class="elementor-shape-fill" d="M601.6,12.2h-0.5c-0.4,0-0.8-0.3-0.8-0.8V0h2v11.4C602.4,11.9,602,12.2,601.6,12.2z"/>
<path class="elementor-shape-fill" d="M617.2,12.2h-0.5c-0.4,0-0.8-0.3-0.8-0.8V0h2v11.4C618,11.9,617.6,12.2,617.2,12.2z"/>
<path class="elementor-shape-fill" d="M656.2,24h-0.5c-0.4,0-0.8-0.3-0.8-0.8V0h2v23.3C656.9,23.7,656.6,24,656.2,24z"/>
<path class="elementor-shape-fill" d="M640.6,17.3h-0.5c-0.4,0-0.8-0.3-0.8-0.8V0h2v16.5C641.3,17,641,17.3,640.6,17.3z"/>
<path class="elementor-shape-fill" d="M632.8,12.2h-0.5c-0.4,0-0.8-0.3-0.8-0.8V0h2v11.4C633.6,11.9,633.2,12.2,632.8,12.2z"/>
<path class="elementor-shape-fill" d="M648.4,12.2h-0.5c-0.4,0-0.8-0.3-0.8-0.8V0h2v11.4C649.1,11.9,648.8,12.2,648.4,12.2z"/>
<path class="elementor-shape-fill" d="M687.4,24h-0.5c-0.4,0-0.8-0.3-0.8-0.8V0h2v23.3C688.1,23.7,687.8,24,687.4,24z"/>
<path class="elementor-shape-fill" d="M671.8,17.3h-0.5c-0.4,0-0.8-0.3-0.8-0.8V0h2v16.5C672.5,17,672.2,17.3,671.8,17.3z"/>
<path class="elementor-shape-fill" d="M664,12.2h-0.5c-0.4,0-0.8-0.3-0.8-0.8V0h2v11.4C664.7,11.9,664.4,12.2,664,12.2z"/>
<path class="elementor-shape-fill" d="M679.6,12.2h-0.5c-0.4,0-0.8-0.3-0.8-0.8V0h2v11.4C680.3,11.9,680,12.2,679.6,12.2z"/>
<path class="elementor-shape-fill" d="M718.5,24h-0.5c-0.4,0-0.8-0.3-0.8-0.8V0h2v23.3C719.3,23.7,719,24,718.5,24z"/>
<path class="elementor-shape-fill" d="M702.9,17.3h-0.5c-0.4,0-0.8-0.3-0.8-0.8V0h2v16.5C703.7,17,703.4,17.3,702.9,17.3z"/>
<path class="elementor-shape-fill" d="M695.1,12.2h-0.5c-0.4,0-0.8-0.3-0.8-0.8V0h2v11.4C695.9,11.9,695.6,12.2,695.1,12.2z"/>
<path class="elementor-shape-fill" d="M710.7,12.2h-0.5c-0.4,0-0.8-0.3-0.8-0.8V0h2v11.4C711.5,11.9,711.2,12.2,710.7,12.2z"/>
<path class="elementor-shape-fill" d="M749.7,24h-0.5c-0.4,0-0.8-0.3-0.8-0.8V0h2v23.3C750.5,23.7,750.2,24,749.7,24z"/>
<path class="elementor-shape-fill" d="M734.1,17.3h-0.5c-0.4,0-0.8-0.3-0.8-0.8V0h2v16.5C734.9,17,734.6,17.3,734.1,17.3z"/>
<path class="elementor-shape-fill" d="M726.3,12.2h-0.5c-0.4,0-0.8-0.3-0.8-0.8V0h2v11.4C727.1,11.9,726.8,12.2,726.3,12.2z"/>
<path class="elementor-shape-fill" d="M741.9,12.2h-0.5c-0.4,0-0.8-0.3-0.8-0.8V0h2v11.4C742.7,11.9,742.4,12.2,741.9,12.2z"/>
<path class="elementor-shape-fill" d="M780.9,24h-0.5c-0.4,0-0.8-0.3-0.8-0.8V0h2v23.3C781.7,23.7,781.3,24,780.9,24z"/>
<path class="elementor-shape-fill" d="M765.3,17.3h-0.5c-0.4,0-0.8-0.3-0.8-0.8V0h2v16.5C766.1,17,765.7,17.3,765.3,17.3z"/>
<path class="elementor-shape-fill" d="M757.5,12.2h-0.5c-0.4,0-0.8-0.3-0.8-0.8V0h2v11.4C758.3,11.9,758,12.2,757.5,12.2z"/>
<path class="elementor-shape-fill" d="M773.1,12.2h-0.5c-0.4,0-0.8-0.3-0.8-0.8V0h2v11.4C773.9,11.9,773.5,12.2,773.1,12.2z"/>
<path class="elementor-shape-fill" d="M812.1,24h-0.5c-0.4,0-0.8-0.3-0.8-0.8V0h2v23.3C812.9,23.7,812.5,24,812.1,24z"/>
<path class="elementor-shape-fill" d="M796.5,17.3H796c-0.4,0-0.8-0.3-0.8-0.8V0h2v16.5C797.3,17,796.9,17.3,796.5,17.3z"/>
<path class="elementor-shape-fill" d="M788.7,12.2h-0.5c-0.4,0-0.8-0.3-0.8-0.8V0h2v11.4C789.5,11.9,789.1,12.2,788.7,12.2z"/>
<path class="elementor-shape-fill" d="M804.3,12.2h-0.5c-0.4,0-0.8-0.3-0.8-0.8V0h2v11.4C805.1,11.9,804.7,12.2,804.3,12.2z"/>
<path class="elementor-shape-fill" d="M843.3,24h-0.5c-0.4,0-0.8-0.3-0.8-0.8V0h2v23.3C844.1,23.7,843.7,24,843.3,24z"/>
<path class="elementor-shape-fill" d="M827.7,17.3h-0.5c-0.4,0-0.8-0.3-0.8-0.8V0h2v16.5C828.5,17,828.1,17.3,827.7,17.3z"/>
<path class="elementor-shape-fill" d="M819.9,12.2h-0.5c-0.4,0-0.8-0.3-0.8-0.8V0h2v11.4C820.7,11.9,820.3,12.2,819.9,12.2z"/>
<path class="elementor-shape-fill" d="M835.5,12.2H835c-0.4,0-0.8-0.3-0.8-0.8V0h2v11.4C836.3,11.9,835.9,12.2,835.5,12.2z"/>
<path class="elementor-shape-fill" d="M874.5,24H874c-0.4,0-0.8-0.3-0.8-0.8V0h2v23.3C875.3,23.7,874.9,24,874.5,24z"/>
<path class="elementor-shape-fill" d="M858.9,17.3h-0.5c-0.4,0-0.8-0.3-0.8-0.8V0h2v16.5C859.7,17,859.3,17.3,858.9,17.3z"/>
<path class="elementor-shape-fill" d="M851.1,12.2h-0.5c-0.4,0-0.8-0.3-0.8-0.8V0h2v11.4C851.9,11.9,851.5,12.2,851.1,12.2z"/>
<path class="elementor-shape-fill" d="M866.7,12.2h-0.5c-0.4,0-0.8-0.3-0.8-0.8V0h2v11.4C867.5,11.9,867.1,12.2,866.7,12.2z"/>
<path class="elementor-shape-fill" d="M905.7,24h-0.5c-0.4,0-0.8-0.3-0.8-0.8V0h2v23.3C906.4,23.7,906.1,24,905.7,24z"/>
<path class="elementor-shape-fill" d="M890.1,17.3h-0.5c-0.4,0-0.8-0.3-0.8-0.8V0h2v16.5C890.8,17,890.5,17.3,890.1,17.3z"/>
<path class="elementor-shape-fill" d="M882.3,12.2h-0.5c-0.4,0-0.8-0.3-0.8-0.8V0h2v11.4C883,11.9,882.7,12.2,882.3,12.2z"/>
<path class="elementor-shape-fill" d="M897.9,12.2h-0.5c-0.4,0-0.8-0.3-0.8-0.8V0h2v11.4C898.6,11.9,898.3,12.2,897.9,12.2z"/>
<path class="elementor-shape-fill" d="M936.8,24h-0.5c-0.4,0-0.8-0.3-0.8-0.8V0h2v23.3C937.6,23.7,937.3,24,936.8,24z"/>
<path class="elementor-shape-fill" d="M921.3,17.3h-0.5c-0.4,0-0.8-0.3-0.8-0.8V0h2v16.5C922,17,921.7,17.3,921.3,17.3z"/>
<path class="elementor-shape-fill" d="M913.5,12.2H913c-0.4,0-0.8-0.3-0.8-0.8V0h2v11.4C914.2,11.9,913.9,12.2,913.5,12.2z"/>
<path class="elementor-shape-fill" d="M929.1,12.2h-0.5c-0.4,0-0.8-0.3-0.8-0.8V0h2v11.4C929.8,11.9,929.5,12.2,929.1,12.2z"/>
<path class="elementor-shape-fill" d="M968,24h-0.5c-0.4,0-0.8-0.3-0.8-0.8V0h2v23.3C968.8,23.7,968.5,24,968,24z"/>
<path class="elementor-shape-fill" d="M952.4,17.3H952c-0.4,0-0.8-0.3-0.8-0.8V0h2v16.5C953.2,17,952.9,17.3,952.4,17.3z"/>
<path class="elementor-shape-fill" d="M944.6,12.2h-0.5c-0.4,0-0.8-0.3-0.8-0.8V0h2v11.4C945.4,11.9,945.1,12.2,944.6,12.2z"/>
<path class="elementor-shape-fill" d="M960.2,12.2h-0.5c-0.4,0-0.8-0.3-0.8-0.8V0h2v11.4C961,11.9,960.7,12.2,960.2,12.2z"/>
<path class="elementor-shape-fill" d="M999.2,24h-0.5c-0.4,0-0.8-0.3-0.8-0.8V0h2v23.3C1000,23.7,999.7,24,999.2,24z"/>
<path class="elementor-shape-fill" d="M983.6,17.3h-0.5c-0.4,0-0.8-0.3-0.8-0.8V0h2v16.5C984.4,17,984.1,17.3,983.6,17.3z"/>
<path class="elementor-shape-fill" d="M975.8,12.2h-0.5c-0.4,0-0.8-0.3-0.8-0.8V0h2v11.4C976.6,11.9,976.3,12.2,975.8,12.2z"/>
<path class="elementor-shape-fill" d="M991.4,12.2H991c-0.4,0-0.8-0.3-0.8-0.8V0h2v11.4C992.2,11.9,991.9,12.2,991.4,12.2z"/>
</svg>
