<svg xmlns="http://www.w3.org/2000/svg" viewBox="0 0 1000 100" preserveAspectRatio="none">
<path class="elementor-shape-fill" d="M-0.6,14.2L-0.7-0.3h1002.8l0,12.2c-3.6-0.8-2.2-1.6-5.8-2.3c-0.2,0-0.5-0.1-0.8-0.1c-0.2,0.8-0.5,1.6-0.8,2.6
	c-0.7,0.1-1.8,0.3-3.1,0.5c0.5,0.4,0.8,0.6,1.3,1c-2.1-0.4-4.1-0.8-6-1c-4.2-0.5-8.4-1.2-12.6-1.4c-7.7-0.3-15.3-0.4-23-0.5
	c-5.3,0-10.5,0.2-15.8,0.3c-6.2,0.1-12.3,0.3-18.5,0.1c-4.9-0.1-9.7-0.7-14.5-1c-0.5,0-1,0.1-1.7,0.2c0.3,0.6,0.5,0.9,0.8,1.3
	c-0.6-0.2-1.1-0.3-1.6-0.5c-1.5-0.4-2.8,0.1-3.8,1.1c-1.2,1.2-2.4,1.6-4,0.6c-1.8-1-3.7-1.7-5.5-2.6c-0.9-0.4-1.6-0.4-2.3,0.2
	c-0.7,0.7,0,1.2,0.2,1.8c0,0.1,0,0.2,0,0.6c-2.1,0-4.2,0.1-6.2,0c-4.7-0.2-9.4-0.5-14.1-0.8c-4.6-0.2-9.2-0.6-13.7-0.7
	c-2.6,0-5.3,0.3-7.9,0.6c-1.5,0.2-2.4-0.5-2.4-1.9c0-0.8-0.4-1-1.7-1.1c0.1,0.4,0.5,1,0.4,1.2c-0.3,0.4-0.8,0.7-1.3,0.7
	c-2.6,0.3-5.3,0.6-8,0.8c-2,0.2-2.6,0.3-3.3,1.1c-3.4-1.8-7.2-1.7-10.9-2.2c-0.9-0.1-1.8-0.2-2.7-0.5c-2.2-0.6-2.5-1-2.5-3.4
	c-0.9,0.1-1.8,0.1-2.7,0.2c-1.8,0.3-2.1,1.1-1,2.6c-0.9,0-1.7,0-2.5,0c-5.2-0.1-10.3,0.2-15.3,1.4c-1.1,0.3-2.3-0.1-3.5-0.1
	c-6.6,0-13.2,0.1-19.8,0c-5.1-0.1-10.1-0.2-14.6-1.5c-0.7,0.4-1,0.8-1.4,0.9c-1.6,0.2-3.2,0.4-4.8,0.5c0,0.1-0.1,0.2-0.1,0.3
	c1,0.7,2.1,1.4,3.2,2.1c-2.1,0-4,0-6,0c-1.5,0-3,0-4.4,0c-1,0-1.7-0.2-2.4-1.1c-0.7-0.7-2-1-3.1-1.1c-3.2-0.3-6.3,0.4-8.9,2.2
	c-1.5,1.1-2.9,0.4-4.4,0.6c1.6-0.6,3.2-1.2,4.9-1.9c-1.3-1.4-3.4-1.6-4.7-0.9c-2,1.2-4.2,2-6.7,2c-0.5,0-1-0.1-1.4-0.4
	c1-0.1,1.9-0.3,2.9-0.5c0.3-0.1,0.7-0.4,0.7-0.7c0-0.2-0.3-0.7-0.6-0.8c-1-0.2-2-0.4-3-0.5c-1.6-0.1-3.2,0-5.1,0
	c0.8,1,1.5,1.9,2.3,2.9c-1.3,0-2.4,0-3.4,0c-4.7-0.1-9.4-0.3-14.1-0.5c-5.7-0.2-11.4-0.6-17.1-0.9c-2.7-0.1-5.5-0.3-8.3-0.3
	c-7.9-0.2-15.8-0.3-23.7-0.5c-0.3,0-0.7,0-0.8-0.1c-1-1.2-2.4-1.1-3.8-1.2c-2.6-0.3-5.3-0.3-7.9-0.6c-0.7-0.1-1.5-0.3-2.2-0.5
	c-0.6-0.3-1-0.7-0.7-1.3c1.1-0.1,2.1-0.2,3.3-0.3c-1.3-1.5-4.7-2.4-7.6-2.3c0.4,1-0.3,1.4-1,1.9c-0.6,0.4-1.1,1-1.7,1.5
	c0.8,0.3,1.5,0.6,2.3,0.8c0.6,0.2,1.3,0.2,1.9,0.4c-2.3,0.5-4.7,0.9-7,1.5c-0.7,0.2-1.5,0.5-2,1c-1.6,1.5-3.5,2.2-5.5,2.3
	c-3.3,0-6.7-0.1-10-0.3c-5.1-0.4-10.2-1.1-15.3-1.4c-1.9-0.1-3.9,0.2-5.9,0.3c0.1-0.2,0.2-0.3,0.3-0.5c-2.1,0.1-4.1,0.4-6.1,0.4
	c-3.1,0-6.1,0-9.2-0.3c-3.8-0.3-7.6-0.8-11.4-1.3c-0.7-0.1-1.5-0.2-2.1-0.1c-1,0.2-1.5-0.1-1.8-1c-0.3-0.8-0.7-0.9-1.5-0.6
	c-4.9,1.6-9.9,2.9-15.1,2.5c-2.6-0.2-5.2-0.4-7.9-0.6c0.1-0.3,0.2-0.6,0.5-1.1c-0.6,0-1.2-0.2-1.6,0c-4.2,2.2-8.8,3-13.3,2.2
	c-4.2-0.8-8.3,0.1-12.4-0.2c-0.7-0.1-1.2-0.1-1.7-0.9c-0.3-0.6-1.3-1.1-2-1.1c-2.9,0.1-5.8,0.3-8.7,0.6c-3.4,0.3-6.8,0.7-10.2,0.9
	c-2.2,0.1-4.2-0.4-5.7-2.2c-5,1.9-10.3,2-15.4,2.9c-0.6,0.1-1.1,0.5-1.6,0.7s-1.1,0.4-1.6,0.6c-0.1-0.1-0.1-0.2-0.2-0.4
	c0.6-0.3,1.2-0.5,2.1-1c-0.6-0.2-1.1-0.5-1.3-0.4c-3.4,1.7-6.8,1.1-10.3,0.5c-2.7-0.5-5.4-1-8.1-1.3c-1-0.1-2,0-2.9,0.3
	c-1.4,0.4-1.5,1-0.4,1.9c0.1,0.1,0.3,0.3,0.6,0.5c-5.3-1.3-10.2,0-15.1,1.1c-3,0.6-5.9,1.6-9,0.9c-1.5-0.3-1.7-0.6-1.6-2.1
	c0.1-1.6-0.2-1.8-1.7-1.4c-1.9,0.4-2.2,0.8-2.3,2.6c-0.1,0.7-0.4,1.1-1.1,1.1c-1.4-0.1-2.7-0.3-4.1-0.4c0-0.1,0-0.2,0-0.3
	c0.7-0.2,1.4-0.4,2-0.5c-3.6-2-7.3-4.1-11-6.1c-1.1-0.6-2.4-1.1-4.1-0.7c0.9,0.4,1.5,0.7,2.2,1C381.3,9,379.4,9,377,8.5
	c-3-0.7-6-1.4-9.1-2.1c-0.5-0.1-1-0.2-1.5-0.2c-1.9,0-2.5,0.8-1.9,2.6c0.1,0.2,0.1,0.4,0.2,0.7c-1.6-0.3-3.1-0.6-4.6-0.7
	c-1.6-0.1-3.3-0.1-4.9,0c-3.1,0.2-6.1-0.2-9.1-0.9c-2.7-0.6-5.5-0.5-8.3-0.7c-0.2,0-0.4,0-0.6,0.1c-0.7,0.4-1.4,0.7-2.4,1.2
	c0.7,0.3,1,0.4,1.5,0.6c-3.9,0-7.7,0-11.5,0c-1.8,0-3.7,0.4-5.5,0.2c-2.1-0.2-3.8,1-5.7,1.1c-3.8,0.1-7.7,0.1-11.5,0.1
	c-1.3,0-2.5-0.1-4.2-0.2c0.9-0.4,1.6-0.6,2.2-0.9c-0.9-1.6-1.8-1.9-3.2-1.1c-2.6,1.5-5.2,1.3-7.9,0.5c-0.4-0.1-0.7-0.2-1.2-0.4
	c-0.5,2.1-1.1,4.1-3,5.3c-2.2,1.3-4.6,1.6-7.5,1.7c1.1-0.4,1.8-0.7,2.8-1.1c-1.5-1.2-2.9-0.2-4.4-0.1c0.6-0.8,1.1-1.3,1.6-2
	c-0.3-0.1-0.5-0.2-0.5-0.2c-3,1.4-6.2,1.4-9.5,1.2c-3.1-0.2-6.3,0-9.5,0c1.2-1.1,1.1-1.2-0.9-2.5c-1,1.2-2.4,0.9-3.7,0.7
	c-1.4-0.3-2.8-0.7-4.2-1c-0.5-0.1-1.1,0.1-1.6,0.1c0.1,0.5,0.2,0.9,0.3,1.4c-2.1-0.2-4.3-0.5-6.5-0.7c-3.1-0.2-6.1-0.5-9.2-0.6
	c-8.1-0.2-16.1-0.2-24.2-0.4c-3.1-0.1-6.1-0.6-9.1-0.9c-0.4,0-0.7-0.1-1-0.3c-2.3-1.4-4.7-0.7-7.1-0.2c-1.2,0.3-2.4,0.5-3.8,0.8
	c0.1-0.6,0.1-1,0.1-1.4c-5.2,1.1-10.4,2.3-15.6,3.4c0-0.1,0-0.1,0.1-0.2c1.8-1.3,1.7-1.9-0.3-2.9c-1.6-0.8-2.9-1-4.5,0
	c-1.5,1-3.1,1.6-4.8,2.4c-0.5-0.8-0.9-1.6-1.4-2.5c-2.7,0.8-5.5,0.5-8.3,0.3c-0.3,0-0.7-0.1-0.9,0.1c-2.5,1.7-5.4,1.8-8.2,2.3
	c-2.2,0.4-4.4,0.9-6.6,1.3c-0.2,0-0.5,0.1-0.6,0c-1.8-1.6-3.9-1.2-6-0.9c-1.4,0.2-2.9,0.3-4.1-0.8c-0.1-0.1-0.5-0.1-0.7-0.1
	c-1,0.3-1.9,0.6-2.9,1c0.2,0.4,0.5,0.8,0.7,1.2c0.1,0.3,0.3,0.9,0.1,1.1c-0.2,0.2-0.7,0.3-1.1,0.3s-0.8-0.1-1.3-0.2
	c0.4,0.8,0.7,1.5,1.1,2.5c-2.5,0-4.2-1.4-6.2-2.3c1.6,0,3.1,0,4.7,0c-0.7-2-0.8-2-2.6-1.8s-3.6,0.5-5.4,0.7c-0.7,0.1-1.4,0-2-0.3
	c-1.5-0.7-3.1-0.5-4.7-0.3c-0.6,0.1-1.3,0.1-1.9,0c-3.8-0.9-7.6-0.4-11.4,0.1c-4.6,0.6-9.2,1.2-13.8,1.5c-1.9,0.1-3.9-0.5-5.9-0.7
	c0-0.1,0-0.2,0-0.3c1,0,2,0,3,0c0-0.1,0-0.2,0-0.3c-7.8,0.3-15.5-2.4-23.5-1.2c0.1,0.8,0.2,1.3,0.3,2c-3.1,0.3-6.1,0.7-9.1,1
	c-2.2,0.2-4.4,0.3-6.6,0.2c-1.1,0-1.8,0.2-1.8,1.5c0,0.2-0.1,0.4-0.1,0.7c-2,0-4.1,0-6.1,0c-5.1,0.1-10.1,0.4-15.2,0.5
	c-2.8,0-5.5-0.3-7.9-1.8L-0.6,14.2z"/>
</svg>
