<svg xmlns="http://www.w3.org/2000/svg" viewBox="0 0 1000 100" preserveAspectRatio="none">
<polygon class="elementor-shape-fill" points="1045.1,-21.4 980,-86.5 939.5,-46 899,-86.5 859.5,-47 820,-86.5 780.5,-47 741,-86.5 700,-45.5 659,-86.5
	619.5,-47 580,-86.5 540.5,-47 501,-86.5 459.5,-45 418,-86.5 378.5,-47 339,-86.5 299.5,-47 260,-86.5 219,-45.5 178,-86.5
	138.5,-47 99,-86.5 59.5,-47 20,-86.5 -45.1,-21.4 20,43.6 59.5,4.1 99,43.6 138.5,4.1 178,43.6 219,2.6 260,43.6 299.5,4.1
	339,43.6 378.5,4.1 418,43.6 459.5,2.1 501,43.6 540.5,4.1 580,43.6 619.5,4.1 659,43.6 700,2.6 741,43.6 780.5,4.1 820,43.6
	859.5,4.1 899,43.6 939.5,3.1 980,43.6 "/>
<polygon class="elementor-shape-fill" points="1059,50.7 1024.4,16.1 1019.5,11.2 1014.6,16.1 980,50.7 945.4,16.1 944.4,15.1 940.5,11.2 939.5,10.2 934.6,15.1
	899,50.7 864.4,16.1 859.5,11.2 854.6,16.1 820,50.7 785.4,16.1 780.5,11.2 775.6,16.1 741,50.7 704.9,14.6 700,9.7 695.1,14.6
	659,50.7 624.4,16.1 619.5,11.2 614.6,16.1 580,50.7 545.4,16.1 540.5,11.2 535.6,16.1 501,50.7 464.4,14.1 459.5,9.2 454.6,14.1
	418,50.7 383.4,16.1 378.5,11.2 373.6,16.1 339,50.7 304.4,16.1 299.5,11.2 294.6,16.1 260,50.7 223.9,14.6 219,9.7 214.1,14.6
	178,50.7 143.4,16.1 138.5,11.2 133.6,16.1 99,50.7 64.4,16.1 64.4,16.1 59.5,11.2 55.6,15.1 54.6,16.1 20,50.7 -14.6,16.1
	-19.5,11.2 -24.4,16.1 -59,50.7 -63.9,55.6 -59,60.6 -54.1,55.6 -19.5,21.1 15.1,55.6 20,60.6 24.9,55.6 59.5,21.1 59.5,21.1
	94.1,55.6 99,60.6 103.9,55.6 138.5,21.1 173.1,55.6 178,60.6 182.9,55.6 219,19.6 255.1,55.6 260,60.6 264.9,55.6 299.5,21.1
	334.1,55.6 339,60.6 343.9,55.6 378.5,21.1 413.1,55.6 418,60.6 422.9,55.6 459.5,19.1 496.1,55.6 501,60.6 505.9,55.6 540.5,21.1
	575.1,55.6 580,60.6 584.9,55.6 619.5,21.1 654.1,55.6 659,60.6 663.9,55.6 700,19.6 736.1,55.6 741,60.6 745.9,55.6 780.5,21.1
	815.1,55.6 820,60.6 824.9,55.6 859.5,21.1 894.1,55.6 899,60.6 903.9,55.6 939.5,20.1 939.5,20.1 940.5,21.1 975.1,55.6 980,60.6
	984.9,55.6 1019.5,21.1 1054.1,55.6 1059,60.6 1063.9,55.6 "/>
</svg>
