<svg xmlns="http://www.w3.org/2000/svg" viewBox="0 0 1000 100" preserveAspectRatio="none">
<path class="elementor-shape-fill" opacity="0.6" d="M971.4,53.8c1-0.5,1.6-1.5,1.6-2.6V40.8v-3.1c0-1.1-0.6-2.2-1.6-2.6c-2.2-1-4.4,0.6-4.4,2.7v3.1v10.3
	C967,53.2,969.2,54.8,971.4,53.8z"/>
<path class="elementor-shape-fill" opacity="0.6" d="M959,48.7L959,48.7c1.4,0,2.6-0.9,2.9-2.2c0-0.2,0.1-0.4,0.1-0.6v-5v-8.5v-0.6v-3.4c0-1.5-1.2-2.8-2.8-2.8
	h-0.5c-1.5,0-2.8,1.2-2.8,2.8v3.4v0.6V41v5c0,0.2,0,0.4,0.1,0.6C956.4,47.8,957.6,48.7,959,48.7z"/>
<path class="elementor-shape-fill" opacity="0.6" d="M947.5,44.2c0.2,0,0.3,0,0.5,0l0,0c0.2,0,0.3,0,0.5,0c1.4,0.2,2.5,1.5,2.5,3v-5.9v-8.2c0-0.6-0.2-1.1-0.4-1.5
	c-0.5-0.9-1.5-1.5-2.6-1.5l0,0c-1.1,0-2.1,0.6-2.6,1.5c-0.3,0.5-0.4,1-0.4,1.5v8.2v5.9C945,45.7,946.1,44.4,947.5,44.2z"/>
<path class="elementor-shape-fill" opacity="0.6" d="M960.4,80.3c1-0.5,1.6-1.5,1.6-2.6V59.9v-3.1v-1.3c0-1.1-0.6-2.2-1.6-2.6c-2.2-1-4.4,0.6-4.4,2.7v1.3v12.5
	v8.4C956,79.7,958.2,81.3,960.4,80.3z"/>
<path class="elementor-shape-fill" opacity="0.6" d="M959.3,86.8c1.5,0,2.8-1.2,2.8-2.8c0-1.5-1.2-2.8-2.8-2.8c-1.5,0-2.8,1.2-2.8,2.8
	C956.5,85.5,957.8,86.8,959.3,86.8z"/>
<path class="elementor-shape-fill" opacity="0.6" d="M994.4,30.1c1-0.5,1.6-1.5,1.6-2.6V26v-2v-6.5c0-1.1-0.6-2.2-1.6-2.6c-2.2-1-4.4,0.6-4.4,2.7v6.4v2.5v1.1
	C990,29.6,992.2,31.2,994.4,30.1z"/>
<path class="elementor-shape-fill" opacity="0.6" d="M942.6,88.7c-1.5,0-2.8,1.2-2.8,2.8c0,1.5,1.2,2.8,2.8,2.8s2.8-1.2,2.8-2.8C945.4,90,944.1,88.7,942.6,88.7z"
	/>
<ellipse class="elementor-shape-fill" transform="matrix(0.9571 -0.2898 0.2898 0.9571 12.5966 259.1648)" opacity="0.6" cx="881.4" cy="87" rx="2.8" ry="2.8"/>
<path class="elementor-shape-fill" opacity="0.6" d="M764.7,88.7c-1.5,0-2.8,1.2-2.8,2.8c0,1.5,1.2,2.8,2.8,2.8c1.5,0,2.8-1.2,2.8-2.8
	C767.4,90,766.2,88.7,764.7,88.7z"/>
<path class="elementor-shape-fill" opacity="0.6" d="M968.8,32c0.5,0.3,1,0.5,1.6,0.5c0.6,0,1.2-0.2,1.6-0.5c0.7-0.5,1.1-1.3,1.1-2.2c0-1.5-1.2-2.8-2.8-2.8
	c-1.5,0-2.8,1.2-2.8,2.8C967.6,30.7,968.1,31.5,968.8,32z"/>
<path class="elementor-shape-fill" opacity="0.6" d="M982,63.8L982,63.8c1.6,0,2.9-1.1,3-2.6c0,0,0-0.1,0-0.1V61v-1.5c0-1.5,1.2-2.8,2.8-2.8h-0.5
	c1.5,0,2.8,1.2,2.8,2.8V61v4c0,0.1,0,0.2,0,0.3c0.2-1.3,1.4-2.3,3-2.3c1.5,0,2.8,1,3,2.3c0-0.1,0-0.2,0-0.3V44.9v-3.3V41
	c0-1.3-0.8-2.5-2-2.8c-2.1-0.6-4,0.8-4,2.5v0.9v2.9v0V50c0,1.5-1.2,2.8-2.8,2.8h0.5c-1.5,0-2.8-1.2-2.8-2.8v-5.5v-2.9v-8.1V33v-1.2
	c0-1.5-1.2-2.8-2.8-2.8h-0.4c-1.5,0-2.8,1.2-2.8,2.8V33v0.6v8.1v19.6c0,0,0,0.1,0,0.1C979.1,62.7,980.4,63.8,982,63.8z"/>
<path class="elementor-shape-fill" opacity="0.6" d="M937.1,36.1L937.1,36.1c1,0,1.9-0.6,2.4-1.4c0.2-0.4,0.4-0.9,0.4-1.4c0-0.5-0.1-0.9-0.3-1.3
	c-0.5-0.9-1.4-1.5-2.5-1.5l0,0c-1.1,0-2,0.6-2.5,1.5c-0.2,0.4-0.3,0.8-0.3,1.3c0,0.5,0.1,1,0.4,1.4C935.1,35.5,936,36.1,937.1,36.1z
	"/>
<path class="elementor-shape-fill" opacity="0.6" d="M981.8,95.7h0.5c1.5,0,2.8-1.2,2.8-2.8V81v-8.9v-1.6c0-1.5-1.2-2.8-2.8-2.8h-0.5c-1.5,0-2.8,1.2-2.8,2.8v1.6
	v1.6V93C979,94.5,980.2,95.7,981.8,95.7z"/>
<path class="elementor-shape-fill" opacity="0.6" d="M780.8,52.3h0.4c1.5,0,2.8-1.2,2.8-2.8v-2.3v-5.6c0-0.2,0-0.3,0-0.5c-0.2-1.4-1.5-2.5-3-2.5l0,0
	c-1.5,0-2.7,1.1-3,2.5c0,0.2,0,0.3,0,0.5v5.6v2.3C778,51.1,779.2,52.3,780.8,52.3z"/>
<path class="elementor-shape-fill" opacity="0.6" d="M804,63.8c1.6,0,2.9-1.1,3-2.6c0,0,0-0.1,0-0.1V61v-1.5c0-1.5,1.2-2.8,2.8-2.8h-0.5c1.5,0,2.8,1.2,2.8,2.8V61
	v11.8c0,0,0,0.1,0,0.1c0.1-1.4,1.4-2.6,3-2.6c1.6,0,2.9,1.1,3,2.6c0,0,0-0.1,0-0.1V41.6v-2.5c0-1.3-0.8-2.5-2-2.8
	c-2.1-0.6-4,0.8-4,2.5v2.7v2.9V50c0,1.5-1.2,2.8-2.8,2.8h0.5c-1.5,0-2.8-1.2-2.8-2.8v-5.5v-2.9v-8.1V33v-1.1c0-1.3-0.8-2.5-2-2.8
	c-2.1-0.6-4,0.8-4,2.5V33v0.6v8.1v19.6c0,0,0,0.1,0,0.1C801.1,62.7,802.4,63.8,804,63.8z"/>
<path class="elementor-shape-fill" opacity="0.6" d="M803.8,95.7h0.5c1.5,0,2.8-1.2,2.8-2.8V81v-8.9v-1.6c0-1.5-1.2-2.8-2.8-2.8h-0.5c-1.5,0-2.8,1.2-2.8,2.8v1.6
	v1.6V93C801,94.5,802.2,95.7,803.8,95.7z"/>
<path class="elementor-shape-fill" opacity="0.6" d="M792.5,24.7L792.5,24.7c1.2,0,2.2-0.8,2.6-1.8c0.1-0.3,0.2-0.6,0.2-1c0-1.5-1.2-2.8-2.8-2.8l0,0
	c-1.5,0-2.8,1.2-2.8,2.8c0,0.3,0.1,0.7,0.2,1C790.2,23.9,791.3,24.7,792.5,24.7z"/>
<path class="elementor-shape-fill" opacity="0.6" d="M752.6,78.7c2.2,1,4.4-0.6,4.4-2.7v-3v-0.2c-0.6-1.5,0.6-2.6,2.1-2.6h0c1.5,0,2.9,2.8,2.9,2.8v4.8
	c0,0,0,0,0,0v5.4c0,1.1,0.6,2.2,1.6,2.6c2.2,1,4.4-0.6,4.4-2.7V65.8v-3.3c-0.6-1.5,0.7-2.8,2.2-2.8c1.5,0,2.8,1.2,2.8,2.8V41v-8.4
	V32v-8.2v-8.5c0-1.5-1.2-2.8-2.8-2.8c-1.5,0-2.2,2.8-2.2,2.8v7.2v8.9V32v9.1V47v8.1c0,1.1-0.6,2.2-1.6,2.6c-2.2,1-4.4-0.6-4.4-2.7
	V54v-7.5v0V41v0v-2.8v0c-0.1-1.5-1.4-2.8-2.9-2.8c-1.5,0-2.1,2.8-2.1,2.8v2v0v20c-0.1,1.6-1.4,2.8-3,2.8c-1.7,0-3-1.3-3-3v16
	C751,77.2,751.6,78.2,752.6,78.7z"/>
<path class="elementor-shape-fill" opacity="0.6" d="M906,66.8v-2.3c0-1.5-1.2-2.8-2.8-2.8h0.5c-1.5,0-2.8,1.2-2.8,2.8v2.3v5.3c0,1.3-0.8,2.4-2,2.8
	c-2.1,0.6-4-0.8-4-2.6v4.4v4.9c0,1.3,0.8,2.4,2,2.8c2.1,0.6,4-0.8,4-2.6v-6.2c0-1.1,0.6-2.2,1.6-2.6c2.2-1,4.4,0.6,4.4,2.7v5.7v6.9
	c-0.5,1.5,0.7,2.8,2.2,2.8c1.5,0,2.8-2.8,2.8-2.8v-7.4v-4c0-1.5,1.3-2.8,2.8-2.8l0,0c1.5,0,2.2,2.8,2.2,2.8v3.8v1.9
	c0,1.1,0.6,2.2,1.6,2.6c2.2,1,4.4-0.6,4.4-2.7v-4.6c0,0,1.4-2.8,2.9-2.8c1.5,0,2.1,2.8,2.1,2.8v5.6v8c0,1.5,1.2,2.8,2.8,2.8h0.4
	c1.5,0,2.8-1.2,2.8-2.8V74.9v-1.1c0,0,0,0,0,0v-0.4c0-1.5,1.2-2.8,2.8-2.8h0.5c1.5,0,2.8,1.2,2.8,2.8v0.4v1.1v0.1v8.2
	c0,1.3,0.8,2.4,2,2.8c2.1,0.6,4-0.8,4-2.6v-8.8V55.7v-1.4c0,1.8-1.9,3.3-4,2.6c-1.2-0.4-2-1.5-2-2.8v-7.3V41v0v-1.1
	c0-1.5-1.2-2.8-2.8-2.8h-0.4c-1.5,0-2.8,1.2-2.8,2.8v-0.1v0v10.6v19.9c0,1.5-1.2,2.8-2.8,2.8h-0.4c-1.5,0-2.8-1.2-2.8-2.8V50.8v-3.7
	v-0.3c0.7-1.5-0.5-2.8-2.1-2.8c-1.5,0-2.9,2.8-2.9,2.8v-0.3v2.6v9.6c0,1.1-0.6,2.2-1.6,2.6c-2.2,1-4.4-0.6-4.4-2.7v-9.2v-3.7V34.2
	c0.6-0.9,0.2-1.7-0.5-2.2c-0.5-0.4-1.1-0.6-1.7-0.6l0,0c-0.7,0-1.2,0.2-1.7,0.6c-0.6,0.5-1.1,2.2-1.1,2.2v12.1v3.1v19.9
	c0,1.3-0.8,2.4-2,2.8c-2.1,0.6-4-0.8-4-2.6V66.8z M920.4,62.6c1.5,0,2.8,1.2,2.8,2.8c0,1.5-1.2,2.8-2.8,2.8c-1.5,0-2.8-1.2-2.8-2.8
	C917.6,63.9,918.8,62.6,920.4,62.6z"/>
<path class="elementor-shape-fill" opacity="0.6" d="M780.8,87.9h0.3c1.4,0,2.6-1,3-2.3V70.8c0,0,0.1-0.5,0.1-0.7c0.3-1.2,1.4-2.1,2.7-2.1c1.5,0,2.8,1.2,2.8,2.8
	l-0.6,2.9v5c0,1.5,1.2,2.8,2.8,2.8h0.4c1.5,0,2.8-1.2,2.8-2.8v-5.2V41v-8.4V32v-1.3c0-1.5-1.2-2.8-2.8-2.8h-0.4
	c-1.5,0-2.8,1.2-2.8,2.8V32v9v20.5c0.7,1.5-0.6,2.8-2.1,2.8c-1.5,0-2.9-2.8-2.9-2.8v-2.7l0-0.4c0-1.5-1.2-2.6-2.7-2.6h-0.4
	c-1.5,0-2.8,1.2-2.9,2.8l0,0.2v9.3v16.9C778,86.7,779.2,87.9,780.8,87.9z"/>
<path class="elementor-shape-fill" opacity="0.6" d="M881.4,38.2c1.5,0,2.8-1.3,2.8-2.8v0c0-1.5-1.3-2.8-2.8-2.8c-1.5,0-2.8,1.3-2.8,2.8v0
	C878.6,37,879.9,38.2,881.4,38.2z"/>
<path class="elementor-shape-fill" opacity="0.6" d="M893,51.1c1.7,0,3,1.2,3,2.8v-1.6c0,0,0.6-2.8,2.1-2.8c1.5,0,2.9,2.9,2.9,2.9v3.5c0,0.1,0,0.2,0,0.4
	c0.2,1.5,1.3,2.4,3,2.4h0c1.7,0.1,2.8-1,3-2.4c0-0.1,0-0.2,0-0.4v-6.5v-8v-2.9c0-1.5-1.2-2.8-2.8-2.8h-0.5c0,0-2.8,0.9-2.7,2.5V41
	v2.7c-0.1,1.5-1.3,2.8-2.9,2.8c-1.5,0-2.1-2.8-2.1-2.8v-2.4v-2.8c0-1.5-1.2-2.8-2.8-2.8h-0.5c-1.5,0-2.8,1.2-2.8,2.8v2.8v12.6
	C890,52.4,891.3,51.1,893,51.1z"/>
<path class="elementor-shape-fill" opacity="0.6" d="M868.6,87.6c2.2,1,4.4-0.6,4.4-2.7v-6.8v-0.8c0.1,0.1,0.1,0.3,0.1,0.4c0.2-1.3,1.4-2.4,2.8-2.4
	c1.4,0,2.6,1,2.8,2.4c0-0.1-0.6-0.4-0.6-0.4v0.8v2.1c0,1.3,0.8,2.4,2,2.8c2.1,0.6,4-0.8,4-2.6V58.4V46.2v-1.1c0-1.3-0.8-2.4-2-2.8
	c-2.1-0.6-4,0.8-4,2.6v1.2v1.3v2.3v20c0.7,1.5-0.6,2.8-2.1,2.8c-1.5,0-2.9-2.8-2.9-2.8v-2.1c0-0.2,0-0.3,0-0.5
	c-0.2-1.4-1.5-2.5-3-2.5s-2.7,1.1-3,2.5c0,0.2,0,0.3,0,0.5v6.7V85C867,86.1,867.6,87.1,868.6,87.6z"/>
<path class="elementor-shape-fill" opacity="0.6" d="M870,63.8c1.5,0,3-0.9,3-3V50.2v-2.5V45v-4.3v-9.1V31v-0.8c0-1.1-0.6-2.2-1.6-2.6c-2.2-1-4.4,0.6-4.4,2.7V31
	v0.6v9.1v20.1C867,62.7,868.5,63.8,870,63.8z"/>
<path class="elementor-shape-fill" opacity="0.6" d="M825.8,91.1c1.5,0,2.2-2.8,2.2-2.8v-1.8v-2.9c0-1.1,0.6-2.2,1.6-2.6c2.2-1,4.4,0.6,4.4,2.7v2.1v6.3v3.3
	c0,1.1,0.6,2.2,1.6,2.6c2.2,1,4.4-0.6,4.4-2.7v-2.5V76.8v-0.3c0-1.1,0.6-2.2,1.6-2.6c2.2-1,4.4,0.6,4.4,2.7l0,0v7.3
	c0,0,0.5,2.8,2.1,2.8c1.5,0,2.9-2.8,2.9-2.8V64.6v-0.3c0,0.1,0,0.1,0,0.2c0.1-1.6,1.4-2.8,3-2.8l0,0c1.6,0,2.9,1.3,3,2.8
	c0-0.1,0-0.1,0-0.2v0.2v4.3c-0.6,1.5,0.7,2.8,2.2,2.8l0,0c1.5,0,2.8-1.2,2.8-2.8V41v-2.8c0-1.5-1.3-2.8-2.8-2.8l0,0
	c-1.5,0-2.2,2.8-2.2,2.8v2.4V46v4.3c0,1.5-1.2,2.8-2.8,2.8h-0.4c-1.5,0-2.8-1.2-2.8-2.8v-4.2v-5v-8.4c-0.1-0.2-0.2-0.4-0.2-0.6
	c-0.3-1.3-1.4-2.2-2.7-2.2c-1.3,0-2.4,0.9-2.7,2.2c0,0.2,0.6,0.6,0.6,0.6v7.9v9.5l0,0c0,2.1-2.2,3.7-4.4,2.7c-1-0.5-1.6-1.5-1.6-2.6
	v-4.7v-4.3v-3.6c0-1.1-0.6-2.2-1.6-2.6c-2.2-1-4.4,0.6-4.4,2.7v2.1V48v9.3v2.5v0.9v7.4v7.7c0,1.1-0.6,2.2-1.6,2.6
	c-2.2,1-4.4-0.6-4.4-2.7v-6.9v-20V41v-2.8c0.6-1.5-0.6-2.8-2.2-2.8c-1.5,0-2.8,1.2-2.8,2.8V41v27.7v6.7v12.9
	C823.1,89.8,824.3,91.1,825.8,91.1z M853.8,53.7h0.4c1.5,0,2.8,1.2,2.8,2.8v0.4c0,1.5-1.2,2.8-2.8,2.8h-0.4c-1.5,0-2.8-1.2-2.8-2.8
	v-0.4C851,55,852.2,53.7,853.8,53.7z M840,70.1v-2.4v-6.7v-0.8v-0.9v-1.5c0-1,0.5-2,1.3-2.5c2.3-1.5,4.7,0.4,4.7,2.6l0,0v12.3l0,0
	c0,2.1-2.2,3.7-4.4,2.7c-1-0.5-1.6-1.5-1.6-2.6V70.1z"/>
<path class="elementor-shape-fill" opacity="0.6" d="M722.4,53.8c1-0.5,1.6-1.5,1.6-2.6V40.8v-3.1c0-1.1-0.6-2.2-1.6-2.6c-2.2-1-4.4,0.6-4.4,2.7v3.1v10.3
	C718,53.2,720.2,54.8,722.4,53.8z"/>
<path class="elementor-shape-fill" opacity="0.6" d="M709,48.7L709,48.7c1.4,0,2.6-0.9,2.9-2.2c0-0.2,0.1-0.4,0.1-0.6v-5v-8.5v-0.6v-3.4c0-1.5-1.2-2.8-2.8-2.8
	h-0.5c-1.5,0-2.8,1.2-2.8,2.8v3.4v0.6V41v5c0,0.2,0,0.4,0.1,0.6C706.4,47.8,707.6,48.7,709,48.7z"/>
<path class="elementor-shape-fill" opacity="0.6" d="M697.5,44.2c0.2,0,0.3,0,0.5,0l0,0c0.2,0,0.3,0,0.5,0c1.4,0.2,2.5,1.5,2.5,3v-5.9v-8.2c0-0.6-0.2-1.1-0.4-1.5
	c-0.5-0.9-1.5-1.5-2.6-1.5l0,0c-1.1,0-2.1,0.6-2.6,1.5c-0.3,0.5-0.4,1-0.4,1.5v8.2v5.9C695,45.7,696.1,44.4,697.5,44.2z"/>
<path class="elementor-shape-fill" opacity="0.6" d="M710.4,80.3c1-0.5,1.6-1.5,1.6-2.6V59.9v-3.1v-1.3c0-1.1-0.6-2.2-1.6-2.6c-2.2-1-4.4,0.6-4.4,2.7v1.3v12.5
	v8.4C706,79.7,708.2,81.3,710.4,80.3z"/>
<path class="elementor-shape-fill" opacity="0.6" d="M709.4,86.8c1.5,0,2.8-1.2,2.8-2.8c0-1.5-1.2-2.8-2.8-2.8c-1.5,0-2.8,1.2-2.8,2.8
	C706.6,85.5,707.9,86.8,709.4,86.8z"/>
<path class="elementor-shape-fill" opacity="0.6" d="M744.4,30.1c1-0.5,1.6-1.5,1.6-2.6V26v-2v-6.5c0-1.1-0.6-2.2-1.6-2.6c-2.2-1-4.4,0.6-4.4,2.7v6.4v2.5v1.1
	C740,29.6,742.2,31.2,744.4,30.1z"/>
<path class="elementor-shape-fill" opacity="0.6" d="M692.7,88.7c-1.5,0-2.8,1.2-2.8,2.8c0,1.5,1.2,2.8,2.8,2.8c1.5,0,2.8-1.2,2.8-2.8
	C695.5,90,694.3,88.7,692.7,88.7z"/>
<ellipse class="elementor-shape-fill" transform="matrix(0.9571 -0.2898 0.2898 0.9571 1.874 186.7487)" opacity="0.6" cx="631.5" cy="87" rx="2.8" ry="2.8"/>
<path class="elementor-shape-fill" opacity="0.6" d="M514.8,88.7c-1.5,0-2.8,1.2-2.8,2.8c0,1.5,1.2,2.8,2.8,2.8c1.5,0,2.8-1.2,2.8-2.8
	C517.6,90,516.3,88.7,514.8,88.7z"/>
<path class="elementor-shape-fill" opacity="0.6" d="M718.9,32c0.5,0.3,1,0.5,1.6,0.5s1.2-0.2,1.6-0.5c0.7-0.5,1.1-1.3,1.1-2.2c0-1.5-1.2-2.8-2.8-2.8
	c-1.5,0-2.8,1.2-2.8,2.8C717.7,30.7,718.2,31.5,718.9,32z"/>
<path class="elementor-shape-fill" opacity="0.6" d="M732,63.8L732,63.8c1.6,0,2.9-1.1,3-2.6c0,0,0-0.1,0-0.1V61v-1.5c0-1.5,1.2-2.8,2.8-2.8h-0.5
	c1.5,0,2.8,1.2,2.8,2.8V61v4c0,0.1,0,0.2,0,0.3c0.2-1.3,1.4-2.3,3-2.3c1.5,0,2.8,1,3,2.3c0-0.1,0-0.2,0-0.3V44.9v-3.3V41
	c0-1.3-0.8-2.5-2-2.8c-2.1-0.6-4,0.8-4,2.5v0.9v2.9v0V50c0,1.5-1.2,2.8-2.8,2.8h0.5c-1.5,0-2.8-1.2-2.8-2.8v-5.5v-2.9v-8.1V33v-1.2
	c0-1.5-1.2-2.8-2.8-2.8h-0.4c-1.5,0-2.8,1.2-2.8,2.8V33v0.6v8.1v19.6c0,0,0,0.1,0,0.1C729.1,62.7,730.4,63.8,732,63.8z"/>
<path class="elementor-shape-fill" opacity="0.6" d="M687.2,36.1L687.2,36.1c1,0,1.9-0.6,2.4-1.4c0.2-0.4,0.4-0.9,0.4-1.4c0-0.5-0.1-0.9-0.3-1.3
	c-0.5-0.9-1.4-1.5-2.5-1.5l0,0c-1.1,0-2,0.6-2.5,1.5c-0.2,0.4-0.3,0.8-0.3,1.3c0,0.5,0.1,1,0.4,1.4
	C685.2,35.5,686.1,36.1,687.2,36.1z"/>
<path class="elementor-shape-fill" opacity="0.6" d="M731.8,95.7h0.5c1.5,0,2.8-1.2,2.8-2.8V81v-8.9v-1.6c0-1.5-1.2-2.8-2.8-2.8h-0.5c-1.5,0-2.8,1.2-2.8,2.8v1.6
	v1.6V93C729,94.5,730.2,95.7,731.8,95.7z"/>
<path class="elementor-shape-fill" opacity="0.6" d="M530.8,52.3h0.4c1.5,0,2.8-1.2,2.8-2.8v-2.3v-5.6c0-0.2,0-0.3,0-0.5c-0.2-1.4-1.5-2.5-3-2.5l0,0
	c-1.5,0-2.7,1.1-3,2.5c0,0.2,0,0.3,0,0.5v5.6v2.3C528,51.1,529.2,52.3,530.8,52.3z"/>
<path class="elementor-shape-fill" opacity="0.6" d="M554,63.8c1.6,0,2.9-1.1,3-2.6c0,0,0-0.1,0-0.1V61v-1.5c0-1.5,1.2-2.8,2.8-2.8h-0.5c1.5,0,2.8,1.2,2.8,2.8V61
	v11.8c0,0,0,0.1,0,0.1c0.1-1.4,1.4-2.6,3-2.6s2.9,1.1,3,2.6c0,0,0-0.1,0-0.1V41.6v-2.5c0-1.3-0.8-2.4-2-2.8c-2.1-0.6-4,0.8-4,2.5
	v2.7v2.9V50c0,1.5-1.2,2.8-2.8,2.8h0.5c-1.5,0-2.8-1.2-2.8-2.8v-5.5v-2.9v-8.1V33v-1.1c0-1.3-0.8-2.5-2-2.8c-2.1-0.6-4,0.8-4,2.5V33
	v0.6v8.1v19.6c0,0,0,0.1,0,0.1C551.1,62.7,552.4,63.8,554,63.8z"/>
<path class="elementor-shape-fill" opacity="0.6" d="M553.8,95.7h0.5c1.5,0,2.8-1.2,2.8-2.8V81v-8.9v-1.6c0-1.5-1.2-2.8-2.8-2.8h-0.5c-1.5,0-2.8,1.2-2.8,2.8v1.6
	v1.6V93C551,94.5,552.2,95.7,553.8,95.7z"/>
<path class="elementor-shape-fill" opacity="0.6" d="M542.6,24.7L542.6,24.7c1.2,0,2.2-0.8,2.6-1.8c0.1-0.3,0.2-0.6,0.2-1c0-1.5-1.2-2.8-2.8-2.8l0,0
	c-1.5,0-2.8,1.2-2.8,2.8c0,0.3,0.1,0.7,0.2,1C540.4,23.9,541.4,24.7,542.6,24.7z"/>
<path class="elementor-shape-fill" opacity="0.6" d="M502.6,78.7c2.2,1,4.4-0.6,4.4-2.7v-3v-0.2c-0.5-1.5,0.7-2.6,2.2-2.6h0c1.5,0,2.8,2.8,2.8,2.8v5.1v0v4.9
	c0,1.5,1.2,2.8,2.8,2.8c1.5,0,2.2-2.8,2.2-2.8V65.8v-3.2c0-1.3,0.8-2.4,2-2.8c2.1-0.6,4,0.8,4,2.6V41v-8.4V32v-8.2v-8.3
	c0-1.3-0.8-2.4-2-2.8c-2.1-0.6-4,0.8-4,2.6v8.5V32v0.6V41v5.5V54c0.6,1.5-0.7,2.8-2.2,2.8c-1.5,0-2.8-2.8-2.8-2.8v0v-7.5v0V41v0
	v-2.8v0c0-1.5-1.3-2.8-2.8-2.8c-1.5,0-2.2,2.8-2.2,2.8v2v0v20c-0.1,1.6-1.4,2.8-3,2.8c-1.7,0-3-1.3-3-3v16
	C501,77.2,501.6,78.2,502.6,78.7z"/>
<path class="elementor-shape-fill" opacity="0.6" d="M656,66.8v-2.3c0-1.5-1.2-2.8-2.8-2.8h0.5c-1.5,0-2.8,1.2-2.8,2.8v2.3v5.3c0,1.3-0.8,2.4-2,2.8
	c-2.1,0.6-4-0.8-4-2.6v4.4v4.9c0,1.3,0.8,2.4,2,2.8c2.1,0.6,4-0.8,4-2.6v-6.3c0,0,1.3-2.8,2.8-2.8c1.5,0,2.2,2.8,2.2,2.8v5.4v7.5
	c0,1.1,0.6,2.2,1.6,2.6c2.2,1,4.4-0.6,4.4-2.7v-7.5v-4c0.1-1.5,1.4-2.8,2.9-2.8l0,0c1.5,0,2.1,2.8,2.1,2.8v3.8v1.9
	c0,1.1,0.6,2.2,1.6,2.6c2.2,1,4.4-0.6,4.4-2.7v-4.5c0-1.1,0.6-2.2,1.6-2.6c2.2-1,4.4,0.6,4.4,2.7v5.5v8c0,1.5,1.2,2.8,2.8,2.8h0.4
	c1.5,0,2.8-1.2,2.8-2.8V74.9v-1.1c0,0,0,0,0,0v-0.4c0-1.5,1.2-2.8,2.8-2.8h-0.5c1.5,0,2.8,1.2,2.8,2.8v0.4v1.1v0.1v8.2
	c0,1.3,0.8,2.4,2,2.8c2.1,0.6,4-0.8,4-2.6v-8.8V55.7v-1.4c0,1.8-1.9,3.3-4,2.6c-1.2-0.4-2-1.5-2-2.8v-7.7V41v0v-0.8
	c-0.1-1.5-1.3-2.8-2.8-2.8l0,0c-1.5,0-2.2,2.8-2.2,2.8v-0.4v0v10.6v19.9c0,1.5-1.2,2.8-2.8,2.8h-0.4c-1.5,0-2.8-1.2-2.8-2.8V51.1v-4
	v-0.3c0-1.1-0.6-2.2-1.6-2.6c-2.2-1-4.4,0.6-4.4,2.7v-0.2v2.6v9.6c0,1.1-0.6,2.2-1.6,2.6c-2.2,1-4.4-0.6-4.4-2.7v-9.2v-3.7V34.2
	c0.7-0.9,0.3-1.7-0.4-2.2c-0.5-0.4-1.1-0.6-1.7-0.6l0,0c-0.7,0-1.2,0.2-1.7,0.6c-0.6,0.5-1.2,2.2-1.2,2.2v12.1v3.1v19.9
	c0,1.3-0.8,2.4-2,2.8c-2.1,0.6-4-0.8-4-2.6V66.8z M670.5,62.6c1.5,0,2.8,1.2,2.8,2.8c0,1.5-1.2,2.8-2.8,2.8c-1.5,0-2.8-1.2-2.8-2.8
	C667.7,63.9,668.9,62.6,670.5,62.6z"/>
<path class="elementor-shape-fill" opacity="0.6" d="M530.8,87.9h0.3c1.4,0,2.6-1,3-2.3V70.8c0-0.2,0-0.5,0.1-0.7c0.3-1.3,1.5-2.2,2.9-2.2c1.6,0,3,1.3,3,3
	c0,0,0.1,3.3,0.1,3.1v4.8c0,1.5,1.3,2.8,3,2.8l0,0c1.7,0,3-1.2,3-2.8v-5.2V41v-8.4V32v-1.3c0-1.5-1.3-2.8-3-2.8l0,0
	c-1.7,0-3,1.2-3,2.8v0.1v9.7v22.2c0,1.1-0.6,2.2-1.6,2.6c-2.2,1-4.4-0.6-4.4-2.7v-3.7l0-0.3c0-1.5-1.2-2.7-2.7-2.7h-0.4
	c-1.5,0-2.8,1.2-2.8,2.8l0,0.2v9.3v16.9C528,86.7,529.2,87.9,530.8,87.9z"/>
<path class="elementor-shape-fill" opacity="0.6" d="M631.5,38.2c1.5,0,2.8-1.3,2.8-2.8v0c0-1.5-1.3-2.8-2.8-2.8c-1.5,0-2.8,1.3-2.8,2.8v0
	C628.7,37,630,38.2,631.5,38.2z"/>
<path class="elementor-shape-fill" opacity="0.6" d="M643,51.1c1.7,0,3,1.2,3,2.8v-1.6c0,0,0.7-2.8,2.2-2.8c1.5,0,2.8,2.9,2.8,2.9v3.5c0,0.1,0,0.2,0,0.4
	c0.2,1.5,1.3,2.4,3,2.4h0c1.7,0.1,2.8-1,3-2.4c0-0.1,0-0.2,0-0.4v-6.5v-8v-2.9c0-1.5-1.2-2.8-2.8-2.8h-0.4c0,0-2.8,0.9-2.8,2.5V41
	v2.7c0,1.5-1.2,2.8-2.8,2.8c-1.5,0-2.2-2.8-2.2-2.8v-2.4v-2.8c0-1.5-1.2-2.8-2.8-2.8h-0.5c-1.5,0-2.8,1.2-2.8,2.8v2.8v12.6
	C640,52.4,641.3,51.1,643,51.1z"/>
<path class="elementor-shape-fill" opacity="0.6" d="M618.6,87.6c2.2,1,4.4-0.6,4.4-2.7v-6.7v-0.9c0,0.1,0,0.3,0,0.4c0.2-1.5,1.5-2.6,3-2.6c1.5,0,2.8,1.1,3,2.6
	c0-0.1,0-0.3,0-0.4v0.8v2.1c0,1.3,0.8,2.4,2,2.8c2.1,0.6,4-0.8,4-2.6V58.4V46.2v-1.1c0-1.3-0.8-2.4-2-2.8c-2.1-0.6-4,0.8-4,2.6v0.2
	v1.4v2.5v21.6c0,1.1-0.6,2.2-1.6,2.6c-2.2,1-4.4-0.6-4.4-2.7v-3c0-0.2,0-0.3,0-0.5c-0.2-1.4-1.5-2.5-3-2.5s-2.7,1.1-3,2.5
	c0,0.2,0,0.3,0,0.5v6.7V85C617,86.1,617.6,87.1,618.6,87.6z"/>
<path class="elementor-shape-fill" opacity="0.6" d="M620,63.8c1.5,0,3-0.9,3-3V50.2v-2.5V45v-4.3v-9.1V31v-0.8c0-1.1-0.6-2.2-1.6-2.6c-2.2-1-4.4,0.6-4.4,2.7V31
	v0.6v9.1v20.1C617,62.7,618.5,63.8,620,63.8z"/>
<path class="elementor-shape-fill" opacity="0.6" d="M575,90.9c2.1,0.6,4-0.8,4-2.6v-1.8v-2.9c0-1.1,0.6-2.2,1.6-2.6c2.2-1,4.4,0.6,4.4,2.7v2.6v5.9v3
	c-0.7,1.5,0.5,2.8,2.1,2.8c1.5,0,2.9-2.8,2.9-2.8v-2.3V76.8v-0.3c0-1.1,0.6-2.2,1.6-2.6c2.2-1,4.4,0.6,4.4,2.7l0,0v7.3
	c0,0,0.6,2.8,2.2,2.8c1.5,0,2.8-2.8,2.8-2.8V64.4v-0.3c0,0.1,0,0.1,0,0.2c0.1-1.5,1.3-2.6,2.8-2.6l0,0c1.5,0,2.7,1.2,2.8,2.6
	c0-0.1-0.5-0.2-0.5-0.2v1.2v4.9c0,1.5,1.2,2.8,2.8,2.8h0.4c1.5,0,2.8-1.2,2.8-2.8V40.1v-3.3c0-1.5-1.2-2.8-2.8-2.8h-0.4
	c-1.5,0-2.8,1.2-2.8,2.8V41v5v3.8c0.5,1.5-0.7,2.8-2.3,2.8l0,0c-1.5,0-2.7-2.8-2.7-2.8v-3.8v-5v-8.4c0-0.2-0.1-0.4-0.1-0.6
	c-0.3-1.3-1.4-2.2-2.7-2.2s-2.4,0.9-2.7,2.2c0,0.2,0.5,0.6,0.5,0.6v7.9v9.5l0,0c0,2.1-2.2,3.7-4.4,2.7c-1-0.5-1.6-1.5-1.6-2.6V45v-4
	v-3.3c-0.2-1.5-1.4-2.8-2.9-2.8c-1.5,0-2.1,2.8-2.1,2.8v1.9V48v9.3v2.5v0.9v7.4v7.7c0,1.1-0.6,2.2-1.6,2.6c-2.2,1-4.4-0.6-4.4-2.7
	v-6.9v-20V41v-2.7c0-1.3-0.8-2.4-2-2.8c-2.1-0.6-4,0.8-4,2.6V41v27.7v6.7v12.7C573,89.4,573.8,90.6,575,90.9z M603.8,53.7h0.4
	c1.5,0,2.8,1.2,2.8,2.8v0.4c0,1.5-1.2,2.8-2.8,2.8h-0.4c-1.5,0-2.8-1.2-2.8-2.8v-0.4C601,55,602.2,53.7,603.8,53.7z M590,70.1v-2.4
	v-6.7v-0.8v-0.9v-1.5c0-1,0.5-2,1.3-2.5c2.3-1.5,4.7,0.4,4.7,2.6l0,0v12.3l0,0c0,2.1-2.2,3.7-4.4,2.7c-1-0.5-1.6-1.5-1.6-2.6V70.1z"
	/>
<path class="elementor-shape-fill" opacity="0.6" d="M472.4,53.8c1-0.5,1.6-1.5,1.6-2.6V40.8v-3.1c0-1.1-0.6-2.2-1.6-2.6c-2.2-1-4.4,0.6-4.4,2.7v3.1v10.3
	C468,53.2,470.2,54.8,472.4,53.8z"/>
<path class="elementor-shape-fill" opacity="0.6" d="M460,48.7L460,48.7c1.4,0,2.6-0.9,2.9-2.2c0-0.2,0.1-0.4,0.1-0.6v-5v-8.5v-0.6v-3.4c0-1.5-1.2-2.8-2.8-2.8
	h-0.5c-1.5,0-2.8,1.2-2.8,2.8v3.4v0.6V41v5c0,0.2,0,0.4,0.1,0.6C457.4,47.8,458.6,48.7,460,48.7z"/>
<path class="elementor-shape-fill" opacity="0.6" d="M447.5,44.2c0.2,0,0.3,0,0.5,0l0,0c0.2,0,0.3,0,0.5,0c1.4,0.2,2.5,1.5,2.5,3v-5.9v-8.2c0-0.6-0.2-1.1-0.4-1.5
	c-0.5-0.9-1.5-1.5-2.6-1.5l0,0c-1.1,0-2.1,0.6-2.6,1.5c-0.3,0.5-0.4,1-0.4,1.5v8.2v5.9C445,45.7,446.1,44.4,447.5,44.2z"/>
<path class="elementor-shape-fill" opacity="0.6" d="M461.4,80.3c1-0.5,1.6-1.5,1.6-2.6V59.9v-3.1v-1.3c0-1.1-0.6-2.2-1.6-2.6c-2.2-1-4.4,0.6-4.4,2.7v1.3v12.5
	v8.4C457,79.7,459.2,81.3,461.4,80.3z"/>
<path class="elementor-shape-fill" opacity="0.6" d="M459.5,86.8c1.5,0,2.8-1.2,2.8-2.8c0-1.5-1.2-2.8-2.8-2.8s-2.8,1.2-2.8,2.8C456.7,85.5,458,86.8,459.5,86.8z"
	/>
<path class="elementor-shape-fill" opacity="0.6" d="M494.4,30.1c1-0.5,1.6-1.5,1.6-2.6V26v-2v-6.5c0-1.1-0.6-2.2-1.6-2.6c-2.2-1-4.4,0.6-4.4,2.7v6.4v2.5v1.1
	C490,29.6,492.2,31.2,494.4,30.1z"/>
<path class="elementor-shape-fill" opacity="0.6" d="M442.8,88.7c-1.5,0-2.8,1.2-2.8,2.8c0,1.5,1.2,2.8,2.8,2.8c1.5,0,2.8-1.2,2.8-2.8
	C445.6,90,444.4,88.7,442.8,88.7z"/>
<path class="elementor-shape-fill" opacity="0.6" d="M381.7,84.3c-1.5,0-2.8,1.2-2.8,2.8c0,1.5,1.2,2.8,2.8,2.8c1.5,0,2.8-1.2,2.8-2.8
	C384.4,85.5,383.2,84.3,381.7,84.3z"/>
<path class="elementor-shape-fill" opacity="0.6" d="M264.9,88.7c-1.5,0-2.8,1.2-2.8,2.8c0,1.5,1.2,2.8,2.8,2.8c1.5,0,2.8-1.2,2.8-2.8
	C267.7,90,266.4,88.7,264.9,88.7z"/>
<path class="elementor-shape-fill" opacity="0.6" d="M469,32c0.5,0.3,1,0.5,1.6,0.5c0.6,0,1.2-0.2,1.6-0.5c0.7-0.5,1.1-1.3,1.1-2.2c0-1.5-1.2-2.8-2.8-2.8
	c-1.5,0-2.8,1.2-2.8,2.8C467.8,30.7,468.3,31.5,469,32z"/>
<path class="elementor-shape-fill" opacity="0.6" d="M482,63.8L482,63.8c1.6,0,2.9-1.1,3-2.6c0,0,0-0.1,0-0.1V61v-1.5c0-1.5,1.2-2.8,2.8-2.8h-0.5
	c1.5,0,2.8,1.2,2.8,2.8V61v4c0,0.1,0,0.2,0,0.3c0.2-1.3,1.4-2.3,3-2.3c1.5,0,2.8,1,3,2.3c0-0.1,0-0.2,0-0.3V44.9v-3.3V41
	c0-1.3-0.8-2.5-2-2.8c-2.1-0.6-4,0.8-4,2.5v0.9v2.9v0V50c0,1.5-1.2,2.8-2.8,2.8h0.5c-1.5,0-2.8-1.2-2.8-2.8v-5.5v-2.9v-8.1V33v-1.2
	c0-1.5-1.2-2.8-2.8-2.8h-0.4c-1.5,0-2.8,1.2-2.8,2.8V33v0.6v8.1v19.6c0,0,0,0.1,0,0.1C479.1,62.7,480.4,63.8,482,63.8z"/>
<path class="elementor-shape-fill" opacity="0.6" d="M437.3,36.1L437.3,36.1c1,0,1.9-0.6,2.4-1.4c0.2-0.4,0.4-0.9,0.4-1.4c0-0.5-0.1-0.9-0.3-1.3
	c-0.5-0.9-1.4-1.5-2.5-1.5l0,0c-1.1,0-2,0.6-2.5,1.5c-0.2,0.4-0.3,0.8-0.3,1.3c0,0.5,0.1,1,0.4,1.4
	C435.3,35.5,436.2,36.1,437.3,36.1z"/>
<path class="elementor-shape-fill" opacity="0.6" d="M481.8,95.7h0.5c1.5,0,2.8-1.2,2.8-2.8V81v-8.9v-1.6c0-1.5-1.2-2.8-2.8-2.8h-0.5c-1.5,0-2.8,1.2-2.8,2.8v1.6
	v1.6V93C479,94.5,480.2,95.7,481.8,95.7z"/>
<path class="elementor-shape-fill" opacity="0.6" d="M281.8,52.3h0.4c1.5,0,2.8-1.2,2.8-2.8v-2.3v-5.6c0-0.2,0-0.3,0-0.5c-0.2-1.4-1.5-2.5-3-2.5h0
	c-1.5,0-2.7,1.1-3,2.5c0,0.2,0,0.3,0,0.5v5.6v2.3C279,51.1,280.2,52.3,281.8,52.3z"/>
<path class="elementor-shape-fill" opacity="0.6" d="M304,63.8c1.6,0,2.9-1.1,3-2.6c0,0,0-0.1,0-0.1V61v-1.5c0-1.5,1.2-2.8,2.8-2.8h-0.5c1.5,0,2.8,1.2,2.8,2.8V61
	v11.8c0,0,0,0.1,0,0.1c0.1-1.4,1.4-2.6,3-2.6s2.9,1.1,3,2.6c0,0,0-0.1,0-0.1V41.6v-2.5c0-1.3-0.8-2.4-2-2.8c-2.1-0.6-4,0.8-4,2.5
	v2.7v2.9V50c0,1.5-1.2,2.8-2.8,2.8h0.5c-1.5,0-2.8-1.2-2.8-2.8v-5.5v-2.9v-8.1V33v-1.1c0-1.3-0.8-2.5-2-2.8c-2.1-0.6-4,0.8-4,2.5V33
	v0.6v8.1v19.6c0,0,0,0.1,0,0.1C301.1,62.7,302.4,63.8,304,63.8z"/>
<path class="elementor-shape-fill" opacity="0.6" d="M303.8,95.7h0.5c1.5,0,2.8-1.2,2.8-2.8V81v-8.9v-1.6c0-1.5-1.2-2.8-2.8-2.8h-0.5c-1.5,0-2.8,1.2-2.8,2.8v1.6
	v1.6V93C301,94.5,302.2,95.7,303.8,95.7z"/>
<path class="elementor-shape-fill" opacity="0.6" d="M292.7,24.7L292.7,24.7c1.2,0,2.2-0.8,2.6-1.8c0.1-0.3,0.2-0.6,0.2-1c0-1.5-1.2-2.8-2.8-2.8l0,0
	c-1.5,0-2.8,1.2-2.8,2.8c0,0.3,0.1,0.7,0.2,1C290.5,23.9,291.5,24.7,292.7,24.7z"/>
<path class="elementor-shape-fill" opacity="0.6" d="M253.8,78.9c1.5,0,2.2-2.8,2.2-2.8v-3V73c0.1-1.6,1.4-2.8,3-2.8h0.2c1.5,0,2.8,1.2,2.8,2.8v5.3v0v4.9
	c0.1,1.5,1.3,2.8,2.9,2.8c1.5,0,2.1-2.8,2.1-2.8V65.8v-3.2c0-1.3,0.8-2.4,2-2.8c2.1-0.6,4,0.8,4,2.6V41v-8.4V32v-8.2v-8.3
	c0-1.3-0.8-2.4-2-2.8c-2.1-0.6-4,0.8-4,2.6v8.5V32v0.6V41v5.5V54c0.7,1.5-0.6,2.8-2.1,2.8c-1.5,0-2.9-2.8-2.9-2.8v0.7v-8.1v0v-5.9v0
	v-3.1v-0.1c0-1.1-0.6-2-1.5-2.5c-2.3-1.1-4.5,0.5-4.5,2.6V41v0v18.6c0.5,1.5-0.8,2.6-2.2,2.6c-1.5,0-2.8-2.8-2.8-2.8v16.7
	C251,76.1,252.2,78.9,253.8,78.9z"/>
<path class="elementor-shape-fill" opacity="0.6" d="M406,66.8v-2.3c0-1.5-1.2-2.8-2.8-2.8h0.5c-1.5,0-2.8,1.2-2.8,2.8v2.3v5.3c0,1.3-0.8,2.4-2,2.8
	c-2.1,0.6-4-0.8-4-2.6v4.4v4.9c0,1.3,0.8,2.4,2,2.8c2.1,0.6,4-0.8,4-2.6v-6.3c0,0,1.4-2.8,2.9-2.8s2.1,2.8,2.1,2.8v5.4v7.5
	c0,1.1,0.6,2.2,1.6,2.6c2.2,1,4.4-0.6,4.4-2.7V81v-4.3c0-1.7,1.3-3,3-3l0,0c1.7,0,3,1.3,3,3v3.9v1.9c0,1.1,0.6,2.2,1.6,2.6
	c2.2,1,4.4-0.6,4.4-2.7v-4.6c0,0,0.6-2.8,2.1-2.8s2.9,2.8,2.9,2.8v5.6v8c0,1.5,1.2,2.8,2.8,2.8h0.4c1.5,0,2.8-1.2,2.8-2.8V74.9v-1.1
	c0,0,0,0,0,0v-0.4c0-1.5,1.2-2.8,2.8-2.8h-0.5c1.5,0,2.8,1.2,2.8,2.8v0.4v1.1v0.1v8.2c0,1.3,0.8,2.4,2,2.8c2.1,0.6,4-0.8,4-2.6v-8.8
	V55.7v-1.4c0,1.8-1.9,3.3-4,2.6c-1.2-0.4-2-1.5-2-2.8v-7.7V41v0v-0.8c0-1.5-1.2-2.8-2.7-2.8l0,0c-1.5,0-2.3,2.8-2.3,2.8v-0.4v0v10.6
	v19.9c0,1.5-1.2,2.8-2.8,2.8h-0.4c-1.5,0-2.8-1.2-2.8-2.8V50.8v-3.7v-0.3c-0.1-1.5-1.3-2.8-2.9-2.8s-2.1,2.8-2.1,2.8v-0.3v2.6v9.6
	c0,1.1-0.6,2.2-1.6,2.6c-2.2,1-4.4-0.6-4.4-2.7v-8.5v-4V33.7c0-1-0.4-1.8-1.1-2.4c-0.5-0.4-1.2-0.6-1.9-0.6l0,0
	c-0.7,0-1.3,0.2-1.9,0.6c-0.7,0.5-1.1,1.4-1.1,2.4v12.6v3.1v19.9c0,1.3-0.8,2.4-2,2.8c-2.1,0.6-4-0.8-4-2.6V66.8z M420.6,62.6
	c1.5,0,2.8,1.2,2.8,2.8c0,1.5-1.2,2.8-2.8,2.8s-2.8-1.2-2.8-2.8C417.8,63.9,419,62.6,420.6,62.6z"/>
<path class="elementor-shape-fill" opacity="0.6" d="M281.5,86.3L281.5,86.3c1.2,0,2.2-0.8,2.5-1.9V70.8c0-0.2,0-0.5,0.1-0.7c0.3-1.3,1.5-2.2,2.9-2.2
	c1.6,0,3,1.3,3,3c0,0,0.1,3.3,0.1,3.1v4.8c0,1.5,1.3,2.8,3,2.8l0,0c1.7,0,3-1.2,3-2.8v-5.2V41v-8.4V32v-1.3c0-1.5-1.3-2.8-3-2.8l0,0
	c-1.7,0-3,1.2-3,2.8V32v9v20.5c-0.1,1.5-1.3,2.8-2.9,2.8c-1.5,0-2.1-2.8-2.1-2.8v-2.7l0-0.3c0-1.5-1.2-2.7-2.7-2.7h-0.4
	c-1.5,0-2.8,1.2-2.8,2.8l0,0.2v10.9v13.9C279,85.1,280.1,86.3,281.5,86.3z"/>
<path class="elementor-shape-fill" opacity="0.6" d="M381.6,38.2c1.5,0,2.8-1.3,2.8-2.8v0c0-1.5-1.3-2.8-2.8-2.8c-1.5,0-2.8,1.3-2.8,2.8v0
	C378.8,37,380.1,38.2,381.6,38.2z"/>
<path class="elementor-shape-fill" opacity="0.6" d="M392.8,50.8c1.5,0,2.2,2.8,2.2,2.8v-1.2c0-1,0.5-2,1.3-2.5c2.3-1.4,4.7,0.4,4.7,2.6v3.4c0,0.1,0,0.2,0,0.4
	c0.2,1.5,1.3,2.4,3,2.4h0c1.7,0.1,2.8-1,3-2.4c0-0.1,0-0.2,0-0.4v-6.5v-8v-2.9c0-1.5-1.2-2.8-2.8-2.8h-0.5c-1.5,0-2.8,1.2-2.8,2.8
	v2.8v2.5c0,1.3-0.8,2.4-2,2.8c-2.1,0.6-4-0.8-4-2.6v-3v-2.8c0.6-1.5-0.7-2.8-2.2-2.5h0c-1.5-0.3-2.8,0.9-2.8,2.5V41v12.6
	C390,52.1,391.2,50.8,392.8,50.8z"/>
<path class="elementor-shape-fill" opacity="0.6" d="M369.6,87.6c2.2,1,4.4-0.6,4.4-2.7v-6.8v-0.8c-0.7,0.1-0.7,0.3-0.7,0.4c0.2-1.3,1.4-2.4,2.8-2.4
	c1.4,0,2.6,1,2.8,2.4c0-0.1,0.2-0.4,0.2-0.4v0.8v2.1c0,1.3,0.8,2.4,2,2.8c2.1,0.6,4-0.8,4-2.6V58.4V46.2v-1.1c0-1.3-0.8-2.4-2-2.8
	c-2.1-0.6-4,0.8-4,2.6v1.2v1.3v2.3v20c-0.1,1.5-1.4,2.8-2.9,2.8c-1.5,0-2.1-2.8-2.1-2.8v-2.1c0-0.2,0-0.3,0-0.5
	c-0.2-1.4-1.5-2.5-3-2.5s-2.7,1.1-3,2.5c0,0.2,0,0.3,0,0.5v6.7V85C368,86.1,368.6,87.1,369.6,87.6z"/>
<path class="elementor-shape-fill" opacity="0.6" d="M371,63.8c1.5,0,3-0.9,3-3V50.2v-2.5V45v-4.3v-9.1V31v-0.8c0-1.1-0.6-2.2-1.6-2.6c-2.2-1-4.4,0.6-4.4,2.7V31
	v0.6v9.1v20.1C368,62.7,369.5,63.8,371,63.8z"/>
<path class="elementor-shape-fill" opacity="0.6" d="M325,90.9c2.1,0.6,4-0.8,4-2.6v-1.8v-2.9c0-1.1,0.6-2.2,1.6-2.6c2.2-1,4.4,0.6,4.4,2.7v2.6v5.9v3
	c-0.6,1.5,0.6,2.8,2.2,2.8c1.5,0,2.8-2.8,2.8-2.8v-3v-15V77c-0.1-1.5,1.2-2.8,2.7-2.8c1.5,0,2.8,1.2,2.8,2.8l-0.5,0v6.8
	c0,1.1,0.6,2.2,1.6,2.6c2.2,1,4.4-0.6,4.4-2.7V64.4v-0.3c0.1,0.1,0.1,0.1,0.1,0.2c0.1-1.5,1.3-2.6,2.8-2.6l0,0
	c1.5,0,2.7,1.2,2.8,2.6c0-0.1-0.6-0.2-0.6-0.2v1.2v4.9c0,1.5,1.2,2.8,2.8,2.8h0.4c1.5,0,2.8-1.2,2.8-2.8V40.1v-3.3
	c0-1.5-1.2-2.8-2.8-2.8h-0.4c-1.5,0-2.8,1.2-2.8,2.8V41v5v3.8c0.6,1.5-0.6,2.8-2.2,2.8l0,0c-1.5,0-2.8-2.8-2.8-2.8v-3.1v-5.4v-9.1
	c0-0.2,0-0.4-0.1-0.6c-0.3-1.3-1.5-2.4-2.9-2.4c-1.4,0-2.6,1-2.9,2.4c0,0.2-0.1,0.4-0.1,0.6V41v8.8l0.5,0c0,1.5-1.2,2.8-2.8,2.8
	c-1.5,0-2.7-2.8-2.7-2.8V45v-4v-3.3c-0.1-1.5-1.3-2.8-2.8-2.8c-1.5,0-2.2,2.8-2.2,2.8v1.9V48v9.3v2.5v0.9v7.4v7.7
	c0,1.1-0.6,2.2-1.6,2.6c-2.2,1-4.4-0.6-4.4-2.7v-6.9v-20V41v-2.7c0-1.3-0.8-2.4-2-2.8c-2.1-0.6-4,0.8-4,2.6V41v27.7v6.7v12.7
	C323,89.4,323.8,90.6,325,90.9z M353.8,53.7h0.4c1.5,0,2.8,1.2,2.8,2.8v0.4c0,1.5-1.2,2.8-2.8,2.8h-0.4c-1.5,0-2.8-1.2-2.8-2.8v-0.4
	C351,55,352.2,53.7,353.8,53.7z M340,70.1v-2.4v-6.7v-0.8v-0.9v-1.5c0-1,0.5-2,1.3-2.5c2.3-1.5,4.7,0.4,4.7,2.6l0,0v12.3l0,0
	c0,2.1-2.2,3.7-4.4,2.7c-1-0.5-1.6-1.5-1.6-2.6V70.1z"/>
<path class="elementor-shape-fill" opacity="0.6" d="M222.4,53.8c1-0.5,1.6-1.5,1.6-2.6V40.8v-3.1c0-1.1-0.6-2.2-1.6-2.6c-2.2-1-4.4,0.6-4.4,2.7v3.1v10.3
	C218,53.2,220.2,54.8,222.4,53.8z"/>
<path class="elementor-shape-fill" opacity="0.6" d="M210,48.7L210,48.7c1.4,0,2.6-0.9,2.9-2.2c0-0.2,0.1-0.4,0.1-0.6v-5v-8.5v-0.6v-3.4c0-1.5-1.2-2.8-2.8-2.8
	h-0.5c-1.5,0-2.8,1.2-2.8,2.8v3.4v0.6V41v5c0,0.2,0,0.4,0.1,0.6C207.4,47.8,208.6,48.7,210,48.7z"/>
<path class="elementor-shape-fill" opacity="0.6" d="M197.5,44.2c0.2,0,0.3,0,0.5,0l0,0c0.2,0,0.3,0,0.5,0c1.4,0.2,2.5,1.5,2.5,3v-5.9v-8.2c0-0.6-0.2-1.1-0.4-1.5
	c-0.5-0.9-1.5-1.5-2.6-1.5l0,0c-1.1,0-2.1,0.6-2.6,1.5c-0.3,0.5-0.4,1-0.4,1.5v8.2v5.9C195,45.7,196.1,44.4,197.5,44.2z"/>
<path class="elementor-shape-fill" opacity="0.6" d="M211.4,80.3c1-0.5,1.6-1.5,1.6-2.6V59.9v-3.1v-1.3c0-1.1-0.6-2.2-1.6-2.6c-2.2-1-4.4,0.6-4.4,2.7v1.3v12.5
	v8.4C207,79.7,209.2,81.3,211.4,80.3z"/>
<path class="elementor-shape-fill" opacity="0.6" d="M209.6,86.8c1.5,0,2.8-1.2,2.8-2.8c0-1.5-1.2-2.8-2.8-2.8c-1.5,0-2.8,1.2-2.8,2.8
	C206.8,85.5,208.1,86.8,209.6,86.8z"/>
<path class="elementor-shape-fill" opacity="0.6" d="M244.4,30.1c1-0.5,1.6-1.5,1.6-2.6V26v-2v-6.5c0-1.1-0.6-2.2-1.6-2.6c-2.2-1-4.4,0.6-4.4,2.7v6.4v2.5v1.1
	C240,29.6,242.2,31.2,244.4,30.1z"/>
<path class="elementor-shape-fill" opacity="0.6" d="M192.9,88.7c-1.5,0-2.8,1.2-2.8,2.8c0,1.5,1.2,2.8,2.8,2.8c1.5,0,2.8-1.2,2.8-2.8
	C195.7,90,194.5,88.7,192.9,88.7z"/>
<circle class="elementor-shape-fill" opacity="0.6" cx="131.8" cy="87" r="2.8"/>
<path class="elementor-shape-fill" opacity="0.6" d="M15,88.7c-1.5,0-2.8,1.2-2.8,2.8c0,1.5,1.2,2.8,2.8,2.8c1.5,0,2.8-1.2,2.8-2.8C17.8,90,16.5,88.7,15,88.7z"/>
<path class="elementor-shape-fill" opacity="0.6" d="M219.1,32c0.5,0.3,1,0.5,1.6,0.5c0.6,0,1.2-0.2,1.6-0.5c0.7-0.5,1.1-1.3,1.1-2.2c0-1.5-1.2-2.8-2.8-2.8
	c-1.5,0-2.8,1.2-2.8,2.8C217.9,30.7,218.4,31.5,219.1,32z"/>
<path class="elementor-shape-fill" opacity="0.6" d="M232,63.8L232,63.8c1.6,0,2.9-1.1,3-2.6c0,0,0-0.1,0-0.1V61v-1.5c0-1.5,1.2-2.8,2.8-2.8h-0.5
	c1.5,0,2.8,1.2,2.8,2.8V61v4c0,0.1,0,0.2,0,0.3c0.2-1.3,1.4-2.3,3-2.3c1.5,0,2.8,1,3,2.3c0-0.1,0-0.2,0-0.3V44.9v-3.3V41
	c0-1.3-0.8-2.5-2-2.8c-2.1-0.6-4,0.8-4,2.5v0.9v2.9v0V50c0,1.5-1.2,2.8-2.8,2.8h0.5c-1.5,0-2.8-1.2-2.8-2.8v-5.5v-2.9v-8.1V33v-1.2
	c0-1.5-1.2-2.8-2.8-2.8h-0.4c-1.5,0-2.8,1.2-2.8,2.8V33v0.6v8.1v19.6c0,0,0,0.1,0,0.1C229.1,62.7,230.4,63.8,232,63.8z"/>
<path class="elementor-shape-fill" opacity="0.6" d="M187.4,36.1L187.4,36.1c1,0,1.9-0.6,2.4-1.4c0.2-0.4,0.4-0.9,0.4-1.4c0-0.5-0.1-0.9-0.3-1.3
	c-0.5-0.9-1.4-1.5-2.5-1.5l0,0c-1.1,0-2,0.6-2.5,1.5c-0.2,0.4-0.3,0.8-0.3,1.3c0,0.5,0.1,1,0.4,1.4
	C185.4,35.5,186.3,36.1,187.4,36.1z"/>
<path class="elementor-shape-fill" opacity="0.6" d="M231.8,95.7h0.5c1.5,0,2.8-1.2,2.8-2.8V81v-8.9v-1.6c0-1.5-1.2-2.8-2.8-2.8h-0.5c-1.5,0-2.8,1.2-2.8,2.8v1.6
	v1.6V93C229,94.5,230.2,95.7,231.8,95.7z"/>
<path class="elementor-shape-fill" opacity="0.6" d="M31.8,52.3h0.4c1.5,0,2.8-1.2,2.8-2.8v-2.3v-5.6c0-0.2,0-0.3,0-0.5c-0.2-1.4-1.5-2.5-3-2.5h0
	c-1.5,0-2.7,1.1-3,2.5c0,0.2,0,0.3,0,0.5v5.6v2.3C29,51.1,30.2,52.3,31.8,52.3z"/>
<path class="elementor-shape-fill" opacity="0.6" d="M54,63.8c1.6,0,2.9-1.1,3-2.6c0,0,0-0.1,0-0.1V61v-1.5c0-1.5,1.2-2.8,2.8-2.8h-0.5c1.5,0,2.8,1.2,2.8,2.8V61
	v11.8c0,0,0,0.1,0,0.1c0.1-1.4,1.4-2.6,3-2.6s2.9,1.1,3,2.6c0,0,0-0.1,0-0.1V41.6v-2.5c0-1.3-0.8-2.4-2-2.8c-2.1-0.6-4,0.8-4,2.5
	v2.7v2.9V50c0,1.5-1.2,2.8-2.8,2.8h0.5c-1.5,0-2.8-1.2-2.8-2.8v-5.5v-2.9v-8.1V33l0-1.1c0-1.3-0.8-2.5-2-2.8c-2.1-0.6-4,0.8-4,2.5
	V33v0.6v8.1v19.6c0,0,0,0.1,0,0.1C51.1,62.7,52.4,63.8,54,63.8z"/>
<path class="elementor-shape-fill" opacity="0.6" d="M53.8,95.7h0.5c1.5,0,2.8-1.2,2.8-2.8V81v-8.9v-1.6c0-1.5-1.2-2.8-2.8-2.8h-0.5c-1.5,0-2.8,1.2-2.8,2.8v1.6
	v1.6V93C51,94.5,52.2,95.7,53.8,95.7z"/>
<path class="elementor-shape-fill" opacity="0.6" d="M42.8,24.7L42.8,24.7c1.2,0,2.2-0.8,2.6-1.8c0.1-0.3,0.2-0.6,0.2-1c0-1.5-1.2-2.8-2.8-2.8l0,0
	c-1.5,0-2.8,1.2-2.8,2.8c0,0.3,0.1,0.7,0.2,1C40.6,23.9,41.6,24.7,42.8,24.7z"/>
<path class="elementor-shape-fill" opacity="0.6" d="M3.9,78.9c1.5,0,2.1-2.8,2.1-2.8v-3V73c0.1-1.6,1.4-2.8,3-2.8l0,0c1.7,0,3,1.3,3,3v4.7c0,0,0,0,0,0l0,5.4
	c0,1.1,0.6,2.2,1.6,2.6c2.2,1,4.4-0.6,4.4-2.7V65.8l0-3.2c0-1.3,0.8-2.4,2-2.8c2.1-0.6,4,0.8,4,2.6V41v-8.4V32v-8.2l0-8.3
	c0-1.3-0.8-2.4-2-2.8c-2.1-0.6-4,0.8-4,2.6v7.2v8.9V32v9.1V47l0,8.1c0,1.1-0.6,2.2-1.6,2.6c-2.2,1-4.4-0.6-4.4-2.7v-0.3v-8.1v0v-5.9
	v0v-3.1l0-0.1c0-1.1-0.6-2-1.5-2.5C8.2,33.9,6,35.6,6,37.7V41v0v18.6c0.6,1.5-0.7,2.6-2.1,2.6c-1.5,0-2.9-2.8-2.9-2.8v16.7
	C1,76.1,2.3,78.9,3.9,78.9z"/>
<path class="elementor-shape-fill" opacity="0.6" d="M157,66.8v-2.3c0-1.5-1.2-2.8-2.8-2.8h-0.5c-1.5,0-2.8,1.2-2.8,2.8v2.3v5.3c0,1.3-0.8,2.4-2,2.8
	c-2.1,0.6-4-0.8-4-2.6v4.4v4.9c0,1.3,0.8,2.4,2,2.8c2.1,0.6,4-0.8,4-2.6v-6.2c0-1.1,0.6-2.2,1.6-2.6c2.2-1,4.4,0.6,4.4,2.7v5.3v7.5
	c0,1.1,0.6,2.2,1.6,2.6c2.2,1,4.4-0.6,4.4-2.7v-7.5v-4c-0.7-1.5,0.6-2.8,2.1-2.8l0,0c1.5,0,2.9,2.8,2.9,2.8v3.8v1.9
	c0,1.1,0.6,2.2,1.6,2.6c2.2,1,4.4-0.6,4.4-2.7v-4.6c0,0,0.7-2.8,2.2-2.8c1.5,0,2.8,2.8,2.8,2.8v5.6v8c0,1.5,1.2,2.8,2.8,2.8h0.4
	c1.5,0,2.8-1.2,2.8-2.8V74.9v-1.1c0,0,0,0,0,0v-0.4c0-1.5,1.2-2.8,2.8-2.8h-0.5c1.5,0,2.8,1.2,2.8,2.8v0.4v1.1v0.1v8.2
	c0,1.3,0.8,2.4,2,2.8c2.1,0.6,4-0.8,4-2.6v-8.8V55.7v-1.4c0,1.8-1.9,3.3-4,2.6c-1.2-0.4-2-1.5-2-2.8v-7.3V41v0v-0.9c0-1.7-1.3-3-3-3
	l0,0c-1.7,0-3,1.3-3,3V41v0v9.8v18.2c0.6,1.5-0.7,2.8-2.2,2.8h0c-1.5,0-2.8-2.8-2.8-2.8V50.8v-3.7v-0.3c0-1.5-1.2-2.8-2.8-2.8
	c-1.5,0-2.2,2.8-2.2,2.8v-0.3v2.6v9.6c0,1.1-0.6,2.2-1.6,2.6c-2.2,1-4.4-0.6-4.4-2.7v-9.2v-3.7V34.2c-0.1-0.9-0.5-1.7-1.2-2.2
	c-0.5-0.4-1.1-0.6-1.7-0.6l0,0c-0.7,0-1.2,0.2-1.7,0.6c-0.6,0.5-0.4,2.2-0.4,2.2v12.1v3.1v19.9c0,1.3-0.8,2.4-2,2.8
	c-2.1,0.6-4-0.8-4-2.6V66.8z M170.7,62.6c1.5,0,2.8,1.2,2.8,2.8c0,1.5-1.2,2.8-2.8,2.8c-1.5,0-2.8-1.2-2.8-2.8
	C167.9,63.9,169.1,62.6,170.7,62.6z"/>
<path class="elementor-shape-fill" opacity="0.6" d="M31.5,85.8L31.5,85.8c1.2,0,2.2-0.8,2.5-1.9V70.8c0-0.2,0-0.5,0.1-0.7c0.3-1.3,1.5-2.2,2.9-2.2
	c1.6,0,3,1.3,3,3c0,0,0.1,3.3,0.1,3.1v4.8c0,1.5,1.3,2.8,3,2.8l0,0c1.7,0,3-1.2,3-2.8v-5.2V41v-8.4V32v-1.3c0-1.5-1.3-2.8-3-2.8l0,0
	c-1.7,0-3,1.2-3,2.8V32v9v20.5c0,1.5-1.2,2.8-2.8,2.8S35,61.6,35,61.6v-2.7v-0.2c0-1.5-1.2-2.8-2.8-2.8h-0.4c-1.5,0-2.8,1.2-2.8,2.8
	c0,0,0,1.3,0,1.3v9.4v13.9C29,84.7,30.1,85.8,31.5,85.8z"/>
<path class="elementor-shape-fill" opacity="0.6" d="M131.7,38.2c1.5,0,2.8-1.3,2.8-2.8v0c0-1.5-1.3-2.8-2.8-2.8c-1.5,0-2.8,1.3-2.8,2.8v0
	C128.9,37,130.2,38.2,131.7,38.2z"/>
<path class="elementor-shape-fill" opacity="0.6" d="M142.9,50.8c1.5,0,2.1,2.8,2.1,2.8v-1.2c0-1,0.5-2,1.3-2.5c2.3-1.4,4.7,0.4,4.7,2.6v3.4c0,0.1,0,0.2,0,0.4
	c0.2,1.5,1.3,2.4,3,2.4h0c1.7,0.1,2.8-1,3-2.4c0-0.1,0-0.2,0-0.4v-6.5v-8v-2.9c0-1.5-1.2-2.8-2.8-2.8h-0.5c-1.5,0-2.8,1.2-2.8,2.8
	v2.8v2.5c0,1.3-0.8,2.4-2,2.8c-2.1,0.6-4-0.8-4-2.6v-3v-2.8c0.7-1.5-0.6-2.8-2.1-2.5h0c-1.5-0.3-2.8,0.9-2.9,2.5V41v12.6
	C140.1,52.1,141.3,50.8,142.9,50.8z"/>
<path class="elementor-shape-fill" opacity="0.6" d="M119.6,87.6c2.2,1,4.4-0.6,4.4-2.7v-6.8v-0.8c-0.6,0.1-0.6,0.3-0.6,0.4c0.2-1.3,1.4-2.4,2.8-2.4
	c1.4,0,2.6,1,2.8,2.4c0-0.1,0.1-0.4,0.1-0.4v0.8v2.1c0,1.3,0.8,2.4,2,2.8c2.1,0.6,4-0.8,4-2.6V58.4V46.2v-1.1c0-1.3-0.8-2.4-2-2.8
	c-2.1-0.6-4,0.8-4,2.6v1.2v1.3v2.3v20c0,1.5-1.3,2.8-2.8,2.8c-1.5,0-2.2-2.8-2.2-2.8v-2.1c0-0.2,0-0.3,0-0.5c-0.2-1.4-1.5-2.5-3-2.5
	s-2.7,1.1-3,2.5c0,0.2,0,0.3,0,0.5v6.7l0,10.6C118,86.1,118.6,87.1,119.6,87.6z"/>
<path class="elementor-shape-fill" opacity="0.6" d="M121,63.8c1.5,0,3-0.9,3-3V50.2v-2.5V45v-4.3v-9.1V31v-0.8c0-1.1-0.6-2.2-1.6-2.6c-2.2-1-4.4,0.6-4.4,2.7V31
	v0.6v9.1v20.1C118,62.7,119.5,63.8,121,63.8z"/>
<path class="elementor-shape-fill" opacity="0.6" d="M75,90.9c2.1,0.6,4-0.8,4-2.6v-1.8v-2.9c0-1.1,0.6-2.2,1.6-2.6c2.2-1,4.4,0.6,4.4,2.7v2.6v5.9v3
	c-0.5,1.5,0.7,2.8,2.3,2.8c1.5,0,2.7-2.8,2.7-2.8v-3v-15V77c0-1.5,1.3-2.8,2.8-2.8s2.8,1.2,2.8,2.8L95,77l0,6.8
	c0,1.1,0.6,2.2,1.6,2.6c2.2,1,4.4-0.6,4.4-2.7V64.6v-0.3c0,0.1,0,0.1,0,0.2c0.1-1.6,1.4-2.8,3-2.8l0,0c1.6,0,2.9,1.3,3,2.8
	c0-0.1,0-0.1,0-0.2v1.1v4.9c0,1.5,1.2,2.8,2.8,2.8h0.4c1.5,0,2.8-1.2,2.8-2.8V40.1v-3.3c0-1.5-1.2-2.8-2.8-2.8h-0.4
	c-1.5,0-2.8,1.2-2.8,2.8v3.8V46v4.1c0,1.7-1.3,3-3,3l0,0c-1.7,0-3-1.3-3-3v-3.4v-5.4v-9.1c0-0.2,0-0.4-0.1-0.6
	c-0.3-1.3-1.5-2.4-2.9-2.4s-2.6,1-2.9,2.4c0,0.2-0.1,0.4-0.1,0.6V41v8.8l0.6,0c0,1.5-1.2,2.8-2.8,2.8S90,49.8,90,49.8V45v-4v-3.3
	c0-1.5-1.2-2.8-2.7-2.8c-1.5,0-2.3,2.8-2.3,2.8v1.9V48v9.3v2.5v0.9v7.4l0,7.7c0,1.1-0.6,2.2-1.6,2.6c-2.2,1-4.4-0.6-4.4-2.7v-6.9
	v-20V41v-2.7c0-1.3-0.8-2.4-2-2.8c-2.1-0.6-4,0.8-4,2.6V41v27.7v6.7l0,12.7C73,89.4,73.8,90.6,75,90.9z M103.8,53.7h0.4
	c1.5,0,2.8,1.2,2.8,2.8v0.4c0,1.5-1.2,2.8-2.8,2.8h-0.4c-1.5,0-2.8-1.2-2.8-2.8v-0.4C101,55,102.2,53.7,103.8,53.7z M90,70.1v-2.4
	v-6.7v-0.8v-0.9v-1.5c0-1,0.5-2,1.3-2.5c2.3-1.5,4.7,0.4,4.7,2.6l0,0v12.3l0,0c0,2.1-2.2,3.7-4.4,2.7c-1-0.5-1.6-1.5-1.6-2.6V70.1z"
	/>
<path class="elementor-shape-fill" d="M853.6,60.9c-2.1,0-3.8-1.7-3.8-3.8c0-2.1,1.7-3.8,3.8-3.8s3.8,1.7,3.8,3.8C857.4,59.2,855.7,60.9,853.6,60.9z"/>
<path class="elementor-shape-fill" d="M920.4,69.2c-2.1,0-3.8-1.7-3.8-3.8c0-2.1,1.7-3.8,3.8-3.8c2.1,0,3.8,1.7,3.8,3.8C924.2,67.5,922.5,69.2,920.4,69.2z"/>
<path class="elementor-shape-fill" d="M839,70.2V57.9c0-1.5,0.8-2.9,2.2-3.5c2.9-1.3,5.8,0.8,5.8,3.6v12.2c0,2.8-2.9,4.9-5.8,3.6C839.8,73.1,839,71.7,839,70.2z"
	/>
<path class="elementor-shape-fill" d="M603.7,60.9c-2.1,0-3.8-1.7-3.8-3.8c0-2.1,1.7-3.8,3.8-3.8s3.8,1.7,3.8,3.8C607.5,59.2,605.8,60.9,603.7,60.9z"/>
<path class="elementor-shape-fill" d="M670.5,69.2c-2.1,0-3.8-1.7-3.8-3.8c0-2.1,1.7-3.8,3.8-3.8s3.8,1.7,3.8,3.8C674.3,67.5,672.6,69.2,670.5,69.2z"/>
<path class="elementor-shape-fill" d="M589,70.2V57.9c0-1.5,0.8-2.9,2.2-3.5c2.9-1.3,5.8,0.8,5.8,3.6v12.2c0,2.8-2.9,4.9-5.8,3.6C589.8,73.2,589,71.7,589,70.2z"
	/>
<path class="elementor-shape-fill" d="M353.9,60.9c-2.1,0-3.8-1.7-3.8-3.8c0-2.1,1.7-3.8,3.8-3.8c2.1,0,3.8,1.7,3.8,3.8C357.6,59.2,355.9,60.9,353.9,60.9z"/>
<path class="elementor-shape-fill" d="M420.6,69.2c-2.1,0-3.8-1.7-3.8-3.8c0-2.1,1.7-3.8,3.8-3.8s3.8,1.7,3.8,3.8C424.4,67.5,422.7,69.2,420.6,69.2z"/>
<path class="elementor-shape-fill" d="M339,70.2V57.9c0-1.5,0.8-2.9,2.2-3.5c2.9-1.3,5.8,0.8,5.8,3.6v12.2c0,2.8-2.9,4.9-5.8,3.6C339.8,73.2,339,71.7,339,70.2z"
	/>
<path class="elementor-shape-fill" d="M987.5,84.7c-1.9,0-3.5-1.6-3.5-3.5l0-10.8c0,0-1.5-1.8-2.5-1.8c-1,0-1.5,1.8-1.5,1.8v3c0,1.5-0.9,3-2.3,3.6
	c-2.9,1.2-5.7-0.9-5.7-3.6V38.2c0,0-0.6-1.8-1.6-1.8c-0.1,0-0.1,0-0.2,0c-0.9,0.1-2.2,1.8-2.2,1.8v22.1c0,1.7-1.2,3.3-2.9,3.6
	c-2.2,0.4-4.1-1.3-4.1-3.4v-4.2c0,0-0.7-1.8-1.7-1.8c-0.1,0-0.1,0-0.2,0c-0.9,0.1-2.1,1.8-2.1,1.8v12.4c0,1.3-0.5,2.5-1.6,3.2
	c-0.7,0.5-1.5,0.7-2.3,0.6c-1.8-0.2-3.1-1.7-3.1-3.5V33.5c0,0-0.1-0.6-0.3-0.9c-0.3-0.5-0.9-0.9-1.5-0.9s-1.2,0.3-1.5,0.9
	c-0.2,0.3,0.4,0.9,0.4,0.9v20.3c0,1.1-0.4,2.1-1.1,2.9c-1,1-2.1,1.4-3.3,1.2c-2-0.2-3.5-2-3.5-4.1V40.2c0,0-1-1.8-1.9-1.8
	s-2.1,1.8-2.1,1.8V69c0,1.5-0.8,2.9-2.2,3.5c-2.9,1.3-5.8-0.8-5.8-3.6v-22c0,0-0.1-1.8-1.1-1.8c-0.1,0-0.1,0-0.2,0
	c-0.9,0.1-1.7,1.8-1.7,1.8v11.4c0,2.2-1.8,4-4,4c-0.1,0-0.3,0-0.5,0c-2-0.2-3.5-2-3.5-4.1v-24c0,0,0.3-1.1-0.1-1.4
	c-0.3-0.3-0.7-0.4-1.1-0.4s-0.8,0.1-1.1,0.4c-0.4,0.3-0.7,1.4-0.7,1.4v34.6c0,1.3-0.5,2.5-1.6,3.2c-0.7,0.5-1.5,0.7-2.3,0.6
	c-1.8-0.2-3.1-1.7-3.1-3.5V64c0,0-1.3-1.8-2.3-1.8c-1,0-1.7,1.8-1.7,1.8v8.1c0,1.1-0.4,2.2-1.2,3c-1,1-2.1,1.4-3.3,1.2
	c-2-0.2-3.5-2-3.5-4.1V51.7c0-1.6,1-3.2,2.6-3.7c0.6-0.2,1.3-0.3,1.9-0.2c2.1,0.2,3.5,1.9,3.5,4.1v3.6c0,0,0.8,1.8,1.7,1.8
	c0.9,0,1.8-0.5,2.3-1.8V38.2c-0.5-1-1.3-1.8-2.3-1.8c-1,0-1.7,1.8-1.7,1.8v5.3c0,1.3-0.5,2.5-1.6,3.3c-0.7,0.5-1.5,0.7-2.3,0.6
	c-1.8-0.2-3.1-1.7-3.1-3.5v-5.6c0,0-1.5-1.8-2.4-1.8c-1,0-1.6,1.8-1.6,1.8v20.1c0,2.2-1.8,4-4,4c-0.1,0-0.3,0-0.5,0
	c-2-0.2-3.5-2-3.5-4.1V45c0,0-0.6-1.8-1.6-1.8c-0.1,0-0.1,0-0.2,0c-0.9,0.1-2.2,1.8-2.2,1.8v24.7c0,0-1,3.8-3.1,3.8
	c-0.1,0-0.3,0-0.4,0c-1.9-0.2-3.4-1.9-3.4-3.8c0,0,0-0.7,0-1.3c0-1.3-0.9-1.9-1.8-1.9c-0.9,0-1.3,1.8-1.3,1.8v6.1c0,2.2-1.8,4-4,4
	c-0.1,0-0.3,0-0.5,0c-2-0.2-3.5-2-3.5-4.1V38.2c0,0-0.8-1.8-1.8-1.8c-1,0-1.2,1.8-1.2,1.8v11.6c0,1.5-0.8,2.9-2.2,3.5
	c-2.9,1.3-5.8-0.8-5.8-3.6V32.6c0,0-0.2-0.3-0.2-0.4c-0.2-0.8-0.9-1.4-1.7-1.4s-1.6,0.6-1.7,1.4c0,0.1,0.7,0.4,0.7,0.4l0,17.3
	c0,2-1.5,3.6-3.4,3.8c-0.3,0-0.7,0-1,0c-2-0.2-3.5-2-3.5-4.1V37.7c0,0-1.1-1.8-2-1.8c-0.1,0-0.1,0-0.2,0c-0.9,0.1-1.8,1.8-1.8,1.8
	v36.6c0,2.2-1.8,4-4,4c-0.1,0-0.3,0-0.5,0c-2-0.2-3.5-2-3.5-4.1V38.2c0,0-0.2-1.8-1.2-1.8c-0.1,0-0.1,0-0.2,0
	c-0.9,0.1-1.6,1.8-1.6,1.8v37.3c0,1.9-1.6,3.5-3.5,3.5c-0.1,0-0.3,0-0.4,0c-1.8-0.2-3.1-1.7-3.1-3.5V38.2c0,0-1.3-1.8-2.3-1.8
	c-0.1,0-0.1,0-0.2,0c-0.9,0.1-1.5,1.8-1.5,1.8v11.5c0,1.9-1.4,3.6-3.3,3.7c-2,0.1-3.7-1.5-3.7-3.5V30.6c0,0-1.4-1.8-2.4-1.8
	c-0.1,0-0.1,0-0.2,0c-0.9,0.1-1.6,0.9-1.4,1.8v30.8c-0.2,1,0.6,1.7,1.6,1.7s2.4-1.7,2.4-1.7l0-0.9c0-1.9,1.4-3.6,3.3-3.7
	c2-0.1,3.7,1.5,3.7,3.5v19.4c0,1.9-1.4,3.6-3.3,3.7c-2,0.1-3.7-1.5-3.7-3.5l0-9.6c0,0-1.4-1.8-2.4-1.8c-1,0-1.6,1.8-1.6,1.8v3
	c0,1.5-0.9,3-2.3,3.6c-2.9,1.2-5.7-0.9-5.7-3.6V30.7c0,0-0.5-1.8-1.5-1.8s-2.5,1.8-2.5,1.8v30.6c0,1.3-0.5,2.5-1.6,3.3
	c-0.7,0.5-1.5,0.7-2.3,0.6c-1.8-0.2-3.1-1.7-3.1-3.5v-2.8c0,0-0.7-1.8-1.7-1.8c-1,0-2.3,1.8-2.3,1.8V69c0,1.7-1.2,3.3-2.9,3.6
	c-2.2,0.4-4.1-1.3-4.1-3.4V15.3c0,0-0.8-1.8-1.8-1.8c-0.1,0-0.1,0-0.2,0c-0.9,0.1-1,1.8-1,1.8v38.4c0,2.1-1.5,3.8-3.5,4.1
	c-0.2,0-0.3,0-0.5,0c-2.2,0-4-1.8-4-4V38.2c0,0-0.9-1.8-1.9-1.8c-0.1,0-0.1,0-0.2,0c-0.9,0.1-1.9,1.8-1.9,1.8v20.8
	c0,1.3-0.5,2.6-1.6,3.4c-0.7,0.5-1.5,0.7-2.4,0.6c-0.3,0-0.7-0.1-1-0.3v12.5c0,2.2-1.8,4-4,4c-0.1,0-0.3,0-0.5,0
	c-2-0.2-3.5-2-3.5-4.1V40.1c0,0-0.3-1.8-1.2-1.8c-0.1,0-0.1,0-0.2,0c-0.9,0.1-1.6,1.8-1.6,1.8v9.6c0,1.9-1.4,3.6-3.3,3.7
	c-2,0.1-3.7-1.5-3.7-3.5V30.6c0,0-1.4-1.8-2.4-1.8s-1.8,0.8-1.6,1.8v30.8c-0.1,1,0.7,1.7,1.6,1.7c1,0,2.4-1.7,2.4-1.7l0-0.9
	c0-1.9,1.4-3.6,3.3-3.7c2-0.1,3.7,1.5,3.7,3.5v19.4c0,1.9-1.4,3.6-3.3,3.7c-2,0.1-3.7-1.5-3.7-3.5l0-9.6c0,0-1.4-1.8-2.4-1.8
	c-1,0-1.6,1.8-1.6,1.8v3c0,1.9-1.4,3.6-3.3,3.7c-2,0.1-3.7-1.5-3.7-3.5V38.2c0,0-1.5-1.8-2.5-1.8c-0.1,0-0.1,0-0.2,0
	c-0.9,0.1-1.3,1.8-1.3,1.8v22.1c0,1.5-0.8,2.9-2.2,3.5c-2.9,1.3-5.8-0.8-5.8-3.6v-4c0,0-0.6-1.8-1.6-1.8c-0.1,0-0.1,0-0.2,0
	c-0.9,0.1-2.2,1.8-2.2,1.8v12.4c0,1.3-0.5,2.5-1.6,3.2c-0.7,0.5-1.5,0.7-2.3,0.6c-1.8-0.2-3.1-1.7-3.1-3.5V33.5c0,0,0-0.6-0.2-0.9
	c-0.3-0.5-0.9-0.9-1.5-0.9s-1.2,0.3-1.5,0.9c-0.2,0.3,0.3,0.9,0.3,0.9v20.3c0,1.1-0.4,2.1-1.1,2.9c-1,1-2.1,1.4-3.3,1.2
	c-2-0.2-3.5-2-3.5-4.1V40.2c0,0-0.9-1.8-1.8-1.8s-1.2,1.8-1.2,1.8V69c0,1.5-0.8,2.9-2.2,3.5c-2.9,1.3-5.8-0.8-5.8-3.6v-22
	c0,0-1-1.8-2-1.8c-0.1,0-0.1,0-0.2,0c-0.9,0.1-1.8,1.8-1.8,1.8v11.4c0,2.2-1.8,4-4,4c-0.1,0-0.3,0-0.5,0c-2-0.2-3.5-2-3.5-4.1v-24
	c0,0,0.4-1.1,0-1.4c-0.3-0.3-0.7-0.4-1.1-0.4s-0.8,0.1-1.1,0.4c-0.4,0.3-0.8,1.4-0.8,1.4v34.6c0,1.1-0.4,2.1-1.1,2.9
	c-1,1-2.1,1.4-3.3,1.2c-2-0.2-3.5-2-3.5-4.1V64c0,0-0.2-1.8-1.2-1.8c-1,0-1.8,1.8-1.8,1.8v8.1c0,1.1-0.4,2.2-1.2,3
	c-1,1-2.1,1.4-3.3,1.2c-2-0.2-3.5-2-3.5-4.1V51.7c0-1.6,1-3.2,2.6-3.7c0.6-0.2,1.3-0.3,1.9-0.2c2.1,0.2,3.6,1.9,3.6,4.1v3.6
	c0,0,0.9,1.8,1.8,1.8c0.9,0,1.8-0.5,2.2-1.8V38.2c-0.4-1-1.2-1.8-2.2-1.8c-1,0-1.8,1.8-1.8,1.8v5.3c0,1.3-0.5,2.5-1.6,3.3
	c-0.7,0.5-1.5,0.7-2.3,0.6c-1.8-0.2-3.1-1.7-3.1-3.5v-5.6c0,0-1.3-1.8-2.3-1.8c-1,0-1.7,1.8-1.7,1.8v20.4c0,1.9-1.6,3.5-3.5,3.5
	c-0.1,0-0.3,0-0.4,0c-1.8-0.2-3.1-1.7-3.1-3.5V45c0,0-1.5-1.8-2.5-1.8c-0.1,0-0.1,0-0.2,0c-0.9,0.1-1.3,1.8-1.3,1.8v24.8
	c0,2.1-1.7,3.7-3.7,3.7c-0.1,0-0.3,0-0.4,0c-1.9-0.2-3.3-1.8-3.3-3.8c0,0,0-0.7,0-1.3c0-1.3-0.9-1.9-1.8-1.9c-0.9,0-1.8,0.7-1.8,1.8
	v6.1c0,2.2-1.8,4-4,4c-0.1,0-0.3,0-0.5,0c-2-0.2-3.5-2-3.5-4.1V38.2c0,0-0.7-1.8-1.7-1.8s-2.3,1.8-2.3,1.8v11.6
	c0,1.7-1.2,3.3-2.9,3.6c-2.2,0.4-4.1-1.3-4.1-3.4V32.6c0,0,0-0.3-0.1-0.4c-0.2-0.8-0.9-1.4-1.7-1.4s-1.6,0.6-1.7,1.4
	c0,0.1,0.6,0.4,0.6,0.4l0,17.3c0,2-1.5,3.6-3.4,3.8c-0.3,0-0.7,0-1,0c-2-0.2-3.5-2-3.5-4.1V37.7c0,0-1-1.8-1.9-1.8
	c-0.1,0-0.1,0-0.2,0c-0.9,0.1-1.9,1.8-1.9,1.8v36.6c0,2.2-1.8,4-4,4c-0.1,0-0.3,0-0.5,0c-2-0.2-3.5-2-3.5-4.1V38.2
	c0,0-0.1-1.8-1.1-1.8c-0.1,0-0.1,0-0.2,0c-0.9,0.1-1.7,1.8-1.7,1.8v37c0,2.2-1.8,4-4,4c-0.1,0-0.3,0-0.5,0c-2-0.2-3.5-2-3.5-4.1v-37
	c0,0-0.2-1.8-1.2-1.8c-0.1,0-0.1,0-0.2,0c-0.9,0.1-1.6,1.8-1.6,1.8v11.5c0,1.9-1.4,3.6-3.3,3.7c-2,0.1-3.7-1.5-3.7-3.5V30.6
	c0,0-1.3-1.8-2.3-1.8c-0.1,0-0.1,0-0.2,0c-0.9,0.1-1.6,0.9-1.5,1.8v30.8c0,1,0.7,1.7,1.7,1.7s2.3-1.7,2.3-1.7l0-0.9
	c0-1.9,1.4-3.6,3.3-3.7c2-0.1,3.7,1.5,3.7,3.5v19.4c0,1.9-1.4,3.6-3.3,3.7c-2,0.1-3.7-1.5-3.7-3.5l0-9.6c0,0-1.3-1.8-2.3-1.8
	c-1,0-1.7,1.8-1.7,1.8v3c0,1.9-1.4,3.6-3.3,3.7c-2,0.1-3.7-1.5-3.7-3.5V30.7c0,0-1.4-1.8-2.4-1.8s-1.6,1.8-1.6,1.8v30.5
	c0,1.1-0.4,2.2-1.2,3c-1,1-2.1,1.4-3.3,1.2c-2-0.2-3.5-2-3.5-4.1v-2.6c0,0-0.6-1.8-1.5-1.8c-1,0-2.5,1.8-2.5,1.8V69
	c0,1.7-1.2,3.3-2.9,3.6c-2.2,0.4-4.1-1.3-4.1-3.4V15.3c0,0-0.7-1.8-1.7-1.8c-0.1,0-0.1,0-0.2,0c-0.9,0.1-2.1,1.8-2.1,1.8v38.7
	c0,1.8-1.3,3.4-3.1,3.5c-0.3,0-0.6,0-0.9,0c-1.8-0.3-3-1.9-3-3.7l0-15.7c0,0-0.8-1.8-1.8-1.8c-0.1,0-0.1,0-0.2,0
	c-0.9,0.1-2,1.8-2,1.8v20.8c0,1.3-0.5,2.6-1.6,3.4c-0.7,0.5-1.5,0.7-2.4,0.6c-0.3,0-0.7-0.1-1-0.3v12.5c0,2.2-1.8,4-4,4
	c-0.1,0-0.3,0-0.5,0c-2-0.2-3.5-2-3.5-4.1V40.1c0,0-0.2-1.8-1.1-1.8c-0.1,0-0.1,0-0.2,0c-0.9,0.1-1.7,1.8-1.7,1.8v9.6
	c0,1.5-0.9,3-2.3,3.6c-2.9,1.2-5.7-0.9-5.7-3.6V30.6c0,0-0.3-1.8-1.3-1.8s-1.7,1.8-1.7,1.8v30.8c0,0,0.8,1.7,1.7,1.7
	c1,0,1.3-1.7,1.3-1.7l0-1.8c0-1.5,0.9-3,2.3-3.6c2.9-1.2,5.7,0.9,5.7,3.6v21c0,1.5-0.9,3-2.3,3.6c-2.9,1.2-5.7-0.9-5.7-3.6V70.4
	c0,0-0.3-1.8-1.2-1.8c-1,0-1.8,1.8-1.8,1.8v3c0,1.9-1.4,3.6-3.3,3.7c-2,0.1-3.7-1.5-3.7-3.5V38.2c0,0-1.4-1.8-2.4-1.8
	c-0.1,0-0.1,0-0.2,0c-0.9,0.1-1.4,1.8-1.4,1.8v22.1c0,1.7-1.2,3.3-2.9,3.6c-2.2,0.4-4.1-1.3-4.1-3.4v-4.2c0,0-1.5-1.8-2.5-1.8
	c-0.1,0-0.1,0-0.2,0c-0.9,0.1-1.3,1.8-1.3,1.8v12.6c0,2.2-1.8,4-4,4c-0.1,0-0.3,0-0.5,0c-2-0.2-3.5-2-3.5-4.1V33.5
	c0,0,0.1-0.6-0.1-0.9c-0.3-0.5-0.9-0.9-1.5-0.9c-0.6,0-1.2,0.3-1.5,0.9c-0.2,0.3-0.9,0.9-0.9,0.9v20.7c0,1.9-1.6,3.5-3.5,3.5
	c-0.1,0-0.3,0-0.4,0c-1.8-0.2-3.1-1.7-3.1-3.5V40.2c0,0-0.8-1.8-1.7-1.8s-1.3,1.8-1.3,1.8V69c0,1.5-0.8,2.9-2.2,3.5
	c-2.9,1.3-5.8-0.8-5.8-3.6v-22c0,0-0.9-1.8-1.9-1.8c-0.1,0-0.1,0-0.2,0C425,45.2,425,47,425,47v11.4c0,2.2-1.8,4-4,4
	c-0.1,0-0.3,0-0.5,0c-2-0.2-3.5-2-3.5-4.1v-24c0,0-0.4-1.1-0.9-1.4c-0.3-0.3-0.7-0.4-1.1-0.4s-0.8,0.1-1.1,0.4
	c-0.4,0.3-0.9,1.4-0.9,1.4v34.7c0,2.2-1.8,4-4,4c-0.1,0-0.3,0-0.5,0c-2-0.2-3.5-2-3.5-4.1V64c0,0-0.1-1.8-1.1-1.8
	c-1,0-1.9,1.8-1.9,1.8v8.3c0,2.2-1.8,4-4,4c-0.1,0-0.3,0-0.5,0c-2-0.2-3.5-2-3.5-4.1V51.9c0-1.3,0.6-2.6,1.7-3.4
	c0.8-0.6,1.8-0.8,2.7-0.7c2.1,0.2,3.5,1.9,3.5,4.1v3.6c0,0,1,1.8,1.9,1.8c0.9,0,1.8-0.5,2.1-1.8V38.2c-0.3-1-1.1-1.8-2.1-1.8
	c-1,0-1.9,1.8-1.9,1.8v5.3c0,1.3-0.6,2.6-1.7,3.4c-0.8,0.6-1.8,0.8-2.7,0.7c-2-0.2-3.5-2-3.5-4.1v-5.4c0,0-0.2-1.8-1.2-1.8
	c-1,0-1.8,1.8-1.8,1.8v20.4c0,1.9-1.6,3.5-3.5,3.5c-0.1,0-0.3,0-0.4,0c-1.8-0.2-3.1-1.7-3.1-3.5V45c0,0-1.4-1.8-2.3-1.8
	c-0.1,0-0.1,0-0.2,0c-0.9,0.1-1.4,1.8-1.4,1.8v24.8c0,2.1-1.7,3.7-3.7,3.7c-0.1,0-0.3,0-0.4,0c-1.9-0.2-3.3-1.8-3.3-3.8
	c0,0,0-0.7,0-1.3c0-1.3-0.9-1.9-1.8-1.9c-0.9,0-1.8,0.7-1.8,1.8v6.1c0,2.2-1.8,4-4,4c-0.1,0-0.3,0-0.5,0c-2-0.2-3.5-2-3.5-4.1V38.2
	c0,0-0.6-1.8-1.6-1.8c-1,0-2.4,1.8-2.4,1.8v11.6c0,1.7-1.2,3.3-2.9,3.6c-2.2,0.4-4.1-1.3-4.1-3.4V32.6c0,0,0.1-0.3,0-0.4
	c-0.2-0.8-0.9-1.4-1.7-1.4s-1.6,0.6-1.7,1.4c0,0.1-0.5,0.4-0.5,0.4l0,17.2c0,2.1-1.8,3.9-3.8,3.7c0,0,0,0,0,0
	c-1.8-0.2-3.1-1.7-3.1-3.5V37.7c0,0-0.9-1.8-1.8-1.8c-0.1,0-0.1,0-0.2,0c-0.9,0.1-1,1.8-1,1.8v36.6c0,2.2-1.8,4-4,4
	c-0.1,0-0.3,0-0.5,0c-2-0.2-3.5-2-3.5-4.1V38.2c0,0-1-1.8-2-1.8c-0.1,0-0.1,0-0.2,0c-0.9,0.1-1.8,1.8-1.8,1.8v37c0,2.2-1.8,4-4,4
	c-0.1,0-0.3,0-0.5,0c-2-0.2-3.5-2-3.5-4.1v-37c0,0-0.1-1.8-1.1-1.8c-0.1,0-0.1,0-0.2,0c-0.9,0.1-1.7,1.8-1.7,1.8v11.5
	c0,1.5-0.9,3-2.3,3.6c-2.9,1.2-5.7-0.9-5.7-3.6V30.6c0,0-0.2-1.8-1.2-1.8c-0.1,0-0.1,0-0.2,0c-0.9,0.1-1.6,1.8-1.6,1.8v30.8
	c0,0,0.8,1.7,1.8,1.7c1,0,1.2-1.7,1.2-1.7l0-1.8c0-1.5,0.9-3,2.3-3.6c2.9-1.2,5.7,0.9,5.7,3.6v21c0,1.5-0.9,3-2.3,3.6
	c-2.9,1.2-5.7-0.9-5.7-3.6V70.4c0,0-0.2-1.8-1.2-1.8c-1,0-1.8,1.8-1.8,1.8v3c0,1.9-1.4,3.6-3.3,3.7c-2,0.1-3.7-1.5-3.7-3.5V30.7
	c0,0-1.3-1.8-2.3-1.8c-1,0-1.7,1.8-1.7,1.8v31c0,1.9-1.6,3.5-3.5,3.5c-0.1,0-0.3,0-0.4,0c-1.8-0.2-3.1-1.7-3.1-3.5v-2.8
	c0,0-1.5-1.8-2.4-1.8c-1,0-1.6,1.8-1.6,1.8l0,10.2c0,1.5-0.8,2.9-2.2,3.5c-2.9,1.3-5.8-0.8-5.8-3.6V15.3c0,0-0.6-1.8-1.6-1.8
	c-0.1,0-0.1,0-0.2,0c-0.9,0.1-2.2,1.8-2.2,1.8v38.7c0,1.8-1.3,3.4-3.1,3.5c-0.1,0-0.3,0-0.4,0c-1.9,0-3.5-1.6-3.5-3.5V38.2
	c0,0-0.7-1.8-1.7-1.8c-0.1,0-0.1,0-0.2,0c-0.9,0.1-2.1,1.8-2.1,1.8v21.3c0,2-1.6,3.6-3.6,3.6c-0.1,0-0.3,0-0.4,0
	c-0.3,0-0.7-0.1-1-0.3v12.7c0,1.9-1.6,3.5-3.5,3.5c-0.1,0-0.3,0-0.4,0c-1.8-0.2-3.1-1.7-3.1-3.5V40.1c0,0-1-1.8-2-1.8
	c-0.1,0-0.1,0-0.2,0c-0.9,0.1-1.8,1.8-1.8,1.8v9.6c0,1.5-0.9,3-2.3,3.6c-2.9,1.2-5.7-0.9-5.7-3.6V30.6c0,0-0.2-1.8-1.1-1.8
	c-1,0-1.9,1.8-1.9,1.8v30.8c0,0,0.9,1.7,1.9,1.7s1.1-1.7,1.1-1.7l0-1.8c0-1.5,0.9-3,2.3-3.6c2.9-1.2,5.7,0.9,5.7,3.6v21
	c0,1.5-0.9,3-2.3,3.6c-2.9,1.2-5.7-0.9-5.7-3.6V70.4c0,0-0.2-1.8-1.1-1.8c-1,0-1.9,1.8-1.9,1.8v3c0,1.5-0.9,3-2.3,3.6
	c-2.9,1.2-5.7-0.9-5.7-3.6V38.2c0,0-0.3-1.8-1.3-1.8c-0.1,0-0.1,0-0.2,0c-0.9,0.1-1.5,1.8-1.5,1.8v22.1c0,1.7-1.2,3.3-2.9,3.6
	c-2.2,0.4-4.1-1.3-4.1-3.4v-4.2c0,0-1.4-1.8-2.4-1.8c-0.1,0-0.1,0-0.2,0c-0.9,0.1-1.4,1.8-1.4,1.8v12.6c0,2.2-1.8,4-4,4
	c-0.1,0-0.3,0-0.5,0c-2-0.2-3.5-2-3.5-4.1V33.5c0,0,0.2-0.6,0-0.9c-0.3-0.5-0.9-0.9-1.5-0.9s-1.2,0.3-1.5,0.9c-0.2,0.3-1,0.9-1,0.9
	v20.7c0,1.9-1.6,3.5-3.5,3.5c-0.1,0-0.3,0-0.4,0c-1.8-0.2-3.1-1.7-3.1-3.5V40.2c0,0-0.7-1.8-1.6-1.8s-2.4,1.8-2.4,1.8V69
	c0,1.7-1.2,3.3-2.9,3.6c-2.2,0.4-4.1-1.3-4.1-3.4V46.9c0,0-0.8-1.8-1.8-1.8c-0.1,0-0.1,0-0.2,0c-0.9,0.1-1,1.8-1,1.8v11.4
	c0,2.2-1.8,4-4,4c-0.1,0-0.3,0-0.5,0c-2-0.2-3.5-2-3.5-4.1v-24c0,0-0.3-1.1-0.8-1.4c-0.3-0.3-0.7-0.4-1.1-0.4s-0.8,0.1-1.1,0.4
	c-0.4,0.3,0,1.4,0,1.4v34.7c0,2.2-1.8,4-4,4c-0.1,0-0.3,0-0.5,0c-2-0.2-3.5-2-3.5-4.1V64c0,0-1-1.8-2-1.8c-1,0-2,1.8-2,1.8v8.3
	c0,2.2-1.8,4-4,4c-0.1,0-0.3,0-0.4,0c-2-0.2-3.5-2-3.5-4.1V51.9c0-1.3,0.6-2.6,1.7-3.4c0.8-0.6,1.8-0.8,2.7-0.7
	c2.1,0.2,3.5,1.9,3.5,4.1v3.6c0,0,1.1,1.8,2,1.8c0.9,0,1.8-0.5,2-1.8V38.2c-0.2-1-1-1.8-2-1.8c-1,0-2,1.8-2,1.8v5.3
	c0,1.3-0.6,2.6-1.7,3.4c-0.8,0.6-1.8,0.8-2.7,0.7c-2-0.2-3.5-2-3.5-4.1v-5.4c0,0-0.1-1.8-1.1-1.8c-1,0-1.9,1.8-1.9,1.8v20.1
	c0,2.2-1.8,4-4,4c-0.1,0-0.3,0-0.5,0c-2-0.2-3.5-2-3.5-4.1V45c0,0-0.3-1.8-1.2-1.8c-0.1,0-0.1,0-0.2,0c-0.9,0.1-1.6,1.8-1.6,1.8
	v24.8c0,2.1-1.7,3.7-3.7,3.7c-0.1,0-0.3,0-0.4,0c-1.9-0.2-3.3-1.8-3.3-3.8c0,0,0-0.7,0-1.3c0-1.3-0.9-1.9-1.8-1.9
	c-0.9,0-1.8,0.7-1.8,1.8v6.3c0,1.9-1.6,3.5-3.5,3.5c-0.1,0-0.3,0-0.4,0c-1.8-0.2-3.1-1.7-3.1-3.5V38.2c0,0-1.5-1.8-2.5-1.8
	s-1.5,1.8-1.5,1.8v11.6c0,1.5-0.8,2.9-2.2,3.5c-2.9,1.3-5.8-0.8-5.8-3.6V32.6c0,0,0.2-0.3,0.1-0.4c-0.2-0.8-0.9-1.4-1.7-1.4
	c-0.8,0-1.6,0.6-1.7,1.4c0,0.1-0.7,0.4-0.7,0.4L96,50c0,1.9-1.6,3.5-3.5,3.5c-0.1,0-0.3,0-0.4,0c-1.8-0.2-3.1-1.7-3.1-3.5V37.7
	c0,0-0.7-1.8-1.7-1.8c-0.1,0-0.1,0-0.2,0C86.2,36,86,37.8,86,37.8v36.6c0,2.2-1.8,4-4,4c-0.1,0-0.3,0-0.5,0c-2-0.2-3.5-2-3.5-4.1
	V38.2c0,0-0.9-1.8-1.9-1.8c-0.1,0-0.1,0-0.2,0c-0.9,0.1-0.9,1.8-0.9,1.8v37c0,2.2-1.8,4-4,4c-0.1,0-0.3,0-0.5,0
	c-2-0.2-3.5-2-3.5-4.1v-37c0,0-1-1.8-2-1.8c-0.1,0-0.1,0-0.2,0c-0.9,0.1-1.8,1.8-1.8,1.8l0,11.5c0,1.5-0.9,3-2.3,3.6
	c-2.9,1.2-5.7-0.9-5.7-3.6V30.6c0,0-0.1-1.8-1.1-1.8c-0.1,0-0.1,0-0.2,0C52.8,29,52,30.7,52,30.7v30.8c0,0,0.9,1.7,1.9,1.7
	c1,0,1.1-1.7,1.1-1.7l0-1.8c0-1.5,0.9-3,2.3-3.6c2.9-1.2,5.7,0.9,5.7,3.6l0,21c0,1.5-0.9,3-2.3,3.6c-2.9,1.2-5.7-0.9-5.7-3.6V70.4
	c0,0-0.1-1.8-1.1-1.8c-1,0-1.9,1.8-1.9,1.8v3c0,1.5-0.9,3-2.3,3.6c-2.9,1.2-5.7-0.9-5.7-3.6V30.7c0,0-0.2-1.8-1.2-1.8
	c-1,0-1.8,1.8-1.8,1.8v31c0,1.9-1.6,3.5-3.5,3.5c-0.1,0-0.3,0-0.4,0C35.3,65,34,63.5,34,61.6v-2.8c0,0-1.4-1.8-2.3-1.8
	S30,58.8,30,58.8L30,69c0,1.7-1.2,3.3-2.9,3.6C24.9,73,23,71.3,23,69.2V15.3c0,0-1.5-1.8-2.5-1.8c-0.1,0-0.1,0-0.2,0
	c-0.9,0.1-1.3,1.8-1.3,1.8v38.4c0,2.1-1.5,3.8-3.5,4.1c-0.2,0-0.3,0-0.5,0c-2.2,0-4-1.8-4-4V38.2c0,0-0.6-1.8-1.6-1.8
	c-0.1,0-0.1,0-0.2,0C8.3,36.5,7,38.3,7,38.3l0,20.9c0,0.5-0.1,1.1-0.3,1.5C6.1,62.1,4.9,63,3.5,63c-0.1,0-0.3,0-0.4,0
	C1.4,62.7,0,61,0,59V-0.3h1002v75.4c0,2.1-1.6,3.8-3.5,3.8c-0.1,0-0.3,0-0.4,0c-1.8-0.2-3.1-1.9-3.1-3.8v-35c0,0-1.4-1.8-2.3-1.8
	c-0.1,0-0.1,0-0.2,0c-0.9,0.1-1.5,1.8-1.5,1.8v9.6c0,1.9-1.4,3.6-3.3,3.7c-2,0.1-3.7-1.5-3.7-3.5V30.6c0,0-1.5-1.8-2.5-1.8
	s-1.8,0.8-1.5,1.8v30.8c-0.2,1,0.6,1.7,1.5,1.7c1,0,2.5-1.7,2.5-1.7l0-1.9c0-1.5,0.9-3,2.4-3.5c2.4-0.8,4.6,1.1,4.6,3.6v21.5
	C991,83.2,989.4,84.7,987.5,84.7L987.5,84.7z M870.3,29.6c-0.1,0-0.1,0-0.2,0c-0.9,0.1-1.6,0.9-2.1,1.8v28.3
	c0.5,1.1,1.4,1.8,2.3,1.8c0.4,0,1.8-0.1,1.7-1.8V31.4C872.1,30.4,871.3,29.6,870.3,29.6z M620.4,29.6c-0.1,0-0.1,0-0.2,0
	c-0.9,0.1-1.6,0.9-2.2,1.8v28.3c0.6,1.1,1.6,1.8,2.4,1.8c0.4,0,1.8-0.1,1.6-1.8V31.4C622.2,30.4,621.4,29.6,620.4,29.6z M370.5,29.6
	c-0.1,0-0.1,0-0.2,0c-0.9,0.1-1.6,0.9-1.3,1.8v28.3c-0.2,1.1,0.7,1.8,1.5,1.8c0.4,0,1.8-0.1,2.5-1.8V31.4
	C372.3,30.4,371.5,29.6,370.5,29.6z M120.6,29.6c-0.1,0-0.1,0-0.2,0c-0.9,0.1-1.6,0.9-1.4,1.8v28.3c-0.1,1.1,0.8,1.8,1.6,1.8
	c0.4,0,1.8-0.1,2.4-1.8V31.4C122.4,30.4,121.6,29.6,120.6,29.6z M781.3,40.2c-0.8,0-1.8,0.5-2.3,1.8v7.1c0.6,1,1.4,1.8,2.3,1.8
	s1.8-0.8,1.7-1.8V42C783.1,40.3,781.6,40.2,781.3,40.2z M531.5,40.2c-0.8,0-1.8,0.5-2.5,1.8v7.1c0.7,1,1.5,1.8,2.5,1.8
	c1,0,1.8-0.8,1.5-1.8V42C533.2,40.3,531.8,40.2,531.5,40.2L531.5,40.2z M281.6,40.2c-0.8,0-1.8,0.5-1.6,1.8v7.1
	c-0.2,1,0.6,1.8,1.6,1.8c1,0,1.8-0.8,2.4-1.8V42C283.3,40.3,281.9,40.2,281.6,40.2z M31.7,40.2c-0.8,0-1.8,0.5-1.7,1.8v7.1
	c-0.1,1,0.7,1.8,1.7,1.8s1.8-0.8,2.3-1.8V42C33.4,40.3,32,40.2,31.7,40.2z M959.3,27c-1,0-1.8,0.8-2.3,1.8v14.4
	c0.5,1,1.3,1.8,2.4,1.8c0.9,0,1.7-0.8,1.6-1.7V28.7C961.1,27.8,960.3,27,959.3,27z M709.4,27c-1,0-1.8,0.8-2.4,1.8v14.4
	c0.6,1,1.4,1.8,2.5,1.8c0.9,0,1.7-0.8,1.5-1.7V28.7C711.2,27.8,710.4,27,709.4,27z M459.5,27c-1,0-1.8,0.8-1.5,1.8v14.4
	c-0.3,1,0.6,1.8,1.6,1.8c0.9,0,1.7-0.8,2.4-1.7V28.7C461.3,27.8,460.5,27,459.5,27z M209.6,27c-1,0-1.8,0.8-1.6,1.8v14.4
	c-0.2,1,0.7,1.8,1.7,1.8c0.9,0,1.7-0.8,2.3-1.7V28.7C211.4,27.8,210.6,27,209.6,27z M881.4,33.6c-0.1,0-0.1,0-0.2,0
	c-0.9,0.1-1.6,0.9-1.6,1.8c0,0.7,0.4,1.3,0.9,1.5c0.3,0.1,0.6,0.2,0.9,0.2c1,0,1.8-0.8,1.8-1.8C883.2,34.4,882.4,33.6,881.4,33.6z
	 M631.5,33.6c-0.1,0-0.1,0-0.2,0c-0.9,0.1-1.6,0.9-1.6,1.8c0,0.7,0.4,1.3,0.9,1.5c0.3,0.1,0.6,0.2,0.9,0.2c1,0,1.8-0.8,1.8-1.8
	C633.3,34.4,632.5,33.6,631.5,33.6z M381.7,33.6c-0.1,0-0.1,0-0.2,0c-0.9,0.1-1.6,0.9-1.6,1.8c0,0.7,0.4,1.3,0.9,1.5
	c0.3,0.1,0.6,0.2,0.9,0.2c1,0,1.8-0.8,1.8-1.8C383.4,34.4,382.6,33.6,381.7,33.6z M131.8,33.6c-0.1,0-0.1,0-0.2,0
	c-0.9,0.1-1.6,0.9-1.6,1.8c0,0.7,0.4,1.3,0.9,1.5c0.3,0.1,0.6,0.2,0.9,0.2c1,0,1.8-0.8,1.8-1.8C133.5,34.4,132.7,33.6,131.8,33.6z
	 M937.1,31.5c-0.7,0-1.3,0.4-1.6,1c-0.1,0.3-0.2,0.5-0.2,0.8c0,0.3,0.1,0.6,0.2,0.9c0.3,0.6,0.9,0.9,1.5,0.9s1.2-0.3,1.5-0.9
	c0.2-0.3,0.2-0.6,0.2-0.9c0-0.3-0.1-0.6-0.2-0.8C938.3,31.9,937.7,31.5,937.1,31.5z M687.2,31.5c-0.7,0-1.3,0.4-1.6,1
	c-0.1,0.3-0.2,0.5-0.2,0.8c0,0.3,0.1,0.6,0.2,0.9c0.3,0.6,0.9,0.9,1.5,0.9s1.2-0.3,1.5-0.9c0.2-0.3,0.2-0.6,0.2-0.9
	c0-0.3-0.1-0.6-0.2-0.8C688.4,31.9,687.8,31.5,687.2,31.5z M437.3,31.5c-0.7,0-1.3,0.4-1.6,1c-0.1,0.3-0.2,0.5-0.2,0.8
	c0,0.3,0.1,0.6,0.2,0.9c0.3,0.5,0.9,0.9,1.5,0.9s1.2-0.3,1.5-0.9c0.2-0.3,0.2-0.6,0.2-0.9c0-0.3-0.1-0.6-0.2-0.8
	C438.5,31.9,437.9,31.5,437.3,31.5z M187.4,31.5c-0.7,0-1.3,0.4-1.6,1c-0.1,0.3-0.2,0.5-0.2,0.8c0,0.3,0.1,0.6,0.2,0.9
	c0.3,0.5,0.9,0.9,1.5,0.9s1.2-0.3,1.5-0.9c0.2-0.3,0.2-0.6,0.2-0.9c0-0.3-0.1-0.6-0.2-0.8C188.6,31.9,188,31.5,187.4,31.5z
	 M970.4,28c-1,0-1.8,0.8-1.8,1.8c0,0.6,0.3,1.1,0.7,1.4c0.3,0.2,0.7,0.3,1.1,0.3s0.7-0.1,1.1-0.3c0.5-0.4,0.8-1,0.7-1.7
	c-0.1-0.8-0.8-1.4-1.6-1.5C970.6,28,970.5,28,970.4,28z M720.5,28c-1,0-1.8,0.8-1.8,1.8c0,0.6,0.3,1.1,0.7,1.4
	c0.3,0.2,0.7,0.3,1.1,0.3s0.7-0.1,1.1-0.3c0.5-0.4,0.8-1,0.7-1.7c-0.1-0.8-0.8-1.4-1.6-1.5C720.7,28,720.6,28,720.5,28z M470.6,28
	c-1,0-1.8,0.8-1.8,1.8c0,0.6,0.3,1.1,0.7,1.4c0.3,0.2,0.7,0.3,1.1,0.3c0.4,0,0.7-0.1,1.1-0.3c0.5-0.4,0.8-1,0.7-1.7
	c-0.1-0.8-0.8-1.4-1.6-1.5C470.8,28,470.7,28,470.6,28z M220.7,28c-1,0-1.8,0.8-1.8,1.8c0,0.6,0.3,1.1,0.7,1.4
	c0.3,0.2,0.7,0.3,1.1,0.3c0.4,0,0.7-0.1,1.1-0.3c0.5-0.4,0.8-1,0.7-1.7c-0.1-0.8-0.8-1.4-1.6-1.5C220.9,28,220.8,28,220.7,28z
	 M992.7,16.1c-0.1,0-0.1,0-0.2,0c-0.9,0.1-1.6,0.9-1.5,1.8v9.1c-0.1,1,0.7,1.8,1.7,1.8c0.1,0,0.1,0,0.2,0c0.9-0.1,1.6-0.9,2.1-1.8
	v-9.1C994.4,16.9,993.6,16.1,992.7,16.1z M742.8,16.1c-0.1,0-0.1,0-0.2,0c-0.9,0.1-1.6,0.9-1.6,1.8v9.1c0,1,0.8,1.8,1.8,1.8
	c0.1,0,0.1,0,0.2,0c0.9-0.1,1.6-0.9,2-1.8v-9.1C744.5,16.9,743.7,16.1,742.8,16.1z M492.9,16.1c-0.1,0-0.1,0-0.2,0
	c-0.9,0.1-1.6,0.9-1.7,1.8v9.1c0.1,1,0.9,1.8,1.9,1.8c0.1,0,0.1,0,0.2,0c0.9-0.1,1.6-0.9,1.9-1.8v-9.1
	C494.6,16.9,493.8,16.1,492.9,16.1z M243,16.1c-0.1,0-0.1,0-0.2,0c-0.9,0.1-1.6,0.9-1.8,1.8v9.1c0.2,1,1,1.8,2,1.8
	c0.1,0,0.1,0,0.2,0c0.9-0.1,1.6-0.9,1.8-1.8v-9.1C244.8,16.9,244,16.1,243,16.1z M792.6,20.1c-1,0-1.8,0.7-1.9,1.6
	c0,0.3,0,0.5,0.1,0.8c0.3,0.7,0.9,1.2,1.7,1.2s1.4-0.5,1.7-1.2c0.2-0.5,0.1-1-0.1-1.5C793.8,20.5,793.2,20.1,792.6,20.1z
	 M542.7,20.1c-1,0-1.8,0.7-1.9,1.6c0,0.3,0,0.5,0.1,0.8c0.3,0.7,0.9,1.2,1.7,1.2s1.4-0.5,1.7-1.2c0.2-0.5,0.1-1-0.1-1.5
	C543.9,20.5,543.3,20.1,542.7,20.1z M292.8,20.1c-0.9,0-1.8,0.7-1.9,1.6c0,0.3,0,0.5,0.1,0.8c0.3,0.7,0.9,1.2,1.7,1.2
	s1.4-0.5,1.7-1.2c0.2-0.5,0.1-1-0.1-1.5C294,20.5,293.4,20.1,292.8,20.1z M42.9,20.1c-1,0-1.8,0.7-1.9,1.6c0,0.3,0,0.5,0.1,0.8
	c0.3,0.7,0.9,1.2,1.7,1.2s1.4-0.5,1.7-1.2c0.2-0.5,0.1-1-0.1-1.5C44.1,20.5,43.5,20.1,42.9,20.1z"/>
<path class="elementor-shape-fill" d="M104,60.9c-2.1,0-3.8-1.7-3.8-3.8c0-2.1,1.7-3.8,3.8-3.8c2.1,0,3.8,1.7,3.8,3.8C107.7,59.2,106,60.9,104,60.9z"/>
<path class="elementor-shape-fill" d="M170.7,69.2c-2.1,0-3.8-1.7-3.8-3.8c0-2.1,1.7-3.8,3.8-3.8s3.8,1.7,3.8,3.8C174.5,67.5,172.8,69.2,170.7,69.2z"/>
<path class="elementor-shape-fill" d="M89,70.2V57.9c0-1.5,0.8-2.9,2.2-3.5C94.1,53,97,55.2,97,58v12.2c0,2.8-2.9,4.9-5.8,3.6C89.8,73.2,89,71.7,89,70.2z"/>
</svg>
