<svg xmlns="http://www.w3.org/2000/svg" viewBox="0 0 1000 100" preserveAspectRatio="none">
<g>
	<path class="elementor-shape-fill" d="M920.5-93.9c4.6,0.4,5.2-5.5-0.4-4.1C916.4-97,917.9-94.1,920.5-93.9z"/>
	<path class="elementor-shape-fill" d="M829.4-92.6c4.6,0.4,5.2-5.5-0.5-4.1C825.3-95.8,826.8-92.9,829.4-92.6z"/>
	<path class="elementor-shape-fill" d="M739.2-91.1c3.5-0.3,3.9-5.7-1.4-4.4C733.8-94.4,736.1-90.8,739.2-91.1z"/>
	<path class="elementor-shape-fill" d="M648.1-89.8c3.5-0.3,3.8-5.7-1.4-4.4C642.8-93.2,644.8-89.6,648.1-89.8z"/>
	<path class="elementor-shape-fill" d="M985.2-87c6-0.1,6.2-9.1-2.3-6.6C976.8-91.8,982.1-86.9,985.2-87z"/>
	<path class="elementor-shape-fill" d="M557-88.5c3.5-0.3,3.8-5.7-1.4-4.4C551.8-91.9,553.7-88.3,557-88.5z"/>
	<path class="elementor-shape-fill" d="M894.1-85.7c6.1-0.1,6.2-9.1-2.3-6.6C885.7-90.5,891-85.7,894.1-85.7z"/>
	<path class="elementor-shape-fill" d="M465.9-87.3c3.6-0.2,4.2-5.3-0.9-4.4C459.8-90.8,463.5-87.1,465.9-87.3z"/>
	<path class="elementor-shape-fill" d="M803-84.5c6.1-0.1,6.2-9.1-2.3-6.6C794.6-89.2,799.9-84.4,803-84.5z"/>
	<path class="elementor-shape-fill" d="M377.1-86.7c2.2-1.8-0.1-4.3-3.2-3.8C367.4-89.3,374.3-84.3,377.1-86.7z"/>
	<path class="elementor-shape-fill" d="M711.9-83.2c6.1-0.1,6.2-9.1-2.3-6.6C703.5-88,708.8-83.2,711.9-83.2z"/>
	<path class="elementor-shape-fill" d="M285.6-85.1c3-1.6,0.5-4.6-2.7-4.1C276.7-88.1,282.5-83.5,285.6-85.1z"/>
	<path class="elementor-shape-fill" d="M620.8-82c6.1-0.1,6.2-9-2.3-6.6C612.4-86.7,617.7-81.9,620.8-82z"/>
	<path class="elementor-shape-fill" d="M194.4-83.9c2.7-1.4,0.5-4.6-2.7-4.1C185.9-87,191.4-82.2,194.4-83.9z"/>
	<path class="elementor-shape-fill" d="M956.5-79.5c9.9,0.9,9.4-10.3-0.5-8.5C949.7-86.7,950-80.1,956.5-79.5z"/>
	<path class="elementor-shape-fill" d="M529.7-80.7c6.1-0.1,6.2-9.1-2.3-6.6C521.3-85.5,526.6-80.7,529.7-80.7z"/>
	<path class="elementor-shape-fill" d="M103.3-82.6c2.6-1.4,0.4-4.8-2.7-4.1C95.1-85.4,100.4-81,103.3-82.6z"/>
	<path class="elementor-shape-fill" d="M873.2-82.3c0.1-3.2-3.6-5.3-8.2-4.4c-3.8,0.7-4.5,2.5-4.6,4.1C860.2-76.7,873-76.8,873.2-82.3z"/>
	<path class="elementor-shape-fill" d="M438.6-79.5c6.1-0.1,6.2-9.1-2.3-6.6C430.1-84.2,435.5-79.4,438.6-79.5z"/>
	<path class="elementor-shape-fill" d="M12.2-81.4c2.6-1.4,0.5-4.8-2.7-4.1C4.1-84.2,9.3-79.7,12.2-81.4z"/>
	<path class="elementor-shape-fill" d="M782.1-81.4c-0.1-3-3.5-4.8-7.7-4.1c-4.1,0.7-4.9,2.4-5,4.1C769-75.4,782.3-75.4,782.1-81.4z"/>
	<path class="elementor-shape-fill" d="M347.5-78.2c6.1-0.1,6.2-9.1-2.3-6.6C339-83,344.4-78.2,347.5-78.2z"/>
	<path class="elementor-shape-fill" d="M691-80.4c-0.4-2.8-3.5-4.4-7.7-3.8c-3.8,0.6-4.8,2.3-5,3.8C677.5-74.4,691.8-73.7,691-80.4z"/>
	<path class="elementor-shape-fill" d="M260.9-79.5c0.9-3.1-2.4-5.1-6.4-4.1C245.2-81.3,258.9-72.6,260.9-79.5z"/>
	<path class="elementor-shape-fill" d="M599.9-79.5c-0.5-2.3-2.6-4-7.3-3.4c-3.6,0.5-5.2,1.9-5.5,3.8C586.2-72.2,601.1-73.2,599.9-79.5z"/>
	<path class="elementor-shape-fill" d="M165.3-75.7c6.2-0.1,5.8-8.5-1.8-6.6C158.6-81.1,159.9-75.6,165.3-75.7z"/>
	<path class="elementor-shape-fill" d="M933.3-72c8-1.4,6.2-11.4-4.1-10C918.4-80.5,923.6-70.3,933.3-72z"/>
	<path class="elementor-shape-fill" d="M508.8-76.7c0.6-3.6-2.9-5.2-6.4-5c-4.9,0.2-6.1,2-6.4,3.8C495.2-72.2,507.8-71.4,508.8-76.7z"/>
	<path class="elementor-shape-fill" d="M75.1-74.5c5.1-0.6,5.2-7.6-1.8-6.6C66.4-80,69.6-73.9,75.1-74.5z"/>
	<path class="elementor-shape-fill" d="M842.2-70.7c3.1-0.5,5.6-3.6,5-6.3c-0.6-2.9-4.1-4.4-9.1-3.8C827.2-79.3,832.5-69,842.2-70.7z"/>
	<path class="elementor-shape-fill" d="M417.6-75.4c0.6-3.8-2.9-5.7-8.2-4.7C395.1-77.4,416-66,417.6-75.4z"/>
	<path class="elementor-shape-fill" d="M751.1-69.5c3.2-0.6,5.8-3.7,5-6.6c-0.7-2.6-4.4-4.1-9.1-3.4C736.2-78.1,741.4-67.8,751.1-69.5z"/>
	<path class="elementor-shape-fill" d="M326.5-74.2c0.7-3.9-3.5-5.6-8.2-4.7c-3.3,0.6-4.4,2-4.6,3.4C312.9-68.8,325.7-69.5,326.5-74.2z"/>
	<path class="elementor-shape-fill" d="M660-68.2c3.2-0.6,5.8-3.7,5-6.6c-0.7-2.6-4.4-4-9.1-3.4C645.3-76.9,650.1-66.5,660-68.2z"/>
	<path class="elementor-shape-fill" d="M235.4-72.9c0.6-3.6-2.1-5.8-8.2-4.7c-3.4,0.7-4.5,1.9-4.6,3.8C222.4-67.6,234.6-68.3,235.4-72.9z"/>
	<path class="elementor-shape-fill" d="M993-65.7c3.3,0.3,6.3-0.2,8.7-2.2c0-2.6,0-5.2,0-7.8C990.6-83.8,977.5-67.2,993-65.7z"/>
	<path class="elementor-shape-fill" d="M568.9-66.9c3.1-0.5,5.8-3.5,5-6.6c-0.7-2.6-4.3-4-9.1-3.4C554.4-75.7,559.1-65.2,568.9-66.9z"/>
	<path class="elementor-shape-fill" d="M144.3-71.7c0.6-3.6-2.1-5.8-8.2-4.7c-3.4,0.7-4.5,1.9-4.6,3.8C131.3-66.4,143.5-67,144.3-71.7z"/>
	<path class="elementor-shape-fill" d="M894.6-69.5c1.1,7.1,18.6,6.8,17.8-1.6c-0.4-3.6-4.1-6.6-11.8-5C896.6-75.2,894-73.2,894.6-69.5z"/>
	<path class="elementor-shape-fill" d="M477.8-65.7c8.2-1.5,5.8-11.4-4.1-10C463.6-74.3,467.8-63.9,477.8-65.7z"/>
	<path class="elementor-shape-fill" d="M53.2-70.4c0.7-3.8-3.4-5.6-8.2-4.7c-3.3,0.6-4.5,1.7-4.6,3.8C40.2-65.6,52.4-65.4,53.2-70.4z"/>
	<path class="elementor-shape-fill" d="M803.5-68.2c0.8,5.2,12.4,6.9,16.4,2.8c4.8-4.8-1.3-11-10-9.4C804.9-73.9,803-71.3,803.5-68.2z"/>
	<path class="elementor-shape-fill" d="M387.1-64.5c7.2-1.5,5.6-11.4-4.6-10C372.3-73.1,376.8-62.3,387.1-64.5z"/>
	<path class="elementor-shape-fill" d="M712.4-66.9c1.4,8.9,25.6,4.6,16.4-4.7c-1.4-1.4-5.3-2.7-10-1.9C713.6-72.6,711.8-70.3,712.4-66.9z"/>
	<path class="elementor-shape-fill" d="M296-63.2c7.2-1.5,5.6-11.4-4.5-10C281.4-71.8,285.6-61,296-63.2z"/>
	<path class="elementor-shape-fill" d="M621.3-65.7c1.2,7.4,17.8,5.7,18.2-0.3c0.3-3.9-4.7-7.6-11.8-6.3C622.5-71.4,620.7-69.1,621.3-65.7z"/>
	<path class="elementor-shape-fill" d="M205.8-62.3c7.6-2.5,2.9-10.9-5.5-9.7C189.6-70.4,195.4-58.8,205.8-62.3z"/>
	<path class="elementor-shape-fill" d="M959.3-60.7c1.4,1.1,8.1,3.2,10,3.1c4.3-0.2,9.2-4.5,8.2-8.8c-0.8-3.5-5.1-5.7-10.9-5.3C958.5-71.1,954-64.7,959.3-60.7z"
		/>
	<path class="elementor-shape-fill" d="M530.2-64.5c1.1,7,18.5,6.7,18.2-0.9c-0.1-4-5.3-6.8-11.8-5.6C531.5-70.1,529.7-67.6,530.2-64.5z"/>
	<path class="elementor-shape-fill" d="M103.3-66.3c-1.2,8.8,17.3,6.8,15-0.9c-0.7-2.3-4.5-4.1-9.1-3.4C105.2-70.1,103.6-68.4,103.3-66.3z"/>
	<path class="elementor-shape-fill" d="M867.2-60.4c1.3,1.6,8.4,4.2,10.9,4.1c4.4-0.2,9.1-4.5,8.2-8.8c-0.8-3.6-5-5.7-10.9-5.3C867.9-69.9,863.7-64.8,867.2-60.4z
		"/>
	<path class="elementor-shape-fill" d="M445-58.2c15.2,2.7,15.7-14.3,0.5-11.6C437.4-68.3,437.5-59.5,445-58.2z"/>
	<path class="elementor-shape-fill" d="M24.5-60.1c6.9-3.2,1-10.2-5.9-9.4C6.4-68.1,14.3-55.4,24.5-60.1z"/>
	<path class="elementor-shape-fill" d="M775.2-61.3c0.6,3.1,8.1,6.6,12.3,6.3c4.1-0.3,8.6-4.7,7.7-8.8c-0.8-3.6-5.1-5.7-10.9-5.3
		C777.5-68.7,774.4-65.4,775.2-61.3z"/>
	<path class="elementor-shape-fill" d="M348-61.9c1.2,7.2,18.9,6.7,18.2-1.3c-0.3-3.5-4.4-6.7-11.8-5.3C350.1-67.8,347.3-65.7,348-61.9z"/>
	<path class="elementor-shape-fill" d="M684.1-60.1c0.6,3.1,7.8,6.4,11.8,6.3c6.6-0.2,10.8-8.6,5.9-12.2c-1.7-1.3-5.1-2.1-8.7-1.9
		C686.5-67.5,683.4-64.2,684.1-60.1z"/>
	<path class="elementor-shape-fill" d="M264.1-55.4c13.7,1.3,14.1-14.6-0.9-11.9C254.2-65.6,255.8-56.2,264.1-55.4z"/>
	<path class="elementor-shape-fill" d="M593-60.1c-0.1,4.1,7.1,7.7,11.8,7.5c4-0.1,7.9-3.9,8.2-6.9c0.5-5.1-4.2-7.7-10.9-7.2C595.8-66.2,593.1-63.3,593-60.1z"/>
	<path class="elementor-shape-fill" d="M173.9-54.1c12.8,0.5,12.9-14.6-1.8-11.9C162.7-64.3,164.8-54.5,173.9-54.1z"/>
	<path class="elementor-shape-fill" d="M501.9-59.1c-0.3,4.3,6.8,8,11.8,7.8c3.8-0.1,7.8-3.7,8.2-6.6c0.7-5.1-4.1-8-10.9-7.5C504.9-64.9,502.1-62.1,501.9-59.1z"
		/>
	<path class="elementor-shape-fill" d="M84.2-52.9c11.1-0.4,11.3-14.5-3.2-11.9C71.3-63,73.8-52.5,84.2-52.9z"/>
	<path class="elementor-shape-fill" d="M410.8-58.2c-0.5,4.3,6.5,8.3,11.9,8.1c3.8-0.1,7.8-3.6,8.2-6.6c0.7-5-4.1-8-10.9-7.5C414.2-63.7,411.1-61,410.8-58.2z"/>
	<path class="elementor-shape-fill" d="M319.7-56.9c-0.4,4.2,6.4,8.3,11.8,8.1c4.6-0.1,9.1-4.5,8.2-8.8c-0.7-3.5-5-5.8-10.9-5.3C323.2-62.4,320-59.7,319.7-56.9z"
		/>
	<path class="elementor-shape-fill" d="M230.9-50.7c6.5,5.2,19.5,2.8,17.8-5.6c-0.7-3.5-5-5.8-10.9-5.3C229.4-60.9,225.9-54.7,230.9-50.7z"/>
	<path class="elementor-shape-fill" d="M139.3-49.7c1.5,1.5,7.9,3.6,10.5,3.4c4.5-0.3,8.6-4.6,7.7-8.8c-0.7-3.6-5.1-5.9-10.9-5.3C138.8-59.7,135-53.9,139.3-49.7z
		"/>
	<path class="elementor-shape-fill" d="M48.2-48.5c1.3,1.3,8.2,3.8,10,3.8c4.4,0,9.1-4.8,8.2-9.1c-0.7-3.5-4.8-5.7-10.5-5.3C48-58.6,43.7-52.9,48.2-48.5z"/>
	<path class="elementor-shape-fill" d="M1001.6,58.3c0-4.1,0-8.1,0-12.2C985.8,41.6,984.8,61.9,1001.6,58.3z"/>
	<path class="elementor-shape-fill" d="M916,56.1c2.8-5-2.8-10.2-10.9-9.1c-6,0.9-9.3,4.6-6.8,9.1C900.9,61,913.3,60.7,916,56.1z"/>
	<path class="elementor-shape-fill" d="M813.9,48.3c-13.8,2-5.5,16.4,6.8,12.2C829.4,57.5,825.4,46.6,813.9,48.3z"/>
	<path class="elementor-shape-fill" d="M734.2,58c2-5.6-4.1-9.5-11.4-8.5c-6.8,1-9,5.1-6.8,9.1C719.3,64.5,732.7,62.3,734.2,58z"/>
	<path class="elementor-shape-fill" d="M643.6,58.3c0.9-4.8-4.6-8.3-11.4-7.5c-7.2,0.8-9.6,4.9-7.3,9.1C628.4,66.1,642.6,63.4,643.6,58.3z"/>
	<path class="elementor-shape-fill" d="M541.1,52c-9,0.9-10.7,10.6-1.8,12.5C554.7,68,556.8,50.4,541.1,52z"/>
	<path class="elementor-shape-fill" d="M450,53.3c-9.9,1-9.9,10.7-1.8,12.5C463.6,69.2,465.7,51.6,450,53.3z"/>
	<path class="elementor-shape-fill" d="M969.3,53.3c-11.5,1.6-6.2,12.7,4.6,11C983.1,62.7,980.5,51.7,969.3,53.3z"/>
	<path class="elementor-shape-fill" d="M370.3,61.7c0.7-5.1-5-7.9-11.4-7.2c-9,0.9-10.9,10.4-2.3,12.5C362.3,68.5,369.6,66.3,370.3,61.7z"/>
	<path class="elementor-shape-fill" d="M888.2,58c-1.2-2.3-4.1-4.3-10-3.4c-3.5,0.5-5.8,2.1-6.4,3.4C867.1,68.5,892.8,67,888.2,58z"/>
	<path class="elementor-shape-fill" d="M267.8,55.8c-10.1,1.1-10.3,10.5-1.4,12.5C281,71.6,283.5,54.1,267.8,55.8z"/>
	<path class="elementor-shape-fill" d="M787.1,55.8c-9,1.3-7.1,9.8-1.4,11C799.3,69.5,801.9,53.7,787.1,55.8z"/>
	<path class="elementor-shape-fill" d="M176.7,57c-10.6,1.1-9.1,11.6-0.9,12.8C190.5,72,192.1,55.4,176.7,57z"/>
	<path class="elementor-shape-fill" d="M696,57c-7.4,1-9,9.1-1.4,11C707.7,71.1,710.8,54.9,696,57z"/>
	<path class="elementor-shape-fill" d="M85.6,58.3c-10.6,1.1-9.1,11.6-0.9,12.8C99.4,73.2,101,56.7,85.6,58.3z"/>
	<path class="elementor-shape-fill" d="M604.9,58.3c-8.2,1.1-8.4,10.3,0,11.3C617.4,71,618.8,56.3,604.9,58.3z"/>
	<path class="elementor-shape-fill" d="M513.8,59.5c-9.3,1.3-7.4,10.8,0.9,11.3C526.4,71.5,527.3,57.6,513.8,59.5z"/>
	<path class="elementor-shape-fill" d="M422.7,60.8c-10.6,1.6-5.8,10.9,0.9,11.3C434.9,72.7,436.8,58.7,422.7,60.8z"/>
	<path class="elementor-shape-fill" d="M942.4,60.8c-12,1.8-1.5,13.4,6.4,8.4C954.1,65.9,949.6,59.7,942.4,60.8z"/>
	<path class="elementor-shape-fill" d="M331.6,62c-11.3,1.8-5.4,12.3,3.6,11.3C344.7,72.3,344,60,331.6,62z"/>
	<path class="elementor-shape-fill" d="M851.3,62c-8.4,1.3-6.4,9.9,1.8,9.7C861.7,71.5,862.1,60.4,851.3,62z"/>
	<path class="elementor-shape-fill" d="M240.4,63.3c-11.2,1.8-5.4,12.3,3.6,11.3C253.6,73.5,252.9,61.2,240.4,63.3z"/>
	<path class="elementor-shape-fill" d="M760.2,63.3c-8.1,1.2-6.3,9.9,1.8,9.7C770.3,72.8,771.4,61.6,760.2,63.3z"/>
	<path class="elementor-shape-fill" d="M159.8,69.9c0-3.5-3.9-6.4-10.5-5.3c-3.8,0.6-6.1,2.8-6.4,4.4C141.1,78.5,159.9,77.3,159.8,69.9z"/>
	<path class="elementor-shape-fill" d="M669.1,64.5c-8.1,1.2-6.3,9.9,1.8,9.7C679.3,74.1,680.3,62.8,669.1,64.5z"/>
	<path class="elementor-shape-fill" d="M58.7,65.8c-11.8,1.6-6.2,12.6,3.6,11.3C71.6,75.8,70.1,64.3,58.7,65.8z"/>
	<path class="elementor-shape-fill" d="M578,65.8c-8.9,1.4-5.7,9.8,1.8,9.7C588.8,75.4,588.7,64.2,578,65.8z"/>
	<path class="elementor-shape-fill" d="M486.9,67c-8.9,1.3-5.7,9.8,1.8,9.7C497.7,76.6,497.6,65.4,486.9,67z"/>
	<path class="elementor-shape-fill" d="M395.8,68.3c-8.1,1.2-6.3,9.8,1.8,9.7C406.1,77.9,406.9,66.6,395.8,68.3z"/>
	<path class="elementor-shape-fill" d="M915.5,68.3c-7.9,1.2-4.6,8.5,2.3,7.8C924.5,75.5,923.6,67.1,915.5,68.3z"/>
	<path class="elementor-shape-fill" d="M304.7,69.5c-8.2,1.2-6.3,9.8,1.8,9.7C316,79.1,315.2,67.9,304.7,69.5z"/>
	<path class="elementor-shape-fill" d="M824.4,69.5c-7.6,1.2-4.8,8.5,2.3,7.8C833.3,76.8,832.6,68.3,824.4,69.5z"/>
	<path class="elementor-shape-fill" d="M213.6,70.8c-8.6,1.3-5.6,9.8,1.8,9.7C224.8,80.4,224.4,69.1,213.6,70.8z"/>
	<path class="elementor-shape-fill" d="M733.3,70.8c-7.9,1.3-4.5,8.8,2.7,7.8C742.3,77.8,741.3,69.5,733.3,70.8z"/>
	<path class="elementor-shape-fill" d="M122.5,72c-8.6,1.4-6,10.1,2.3,9.7C133.6,81.3,132.9,70.3,122.5,72z"/>
	<path class="elementor-shape-fill" d="M642.2,72c-7.7,1.3-4.6,8.7,2.7,7.8C651.2,79.1,650.2,70.7,642.2,72z"/>
	<path class="elementor-shape-fill" d="M31.4,73.3c-8,1.4-6.2,10.1,2.3,9.7C42.2,82.6,42.2,71.4,31.4,73.3z"/>
	<path class="elementor-shape-fill" d="M551.6,73.3c-8.6,1.1-4.9,8.6,2.3,7.8C560.2,80.4,559.1,72.3,551.6,73.3z"/>
	<path class="elementor-shape-fill" d="M460.5,74.6c-8.4,1.1-4.7,8.6,2.3,7.8C469.2,81.7,468.1,73.6,460.5,74.6z"/>
	<path class="elementor-shape-fill" d="M979.8,74.9c-6.6,1.2-1.5,5.7,1.4,5.6C986.1,80.4,986.8,73.6,979.8,74.9z"/>
	<path class="elementor-shape-fill" d="M369.4,75.8c-8.5,1.1-4.9,8.6,2.3,7.8C378,83,376.9,74.8,369.4,75.8z"/>
	<path class="elementor-shape-fill" d="M888.6,76.1c-5.8,1.1-2.3,5.7,1.4,5.6C895.1,81.6,895.6,74.9,888.6,76.1z"/>
	<path class="elementor-shape-fill" d="M278.7,77.1c-9.3,0.8-5.2,8.6,1.8,7.8C287,84.2,285.6,76.4,278.7,77.1z"/>
	<path class="elementor-shape-fill" d="M798.5,77.4c-7.3,0.5-3,5.5,0,5.6C803.4,83.2,804.9,76.9,798.5,77.4z"/>
	<path class="elementor-shape-fill" d="M186.2,78.6c-7.5,1.6-3.5,8.2,3.2,7.5C195.8,85.5,195.2,76.8,186.2,78.6z"/>
	<path class="elementor-shape-fill" d="M705.5,78.9c-3.9,1.2-1.7,5.2,1.8,5.3C713.6,84.5,712.9,76.7,705.5,78.9z"/>
	<path class="elementor-shape-fill" d="M95.6,79.9c-8.1,1.3-4.2,8.2,2.7,7.5C105,86.7,103.8,78.5,95.6,79.9z"/>
	<path class="elementor-shape-fill" d="M614.4,80.2c-3.6,1.4-2.1,5.1,1.8,5.3C623.1,85.8,621.1,77.6,614.4,80.2z"/>
	<path class="elementor-shape-fill" d="M4.5,81.1c-8.1,1.3-3.8,8.2,2.7,7.5C13.4,88,13,79.7,4.5,81.1z"/>
	<path class="elementor-shape-fill" d="M523.3,81.4c-3.6,1.4-2.1,5.1,1.8,5.3C532,87.1,530,78.9,523.3,81.4z"/>
	<path class="elementor-shape-fill" d="M432.2,82.7c-3.6,1.4-2.1,5.1,1.8,5.3C440.9,88.3,438.9,80.1,432.2,82.7z"/>
	<path class="elementor-shape-fill" d="M952,83.3c-4,2.6,7.1,3.3,3.6,0C955,82.8,952.9,82.7,952,83.3z"/>
	<path class="elementor-shape-fill" d="M341.1,83.9c-4.7,1.8-0.5,5.2,1.8,5.3C349.7,89.6,348,81.3,341.1,83.9z"/>
	<path class="elementor-shape-fill" d="M860.9,84.6c-3.9,2.7,7.1,3.3,3.6,0C863.9,84,861.8,83.9,860.9,84.6z"/>
	<path class="elementor-shape-fill" d="M250.5,85.2c-3.9,1.2-2.4,5.1,1.4,5.3C258.1,90.8,257.1,83.2,250.5,85.2z"/>
	<path class="elementor-shape-fill" d="M769.8,85.8c-4,2.6,7.2,3.4,3.6,0C772.8,85.3,770.7,85.2,769.8,85.8z"/>
	<path class="elementor-shape-fill" d="M159.4,86.4c-4.9,1.5-1.4,5.9,2.7,5.3C166.5,91.1,165.8,84.5,159.4,86.4z"/>
	<path class="elementor-shape-fill" d="M678.7,87.1c-4,2.6,7.2,3.4,3.6,0C681.7,86.5,679.6,86.4,678.7,87.1z"/>
	<path class="elementor-shape-fill" d="M68.3,87.7c-4.9,1.5-1.4,5.9,2.7,5.3C75.4,92.4,74.6,85.8,68.3,87.7z"/>
	<path class="elementor-shape-fill" d="M587.6,88.3c-3.2,2.2,5.3,3.8,4.1,0.6C591.4,88.4,589.2,87.2,587.6,88.3z"/>
	<path class="elementor-shape-fill" d="M496.4,89.6c-0.9,0.6-0.9,1.5,0,2.2C501,94.9,501.6,86.2,496.4,89.6z"/>
	<path class="elementor-shape-fill" d="M405.3,90.8c-3.5,2.3,6.5,3.8,4.1,0.3C409,90.5,406.6,90,405.3,90.8z"/>
	<path class="elementor-shape-fill" d="M314.2,92.1c-3.5,2.4,6.5,3.8,4.1,0.3C317.9,91.8,315.5,91.2,314.2,92.1z"/>
	<path class="elementor-shape-fill" d="M223.1,93.3c-1,0.7-0.5,2.2,0.5,2.5C229.1,97.7,227.3,90.5,223.1,93.3z"/>
	<path class="elementor-shape-fill" d="M132,94.6c-1,0.7-0.5,2.2,0.5,2.5C138,98.9,136.2,91.8,132,94.6z"/>
	<path class="elementor-shape-fill" d="M44.6,95.5c-0.4-0.2-2.9-0.2-3.6,0.3C36,99.3,50.2,98.3,44.6,95.5z"/>
	<path class="elementor-shape-fill" d="M991.1-52.6c-7.3,2.7-13.3-4.7-18.7-3.1c-2.4,0.7-3.5,7.1-8.7,8.8c-6.5,2.1-15.8-0.7-16.4-5c-0.4-3.3,4-4.1,4.1-7.2
		c0.2-6.6-13.6-8.7-19.1-4.7c-2.5,1.8-4.9,6.7-4.1,8.1c1.5,2.9,10.3,1.7,12.8,5.3c6.9,10.1-19.3,14.3-19.6,3.8
		c-0.1-3.1,5-5.8,4.6-8.1c-0.4-2.2-9.8-5.7-15-5.3c-8.3,0.6-5.9,7-10.9,8.8c-4.5,1.6-7-0.3-10.9-1.6c0.2,0.1-5.6-2.2-7.7-1.6
		c-2.3,0.7-4.1,7.3-8.7,8.8c-6.7,2.1-15.9-0.8-16.4-5c-0.4-3,4-4.8,4.1-7.2c0.1-6.1-12.1-8.6-18.2-5.3c-3,1.6-5.9,7.1-5,8.8
		c0.4,0.7,2.4,1.4,2.7,1.6c3.9,1.4,8.5,1.5,10,3.4c5.4,6.9-6.9,10.6-10.9,10.3c-3.9-0.2-8.4-2.5-8.7-5.9c-0.4-4.7,5.2-5.4,4.6-8.5
		c-0.4-1.8-8.9-5.3-13.7-5.3c-9.6,0-6.8,6.8-12.8,8.8c-6.6,2.2-12.6-4.3-17.8-3.1c-2.8,0.6-3.6,6.1-7.7,8.1
		c-5.4,2.7-17.2,0.3-17.8-4.4c-0.4-3.4,4-3.8,4.1-7.2c0.1-6.3-12-8.3-17.8-5.3c-3.4,1.8-6.4,7-5.5,8.8c1,1.9,11.6,3.5,12.8,5
		c7.6,9.8-19.8,15.5-19.6,3.7c0.1-4.2,5.3-4.3,4.6-7.8c-0.5-2.4-10.5-5.5-14.6-5.3c-8,0.4-6.5,7-11.4,8.8
		c-6.5,2.4-13.8-4.5-18.7-3.1c-2.5,0.7-2.6,5.5-6.4,7.8c-6.1,3.8-18.1,0.5-18.7-4.1c-0.3-2.7,4.1-5.4,4.1-7.2
		c0.1-4.6-6.9-6.8-10.9-6.9c-7.4-0.1-13.9,7.1-12.3,10.3c0,0,12.6,4.9,12.8,5c3.4,4.2-1.4,9.7-7.7,10.3c-5.5,0.5-11.7-1.6-11.8-6.3
		c-0.1-3.5,5.3-4.8,4.6-8.1c-0.6-2.9-13.2-6.9-18.7-4.4c-3.7,1.7-4.3,6.7-7.3,7.8c-6.5,2.4-13.8-4.5-18.7-3.1
		c-2.4,0.7-3.6,6-6.8,7.8c-2,1.1-4.6,1.9-8.7,1.6c-2.5-0.2-9.2-2.1-9.6-5.6c-0.4-3.6,4.1-3.5,4.1-7.2c0-6.7-13.6-8.8-19.1-4.7
		c-2.2,1.6-4.7,6.9-4.1,8.1c0.4,0.8,11.9,4.3,12.3,4.7c4,3.8-1,9.9-6.8,10.6c-6.9,0.8-12.2-2-12.3-6.3c-0.1-3.1,5.5-5.7,5-8.1
		c-0.3-1.3-8.6-5.2-13.2-5.3c-10.8-0.4-8,8.9-15.9,9.4c-7.5,0.5-10.4-5.3-15.9-3.7c-3.2,0.9-2.4,5.4-6.4,7.8
		c-6.4,3.9-18.5,0.2-18.7-4.4c-0.1-2.8,4.1-4.8,4.1-6.9c0-6.6-12.5-8.4-18.2-5c-2.1,1.3-6.1,6.2-5,8.5c0.7,1.3,11.6,4,12.3,4.7
		c4.1,3.8-0.5,9.9-6.8,10.6c-5.8,0.7-12.2-1.5-12.3-6.3c0-2.9,5.5-5.9,5-8.1c-0.2-1.2-8.4-5.1-12.8-5.3c-11-0.6-8.1,7.5-14.6,9.1
		c-7.3,1.8-11.7-4.7-17.3-3.4c-3.3,0.7-2.8,5.4-6.8,7.8c-5.6,3.3-18.2,1-18.7-4.1c-0.3-3.3,4-5.3,4.1-6.9c0.3-6.8-13-9.1-18.7-5.3
		c-2.7,1.8-5.2,7.1-4.6,8.5c0.9,1.8,10.9,3.4,12.3,4.7c9.9,8.8-19.1,16.2-19.1,4.4c0-2.5,5.4-6.3,5-8.1c-0.3-1.5-8.5-5-12.3-5.3
		c-11.1-0.8-8.5,7.5-15,9.1c-6.9,1.7-11.9-4.6-17.3-3.4c-3.2,0.7-3,5.6-6.8,7.8c-5.9,3.5-18.5,0.8-18.7-4.4c-0.1-3,4.3-4.7,4.1-7.2
		c-0.4-5.6-11.9-8.5-18.2-4.7c-2.4,1.5-5.9,6.8-5,8.5c0.9,1.8,10.7,3.3,12.3,4.7c4.3,3.7-1.2,9.9-6.4,10.6
		c-7.8,1.1-12.7-2.1-12.8-6.3c0-2.6,5.2-6,5-7.8c-0.3-2.8-13.2-7.1-19.1-4.7c-3.7,1.5-4.3,7.2-8.2,8.1c-6.8,1.6-12.6-4.9-17.8-3.4
		c-2.4,0.7-2.8,5.4-5.9,7.5c-1.2,0.8-5.8,2.2-8.2,2.2c-3.4,0-10.6-2.5-10.9-5.9c-0.3-3.4,4-4.2,4.1-6.9c0.3-6.4-12.1-9-18.2-5.3
		c-2.7,1.6-5.8,6.8-5,8.4c1,2,10.8,3.3,12.3,4.4c3.7,2.9,0.8,9.2-4.6,10.6c-7.7,2.1-14.5-1.7-14.6-5.9c0-2.6,5.2-5.9,5-7.8
		c-0.4-3.5-13.6-6.5-18.7-4.7c-3.9,1.4-3.5,6.3-7.3,7.8c-7,2.9-13.8-4.7-19.1-3.1c-2.7,0.8-2.3,4.7-5.5,7.2
		c-1.1,0.8-4.9,2.4-7.7,2.5c-3.9,0.1-11.5-2.3-11.8-5.9c-0.3-3.1,4-4,4.1-6.9c0.2-4.1-5.5-7.1-10.5-7.2c-6.9-0.1-14.5,6.9-12.8,10.3
		c0.9,1.7,11,3.5,12.3,4.7c3.1,2.6,1,9.6-5.9,10.6c-6.4,0.9-13.1-1.4-13.2-6.3c0-1.5,1.4-2.8,2.3-4.1c0.5-0.7,3-3,2.7-4.1
		c-0.5-2.6-13.4-6.7-19.1-4.4c-3.2,1.3-2.9,5.8-6.4,7.5c-6.7,3.4-14.6-4.3-19.6-2.8c-2.8,0.8-3.9,9.5-13.2,9.7
		c-3.7,0.1-11.5-2.1-11.8-5.9c-0.3-3.7,4.4-3.6,4.6-6.9c0.1-4-7.4-7.1-10.9-7.2c-6.1-0.1-14.6,6.5-12.8,10.3
		c0.2,0.5,12.9,5.2,12.8,5c3.2,3.5-0.7,9.5-6.4,10.3c-5.9,0.9-13.1-1.1-13.2-6.3c0-2.9,5.6-5.6,5-8.1C14.8-45.2,3.7-47.8-2-47v13.5
		c0,0,0,0,0,0c0.3,0.1,0.7,0.2,1,0.4c0,0,0.1,0,0.1,0c0.3,0.1,0.6,0.3,0.8,0.4c0,0,0,0,0.1,0c0.6,0.3,1,0.7,1.4,1.2c0,0,0,0,0,0
		c0.2,0.2,0.3,0.4,0.5,0.6c0,0.1,0.1,0.1,0.1,0.2c0.1,0.2,0.2,0.3,0.3,0.5c0,0.1,0.1,0.1,0.1,0.2c0.1,0.2,0.1,0.3,0.2,0.5
		c0,0.1,0,0.1,0.1,0.2c0.1,0.2,0.1,0.5,0.1,0.8c0,0.4,0,0.7,0,1c0,0.1,0,0.2-0.1,0.3c0,0.2-0.1,0.5-0.1,0.7c0,0.1-0.1,0.2-0.1,0.3
		c-0.1,0.2-0.2,0.4-0.3,0.6c0,0.1-0.1,0.2-0.1,0.2c-0.1,0.2-0.3,0.4-0.4,0.6c0,0.1-0.1,0.1-0.1,0.2c-0.8,0.9-2,1.6-3.4,2v0v12.1
		c0,0,0,0,0,0c0.2-0.4,0.5-0.8,1-1.1c0.1,0,0.1-0.1,0.2-0.1c0.1,0,0.2-0.1,0.3-0.1c0.1,0,0.2-0.1,0.3-0.1C0-12,0.1-12,0.2-12.1
		c0.1-0.1,0.3-0.1,0.5-0.1c0.1,0,0.2-0.1,0.3-0.1c0.3-0.1,0.6-0.1,0.9-0.2c4.9-0.9,7.3,1.2,6.4,4.4C8.1-7.8,7.9-7.6,7.8-7.3
		c0,0.1-0.1,0.1-0.1,0.2C7.6-7,7.5-6.8,7.4-6.7c0,0.1-0.1,0.1-0.1,0.2C7.1-6.4,6.9-6.2,6.8-6.1c0,0-0.1,0-0.1,0.1
		C6.5-5.9,6.3-5.8,6.2-5.7C6.1-5.7,6-5.7,6-5.7C5.8-5.6,5.6-5.6,5.5-5.5c-0.1,0-0.1,0-0.2,0c-0.2,0-0.4,0.1-0.7,0.1
		c-0.1,0-0.1,0-0.2,0c-0.2,0-0.4,0-0.6,0c-0.1,0-0.2,0-0.2,0C3.5-5.4,3.2-5.5,3-5.5c0,0-0.1,0-0.1,0C2.7-5.6,2.4-5.7,2.2-5.7
		c-0.1,0-0.1,0-0.2-0.1C1.8-5.9,1.6-5.9,1.4-6c0,0-0.1,0-0.1-0.1C0.8-6.3,0.3-6.6-0.1-6.9c0,0,0,0-0.1,0C-0.3-7-0.5-7.2-0.7-7.3
		c0,0,0,0,0,0c-0.4-0.3-0.7-0.7-0.9-1c0,0,0,0,0,0C-1.8-8.6-1.9-8.8-2-9c0,0,0,0,0,0v39.7v0c2.4,0.4,3.9,1.5,4.7,2.8c0,0,0,0,0,0
		c0.3,0.5,0.5,1.1,0.6,1.7c0,0.3,0.1,0.6,0,0.9c0,0,0,0,0,0c0,0.6-0.2,1.2-0.4,1.8c0,0,0,0,0,0c-0.7,1.7-2.4,3.3-4.9,3.8
		c0,0,0,0,0,0v7c1.3-1.2,3.2-2.1,6.5-2.1c4.5,0,12.3,3.2,12.8,5.3c0.7,2.9-4.3,4.7-4.6,7.5c-0.4,5.5,8.8,8.3,15.5,6.3
		c4.5-1.4,8.1-6.7,5.5-10c-1.6-2-11.4-3.2-12.3-4.7c-1.9-3.4,2.3-8.6,6.4-9.7c7-1.9,14.4,1.3,15,5.6c0.3,2.3-4.2,4.4-4.1,7.5
		c0.2,4.4,11.8,8.2,18.7,4.7c3.5-1.8,4-6.9,7.3-7.8c6.2-1.7,11.2,5.2,18.2,3.1c4.1-1.2,3.2-8.9,12.3-9.1c3.6-0.1,12.7,3.1,13.2,5.3
		c0.6,2.4-4.5,5-4.6,7.8c-0.1,5.9,10.4,7.5,15.5,5.9c3.5-1.1,8.4-6.3,5.5-10c-0.6-0.7-3.6-1.5-5.9-2.2c-6.5-2-5.5-0.8-6.4-2.2
		c-1.4-2.1,1.3-6.9,2.3-7.8c5.7-5.3,18.6-2.1,19.1,3.8c0.2,2.3-4.6,5.2-4.6,7.2c0.1,1.6,3.7,3.4,5,4.1c2.4,1.1,5.2,2,8.6,1.9
		c9.4-0.4,8.3-7.9,12.8-9.1c6.2-1.6,11.7,5.1,18.2,3.1c3.5-1,3.2-5.9,6.8-7.8c5.1-2.8,17.9,0.6,18.7,4.1c0.4,1.8-4.4,5.6-4.6,7.5
		c-0.4,5.1,7.3,7.1,11.9,6.9c3-0.2,13.4-4.2,9.1-10.3c-0.8-1.2-7.3-2.9-9.6-3.8c-6.7-2.5-0.6-10.3,5-11.3c6.6-1.1,13,1.2,13.7,5.9
		c0.4,3-4.7,5.3-4.6,7.5c0.1,1.7,3.5,3.4,5,4.1c2.5,1.2,5.8,1.9,8.2,1.9c9.8-0.2,8.5-8.4,13.2-9.4c6.3-1.3,9.3,4.4,16.4,3.8
		c4.6-0.4,5.8-6.5,9.1-8.1c0.9-0.4,3.3-1.2,5-1.3c3.8-0.1,12.6,2.6,13.2,5.3c0.5,2.3-4.3,4.1-4.6,7.5c-0.4,5.6,7.7,7.6,13.7,6.6
		c3.9-0.7,11.5-6.2,6.8-10.6c-1.6-1.5-11.3-3.3-11.8-4.1c-2.6-3.9,2.5-9,6.8-10c6.2-1.5,14.3,1,14.6,5.6c0.2,2.4-4.7,5.5-4.6,7.5
		c0.1,1.1,2.9,3.2,4.6,4.1c4.5,2.2,11.3,2.5,15,0.3c2.1-1.2,4.6-7.4,6.8-7.8c6-1.2,9.7,4.3,16.4,3.8c7.2-0.6,4.3-9.2,14.1-9.4
		c4.9-0.1,12.7,3,13.2,5.3c0.3,1.3-1.9,3.1-2.3,3.8c-0.8,1.3-2.3,2.5-2.3,4.1c0,4.5,6.5,6.9,11.8,6.6c6.6-0.4,12.4-6.6,9.1-10.6
		c-0.9-1.1-12.2-4.3-12.3-4.4c-2.4-3.1,1.7-8.8,6.4-10c6.7-1.8,14.7,1,15,5.6c0.3,4-4.7,4.7-4.6,7.5c0.3,4.9,14.4,7.5,19.6,4.4
		c3.4-2,3.5-7.1,6.8-7.8c6-1.2,10.8,4.5,16.9,3.8c4-0.5,4.8-6.7,8.7-8.5c5.1-2.3,17.6,1.1,18.2,4.4c0.5,2.4-4.6,5.3-4.6,7.8
		c0,3.9,5.1,6.8,11.4,6.6c5.2-0.2,14.1-6.2,9.1-11c-1.5-1.4-10.3-2.2-11.8-4.1c-2.6-3.2,1.9-9.3,7.7-10.3c5.6-1,13.3,1.1,13.7,6
		c0.2,2.8-4.7,4.7-4.6,7.5c0.2,4.5,13.5,7.6,19.1,4.7c3.6-1.9,4.6-7.1,6.8-7.8c5.9-1.8,9.8,4.1,16.9,3.4c5.3-0.5,3.8-5.6,8.2-8.1
		c5.3-3,18.5,0.8,19.1,4.1c0.4,2.2-4.6,4.9-4.6,7.8c0,3.7,5.1,6.6,10.9,6.6c5.6-0.1,14.1-5.5,10-10.6c-0.8-1-11.8-4-12.3-4.7
		c-1.5-2,0.4-5.9,2.3-7.5c5.7-4.9,18.7-2.7,19.1,3.4c0.2,3-4.7,5.2-4.5,7.5c0.2,3.8,8.8,5.9,12.7,5.9c1.9,0,4.6-0.3,5.9-0.9
		c4-1.8,4.9-7.4,7.3-8.1c5.7-1.8,10.2,4,16.8,3.4c5.5-0.5,4.2-5.8,8.7-8.1c5.2-2.7,18.1,0.6,18.7,4.1c0.4,2.3-4.5,5-4.6,7.5
		c-0.1,4.7,6.6,6.8,10.5,6.9c6.9,0.1,14.4-5.8,10.5-10.6c-0.4-0.5-3.5-1.6-6.4-2.5c-5.3-1.7-5.6-1-6.4-2.5c-1.8-3.5,3-8.3,7.3-9.4
		c5.5-1.4,14.2,0.3,14.6,5.6c0.1,2-4.6,6.1-4.6,7.5c0.2,3.4,9.4,6.1,13.7,6c8.6-0.4,8.5-8.5,12.8-9.4c5.8-1.2,10,4,15.9,3.8
		c6.2-0.3,5.2-6.2,8.7-8.1c4.7-2.7,18.4,0.3,19.1,4.1c0.5,2.7-4.4,4.6-4.6,7.2c-0.3,4.4,5.9,7.3,10.9,7.2c6.2-0.1,14-5.6,10-10.7
		c-0.7-0.9-11.5-2.6-12.8-5c-2.8-5.2,6.4-11.3,14.6-9.7c3.4,0.7,7.1,3.2,7.3,6c0.3,3.5-4.7,4.8-4.6,7.5c0.2,3.4,8.5,6.2,13.7,5.9
		c8.4-0.5,8.5-7.9,12.3-9.1c6.2-1.9,9.8,3.8,16.4,3.4c6.7-0.4,4-9.3,14.6-9.4c4.2,0,12.8,2.7,13.2,5.3c0.4,2.5-4.5,4.7-4.6,7.5
		c-0.1,3.9,5.3,6.8,10.5,6.9c7.1,0.1,14.4-5.8,10.5-10.6c-0.1-0.1-12.7-4.9-12.8-5c-1.9-3.5,3.4-8.8,7.7-9.7
		c7.3-1.5,13.8,2.2,14.1,5.9c0.3,4.2-4.7,4.4-4.5,7.5c0.2,3.7,9.2,6.2,13.7,5.9c8.4-0.4,9-7.9,12.3-9.1c4.9-1.8,11.2,3.5,15.5,3.5
		c7.4-0.1,5-5.7,9.6-8.1c6.5-3.5,18.7,1.1,19.1,4.1c0.5,3.3-4.5,3.1-4.6,7.5c-0.1,4.9,6.4,6.9,10.9,6.9c7.3-0.1,13.2-6.8,10-10.6
		c-0.5-0.6-12.8-4.7-12.8-4.7c-2-3.1,2.8-9,7.7-10c5.9-1.3,13.8,1.5,14.1,5.9c0.2,3.5-4.7,4.9-4.6,7.5c0.2,3.9,9.1,6.1,13.2,6
		c9.9-0.3,8.9-8.2,12.8-9.4c5.8-1.7,11.5,5.6,18.7,3.1c4.7-1.7,3.4-7.2,7.3-7.8h0.5v-6.6c-15,5.1-17.4-14.5,0-10.3v-37.6
		c-2.2-0.8-2.3-3.9-0.5-5h0.5v-11.6c-13.2,7-21.6-9.5-8.2-10.9c4-0.5,5.3,0.7,8.2,1.6v-14.7C994.7-61.3,996.1-54.3,991.1-52.6z
		 M12.7,12.3c-2.3-0.2-3.8-2-0.9-3.1C16.4,7.4,17,12.7,12.7,12.3z M23.2,34.5c-8.1,0.3-10.8-8.1-2.7-9.7
		C32.3,22.5,31.7,34.1,23.2,34.5z M32.7-11.5c-9,1.7-13.1-8.2-2.7-8.8C37.2-20.7,39.7-12.9,32.7-11.5z M76.5-32.5
		c1.2-1.6,4-2.9,9.1-2.8c3.9,0.1,7.8,1.8,8.2,5.3C95.1-18.7,69.5-23.1,76.5-32.5z M56.9-27.8c4.8-0.3,9.2,1.6,8.7,5.9
		c-0.8,6.5-15.7,6-15.9-0.6C49.5-25.2,51.1-27.4,56.9-27.8z M49.1,18.8c8.2-0.6,7.6,7.9,0.9,8.1C43.3,27.2,40.8,19.5,49.1,18.8z
		 M60.1,48.3c-11.1-0.1-14.7-11-3.2-12.8C72,33,71.7,48.3,60.1,48.3z M74.2,18.5c-2.3-1.1-2-4.5,1.4-5.3
		C84.6,11.1,80.8,21.7,74.2,18.5z M87.9,40.7c-10.7,0.9-13.8-11.1-1.4-11.6C96.8,28.8,96.9,40,87.9,40.7z M99.2-9.7
		c-1.7,7.9-17.4-2-6.4-4.1C97.8-14.7,99.9-12.6,99.2-9.7z M114.3,33.2c-8.2,0.3-10.9-8.1-2.7-9.7C123.4,21.2,122.7,32.9,114.3,33.2z
		 M123.8-12.8c-9.1,1.7-13-8.2-2.7-8.8C128.3-21.9,130.8-14.1,123.8-12.8z M175.8-36.6c12-0.4,11.2,13.2-1.4,12.2
		C164.6-25.2,163.3-36.2,175.8-36.6z M148-29.1c4.9-0.3,9.8,2,8.7,6.6c-1.5,5.8-15.7,5.2-15.9-1.2C140.6-26.5,142.2-28.7,148-29.1z
		 M140.2,17.6c8.3-0.6,7.5,7.9,0.9,8.1C134.4,26,131.9,18.2,140.2,17.6z M151.2,47c-10.9,0-14.6-10.8-3.6-12.8
		C162.9,31.3,163.1,47.1,151.2,47z M154.4-4.3c-0.2-0.6-0.2-2,2.3-2.8c2.3-0.7,4.1-0.2,5,0.6C165.6-2.5,155.2-0.9,154.4-4.3z
		 M165.3,17.3c-3.1-1.3-1.9-4.7,1.4-5.3C175,10.3,172.4,20.4,165.3,17.3z M179,39.5c-9.6,0.9-14.1-10.5-2.3-11.6
		C187.1,26.9,189.2,38.6,179,39.5z M184.4-8.1c-5.1-0.4-5.9-5.9-0.5-6.9C192.3-16.5,191.9-7.5,184.4-8.1z M194.9,9.8
		c-2.3-0.2-3.8-2-0.9-3.1C198.6,4.8,199.2,10.2,194.9,9.8z M205.4,32c-8.1,0.3-10.8-8-3.2-9.7C214.2,19.5,214.1,31.6,205.4,32z
		 M214.9-14c-9.1,1.7-13.2-8.2-2.7-8.8C219.2-23.2,222.1-15.4,214.9-14z M257.8-33.8c0.6-1.8,3.8-3.8,8.6-4.1c6-0.4,9.2,1.9,9.6,5.3
		C277.1-23.3,254-23,257.8-33.8z M239.1-30.3c5.3-0.3,10.6,3,8.2,7.5c-2.6,4.9-15.3,3.8-15.5-2.2C231.7-27.7,233.3-30,239.1-30.3z
		 M231.3,16.3c8.3-0.6,7.4,7.9,0.9,8.1C225.6,24.7,223,17,231.3,16.3z M242.3,45.7c-10.5,0-14.6-10.8-3.6-12.8
		C254.3,30,254,45.8,242.3,45.7z M245.5-5.6c-0.2-0.7-0.3-2,2.3-2.8c2.6-0.8,4.8-0.2,5.5,1.2C254.9-3.3,246.3-2.4,245.5-5.6z
		 M257.8,10.7c4.2-0.8,5.9,0.7,5.5,3.1C262.1,20.6,248.2,12.6,257.8,10.7z M270.1,38.2c-9.8,0.9-13.8-10.3-2.7-11.6
		C279.2,25.3,279.2,37.4,270.1,38.2z M276-9.3c-4.5-0.2-6.8-5.8-0.9-6.9C284-17.9,282.6-9.1,276-9.3z M296.5,30.7
		c-8,0.4-11-8-3.2-9.7C305.4,18.4,305.1,30.3,296.5,30.7z M305.6-15.3c-8.8,1.3-12.4-8.2-2.3-8.8C310.6-24.5,313.3-16.5,305.6-15.3z
		 M348.9-35c0.5-1.5,3.5-3.6,7.7-4.1c6.5-0.7,10.1,1.8,10.5,5.3C368.2-24.6,345.1-24.2,348.9-35z M330.2-31.6
		c14.6-0.9,7.6,15.2-4.1,9.7C320.8-24.3,322.4-31.1,330.2-31.6z M322.4,15.1c8.3-0.6,7.4,8.4,0,8.1C315.4,23,315.6,15.6,322.4,15.1z
		 M333.4,44.5c-10.8-0.1-14.8-10.8-3.7-12.8C344.7,28.9,345.7,44.6,333.4,44.5z M336.6-7.2c-0.1-0.7-0.4-1.7,2.3-2.5
		c2.3-0.7,4.1-0.3,5,0.6C347.7-5.1,337.1-3.3,336.6-7.2z M345.7,11.6c0.1-0.8,0.5-1.7,3.2-2.2c3.8-0.7,5.1,0.7,5.5,1.6
		C356.4,15.8,344.7,17.2,345.7,11.6z M360.2,37c-9.5,0.3-12.3-10.4-1.8-11.6C370.9,23.9,369.9,36.7,360.2,37z M372.5-12.8
		c-2.9,6.5-16.8-2.3-6.8-4.7C369.9-18.5,374.1-16.3,372.5-12.8z M387.6,29.5c-7.7,0.5-11.2-8-3.2-9.7
		C396.6,17.2,396.1,29,387.6,29.5z M396.7-16.5c-8.8,1.3-12.4-8.2-2.3-8.8C401.7-25.7,404.4-17.7,396.7-16.5z M440-35.6
		c0.5-1.8,2.7-4,6.8-4.7c7-1.2,11,1.9,11.4,5.3C459.3-25.8,437.2-25.9,440-35.6z M415.8-31.6c1.1-0.8,2.6-1.1,5.5-1.3
		c5-0.3,10.2,2.1,8.2,7.2C426.4-17.7,407.1-25.2,415.8-31.6z M413.1,21.6c-6.3-0.5-6.5-7,0-7.8C421.8,12.8,421.6,22.3,413.1,21.6z
		 M424.5,43.2c-9.8,0-15-10.8-3.6-12.8C437.1,27.5,435.9,43.3,424.5,43.2z M429.9-10.9c2.9-0.9,5.2,0,5.5,1.9
		C436.1-2.8,422-8.5,429.9-10.9z M436.8,10.4c0.1-0.7,0.2-1.6,3.2-2.2c2.9-0.6,4.9,0.2,5.5,1.6C447.7,15.2,435.8,15,436.8,10.4z
		 M451.4,35.7c-8.7,0.3-13.1-10.3-1.8-11.6c3.3-0.4,5.8,0.3,7.3,1.3C460.5,27.9,459.5,35.5,451.4,35.7z M463.7-14
		c-3,6.4-16.8-2.3-6.8-4.7C461-19.7,465.3-17.5,463.7-14z M478.2,28.2c-7.7,0.2-10.4-8.1-2.7-9.7C487.9,16,487.1,28,478.2,28.2z
		 M487.8-17.8c-8.8,1.3-12.4-8.2-2.3-8.8C492.8-27,495.5-19,487.8-17.8z M496.4-2.1c-1.3,0.6-3.9-1-1.8-1.9
		C497.3-5.2,497.7-2.7,496.4-2.1z M531.1-37.5c0.5-1.2,3.2-3.5,6.8-4.1c6.9-1.1,11,1.8,11.4,5.3C550.4-26.6,526.8-27.5,531.1-37.5z
		 M512.4-34.1c3.2-0.3,4.2,0,5.5,0.6c4.6,2.3,3.9,9.9-4.5,10C504.9-23.3,501.2-33.2,512.4-34.1z M504.2,20.4c-6.3-0.5-6.5-7,0-7.8
		C512.9,11.5,512.7,21,504.2,20.4z M515.6,42c-11.4-0.1-15.2-13.2,0-13.2C526.9,28.9,527.3,42,515.6,42z M521.1-12.2
		c2.9-0.9,5.5,0.1,5.5,2.2C526.4-4.1,513.5-9.9,521.1-12.2z M542.5,34.5c-8.7,0.3-13.1-10.3-1.8-11.6c3.2-0.4,5.8,0.3,7.3,1.3
		C551.6,26.6,550.6,34.2,542.5,34.5z M554.8-15.3c-3,6.5-16.3-2.5-6.8-4.7C552.1-21,556.4-18.8,554.8-15.3z M569.3,27
		c-7.7,0.2-10.5-8.1-2.7-9.7C578.9,14.8,578.2,26.7,569.3,27z M578.9-19.1c-8.8,1.3-12.4-8.2-2.3-8.8
		C583.9-28.2,586.6-20.2,578.9-19.1z M587.6-3.4c-1.3,0.6-3.9-1-1.8-1.9C588.4-6.4,588.8-3.9,587.6-3.4z M622.2-38.8
		c0.5-1.2,3.2-3.5,6.8-4.1c6.9-1.2,11,1.8,11.4,5.3C641.4-27.9,617.8-28.8,622.2-38.8z M603.5-35.3c2.3-0.2,4.2-0.1,5.9,0.9
		c3.3,2,3.4,8-1.8,9.4C597.3-22.1,590.7-34.2,603.5-35.3z M595.3,11.3c4.5-0.5,9,3,5.9,6.3C595.5,23.6,583.6,12.7,595.3,11.3z
		 M606.7,40.7c-11.1-0.1-15.4-12.9-0.5-13.2C617.5,27.4,618.5,40.8,606.7,40.7z M612.2-13.4c2.7-0.8,5.2,0,5.5,1.9
		C618.4-5.3,604.1-11,612.2-13.4z M633.6,33.2c-10.3,0.3-12.3-10.4-1.8-11.6C643.6,20.3,643.8,32.9,633.6,33.2z M644-15
		c-6.1,2.9-12.4-4.6-5-6.3C645.7-22.7,647.9-16.9,644-15z M660.4,25.7c-7.5,0.2-10.6-8.1-2.7-9.7C669.9,13.5,669.4,25.4,660.4,25.7z
		 M670-20.3c-8.8,1.3-12.3-8.3-2.3-8.8C675-29.4,677.7-21.5,670-20.3z M678.7-4.6c-1.3,0.6-3.9-1-1.8-1.9
		C679.5-7.7,679.9-5.2,678.7-4.6z M720.1-44.1c6-1,11,1.7,11.4,5.3c0.9,9-18.3,8.7-18.7,0.9C712.7-40.6,715-43.3,720.1-44.1z
		 M694.1-36.6c10-0.9,11.4,8.5,4.1,10.3C688.3-23.8,682-35.5,694.1-36.6z M686.4,10.1c5.1-0.5,8.9,3.2,5.9,6.3
		C686.6,22.4,674.6,11.3,686.4,10.1z M698.2,39.5c-11,0.3-15.9-12.3-1.8-13.1C708.9,25.6,709.6,39.2,698.2,39.5z M708.7-12.2
		c-0.8,5.4-13-0.3-5.5-2.5C707-15.8,709-14,708.7-12.2z M724.7,32c-8.9,0.3-13.3-10-2.3-11.6c3.9-0.5,6.2,0.2,7.7,1.3
		C734.6,24.6,731.8,31.8,724.7,32z M727.4-21.6c0.4-0.4,1.5-0.7,2.7-0.9c3.9-0.8,6.6,0.4,6.8,2.8C737.8-12.5,722.6-16.4,727.4-21.6z
		 M751.5,24.5c-8,0.3-10.4-8.2-2.7-9.7C761,12.3,760.4,24.2,751.5,24.5z M765.7-25c-1.2,4.7-11.9,4.5-13.2,0.3
		c-1.1-3.6,1.8-5.3,5.9-5.6C763.2-30.8,766.5-28.5,765.7-25z M769.8-5.9c-1.3,0.6-3.9-1-1.8-1.9C770.6-8.9,771-6.4,769.8-5.9z
		 M810.8-45.4c13.2-2.4,15,10.8,5,12.2C804.5-31.5,799.4-43.3,810.8-45.4z M785.3-37.8c11.5-1.1,10.8,10.1,1.8,10.6
		C778.3-26.7,774.3-36.8,785.3-37.8z M777.5,8.8c5.3-0.6,9.6,4.8,4.6,7.2C775.3,19.2,766.9,9.9,777.5,8.8z M789.3,38.2
		c-10.9,0.3-15.7-11.7-2.7-13.1C800.3,23.6,800.6,37.9,789.3,38.2z M799.4-12.5c-2.3,3.7-11.6-1.5-5-3.4
		C797.3-16.8,801.1-15.1,799.4-12.5z M815.8,30.7c-9,0.3-13-10.1-2.3-11.6c3.5-0.5,6.2,0.2,7.7,1.3C825.6,23.3,823,30.5,815.8,30.7z
		 M828.1-20c-1.3,7.8-17.9-1.5-6.8-3.8C825.4-24.6,828.6-23.1,828.1-20z M842.2,23.2c-7.6,0-10.1-8.1-2.3-9.7
		C851.6,11.1,851.8,23.2,842.2,23.2z M852.2-22.8c-8,1.2-13.3-7.8-2.7-8.8C857.2-32.3,859.3-23.9,852.2-22.8z M860.9-7.2
		c-1.4,0.6-3.9-0.8-2.3-1.9C861-10.7,862.3-7.8,860.9-7.2z M901.9-46.6c13.5-2.3,14.9,11,4.6,12.2C895.3-33.1,890.7-44.7,901.9-46.6
		z M876.4-39.1c10.5-1,11.6,10.1,1.8,10.6C869.4-27.9,865.3-38,876.4-39.1z M868.6,7.6c7.8-0.8,8.5,7.2,1.8,7.8
		C863.6,16,860,8.4,868.6,7.6z M880,37c-11.3,0-14.8-11.5-2.7-13.2C891.6,21.9,890.9,37,880,37z M883.6-13.4c-1.2-1.1-0.7-3,1.8-3.8
		C894.8-19.9,888.7-8.6,883.6-13.4z M906.9,29.5c-9.3,0.3-12.7-10.2-2.3-11.6C917.9,16.1,916.6,29.1,906.9,29.5z M919.2-21.2
		c-1.4,7.9-17.9-1.5-6.8-3.8C917.3-26,919.7-24.3,919.2-21.2z M923.7-0.3c-2.5-0.2-3.4-2.6-0.5-3.4C927.3-4.9,927,0,923.7-0.3z
		 M940.6,18.5c-2.5,5.6-16.1,3.4-14.1-2.8c0.3-1.1,1.2-2.8,4.6-3.4C937.4,11,942.3,14.7,940.6,18.5z M943.3-24.1
		c-8,1.2-13.4-7.8-2.7-8.8C948.2-33.5,950.4-25.1,943.3-24.1z M952-8.4c-1.4,0.6-3.9-0.8-2.3-1.9C952.1-12,953.5-9,952-8.4z
		 M966.6-40.3c9.5-1.5,14.1,8.3,4.6,10.3C960.9-27.8,956.2-38.7,966.6-40.3z M959.7,6.3c7.8-0.7,8.4,7.2,1.8,7.8
		C954.7,14.8,951,7.1,959.7,6.3z M971.6,35.7c-11.1,0.4-15.2-11.3-3.6-13.1C982.8,20.2,982,35.3,971.6,35.7z M981.1-14.7
		c-3.1,3-10.7-2-4.6-3.8C980.7-19.6,983.3-16.7,981.1-14.7z"/>
	<path class="elementor-shape-fill" d="M-2.2-62.9v10C2.2-55.3,2.4-60.7-2.2-62.9z"/>
	<path class="elementor-shape-fill" d="M-2.2,59.4v13C7,71.2,8.9,60.1-2.2,59.4z"/>
</g>
</svg>
